<?xml version="1.0" encoding="UTF-8"?>
<svg baseProfile="full" version="1.1" viewBox="0 0 800 200" xml:space="preserve" xmlns="http://www.w3.org/2000/svg">

 <!-- END OF HEADER -->
<rect width="800" height="200" fill="#fff"> </rect>
<path class="bond-0" d="m127.17 112.03-13.609 7.857" fill="none" stroke="#000" stroke-width="2px"/>
<path class="bond-0" d="m122.77 109.12-9.527 5.501" fill="none" stroke="#000" stroke-width="2px"/>
<path class="bond-1" d="m127.17 112.03v-19.644" fill="none" stroke="#000" stroke-width="2px"/>
<path class="bond-2" d="m120.36 84.526-6.805-3.9287" fill="none" stroke="#000" stroke-width="2px"/>
<path class="bond-2" d="m116.98 88.019-4.764-2.7501" fill="none" stroke="#000" stroke-width="2px"/>
<path class="bond-3" d="m99.949 80.597-6.8048 3.9287" fill="none" stroke="#000" stroke-width="2px"/>
<path class="bond-4" d="m79 86.07-2.168-0.7044" fill="none" stroke="#000" stroke-width="2px"/>
<path class="bond-4" d="m76.832 85.366-2.1681-0.7044" fill="none" stroke="#00f" stroke-width="2px"/>
<path class="bond-5" d="m86.339 92.383v15.715" fill="none" stroke="#000" stroke-width="2px"/>
<path class="bond-5" d="m91.054 94.74v11.001" fill="none" stroke="#000" stroke-width="2px"/>
<path class="bond-6" d="m93.144 115.96 6.8048 3.929" fill="none" stroke="#000" stroke-width="2px"/>
<path class="bond-7" d="m79 114.41-2.168 0.705" fill="none" stroke="#000" stroke-width="2px"/>
<path class="bond-7" d="m76.832 115.12-2.1681 0.704" fill="none" stroke="#00f" stroke-width="2px"/>
<path class="bond-8" d="m61.066 115.38-4.0734-5.606" fill="none" stroke="#00f" stroke-width="2px"/>
<path class="bond-8" d="m56.993 109.78-4.0733-5.607" fill="none" stroke="#000" stroke-width="2px"/>
<path class="bond-9" d="m42.727 97.883h-4.3154" fill="none" stroke="#000" stroke-width="2px"/>
<path class="bond-9" d="m38.411 97.883h-4.3155" fill="none" stroke="#f00" stroke-width="2px"/>
<path class="bond-9" d="m42.727 102.6h-4.3154" fill="none" stroke="#000" stroke-width="2px"/>
<path class="bond-9" d="m38.411 102.6h-4.3155" fill="none" stroke="#f00" stroke-width="2px"/>
<path class="bond-10" d="m52.92 96.312 4.0733-5.6065" fill="none" stroke="#000" stroke-width="2px"/>
<path class="bond-10" d="m56.993 90.705 4.0734-5.6064" fill="none" stroke="#00f" stroke-width="2px"/>
<text x="119.829" y="92.3832" fill="#000000" font-family="sans-serif" font-size="7px"><tspan>C:1</tspan></text>
<text x="99.4147" y="80.5971" fill="#000000" font-family="sans-serif" font-size="7px"><tspan>C:2</tspan></text>
<text x="79.0005" y="92.3832" fill="#000000" font-family="sans-serif" font-size="7px"><tspan>C:3</tspan></text>
<text x="79.0005" y="115.955" fill="#000000" font-family="sans-serif" font-size="7px"><tspan>C:4</tspan></text>
<text x="99.4147" y="127.742" fill="#000000" font-family="sans-serif" font-size="7px"><tspan>C:5</tspan></text>
<text x="53.1768" y="123.24" fill="#0000FF" font-family="sans-serif" font-size="7px"><tspan>NH:6</tspan></text>
<text x="42.7266" y="104.169" fill="#000000" font-family="sans-serif" font-size="7px"><tspan>C:7</tspan></text>
<text x="18.8903" y="104.169" fill="#FF0000" font-family="sans-serif" font-size="7px"><tspan>O:8</tspan></text>
<text x="53.1768" y="85.099" fill="#0000FF" font-family="sans-serif" font-size="7px"><tspan>NH:9</tspan></text>
<text x="70.3745" y="194" fill="#000000" font-family="sans-serif" font-size="12px"><tspan>comp376</tspan></text>
<path class="bond-0" d="m273.61 137.86 1.063-19.609" fill="none" stroke="#000" stroke-width="2px"/>
<path class="bond-0" d="m278.48 135.18 0.744-13.726" fill="none" stroke="#000" stroke-width="2px"/>
<path class="bond-1" d="m273.61 137.86 13.72 8.946" fill="none" stroke="#000" stroke-width="2px"/>
<path class="bond-2" d="m300.69 147.02 6.345-3.219" fill="none" stroke="#000" stroke-width="2px"/>
<path class="bond-2" d="m299.51 142.33 4.442-2.253" fill="none" stroke="#000" stroke-width="2px"/>
<path class="bond-3" d="m314.59 136.15 0.85-15.68" fill="none" stroke="#000" stroke-width="2px"/>
<path class="bond-4" d="m320.52 112.61 4.303-3.472" fill="none" stroke="#000" stroke-width="2px"/>
<path class="bond-4" d="m324.83 109.14 4.304-3.472" fill="none" stroke="#00f" stroke-width="2px"/>
<path class="bond-5" d="m309.63 112.61-7.695-5.017" fill="none" stroke="#000" stroke-width="2px"/>
<path class="bond-5" d="m305.9 115.8-5.386-3.512" fill="none" stroke="#000" stroke-width="2px"/>
<path class="bond-6" d="m288.57 107.38-6.345 3.219" fill="none" stroke="#000" stroke-width="2px"/>
<path class="bond-7" d="m296.97 99.734 2.011-7.4503" fill="none" stroke="#000" stroke-width="2px"/>
<path class="bond-7" d="m298.98 92.284 2.011-7.4502" fill="none" stroke="#00f" stroke-width="2px"/>
<path class="bond-8" d="m268.86 110.4-3.847-2.509" fill="none" stroke="#000" stroke-width="2px"/>
<path class="bond-8" d="m265.01 107.89-3.847-2.508" fill="none" stroke="#00f" stroke-width="2px"/>
<path class="bond-9" d="m247.8 105.17-3.173 1.61" fill="none" stroke="#00f" stroke-width="2px"/>
<path class="bond-9" d="m244.63 106.78-3.173 1.609" fill="none" stroke="#000" stroke-width="2px"/>
<path class="bond-10" d="m255.35 97.523 0.425-7.8401" fill="none" stroke="#00f" stroke-width="2px"/>
<path class="bond-10" d="m255.78 89.683 0.426-7.8401" fill="none" stroke="#000" stroke-width="2px"/>
<path class="bond-11" d="m228.09 108.19-7.695-5.017" fill="none" stroke="#000" stroke-width="2px"/>
<path class="bond-12" d="m250.39 73.986-7.695-5.0169" fill="none" stroke="#000" stroke-width="2px"/>
<path class="bond-13" d="m312.01 80.401 1.81-0.0915" fill="none" stroke="#00f" stroke-width="2px"/>
<path class="bond-13" d="m313.82 80.31 1.81-0.0916" fill="none" stroke="#000" stroke-width="2px"/>
<path class="bond-14" d="m298.88 76.976-4.231-5.2443" fill="none" stroke="#00f" stroke-width="2px"/>
<path class="bond-14" d="m294.65 71.732-4.231-5.2443" fill="none" stroke="#000" stroke-width="2px"/>
<path class="bond-15" d="m330.13 77.073 3.876-5.9443" fill="none" stroke="#000" stroke-width="2px"/>
<path class="bond-15" d="m334 71.129 3.875-5.9443" fill="none" stroke="#f00" stroke-width="2px"/>
<path class="bond-15" d="m326.18 74.498 3.876-5.9442" fill="none" stroke="#000" stroke-width="2px"/>
<path class="bond-15" d="m330.06 68.554 3.875-5.9443" fill="none" stroke="#f00" stroke-width="2px"/>
<path class="bond-16" d="m327.09 83.643 2.704 7.0822" fill="none" stroke="#000" stroke-width="2px"/>
<path class="bond-16" d="m329.8 90.725 2.704 7.0822" fill="none" stroke="#00f" stroke-width="2px"/>
<text x="286.017" y="154.667" fill="#000000" font-family="sans-serif" font-size="7px"><tspan>C:1</tspan></text>
<text x="307.039" y="144.004" fill="#000000" font-family="sans-serif" font-size="7px"><tspan>C:2</tspan></text>
<text x="308.316" y="120.466" fill="#000000" font-family="sans-serif" font-size="7px"><tspan>C:3</tspan></text>
<text x="288.57" y="107.592" fill="#000000" font-family="sans-serif" font-size="7px"><tspan>C:4</tspan></text>
<text x="267.547" y="118.255" fill="#000000" font-family="sans-serif" font-size="7px"><tspan>C:5</tspan></text>
<text x="247.802" y="105.381" fill="#0000FF" font-family="sans-serif" font-size="7px"><tspan>N:6</tspan></text>
<text x="226.779" y="116.044" fill="#000000" font-family="sans-serif" font-size="7px"><tspan>C:7</tspan></text>
<text x="207.033" y="103.17" fill="#000000" font-family="sans-serif" font-size="7px"><tspan>C:8</tspan></text>
<text x="249.078" y="81.8431" fill="#000000" font-family="sans-serif" font-size="7px"><tspan>C:9</tspan></text>
<text x="226.71" y="68.9688" fill="#000000" font-family="sans-serif" font-size="7px"><tspan>C:10</tspan></text>
<text x="292.09" y="84.8338" fill="#0000FF" font-family="sans-serif" font-size="7px"><tspan>N:11</tspan></text>
<text x="315.632" y="83.643" fill="#000000" font-family="sans-serif" font-size="7px"><tspan>C:12</tspan></text>
<text x="328.242" y="63.897" fill="#FF0000" font-family="sans-serif" font-size="7px"><tspan>O:13</tspan></text>
<text x="320.634" y="105.665" fill="#0000FF" font-family="sans-serif" font-size="7px"><tspan>NH:14</tspan></text>
<text x="277.289" y="66.4878" fill="#000000" font-family="sans-serif" font-size="7px"><tspan>C:15</tspan></text>
<text x="270.375" y="194" fill="#000000" font-family="sans-serif" font-size="12px"><tspan>comp386</tspan></text>
<path class="bond-0" d="m490.08 95.34 13.657-8.1419" fill="none" stroke="#000" stroke-width="2px"/>
<path class="bond-1" d="m490.08 95.34 0.275 19.642" fill="none" stroke="#000" stroke-width="2px"/>
<path class="bond-1" d="m494.84 98.22 0.192 13.748" fill="none" stroke="#000" stroke-width="2px"/>
<path class="bond-2" d="m490.08 95.34-13.547-7.5705" fill="none" stroke="#000" stroke-width="2px"/>
<path class="bond-3" d="m497.44 122.84 6.516 3.642" fill="none" stroke="#000" stroke-width="2px"/>
<path class="bond-4" d="m517.58 126.48 7.067-4.213" fill="none" stroke="#000" stroke-width="2px"/>
<path class="bond-4" d="m516.22 121.8 4.947-2.949" fill="none" stroke="#000" stroke-width="2px"/>
<path class="bond-5" d="m538.57 120.61 2.218 0.687" fill="none" stroke="#000" stroke-width="2px"/>
<path class="bond-5" d="m540.79 121.3 2.218 0.686" fill="none" stroke="#00f" stroke-width="2px"/>
<path class="bond-6" d="m531.18 114.41-0.22-15.712" fill="none" stroke="#000" stroke-width="2px"/>
<path class="bond-7" d="m523.87 90.84-6.517-3.6418" fill="none" stroke="#000" stroke-width="2px"/>
<path class="bond-7" d="m520.6 94.409-4.561-2.5493" fill="none" stroke="#000" stroke-width="2px"/>
<path class="bond-8" d="m538.24 92.27 2.115-0.7204" fill="none" stroke="#000" stroke-width="2px"/>
<path class="bond-8" d="m540.36 91.55 2.116-0.7204" fill="none" stroke="#00f" stroke-width="2px"/>
<path class="bond-9" d="m556.16 91.1 4.121 5.5085" fill="none" stroke="#00f" stroke-width="2px"/>
<path class="bond-9" d="m560.28 96.609 4.121 5.5091" fill="none" stroke="#000" stroke-width="2px"/>
<path class="bond-10" d="m574.71 108.3 4.314-0.06" fill="none" stroke="#000" stroke-width="2px"/>
<path class="bond-10" d="m579.02 108.24 4.314-0.06" fill="none" stroke="#f00" stroke-width="2px"/>
<path class="bond-10" d="m574.64 103.59 4.314-0.061" fill="none" stroke="#000" stroke-width="2px"/>
<path class="bond-10" d="m578.96 103.53 4.314-0.06" fill="none" stroke="#f00" stroke-width="2px"/>
<path class="bond-11" d="m564.57 109.98-4.022 5.702" fill="none" stroke="#000" stroke-width="2px"/>
<path class="bond-11" d="m560.55 115.68-4.023 5.703" fill="none" stroke="#00f" stroke-width="2px"/>
<path class="bond-12" d="m462.91 87.77-7.068 4.2132" fill="none" stroke="#000" stroke-width="2px"/>
<path class="bond-13" d="m469.45 79.912-0.22-15.712" fill="none" stroke="#000" stroke-width="2px"/>
<path class="bond-13" d="m464.7 77.622-0.154-10.999" fill="none" stroke="#000" stroke-width="2px"/>
<path class="bond-14" d="m462.14 56.342-6.517-3.6419" fill="none" stroke="#000" stroke-width="2px"/>
<path class="bond-15" d="m475.76 56.342 3.533-2.1066" fill="none" stroke="#000" stroke-width="2px"/>
<path class="bond-15" d="m479.3 54.236 3.534-2.1067" fill="none" stroke="#0c0" stroke-width="2px"/>
<path class="bond-16" d="m442.01 52.701-7.068 4.2133" fill="none" stroke="#000" stroke-width="2px"/>
<path class="bond-16" d="m443.36 57.382-4.947 2.9492" fill="none" stroke="#000" stroke-width="2px"/>
<path class="bond-17" d="m428.4 64.771 0.22 15.712" fill="none" stroke="#000" stroke-width="2px"/>
<path class="bond-18" d="m435.71 88.341 6.517 3.6418" fill="none" stroke="#000" stroke-width="2px"/>
<path class="bond-18" d="m438.99 84.772 4.562 2.5493" fill="none" stroke="#000" stroke-width="2px"/>
<path class="bond-19" d="m449.31 99.84 0.11 7.8566" fill="none" stroke="#000" stroke-width="2px"/>
<path class="bond-19" d="m449.42 107.7 0.11 7.856" fill="none" stroke="#f00" stroke-width="2px"/>
<path class="bond-20" d="m443 123.41-3.533 2.107" fill="none" stroke="#f00" stroke-width="2px"/>
<path class="bond-20" d="m439.46 125.52-3.534 2.107" fill="none" stroke="#000" stroke-width="2px"/>
<path class="bond-21" d="m422.75 135.48-3.534 2.107" fill="none" stroke="#000" stroke-width="2px"/>
<path class="bond-21" d="m419.21 137.59-3.533 2.106" fill="none" stroke="#3cc" stroke-width="2px"/>
<path class="bond-22" d="m431.68 135.48 3.693 6.195" fill="none" stroke="#000" stroke-width="2px"/>
<path class="bond-22" d="m435.37 141.68 3.694 6.195" fill="none" stroke="#3cc" stroke-width="2px"/>
<path class="bond-23" d="m427 127.62-3.693-6.195" fill="none" stroke="#000" stroke-width="2px"/>
<path class="bond-23" d="m423.3 121.43-3.693-6.195" fill="none" stroke="#3cc" stroke-width="2px"/>
<text x="483.071" y="122.839" fill="#000000" font-family="sans-serif" font-size="7px"><tspan>C:1</tspan></text>
<text x="503.648" y="134.338" fill="#000000" font-family="sans-serif" font-size="7px"><tspan>C:2</tspan></text>
<text x="523.895" y="122.268" fill="#000000" font-family="sans-serif" font-size="7px"><tspan>C:3</tspan></text>
<text x="523.565" y="98.6976" fill="#000000" font-family="sans-serif" font-size="7px"><tspan>C:4</tspan></text>
<text x="502.988" y="87.1984" fill="#000000" font-family="sans-serif" font-size="7px"><tspan>C:5</tspan></text>
<text x="542.474" y="91.1004" fill="#0000FF" font-family="sans-serif" font-size="7px"><tspan>NH:6</tspan></text>
<text x="560.001" y="109.975" fill="#000000" font-family="sans-serif" font-size="7px"><tspan>C:7</tspan></text>
<text x="583.306" y="109.645" fill="#FF0000" font-family="sans-serif" font-size="7px"><tspan>O:8</tspan></text>
<text x="543.008" y="129.237" fill="#0000FF" font-family="sans-serif" font-size="7px"><tspan>NH:9</tspan></text>
<text x="459.542" y="87.7698" fill="#000000" font-family="sans-serif" font-size="7px"><tspan>C:10</tspan></text>
<text x="459.212" y="64.1999" fill="#000000" font-family="sans-serif" font-size="7px"><tspan>C:11</tspan></text>
<text x="438.635" y="52.7006" fill="#000000" font-family="sans-serif" font-size="7px"><tspan>C:12</tspan></text>
<text x="418.388" y="64.7713" fill="#000000" font-family="sans-serif" font-size="7px"><tspan>C:13</tspan></text>
<text x="418.717" y="88.3412" fill="#000000" font-family="sans-serif" font-size="7px"><tspan>C:14</tspan></text>
<text x="439.294" y="99.8404" fill="#000000" font-family="sans-serif" font-size="7px"><tspan>C:15</tspan></text>
<text x="439.36" y="123.41" fill="#FF0000" font-family="sans-serif" font-size="7px"><tspan>O:16</tspan></text>
<text x="419.377" y="135.481" fill="#000000" font-family="sans-serif" font-size="7px"><tspan>C:17</tspan></text>
<text x="399.654" y="147.552" fill="#33CCCC" font-family="sans-serif" font-size="7px"><tspan>F:18</tspan></text>
<text x="431.971" y="155.728" fill="#33CCCC" font-family="sans-serif" font-size="7px"><tspan>F:19</tspan></text>
<text x="407.83" y="115.234" fill="#33CCCC" font-family="sans-serif" font-size="7px"><tspan>F:20</tspan></text>
<text x="478.412" y="52.1292" fill="#00CC00" font-family="sans-serif" font-size="7px"><tspan>Cl:21</tspan></text>
<text x="470.375" y="194" fill="#000000" font-family="sans-serif" font-size="12px"><tspan>comp389</tspan></text>
<path class="bond-0" d="m668.24 137.5 1.425-19.581" fill="none" stroke="#000" stroke-width="2px"/>
<path class="bond-0" d="m673.16 134.91 0.997-13.707" fill="none" stroke="#000" stroke-width="2px"/>
<path class="bond-1" d="m668.24 137.5 13.716 9.308" fill="none" stroke="#000" stroke-width="2px"/>
<path class="bond-2" d="m695.09 147.19 6.538-3.166" fill="none" stroke="#000" stroke-width="2px"/>
<path class="bond-2" d="m694.02 142.47 4.577-2.216" fill="none" stroke="#000" stroke-width="2px"/>
<path class="bond-3" d="m709.25 136.54 1.138-15.653" fill="none" stroke="#000" stroke-width="2px"/>
<path class="bond-4" d="m715.73 113.03 4.25-3.302" fill="none" stroke="#000" stroke-width="2px"/>
<path class="bond-4" d="m719.98 109.73 4.25-3.301" fill="none" stroke="#00f" stroke-width="2px"/>
<path class="bond-5" d="m704.89 113.03-7.927-5.379" fill="none" stroke="#000" stroke-width="2px"/>
<path class="bond-5" d="m701.05 116.12-5.548-3.765" fill="none" stroke="#000" stroke-width="2px"/>
<path class="bond-6" d="m683.83 107.27-6.538 3.166" fill="none" stroke="#000" stroke-width="2px"/>
<path class="bond-7" d="m692.31 99.791 2.142-7.3917" fill="none" stroke="#000" stroke-width="2px"/>
<path class="bond-7" d="m694.45 92.4 2.142-7.3917" fill="none" stroke="#00f" stroke-width="2px"/>
<path class="bond-8" d="m664.17 110.06-7.926-5.378" fill="none" stroke="#000" stroke-width="2px"/>
<path class="bond-9" d="m643.11 104.31-6.539 3.166" fill="none" stroke="#000" stroke-width="2px"/>
<path class="bond-10" d="m650.74 96.829 1.139-15.653" fill="none" stroke="#000" stroke-width="2px"/>
<path class="bond-11" d="m646.37 73.319-7.926-5.3787" fill="none" stroke="#000" stroke-width="2px"/>
<path class="bond-12" d="m707.69 80.759 1.819-0.0584" fill="none" stroke="#00f" stroke-width="2px"/>
<path class="bond-12" d="m709.51 80.701 1.819-0.0584" fill="none" stroke="#000" stroke-width="2px"/>
<path class="bond-13" d="m694.68 77.151-4.178-5.3792" fill="none" stroke="#00f" stroke-width="2px"/>
<path class="bond-13" d="m690.5 71.771-4.179-5.3791" fill="none" stroke="#000" stroke-width="2px"/>
<path class="bond-14" d="m725.91 77.718 3.952-5.8239" fill="none" stroke="#000" stroke-width="2px"/>
<path class="bond-14" d="m729.86 71.894 3.952-5.8239" fill="none" stroke="#f00" stroke-width="2px"/>
<path class="bond-14" d="m722.01 75.07 3.952-5.8239" fill="none" stroke="#000" stroke-width="2px"/>
<path class="bond-14" d="m725.96 69.246 3.952-5.8239" fill="none" stroke="#f00" stroke-width="2px"/>
<path class="bond-15" d="m722.71 84.251 2.583 7.1579" fill="none" stroke="#000" stroke-width="2px"/>
<path class="bond-15" d="m725.29 91.409 2.582 7.1578" fill="none" stroke="#00f" stroke-width="2px"/>
<text x="680.412" y="154.669" fill="#000000" font-family="sans-serif" font-size="7px"><tspan>C:1</tspan></text>
<text x="701.627" y="144.395" fill="#000000" font-family="sans-serif" font-size="7px"><tspan>C:2</tspan></text>
<text x="703.337" y="120.885" fill="#000000" font-family="sans-serif" font-size="7px"><tspan>C:3</tspan></text>
<text x="683.832" y="107.649" fill="#000000" font-family="sans-serif" font-size="7px"><tspan>C:4</tspan></text>
<text x="662.617" y="117.923" fill="#000000" font-family="sans-serif" font-size="7px"><tspan>C:5</tspan></text>
<text x="643.112" y="104.687" fill="#000000" font-family="sans-serif" font-size="7px"><tspan>C:6</tspan></text>
<text x="621.896" y="114.961" fill="#000000" font-family="sans-serif" font-size="7px"><tspan>C:7</tspan></text>
<text x="644.822" y="81.1765" fill="#000000" font-family="sans-serif" font-size="7px"><tspan>C:8</tspan></text>
<text x="625.317" y="67.9404" fill="#000000" font-family="sans-serif" font-size="7px"><tspan>C:9</tspan></text>
<text x="687.771" y="85.008" fill="#0000FF" font-family="sans-serif" font-size="7px"><tspan>N:10</tspan></text>
<text x="711.331" y="84.2514" fill="#000000" font-family="sans-serif" font-size="7px"><tspan>C:11</tspan></text>
<text x="724.303" y="64.7462" fill="#FF0000" font-family="sans-serif" font-size="7px"><tspan>O:12</tspan></text>
<text x="715.926" y="106.425" fill="#0000FF" font-family="sans-serif" font-size="7px"><tspan>NH:13</tspan></text>
<text x="673.31" y="66.3923" fill="#000000" font-family="sans-serif" font-size="7px"><tspan>C:14</tspan></text>
<text x="670.375" y="194" fill="#000000" font-family="sans-serif" font-size="12px"><tspan>comp384</tspan></text>
</svg>
