<?xml version="1.0" encoding="UTF-8"?>
<svg baseProfile="full" version="1.1" viewBox="0 0 800 200" xml:space="preserve" xmlns="http://www.w3.org/2000/svg">

 <!-- END OF HEADER -->
<rect width="800" height="200" fill="#fff"> </rect>
<path class="bond-0" d="m72.028 61.486 8.556 18.113" fill="none" stroke="#000" stroke-width="2px"/>
<path class="bond-0" d="m68.87 66.3 5.9892 12.679" fill="none" stroke="#000" stroke-width="2px"/>
<path class="bond-1" d="m72.028 61.486-6.6411-0.5477" fill="none" stroke="#000" stroke-width="2px"/>
<path class="bond-1" d="m65.387 60.938-6.641-0.5478" fill="none" stroke="#00f" stroke-width="2px"/>
<path class="bond-2" d="m44.717 63.56-4.1572 6.0004" fill="none" stroke="#00f" stroke-width="2px"/>
<path class="bond-2" d="m40.56 69.56-4.1573 6.0005" fill="none" stroke="#000" stroke-width="2px"/>
<path class="bond-3" d="m26.123 76.576-4.4545-0.3674" fill="none" stroke="#000" stroke-width="2px"/>
<path class="bond-3" d="m21.668 76.208-4.4544-0.3674" fill="none" stroke="#f00" stroke-width="2px"/>
<path class="bond-3" d="m25.719 81.471-4.4545-0.3674" fill="none" stroke="#000" stroke-width="2px"/>
<path class="bond-3" d="m21.264 81.104-4.4545-0.3674" fill="none" stroke="#f00" stroke-width="2px"/>
<path class="bond-4" d="m35.5 83.747 6.6225 14.02" fill="none" stroke="#000" stroke-width="2px"/>
<path class="bond-5" d="m42.342 105.95-3.0282 7.234" fill="none" stroke="#000" stroke-width="2px"/>
<path class="bond-5" d="m39.314 113.19-3.0282 7.233" fill="none" stroke="#00f" stroke-width="2px"/>
<path class="bond-5" d="m45.965 110.02-2.1198 5.063" fill="none" stroke="#000" stroke-width="2px"/>
<path class="bond-5" d="m43.845 115.08-2.1197 5.064" fill="none" stroke="#00f" stroke-width="2px"/>
<path class="bond-6" d="m51.702 102.49 4.5921 0.379" fill="none" stroke="#000" stroke-width="2px"/>
<path class="bond-6" d="m56.294 102.87 4.592 0.379" fill="none" stroke="#00f" stroke-width="2px"/>
<path class="bond-7" d="m71.367 99.785 4.1573-6.0004" fill="none" stroke="#00f" stroke-width="2px"/>
<path class="bond-7" d="m75.524 93.785 4.1572-6.0005" fill="none" stroke="#000" stroke-width="2px"/>
<path class="bond-8" d="m69.498 107.97 1.8553 7.857" fill="none" stroke="#00f" stroke-width="2px"/>
<path class="bond-8" d="m71.353 115.83 1.8552 7.858" fill="none" stroke="#000" stroke-width="2px"/>
<path class="bond-9" d="m90.163 84.322 9.1841 0.7575" fill="none" stroke="#000" stroke-width="2px"/>
<path class="bond-10" d="m109.83 81.617 8.314-12.001" fill="none" stroke="#000" stroke-width="2px"/>
<path class="bond-11" d="m108.93 89.803 6.622 14.02" fill="none" stroke="#000" stroke-width="2px"/>
<path class="bond-11" d="m114.36 89.808 4.636 9.8137" fill="none" stroke="#000" stroke-width="2px"/>
<path class="bond-12" d="m125.13 108.55 9.184 0.757" fill="none" stroke="#000" stroke-width="2px"/>
<path class="bond-13" d="m144.79 105.84 8.314-12.001" fill="none" stroke="#000" stroke-width="2px"/>
<path class="bond-13" d="m142 101.24 5.82-8.4003" fill="none" stroke="#000" stroke-width="2px"/>
<path class="bond-14" d="m154.01 85.654-6.623-14.02" fill="none" stroke="#000" stroke-width="2px"/>
<path class="bond-15" d="m166.32 90.604 1.722 0.1421" fill="none" stroke="#000" stroke-width="2px"/>
<path class="bond-15" d="m168.04 90.746 1.723 0.142" fill="none" stroke="#f00" stroke-width="2px"/>
<path class="bond-16" d="m135.08 66.686-3.72-0.3068" fill="none" stroke="#000" stroke-width="2px"/>
<path class="bond-16" d="m134.12 71.535-2.604-0.2148" fill="none" stroke="#000" stroke-width="2px"/>
<path class="bond-17" d="m182.35 95.86 3.311 7.0095" fill="none" stroke="#f00" stroke-width="2px"/>
<path class="bond-17" d="m185.66 102.87 3.312 7.01" fill="none" stroke="#000" stroke-width="2px"/>
<path class="bond-18" d="m67.439 131.87-7.5158 4.567" fill="none" stroke="#000" stroke-width="2px"/>
<path class="bond-18" d="m63.761 128.36-5.261 3.196" fill="none" stroke="#000" stroke-width="2px"/>
<path class="bond-19" d="m48.431 136.44-4.5511-3.917" fill="none" stroke="#000" stroke-width="2px"/>
<path class="bond-19" d="m43.88 132.52-4.5511-3.916" fill="none" stroke="#00f" stroke-width="2px"/>
<text x="36.3591" y="63.56" fill="#0000FF" font-family="sans-serif" font-size="8px"><tspan>NH:1</tspan></text>
<text x="25.9207" y="83.7471" fill="#000000" font-family="sans-serif" font-size="8px"><tspan>C:2</tspan></text>
<text x="1.17004" y="81.7283" fill="#FF0000" font-family="sans-serif" font-size="8px"><tspan>O:3</tspan></text>
<text x="36.4102" y="105.953" fill="#000000" font-family="sans-serif" font-size="8px"><tspan>C:4</tspan></text>
<text x="60.8857" y="107.972" fill="#0000FF" font-family="sans-serif" font-size="8px"><tspan>N:5</tspan></text>
<text x="74.8718" y="87.7845" fill="#000000" font-family="sans-serif" font-size="8px"><tspan>C:6</tspan></text>
<text x="99.3473" y="89.8033" fill="#000000" font-family="sans-serif" font-size="8px"><tspan>C:7</tspan></text>
<text x="109.837" y="112.009" fill="#000000" font-family="sans-serif" font-size="8px"><tspan>C:8</tspan></text>
<text x="134.312" y="114.028" fill="#000000" font-family="sans-serif" font-size="8px"><tspan>C:9</tspan></text>
<text x="145.566" y="93.8407" fill="#000000" font-family="sans-serif" font-size="8px"><tspan>C:10</tspan></text>
<text x="135.077" y="71.6349" fill="#000000" font-family="sans-serif" font-size="8px"><tspan>C:11</tspan></text>
<text x="110.601" y="69.6162" fill="#000000" font-family="sans-serif" font-size="8px"><tspan>C:12</tspan></text>
<text x="169.767" y="95.8595" fill="#FF0000" font-family="sans-serif" font-size="8px"><tspan>O:13</tspan></text>
<text x="180.531" y="118.065" fill="#000000" font-family="sans-serif" font-size="8px"><tspan>C:14</tspan></text>
<text x="63.7972" y="131.873" fill="#000000" font-family="sans-serif" font-size="8px"><tspan>C:15</tspan></text>
<text x="42.8095" y="144.626" fill="#000000" font-family="sans-serif" font-size="8px"><tspan>C:16</tspan></text>
<text x="24.1949" y="128.607" fill="#0000FF" font-family="sans-serif" font-size="8px"><tspan>N:17</tspan></text>
<text x="70.3745" y="194" fill="#000000" font-family="sans-serif" font-size="12px"><tspan>comp181</tspan></text>
</svg>
