<?xml version="1.0" encoding="UTF-8"?>
<svg baseProfile="full" version="1.1" viewBox="0 0 800 400" xml:space="preserve" xmlns="http://www.w3.org/2000/svg">

 <!-- END OF HEADER -->
<rect width="800" height="400" fill="#fff"> </rect>
<path class="bond-0" d="m123.38 111.95-4.665 3.978" fill="none" stroke="#000" stroke-width="2px"/>
<path class="bond-0" d="m118.72 115.93-4.666 3.978" fill="none" stroke="#00f" stroke-width="2px"/>
<path class="bond-0" d="m119.84 110.64-3.265 2.785" fill="none" stroke="#000" stroke-width="2px"/>
<path class="bond-0" d="m116.58 113.42-3.266 2.785" fill="none" stroke="#00f" stroke-width="2px"/>
<path class="bond-1" d="m123.38 111.95-2.486-13.476" fill="none" stroke="#000" stroke-width="2px"/>
<path class="bond-2" d="m123.38 111.95 5.939 2.109" fill="none" stroke="#000" stroke-width="2px"/>
<path class="bond-2" d="m129.32 114.06 5.939 2.108" fill="none" stroke="#A01EEF" stroke-width="2px"/>
<path class="bond-3" d="m115.25 93.903-5.276-1.873" fill="none" stroke="#000" stroke-width="2px"/>
<path class="bond-3" d="m113.36 96.732-3.693-1.3111" fill="none" stroke="#000" stroke-width="2px"/>
<path class="bond-4" d="m101.61 92.956-6.1051 5.2059" fill="none" stroke="#000" stroke-width="2px"/>
<path class="bond-5" d="m87.146 100.23-2.9494-0.3902" fill="none" stroke="#000" stroke-width="2px"/>
<path class="bond-5" d="m84.196 99.841-2.9493-0.3907" fill="none" stroke="#f00" stroke-width="2px"/>
<path class="bond-6" d="m92.79 103.66 1.9791 10.727" fill="none" stroke="#000" stroke-width="2px"/>
<path class="bond-6" d="m96.332 104.67 1.3853 7.509" fill="none" stroke="#000" stroke-width="2px"/>
<path class="bond-7" d="m100.41 118.96 2.637 0.937" fill="none" stroke="#000" stroke-width="2px"/>
<path class="bond-7" d="m103.05 119.9 2.638 0.936" fill="none" stroke="#00f" stroke-width="2px"/>
<path class="bond-8" d="m90.202 119.89-4.3577 2.361" fill="none" stroke="#000" stroke-width="2px"/>
<path class="bond-9" d="m77.876 122.25-6.1732-5.867" fill="none" stroke="#000" stroke-width="2px"/>
<path class="bond-9" d="m79.224 118.98-4.3213-4.107" fill="none" stroke="#000" stroke-width="2px"/>
<path class="bond-10" d="m70.124 110.88 2.2434-4.693" fill="none" stroke="#000" stroke-width="2px"/>
<path class="bond-10" d="m72.367 106.19 2.2434-4.694" fill="none" stroke="#f00" stroke-width="2px"/>
<text x="115.251" y="98.4765" fill="#000000" font-family="sans-serif" font-size="5px"><tspan>C:1</tspan></text>
<text x="99.7014" y="92.956" fill="#000000" font-family="sans-serif" font-size="5px"><tspan>C:2</tspan></text>
<text x="87.1457" y="103.662" fill="#000000" font-family="sans-serif" font-size="5px"><tspan>C:3</tspan></text>
<text x="90.1395" y="119.889" fill="#000000" font-family="sans-serif" font-size="5px"><tspan>C:4</tspan></text>
<text x="105.689" y="125.409" fill="#0000FF" font-family="sans-serif" font-size="5px"><tspan>N:5</tspan></text>
<text x="75.6322" y="127.75" fill="#000000" font-family="sans-serif" font-size="5px"><tspan>C:6</tspan></text>
<text x="63.6723" y="116.383" fill="#000000" font-family="sans-serif" font-size="5px"><tspan>C:7</tspan></text>
<text x="70.6031" y="101.495" fill="#FF0000" font-family="sans-serif" font-size="5px"><tspan>O:8</tspan></text>
<text x="135.26" y="120.224" fill="#A01EEF" font-family="sans-serif" font-size="5px"><tspan>I:9</tspan></text>
<text x="70.3745" y="194" fill="#000000" font-family="sans-serif" font-size="12px"><tspan>comp439</tspan></text>
<path class="bond-0" d="m328.25 105.49-4.617 4.113" fill="none" stroke="#000" stroke-width="2px"/>
<path class="bond-0" d="m323.63 109.6-4.617 4.113" fill="none" stroke="#00f" stroke-width="2px"/>
<path class="bond-1" d="m328.25 105.49-2.777-13.408" fill="none" stroke="#000" stroke-width="2px"/>
<path class="bond-1" d="m324.6 104.15-1.944-9.3853" fill="none" stroke="#000" stroke-width="2px"/>
<path class="bond-2" d="m328.25 105.49 8.693 2.875" fill="none" stroke="#000" stroke-width="2px"/>
<path class="bond-3" d="m319.76 87.631-5.392-1.7833" fill="none" stroke="#000" stroke-width="2px"/>
<path class="bond-4" d="m306.15 86.899-6.146 5.4761" fill="none" stroke="#000" stroke-width="2px"/>
<path class="bond-4" d="m307.42 90.184-4.302 3.8332" fill="none" stroke="#000" stroke-width="2px"/>
<path class="bond-5" d="m308.66 81.399-2.207-10.658" fill="none" stroke="#000" stroke-width="2px"/>
<path class="bond-6" d="m291.78 94.558-2.971-0.3281" fill="none" stroke="#000" stroke-width="2px"/>
<path class="bond-6" d="m288.81 94.23-2.971-0.3281" fill="none" stroke="#f00" stroke-width="2px"/>
<path class="bond-7" d="m297.48 97.875 2.207 10.658" fill="none" stroke="#000" stroke-width="2px"/>
<path class="bond-8" d="m305.4 112.98 2.696 0.892" fill="none" stroke="#000" stroke-width="2px"/>
<path class="bond-8" d="m308.09 113.87 2.696 0.891" fill="none" stroke="#00f" stroke-width="2px"/>
<path class="bond-8" d="m307.24 110.12 1.888 0.625" fill="none" stroke="#000" stroke-width="2px"/>
<path class="bond-8" d="m309.13 110.74 1.887 0.624" fill="none" stroke="#00f" stroke-width="2px"/>
<path class="bond-9" d="m295.44 114.03-4.69 2.675" fill="none" stroke="#000" stroke-width="2px"/>
<path class="bond-10" d="m282.9 116.71-6.16-5.606" fill="none" stroke="#000" stroke-width="2px"/>
<path class="bond-10" d="m284.2 113.43-4.312-3.924" fill="none" stroke="#000" stroke-width="2px"/>
<path class="bond-11" d="m274.96 105.6 2.154-4.769" fill="none" stroke="#000" stroke-width="2px"/>
<path class="bond-11" d="m277.12 100.83 2.153-4.769" fill="none" stroke="#f00" stroke-width="2px"/>
<path class="bond-12" d="m268.58 109.42-5.884 1.218" fill="none" stroke="#000" stroke-width="2px"/>
<path class="bond-13" d="m256.66 114.45-3.363 10.166" fill="none" stroke="#000" stroke-width="2px"/>
<path class="bond-14" d="m255.11 108.95-6.076-6.82" fill="none" stroke="#000" stroke-width="2px"/>
<path class="bond-14" d="m251.74 110.12-4.253-4.774" fill="none" stroke="#000" stroke-width="2px"/>
<path class="bond-15" d="m239.62 100.82-2.212 0.459" fill="none" stroke="#000" stroke-width="2px"/>
<path class="bond-16" d="m229.52 105.47-3.363 10.166" fill="none" stroke="#000" stroke-width="2px"/>
<path class="bond-16" d="m232.15 108.04-2.353 7.116" fill="none" stroke="#000" stroke-width="2px"/>
<path class="bond-17" d="m227.7 121.14 6.076 6.82" fill="none" stroke="#000" stroke-width="2px"/>
<path class="bond-18" d="m218.28 119.83-1.289 0.267" fill="none" stroke="#000" stroke-width="2px"/>
<path class="bond-18" d="m216.99 120.1-1.29 0.267" fill="none" stroke="#3cc" stroke-width="2px"/>
<path class="bond-19" d="m243.2 129.27 2.212-0.458" fill="none" stroke="#000" stroke-width="2px"/>
<path class="bond-19" d="m242.86 125.96 1.549-0.32" fill="none" stroke="#000" stroke-width="2px"/>
<path class="bond-20" d="m347 107.92 6.147-5.477" fill="none" stroke="#000" stroke-width="2px"/>
<path class="bond-21" d="m344.48 113.42 2.207 10.657" fill="none" stroke="#000" stroke-width="2px"/>
<path class="bond-21" d="m348.04 114.35 1.545 7.461" fill="none" stroke="#000" stroke-width="2px"/>
<path class="bond-22" d="m354.23 129.13 1.72 0.569" fill="none" stroke="#000" stroke-width="2px"/>
<path class="bond-23" d="m366.01 129.26 6.146-5.476" fill="none" stroke="#000" stroke-width="2px"/>
<path class="bond-23" d="m364.74 125.97 4.303-3.833" fill="none" stroke="#000" stroke-width="2px"/>
<path class="bond-24" d="m374.67 118.28-2.207-10.658" fill="none" stroke="#000" stroke-width="2px"/>
<path class="bond-25" d="m382.22 123.34 1.043 0.345" fill="none" stroke="#000" stroke-width="2px"/>
<path class="bond-25" d="m383.26 123.68 1.044 0.345" fill="none" stroke="#3cc" stroke-width="2px"/>
<path class="bond-26" d="m364.92 102.57-1.721-0.569" fill="none" stroke="#000" stroke-width="2px"/>
<path class="bond-26" d="m363.63 105.62-1.205-0.399" fill="none" stroke="#000" stroke-width="2px"/>
<text x="319.763" y="92.0804" fill="#000000" font-family="sans-serif" font-size="5px"><tspan>C:1</tspan></text>
<text x="304.097" y="86.8989" fill="#000000" font-family="sans-serif" font-size="5px"><tspan>C:2</tspan></text>
<text x="291.777" y="97.8752" fill="#000000" font-family="sans-serif" font-size="5px"><tspan>C:3</tspan></text>
<text x="295.122" y="114.033" fill="#000000" font-family="sans-serif" font-size="5px"><tspan>C:4</tspan></text>
<text x="310.788" y="119.215" fill="#0000FF" font-family="sans-serif" font-size="5px"><tspan>N:5</tspan></text>
<text x="280.789" y="122.208" fill="#000000" font-family="sans-serif" font-size="5px"><tspan>C:6</tspan></text>
<text x="268.585" y="111.102" fill="#000000" font-family="sans-serif" font-size="5px"><tspan>C:7</tspan></text>
<text x="275.191" y="96.064" fill="#FF0000" font-family="sans-serif" font-size="5px"><tspan>O:8</tspan></text>
<text x="252.427" y="114.448" fill="#000000" font-family="sans-serif" font-size="5px"><tspan>C:9</tspan></text>
<text x="239.615" y="102.128" fill="#000000" font-family="sans-serif" font-size="5px"><tspan>C:10</tspan></text>
<text x="223.458" y="105.473" fill="#000000" font-family="sans-serif" font-size="5px"><tspan>C:11</tspan></text>
<text x="218.276" y="121.139" fill="#000000" font-family="sans-serif" font-size="5px"><tspan>C:12</tspan></text>
<text x="229.252" y="133.46" fill="#000000" font-family="sans-serif" font-size="5px"><tspan>C:13</tspan></text>
<text x="245.41" y="130.114" fill="#000000" font-family="sans-serif" font-size="5px"><tspan>C:14</tspan></text>
<text x="202.485" y="124.485" fill="#33CCCC" font-family="sans-serif" font-size="5px"><tspan>F:15</tspan></text>
<text x="298.916" y="70.7411" fill="#000000" font-family="sans-serif" font-size="5px"><tspan>C:16</tspan></text>
<text x="336.939" y="113.42" fill="#000000" font-family="sans-serif" font-size="5px"><tspan>C:17</tspan></text>
<text x="340.284" y="129.578" fill="#000000" font-family="sans-serif" font-size="5px"><tspan>C:18</tspan></text>
<text x="355.95" y="134.759" fill="#000000" font-family="sans-serif" font-size="5px"><tspan>C:19</tspan></text>
<text x="368.271" y="123.783" fill="#000000" font-family="sans-serif" font-size="5px"><tspan>C:20</tspan></text>
<text x="364.925" y="107.625" fill="#000000" font-family="sans-serif" font-size="5px"><tspan>C:21</tspan></text>
<text x="349.259" y="102.443" fill="#000000" font-family="sans-serif" font-size="5px"><tspan>C:22</tspan></text>
<text x="384.303" y="128.964" fill="#33CCCC" font-family="sans-serif" font-size="5px"><tspan>F:23</tspan></text>
<text x="270.375" y="194" fill="#000000" font-family="sans-serif" font-size="12px"><tspan>comp440</tspan></text>
<path class="bond-0" d="m497.92 101.09-10.556-3.4294" fill="none" stroke="#000" stroke-width="2px"/>
<path class="bond-1" d="m497.92 101.09 4.763-2.7497" fill="none" stroke="#000" stroke-width="2px"/>
<path class="bond-1" d="m502.69 98.344 4.764-2.7501" fill="none" stroke="#00f" stroke-width="2px"/>
<path class="bond-2" d="m497.92 101.09v13.751" fill="none" stroke="#000" stroke-width="2px"/>
<path class="bond-2" d="m494.62 103.16v9.625" fill="none" stroke="#000" stroke-width="2px"/>
<path class="bond-3" d="m492.79 119.26-2.617 0.85" fill="none" stroke="#000" stroke-width="2px"/>
<path class="bond-3" d="m490.17 120.11-2.617 0.851" fill="none" stroke="#f00" stroke-width="2px"/>
<path class="bond-4" d="m502.69 120.34 4.764 2.75" fill="none" stroke="#000" stroke-width="2px"/>
<path class="bond-5" d="m480.23 119.94-2.851-3.925" fill="none" stroke="#f00" stroke-width="2px"/>
<path class="bond-5" d="m477.38 116.02-2.852-3.924" fill="none" stroke="#000" stroke-width="2px"/>
<path class="bond-6" d="m474.53 106.6 5.703-7.8494" fill="none" stroke="#000" stroke-width="2px"/>
<path class="bond-6" d="m478.06 107.36 3.991-5.494" fill="none" stroke="#000" stroke-width="2px"/>
<path class="bond-7" d="m516.98 123.1 4.763-2.75" fill="none" stroke="#000" stroke-width="2px"/>
<path class="bond-7" d="m516.04 119.82 3.334-1.925" fill="none" stroke="#000" stroke-width="2px"/>
<path class="bond-8" d="m526.5 114.84v-11" fill="none" stroke="#000" stroke-width="2px"/>
<path class="bond-9" d="m521.74 98.344-2.381-1.375" fill="none" stroke="#000" stroke-width="2px"/>
<path class="bond-9" d="m519.36 96.969-2.382-1.3751" fill="none" stroke="#00f" stroke-width="2px"/>
<path class="bond-9" d="m519.38 100.79-1.667-0.9627" fill="none" stroke="#000" stroke-width="2px"/>
<path class="bond-9" d="m517.71 99.827-1.667-0.9626" fill="none" stroke="#00f" stroke-width="2px"/>
<text x="492.788" y="120.345" fill="#000000" font-family="sans-serif" font-size="5px"><tspan>C:1</tspan></text>
<text x="476.91" y="125.444" fill="#FF0000" font-family="sans-serif" font-size="5px"><tspan>O:2</tspan></text>
<text x="467.396" y="112.095" fill="#000000" font-family="sans-serif" font-size="5px"><tspan>C:3</tspan></text>
<text x="477.095" y="98.7456" fill="#000000" font-family="sans-serif" font-size="5px"><tspan>C:4</tspan></text>
<text x="507.078" y="128.595" fill="#000000" font-family="sans-serif" font-size="5px"><tspan>C:5</tspan></text>
<text x="521.368" y="120.345" fill="#000000" font-family="sans-serif" font-size="5px"><tspan>C:6</tspan></text>
<text x="521.368" y="103.845" fill="#000000" font-family="sans-serif" font-size="5px"><tspan>C:7</tspan></text>
<text x="507.078" y="95.5942" fill="#0000FF" font-family="sans-serif" font-size="5px"><tspan>N:8</tspan></text>
<text x="470.375" y="194" fill="#000000" font-family="sans-serif" font-size="12px"><tspan>comp447</tspan></text>
<path class="bond-0" d="m673.5 103.69-10.873 2.713" fill="none" stroke="#000" stroke-width="2px"/>
<path class="bond-1" d="m673.5 103.69 3.141-5.9094" fill="none" stroke="#000" stroke-width="2px"/>
<path class="bond-1" d="m676.64 97.778 3.142-5.9099" fill="none" stroke="#00f" stroke-width="2px"/>
<path class="bond-2" d="m673.5 103.69 7.026 11.243" fill="none" stroke="#000" stroke-width="2px"/>
<path class="bond-2" d="m671.76 107.12 4.919 7.87" fill="none" stroke="#000" stroke-width="2px"/>
<path class="bond-3" d="m679.94 120.43-2.996 3.571" fill="none" stroke="#000" stroke-width="2px"/>
<path class="bond-3" d="m676.94 124-2.995 3.57" fill="none" stroke="#f00" stroke-width="2px"/>
<path class="bond-4" d="m687.38 117.5 6.216-0.218" fill="none" stroke="#000" stroke-width="2px"/>
<path class="bond-5" d="m666.32 128.17-2.42-0.977" fill="none" stroke="#f00" stroke-width="2px"/>
<path class="bond-5" d="m663.9 127.19-2.421-0.978" fill="none" stroke="#000" stroke-width="2px"/>
<path class="bond-6" d="m656.53 121.39 0.766-10.96" fill="none" stroke="#000" stroke-width="2px"/>
<path class="bond-6" d="m659.94 119.98 0.536-7.672" fill="none" stroke="#000" stroke-width="2px"/>
<path class="bond-7" d="m700.2 114.35 4.822-9.069" fill="none" stroke="#000" stroke-width="2px"/>
<path class="bond-7" d="m698.01 111.44 3.375-6.349" fill="none" stroke="#000" stroke-width="2px"/>
<path class="bond-8" d="m704.76 99.783-5.308-8.4922" fill="none" stroke="#000" stroke-width="2px"/>
<path class="bond-9" d="m711.62 102.35 6.216-0.218" fill="none" stroke="#000" stroke-width="2px"/>
<path class="bond-10" d="m692.6 88.72-3.108 0.1089" fill="none" stroke="#000" stroke-width="2px"/>
<path class="bond-10" d="m689.49 88.829-3.108 0.1088" fill="none" stroke="#00f" stroke-width="2px"/>
<path class="bond-10" d="m691.78 92.051-2.175 0.0762" fill="none" stroke="#000" stroke-width="2px"/>
<path class="bond-10" d="m689.61 92.127-2.176 0.0761" fill="none" stroke="#00f" stroke-width="2px"/>
<path class="bond-11" d="m725.89 99.98 2.411-4.5349" fill="none" stroke="#000" stroke-width="2px"/>
<path class="bond-11" d="m728.3 95.445 2.41-4.5348" fill="none" stroke="#f00" stroke-width="2px"/>
<path class="bond-11" d="m722.98 98.431 2.411-4.5348" fill="none" stroke="#000" stroke-width="2px"/>
<path class="bond-11" d="m725.39 93.896 2.41-4.5348" fill="none" stroke="#f00" stroke-width="2px"/>
<path class="bond-12" d="m724.69 104.7 2.654 4.247" fill="none" stroke="#000" stroke-width="2px"/>
<path class="bond-12" d="m727.35 108.95 2.654 4.246" fill="none" stroke="#f00" stroke-width="2px"/>
<path class="bond-13" d="m738.88 115.7 1.18-0.041" fill="none" stroke="#f00" stroke-width="2px"/>
<path class="bond-13" d="m740.06 115.66 1.18-0.041" fill="none" stroke="#000" stroke-width="2px"/>
<path class="bond-14" d="m749.93 118.12 5.307 8.492" fill="none" stroke="#000" stroke-width="2px"/>
<text x="677.11" y="120.43" fill="#000000" font-family="sans-serif" font-size="5px"><tspan>C:1</tspan></text>
<text x="666.32" y="133.071" fill="#FF0000" font-family="sans-serif" font-size="5px"><tspan>O:2</tspan></text>
<text x="651.205" y="126.891" fill="#000000" font-family="sans-serif" font-size="5px"><tspan>C:3</tspan></text>
<text x="652.355" y="110.431" fill="#000000" font-family="sans-serif" font-size="5px"><tspan>C:4</tspan></text>
<text x="693.6" y="119.853" fill="#000000" font-family="sans-serif" font-size="5px"><tspan>C:5</tspan></text>
<text x="701.346" y="105.283" fill="#000000" font-family="sans-serif" font-size="5px"><tspan>C:6</tspan></text>
<text x="692.6" y="91.2904" fill="#000000" font-family="sans-serif" font-size="5px"><tspan>C:7</tspan></text>
<text x="676.11" y="91.8677" fill="#0000FF" font-family="sans-serif" font-size="5px"><tspan>N:8</tspan></text>
<text x="717.836" y="104.705" fill="#000000" font-family="sans-serif" font-size="5px"><tspan>C:9</tspan></text>
<text x="723.561" y="90.1356" fill="#FF0000" font-family="sans-serif" font-size="5px"><tspan>O:10</tspan></text>
<text x="724.561" y="118.698" fill="#FF0000" font-family="sans-serif" font-size="5px"><tspan>O:11</tspan></text>
<text x="741.236" y="118.121" fill="#000000" font-family="sans-serif" font-size="5px"><tspan>C:12</tspan></text>
<text x="749.981" y="132.113" fill="#000000" font-family="sans-serif" font-size="5px"><tspan>C:13</tspan></text>
<text x="670.375" y="194" fill="#000000" font-family="sans-serif" font-size="12px"><tspan>comp448</tspan></text>
<path class="bond-0" d="m131.01 311.14-8.508 9.597" fill="none" stroke="#000" stroke-width="2px"/>
<path class="bond-0" d="m127.26 310.39-5.956 6.718" fill="none" stroke="#000" stroke-width="2px"/>
<path class="bond-1" d="m131.01 311.14-4.303-12.904" fill="none" stroke="#000" stroke-width="2px"/>
<path class="bond-2" d="m120.65 294.44-2.946-0.603" fill="none" stroke="#000" stroke-width="2px"/>
<path class="bond-2" d="m117.71 293.84-2.946-0.602" fill="none" stroke="#00f" stroke-width="2px"/>
<path class="bond-2" d="m119.11 297.49-2.062-0.421" fill="none" stroke="#000" stroke-width="2px"/>
<path class="bond-2" d="m117.04 297.07-2.063-0.422" fill="none" stroke="#00f" stroke-width="2px"/>
<path class="bond-3" d="m107.18 294.94-3.035 3.423" fill="none" stroke="#00f" stroke-width="2px"/>
<path class="bond-3" d="m104.15 298.36-3.035 3.424" fill="none" stroke="#000" stroke-width="2px"/>
<path class="bond-4" d="m93.54 304.57-6.2261 0.048" fill="none" stroke="#000" stroke-width="2px"/>
<path class="bond-5" d="m99.594 307.28 3.3862 10.153" fill="none" stroke="#000" stroke-width="2px"/>
<path class="bond-5" d="m103.23 307.76 2.37 7.107" fill="none" stroke="#000" stroke-width="2px"/>
<path class="bond-6" d="m109.03 321.24 5.892 1.205" fill="none" stroke="#000" stroke-width="2px"/>
<path class="bond-7" d="m100.17 322.94-2.9123 2.151" fill="none" stroke="#000" stroke-width="2px"/>
<path class="bond-7" d="m97.26 325.09-2.9126 2.15" fill="none" stroke="#f00" stroke-width="2px"/>
<path class="bond-8" d="m86.775 327.24-2.8645-2.047" fill="none" stroke="#f00" stroke-width="2px"/>
<path class="bond-8" d="m83.911 325.19-2.8646-2.048" fill="none" stroke="#000" stroke-width="2px"/>
<path class="bond-9" d="m78.069 317.64 3.2374-10.232" fill="none" stroke="#000" stroke-width="2px"/>
<path class="bond-9" d="m81.701 317.1 2.2661-7.163" fill="none" stroke="#000" stroke-width="2px"/>
<path class="bond-10" d="m80.146 301.91-2.8701-3.887" fill="none" stroke="#000" stroke-width="2px"/>
<path class="bond-10" d="m77.276 298.02-2.8701-3.887" fill="none" stroke="#7F4C19" stroke-width="2px"/>
<text x="120.652" y="298.24" fill="#000000" font-family="sans-serif" font-size="5px"><tspan>C:1</tspan></text>
<text x="104.486" y="294.935" fill="#0000FF" font-family="sans-serif" font-size="5px"><tspan>N:2</tspan></text>
<text x="93.5397" y="307.282" fill="#000000" font-family="sans-serif" font-size="5px"><tspan>C:3</tspan></text>
<text x="98.7596" y="322.935" fill="#000000" font-family="sans-serif" font-size="5px"><tspan>C:4</tspan></text>
<text x="114.926" y="326.241" fill="#000000" font-family="sans-serif" font-size="5px"><tspan>C:5</tspan></text>
<text x="85.3008" y="332.736" fill="#FF0000" font-family="sans-serif" font-size="5px"><tspan>O:6</tspan></text>
<text x="72.062" y="323.141" fill="#000000" font-family="sans-serif" font-size="5px"><tspan>C:7</tspan></text>
<text x="77.0396" y="307.409" fill="#000000" font-family="sans-serif" font-size="5px"><tspan>C:8</tspan></text>
<text x="66.3202" y="294.135" fill="#7F4C19" font-family="sans-serif" font-size="5px"><tspan>Br:9</tspan></text>
<text x="70.3745" y="394" fill="#000000" font-family="sans-serif" font-size="12px"><tspan>comp481</tspan></text>
</svg>
