<?xml version="1.0" encoding="UTF-8"?>
<svg baseProfile="full" version="1.1" viewBox="0 0 800 200" xml:space="preserve" xmlns="http://www.w3.org/2000/svg">

 <!-- END OF HEADER -->
<rect width="800" height="200" fill="#fff"> </rect>
<path class="bond-0" d="m9.0909 105.28 4.8018-26.993" fill="none" stroke="#000" stroke-width="2px"/>
<path class="bond-0" d="m16.31 102.39 3.3613-18.895" fill="none" stroke="#000" stroke-width="2px"/>
<path class="bond-1" d="m9.0909 105.28 9.3573 7.876" fill="none" stroke="#000" stroke-width="2px"/>
<path class="bond-1" d="m18.448 113.16 9.3572 7.876" fill="none" stroke="#00f" stroke-width="2px"/>
<path class="bond-2" d="m44.615 122.81 5.2403-1.898" fill="none" stroke="#00f" stroke-width="2px"/>
<path class="bond-2" d="m49.856 120.91 5.2403-1.898" fill="none" stroke="#000" stroke-width="2px"/>
<path class="bond-2" d="m43.939 116.03 3.6682-1.329" fill="none" stroke="#00f" stroke-width="2px"/>
<path class="bond-2" d="m47.607 114.7 3.6682-1.329" fill="none" stroke="#000" stroke-width="2px"/>
<path class="bond-3" d="m66.349 109.79 3.8233-21.492" fill="none" stroke="#000" stroke-width="2px"/>
<path class="bond-4" d="m71.906 120.79 6.0898 5.126" fill="none" stroke="#000" stroke-width="2px"/>
<path class="bond-4" d="m77.995 125.92 6.0897 5.125" fill="none" stroke="#f00" stroke-width="2px"/>
<path class="bond-5" d="m79.983 77.297 10.35-6.4453" fill="none" stroke="#000" stroke-width="2px"/>
<path class="bond-6" d="m64.616 77.297-12.179-10.251" fill="none" stroke="#000" stroke-width="2px"/>
<path class="bond-6" d="m58.538 80.809-8.5256-7.176" fill="none" stroke="#000" stroke-width="2px"/>
<path class="bond-7" d="m35.626 65.267-10.481 3.7966" fill="none" stroke="#000" stroke-width="2px"/>
<path class="bond-8" d="m48.133 56.045 3.9728-9.79" fill="none" stroke="#000" stroke-width="2px"/>
<path class="bond-8" d="m52.106 46.255 3.9727-9.7901" fill="none" stroke="#f00" stroke-width="2px"/>
<path class="bond-9" d="m68.955 31.725 6 0.4287" fill="none" stroke="#f00" stroke-width="2px"/>
<path class="bond-9" d="m74.955 32.153 6 0.4287" fill="none" stroke="#000" stroke-width="2px"/>
<path class="bond-10" d="m92.593 38.817 5.2104 21.034" fill="none" stroke="#000" stroke-width="2px"/>
<path class="bond-10" d="m86.967 43.559 3.6472 14.724" fill="none" stroke="#000" stroke-width="2px"/>
<path class="bond-11" d="m109.44 69.521 10.032 4.0708" fill="none" stroke="#000" stroke-width="2px"/>
<path class="bond-12" d="m136.81 72.26 11.913-9.2781" fill="none" stroke="#000" stroke-width="2px"/>
<path class="bond-13" d="m130.51 83.261 3.015 21.688" fill="none" stroke="#000" stroke-width="2px"/>
<path class="bond-13" d="m137.5 85.606 2.11 15.181" fill="none" stroke="#000" stroke-width="2px"/>
<path class="bond-14" d="m147.84 115.95 3.471 1.409" fill="none" stroke="#000" stroke-width="2px"/>
<path class="bond-15" d="m171.93 117.36 11.913-9.278" fill="none" stroke="#000" stroke-width="2px"/>
<path class="bond-15" d="m169.66 110.76 8.339-6.495" fill="none" stroke="#000" stroke-width="2px"/>
<path class="bond-16" d="m190.14 97.08-3.015-21.688" fill="none" stroke="#000" stroke-width="2px"/>
<path class="bond-17" d="m172.81 64.391-3.472-1.4086" fill="none" stroke="#000" stroke-width="2px"/>
<path class="bond-17" d="m169.81 70.296-2.43-0.9861" fill="none" stroke="#000" stroke-width="2px"/>
<path class="bond-18" d="m89.642 142.04-1.9116 10.746" fill="none" stroke="#f00" stroke-width="2px"/>
<path class="bond-18" d="m87.73 152.79-1.9117 10.745" fill="none" stroke="#000" stroke-width="2px"/>
<text x="24.0658" y="132.032" fill="#0000FF" font-family="sans-serif" font-size="11px"><tspan>N:1</tspan></text>
<text x="55.0958" y="120.791" fill="#000000" font-family="sans-serif" font-size="11px"><tspan>C:2</tspan></text>
<text x="60.8761" y="88.2981" fill="#000000" font-family="sans-serif" font-size="11px"><tspan>C:3</tspan></text>
<text x="35.6265" y="67.0457" fill="#000000" font-family="sans-serif" font-size="11px"><tspan>C:4</tspan></text>
<text x="4.59657" y="78.2862" fill="#000000" font-family="sans-serif" font-size="11px"><tspan>C:5</tspan></text>
<text x="47.6664" y="36.4645" fill="#FF0000" font-family="sans-serif" font-size="11px"><tspan>O:6</tspan></text>
<text x="80.9554" y="38.8167" fill="#000000" font-family="sans-serif" font-size="11px"><tspan>C:7</tspan></text>
<text x="88.8909" y="70.8517" fill="#000000" font-family="sans-serif" font-size="11px"><tspan>C:8</tspan></text>
<text x="119.472" y="83.2614" fill="#000000" font-family="sans-serif" font-size="11px"><tspan>C:9</tspan></text>
<text x="120.344" y="115.95" fill="#000000" font-family="sans-serif" font-size="11px"><tspan>C:10</tspan></text>
<text x="150.925" y="128.36" fill="#000000" font-family="sans-serif" font-size="11px"><tspan>C:11</tspan></text>
<text x="176.963" y="108.081" fill="#000000" font-family="sans-serif" font-size="11px"><tspan>C:12</tspan></text>
<text x="172.42" y="75.3919" fill="#000000" font-family="sans-serif" font-size="11px"><tspan>C:13</tspan></text>
<text x="141.838" y="62.9822" fill="#000000" font-family="sans-serif" font-size="11px"><tspan>C:14</tspan></text>
<text x="76.3042" y="142.044" fill="#FF0000" font-family="sans-serif" font-size="11px"><tspan>O:15</tspan></text>
<text x="70.8936" y="174.537" fill="#000000" font-family="sans-serif" font-size="11px"><tspan>C:16</tspan></text>
<text x="70.3745" y="194" fill="#000000" font-family="sans-serif" font-size="12px"><tspan>comp459</tspan></text>
<path class="bond-0" d="m328.8 69.009-3.36 10.168" fill="none" stroke="#00f" stroke-width="2px"/>
<path class="bond-0" d="m325.44 79.177-3.359 10.168" fill="none" stroke="#000" stroke-width="2px"/>
<path class="bond-0" d="m321.52 69.988-2.352 7.1175" fill="none" stroke="#00f" stroke-width="2px"/>
<path class="bond-0" d="m319.17 77.106-2.352 7.1175" fill="none" stroke="#000" stroke-width="2px"/>
<path class="bond-1" d="m325.85 58.16-6.145-6.8934" fill="none" stroke="#00f" stroke-width="2px"/>
<path class="bond-1" d="m319.7 51.267-6.145-6.8935" fill="none" stroke="#000" stroke-width="2px"/>
<path class="bond-2" d="m298.38 41.003-11.767 2.44" fill="none" stroke="#000" stroke-width="2px"/>
<path class="bond-2" d="m297.95 47.832-8.236 1.708" fill="none" stroke="#000" stroke-width="2px"/>
<path class="bond-3" d="m274.52 51.074-6.719 20.336" fill="none" stroke="#000" stroke-width="2px"/>
<path class="bond-4" d="m255.71 81.424-3.71 1.6297" fill="none" stroke="#000" stroke-width="2px"/>
<path class="bond-4" d="m252 83.054-3.71 1.6298" fill="none" stroke="#f00" stroke-width="2px"/>
<path class="bond-5" d="m270.89 82.411 12.154 13.634" fill="none" stroke="#000" stroke-width="2px"/>
<path class="bond-5" d="m277.64 80.064 8.508 9.5442" fill="none" stroke="#000" stroke-width="2px"/>
<path class="bond-6" d="m298.22 99.416 11.766-2.4399" fill="none" stroke="#000" stroke-width="2px"/>
<path class="bond-7" d="m284.73 107.05-10.219 17.498" fill="none" stroke="#000" stroke-width="2px"/>
<path class="bond-8" d="m325.16 100.35 6.077 6.817" fill="none" stroke="#000" stroke-width="2px"/>
<path class="bond-8" d="m331.24 107.16 6.077 6.817" fill="none" stroke="#f00" stroke-width="2px"/>
<path class="bond-9" d="m352.87 117.27 5.698-1.181" fill="none" stroke="#f00" stroke-width="2px"/>
<path class="bond-9" d="m358.56 116.09 5.698-1.182" fill="none" stroke="#000" stroke-width="2px"/>
<path class="bond-10" d="m261.03 127.81-11.698-2.547" fill="none" stroke="#000" stroke-width="2px"/>
<path class="bond-10" d="m260.68 120.98-8.189-1.783" fill="none" stroke="#000" stroke-width="2px"/>
<path class="bond-11" d="m238.5 117.52-1.093-10.919" fill="none" stroke="#000" stroke-width="2px"/>
<path class="bond-11" d="m237.41 106.6-1.092-10.919" fill="none" stroke="#f00" stroke-width="2px"/>
<text x="325.847" y="69.0088" fill="#0000FF" font-family="sans-serif" font-size="11px"><tspan>N</tspan></text>
<text x="298.379" y="44.3732" fill="#000000" font-family="sans-serif" font-size="11px"><tspan>C:1</tspan></text>
<text x="266.063" y="51.0744" fill="#000000" font-family="sans-serif" font-size="11px"><tspan>C:2</tspan></text>
<text x="255.709" y="82.4112" fill="#000000" font-family="sans-serif" font-size="11px"><tspan>C:3</tspan></text>
<text x="277.67" y="107.047" fill="#000000" font-family="sans-serif" font-size="11px"><tspan>C:4</tspan></text>
<text x="309.985" y="100.346" fill="#000000" font-family="sans-serif" font-size="11px"><tspan>C:5</tspan></text>
<text x="331.577" y="124.981" fill="#FF0000" font-family="sans-serif" font-size="11px"><tspan>O:6</tspan></text>
<text x="364.262" y="118.28" fill="#000000" font-family="sans-serif" font-size="11px"><tspan>C:7</tspan></text>
<text x="261.026" y="135.546" fill="#000000" font-family="sans-serif" font-size="11px"><tspan>C:8</tspan></text>
<text x="228.779" y="128.524" fill="#000000" font-family="sans-serif" font-size="11px"><tspan>C:9</tspan></text>
<text x="221.451" y="95.6847" fill="#FF0000" font-family="sans-serif" font-size="11px"><tspan>O:10</tspan></text>
<text x="270.375" y="194" fill="#000000" font-family="sans-serif" font-size="12px"><tspan>comp460</tspan></text>
<path class="bond-0" d="m535.89 126.28-21.764 5.38" fill="none" stroke="#000" stroke-width="2px"/>
<path class="bond-0" d="m531.04 120.68-15.235 3.765" fill="none" stroke="#000" stroke-width="2px"/>
<path class="bond-1" d="m535.89 126.28 3.786-13.102" fill="none" stroke="#000" stroke-width="2px"/>
<path class="bond-1" d="m539.68 113.17 3.786-13.103" fill="none" stroke="#00f" stroke-width="2px"/>
<path class="bond-2" d="m539.76 89.07-6.149-6.393" fill="none" stroke="#00f" stroke-width="2px"/>
<path class="bond-2" d="m533.61 82.677-6.149-6.3931" fill="none" stroke="#000" stroke-width="2px"/>
<path class="bond-2" d="m533.16 91.728-4.304-4.4751" fill="none" stroke="#00f" stroke-width="2px"/>
<path class="bond-2" d="m528.86 87.252-4.304-4.4752" fill="none" stroke="#000" stroke-width="2px"/>
<path class="bond-3" d="m511.9 73.323-11.49 2.8398" fill="none" stroke="#000" stroke-width="2px"/>
<path class="bond-4" d="m523.76 65.283 2.912-10.078" fill="none" stroke="#000" stroke-width="2px"/>
<path class="bond-4" d="m526.68 55.205 2.911-10.078" fill="none" stroke="#00f" stroke-width="2px"/>
<path class="bond-5" d="m482.02 73.202-11.085-7.5098" fill="none" stroke="#000" stroke-width="2px"/>
<path class="bond-6" d="m488.55 84.203-5.983 20.705" fill="none" stroke="#000" stroke-width="2px"/>
<path class="bond-6" d="m493.99 89.141-4.188 14.493" fill="none" stroke="#000" stroke-width="2px"/>
<path class="bond-7" d="m486.26 115.91 12.297 12.786" fill="none" stroke="#000" stroke-width="2px"/>
<path class="bond-8" d="m470.7 110.75-6.033 0.198" fill="none" stroke="#000" stroke-width="2px"/>
<path class="bond-8" d="m464.67 110.94-6.033 0.199" fill="none" stroke="#f00" stroke-width="2px"/>
<path class="bond-9" d="m446 105.99-3.623-10.017" fill="none" stroke="#f00" stroke-width="2px"/>
<path class="bond-9" d="m442.38 95.975-3.623-10.017" fill="none" stroke="#000" stroke-width="2px"/>
<path class="bond-10" d="m443.83 74.956 11.908-9.2646" fill="none" stroke="#000" stroke-width="2px"/>
<path class="bond-10" d="m449.67 78.776 8.336-6.4853" fill="none" stroke="#000" stroke-width="2px"/>
<text x="534.777" y="100.071" fill="#0000FF" font-family="sans-serif" font-size="11px"><tspan>N:1</tspan></text>
<text x="511.9" y="76.2838" fill="#000000" font-family="sans-serif" font-size="11px"><tspan>C:2</tspan></text>
<text x="479.861" y="84.2027" fill="#000000" font-family="sans-serif" font-size="11px"><tspan>C:3</tspan></text>
<text x="470.699" y="115.909" fill="#000000" font-family="sans-serif" font-size="11px"><tspan>C:4</tspan></text>
<text x="493.576" y="139.696" fill="#000000" font-family="sans-serif" font-size="11px"><tspan>C:5</tspan></text>
<text x="437.344" y="116.993" fill="#FF0000" font-family="sans-serif" font-size="11px"><tspan>O:6</tspan></text>
<text x="426.489" y="85.9576" fill="#000000" font-family="sans-serif" font-size="11px"><tspan>C:7</tspan></text>
<text x="452.537" y="65.6919" fill="#000000" font-family="sans-serif" font-size="11px"><tspan>C:8</tspan></text>
<text x="514.458" y="45.1278" fill="#0000FF" font-family="sans-serif" font-size="11px"><tspan>NH</tspan><tspan baseline-shift="sub" font-size="8.25px">2</tspan><tspan>:9</tspan></text>
<text x="470.375" y="194" fill="#000000" font-family="sans-serif" font-size="12px"><tspan>comp482</tspan></text>
</svg>
