<?xml version="1.0" encoding="UTF-8"?>
<svg baseProfile="full" version="1.1" viewBox="0 0 800 200" xml:space="preserve" xmlns="http://www.w3.org/2000/svg">

 <!-- END OF HEADER -->
<rect width="800" height="200" fill="#fff"> </rect>
<path class="bond-0" d="m130.2 104.29 12.225-21.175" fill="none" stroke="#000" stroke-width="2px"/>
<path class="bond-1" d="m130.2 104.29 12.225 21.174" fill="none" stroke="#000" stroke-width="2px"/>
<path class="bond-1" d="m137.28 104.44 8.558 14.822" fill="none" stroke="#000" stroke-width="2px"/>
<path class="bond-2" d="m130.2 104.29h-20.851" fill="none" stroke="#000" stroke-width="2px"/>
<path class="bond-3" d="m154.76 130.51h11.425" fill="none" stroke="#000" stroke-width="2px"/>
<path class="bond-4" d="m178.53 125.47 9.311-16.128" fill="none" stroke="#000" stroke-width="2px"/>
<path class="bond-4" d="m174.68 120.02 6.518-11.29" fill="none" stroke="#000" stroke-width="2px"/>
<path class="bond-5" d="m187.84 99.248-9.311-16.128" fill="none" stroke="#000" stroke-width="2px"/>
<path class="bond-6" d="m166.19 78.073h-11.425" fill="none" stroke="#000" stroke-width="2px"/>
<path class="bond-6" d="m164.47 84.129h-7.998" fill="none" stroke="#000" stroke-width="2px"/>
<path class="bond-7" d="m97.008 109.34-9.3116 16.128" fill="none" stroke="#000" stroke-width="2px"/>
<path class="bond-7" d="m90.367 108.73-6.5181 11.29" fill="none" stroke="#000" stroke-width="2px"/>
<path class="bond-8" d="m97.008 99.248-4.6558-8.0641" fill="none" stroke="#000" stroke-width="2px"/>
<path class="bond-8" d="m92.352 91.183-4.6558-8.064" fill="none" stroke="#00f" stroke-width="2px"/>
<path class="bond-9" d="m75.357 78.073h-5.7125" fill="none" stroke="#00f" stroke-width="2px"/>
<path class="bond-9" d="m69.644 78.073h-5.7124" fill="none" stroke="#000" stroke-width="2px"/>
<path class="bond-9" d="m73.643 84.129h-3.9988" fill="none" stroke="#00f" stroke-width="2px"/>
<path class="bond-9" d="m69.644 84.129h-3.9987" fill="none" stroke="#000" stroke-width="2px"/>
<path class="bond-10" d="m51.592 83.119-9.3116 16.128" fill="none" stroke="#000" stroke-width="2px"/>
<path class="bond-11" d="m29.942 101.27h-3.8588" fill="none" stroke="#000" stroke-width="2px"/>
<path class="bond-11" d="m26.083 101.27h-3.8588" fill="none" stroke="#f00" stroke-width="2px"/>
<path class="bond-11" d="m29.942 107.32h-3.8588" fill="none" stroke="#000" stroke-width="2px"/>
<path class="bond-11" d="m26.083 107.32h-3.8588" fill="none" stroke="#f00" stroke-width="2px"/>
<path class="bond-12" d="m42.281 109.34 4.6558 8.064" fill="none" stroke="#000" stroke-width="2px"/>
<path class="bond-12" d="m46.937 117.4 4.6558 8.064" fill="none" stroke="#00f" stroke-width="2px"/>
<path class="bond-13" d="m71.674 130.51h0.1575" fill="none" stroke="#00f" stroke-width="2px"/>
<path class="bond-13" d="m71.831 130.51h0.1575" fill="none" stroke="#000" stroke-width="2px"/>
<text x="135.91" y="135.56" fill="#000000" font-family="sans-serif" font-size="10px"><tspan>C:1</tspan></text>
<text x="166.187" y="135.56" fill="#000000" font-family="sans-serif" font-size="10px"><tspan>C:2</tspan></text>
<text x="181.325" y="109.34" fill="#000000" font-family="sans-serif" font-size="10px"><tspan>C:3</tspan></text>
<text x="166.187" y="83.1194" fill="#000000" font-family="sans-serif" font-size="10px"><tspan>C:4</tspan></text>
<text x="135.91" y="83.1194" fill="#000000" font-family="sans-serif" font-size="10px"><tspan>C:5</tspan></text>
<text x="90.495" y="109.34" fill="#000000" font-family="sans-serif" font-size="10px"><tspan>C:6</tspan></text>
<text x="75.3567" y="83.1194" fill="#0000FF" font-family="sans-serif" font-size="10px"><tspan>N:7</tspan></text>
<text x="45.08" y="83.1194" fill="#000000" font-family="sans-serif" font-size="10px"><tspan>C:8</tspan></text>
<text x="29.9417" y="109.34" fill="#000000" font-family="sans-serif" font-size="10px"><tspan>C:9</tspan></text>
<text x="-4.0423" y="109.34" fill="#FF0000" font-family="sans-serif" font-size="10px"><tspan>O:10</tspan></text>
<text x="37.3382" y="135.56" fill="#0000FF" font-family="sans-serif" font-size="10px"><tspan>NH:11</tspan></text>
<text x="71.9886" y="135.56" fill="#000000" font-family="sans-serif" font-size="10px"><tspan>C:12</tspan></text>
<text x="70.3745" y="194" fill="#000000" font-family="sans-serif" font-size="12px"><tspan>comp190</tspan></text>
<path class="bond-0" d="m267.58 119.43v-25.231" fill="none" stroke="#000" stroke-width="2px"/>
<path class="bond-0" d="m273.63 115.65v-17.661" fill="none" stroke="#000" stroke-width="2px"/>
<path class="bond-1" d="m267.58 119.43 8.74 5.046" fill="none" stroke="#000" stroke-width="2px"/>
<path class="bond-1" d="m276.32 124.48 8.741 5.046" fill="none" stroke="#00f" stroke-width="2px"/>
<path class="bond-2" d="m302.54 129.52 4.37-2.523" fill="none" stroke="#00f" stroke-width="2px"/>
<path class="bond-2" d="m306.91 127 4.37-2.523" fill="none" stroke="#000" stroke-width="2px"/>
<path class="bond-2" d="m300.82 123.52 3.059-1.766" fill="none" stroke="#00f" stroke-width="2px"/>
<path class="bond-2" d="m303.88 121.76 3.059-1.766" fill="none" stroke="#000" stroke-width="2px"/>
<path class="bond-3" d="m320.02 114.39v-20.185" fill="none" stroke="#000" stroke-width="2px"/>
<path class="bond-4" d="m328.76 124.48 8.74 5.046" fill="none" stroke="#000" stroke-width="2px"/>
<path class="bond-5" d="m330.27 86.731 4.37-2.523" fill="none" stroke="#000" stroke-width="2px"/>
<path class="bond-5" d="m334.64 84.208 4.37-2.5231" fill="none" stroke="#f00" stroke-width="2px"/>
<path class="bond-5" d="m327.24 81.487 4.37-2.523" fill="none" stroke="#000" stroke-width="2px"/>
<path class="bond-5" d="m331.61 78.964 4.37-2.5231" fill="none" stroke="#f00" stroke-width="2px"/>
<path class="bond-6" d="m311.28 84.109-4.37-2.5231" fill="none" stroke="#000" stroke-width="2px"/>
<path class="bond-6" d="m306.91 81.586-4.37-2.523" fill="none" stroke="#00f" stroke-width="2px"/>
<path class="bond-7" d="m285.06 79.063-4.371 2.523" fill="none" stroke="#00f" stroke-width="2px"/>
<path class="bond-7" d="m280.69 81.586-4.37 2.5231" fill="none" stroke="#000" stroke-width="2px"/>
<text x="284.372" y="139.616" fill="#0000FF" font-family="sans-serif" font-size="10px"><tspan>N:1</tspan></text>
<text x="310.592" y="124.478" fill="#000000" font-family="sans-serif" font-size="10px"><tspan>C:2</tspan></text>
<text x="310.592" y="94.2014" fill="#000000" font-family="sans-serif" font-size="10px"><tspan>C:3</tspan></text>
<text x="336.473" y="79.0631" fill="#FF0000" font-family="sans-serif" font-size="10px"><tspan>O:4</tspan></text>
<text x="279.998" y="79.0631" fill="#0000FF" font-family="sans-serif" font-size="10px"><tspan>NH:5</tspan></text>
<text x="258.151" y="94.2014" fill="#000000" font-family="sans-serif" font-size="10px"><tspan>C:6</tspan></text>
<text x="336.812" y="139.616" fill="#000000" font-family="sans-serif" font-size="10px"><tspan>C:7</tspan></text>
<text x="270.375" y="194" fill="#000000" font-family="sans-serif" font-size="12px"><tspan>comp197</tspan></text>
<path class="bond-0" d="m461.67 145.24-18.035-8.375" fill="none" stroke="#000" stroke-width="2px"/>
<path class="bond-0" d="m461.51 138.49-12.625-5.862" fill="none" stroke="#000" stroke-width="2px"/>
<path class="bond-1" d="m461.67 145.24 8.795-6.18" fill="none" stroke="#000" stroke-width="2px"/>
<path class="bond-1" d="m470.46 139.06 8.796-6.18" fill="none" stroke="#00f" stroke-width="2px"/>
<path class="bond-2" d="m485.99 122.78-0.894-10.032" fill="none" stroke="#00f" stroke-width="2px"/>
<path class="bond-2" d="m485.1 112.75-0.894-10.033" fill="none" stroke="#000" stroke-width="2px"/>
<path class="bond-2" d="m479.69 120.31-0.626-7.023" fill="none" stroke="#00f" stroke-width="2px"/>
<path class="bond-2" d="m479.07 113.29-0.625-7.022" fill="none" stroke="#000" stroke-width="2px"/>
<path class="bond-3" d="m474.33 93.296-8.609-3.9974" fill="none" stroke="#000" stroke-width="2px"/>
<path class="bond-4" d="m490.94 92.626 10.409-7.314" fill="none" stroke="#000" stroke-width="2px"/>
<path class="bond-5" d="m458.86 79.607-0.894-10.032" fill="none" stroke="#000" stroke-width="2px"/>
<path class="bond-5" d="m457.96 69.574-0.894-10.032" fill="none" stroke="#f00" stroke-width="2px"/>
<path class="bond-5" d="m452.83 80.144-0.894-10.032" fill="none" stroke="#000" stroke-width="2px"/>
<path class="bond-5" d="m451.93 70.112-0.894-10.032" fill="none" stroke="#f00" stroke-width="2px"/>
<path class="bond-6" d="m449.11 89.968-5.205 3.657" fill="none" stroke="#000" stroke-width="2px"/>
<path class="bond-6" d="m443.91 93.624-5.205 3.657" fill="none" stroke="#00f" stroke-width="2px"/>
<path class="bond-7" d="m431.97 107.37 0.894 10.032" fill="none" stroke="#00f" stroke-width="2px"/>
<path class="bond-7" d="m432.86 117.41 0.894 10.033" fill="none" stroke="#000" stroke-width="2px"/>
<path class="bond-8" d="m517.95 84.643 8.609 3.9974" fill="none" stroke="#000" stroke-width="2px"/>
<path class="bond-9" d="m543.17 87.971 10.41-7.3139" fill="none" stroke="#000" stroke-width="2px"/>
<path class="bond-10" d="m536.44 98.063 1.789 20.065" fill="none" stroke="#000" stroke-width="2px"/>
<path class="bond-10" d="m542.74 100.54 1.252 14.046" fill="none" stroke="#000" stroke-width="2px"/>
<path class="bond-11" d="m548.1 127.55 7.168 3.328" fill="none" stroke="#000" stroke-width="2px"/>
<path class="bond-12" d="m573.32 130.88 10.409-7.314" fill="none" stroke="#000" stroke-width="2px"/>
<path class="bond-12" d="m571.4 124.83 7.287-5.119" fill="none" stroke="#000" stroke-width="2px"/>
<path class="bond-13" d="m590.46 113.47-1.788-20.065" fill="none" stroke="#000" stroke-width="2px"/>
<path class="bond-14" d="m577.35 83.316-5.726-2.6587" fill="none" stroke="#000" stroke-width="2px"/>
<path class="bond-14" d="m573.94 88.409-4.008-1.8612" fill="none" stroke="#000" stroke-width="2px"/>
<text x="477.016" y="132.876" fill="#0000FF" font-family="sans-serif" font-size="10px"><tspan>N:1</tspan></text>
<text x="474.328" y="102.718" fill="#000000" font-family="sans-serif" font-size="10px"><tspan>C:2</tspan></text>
<text x="446.867" y="89.9675" fill="#000000" font-family="sans-serif" font-size="10px"><tspan>C:3</tspan></text>
<text x="443.841" y="59.8104" fill="#FF0000" font-family="sans-serif" font-size="10px"><tspan>O:4</tspan></text>
<text x="417.721" y="107.374" fill="#0000FF" font-family="sans-serif" font-size="10px"><tspan>NH:5</tspan></text>
<text x="424.782" y="137.531" fill="#000000" font-family="sans-serif" font-size="10px"><tspan>C:6</tspan></text>
<text x="499.101" y="85.3123" fill="#000000" font-family="sans-serif" font-size="10px"><tspan>C:7</tspan></text>
<text x="526.562" y="98.0633" fill="#000000" font-family="sans-serif" font-size="10px"><tspan>C:8</tspan></text>
<text x="529.25" y="128.22" fill="#000000" font-family="sans-serif" font-size="10px"><tspan>C:9</tspan></text>
<text x="553.342" y="140.971" fill="#000000" font-family="sans-serif" font-size="10px"><tspan>C:10</tspan></text>
<text x="578.115" y="123.565" fill="#000000" font-family="sans-serif" font-size="10px"><tspan>C:11</tspan></text>
<text x="575.427" y="93.408" fill="#000000" font-family="sans-serif" font-size="10px"><tspan>C:12</tspan></text>
<text x="547.967" y="80.6571" fill="#000000" font-family="sans-serif" font-size="10px"><tspan>C:13</tspan></text>
<text x="470.375" y="194" fill="#000000" font-family="sans-serif" font-size="12px"><tspan>comp204</tspan></text>
</svg>
