<?xml version="1.0" encoding="UTF-8"?>
<svg baseProfile="full" version="1.1" viewBox="0 0 800 200" xml:space="preserve" xmlns="http://www.w3.org/2000/svg">

 <!-- END OF HEADER -->
<rect width="800" height="200" fill="#fff"> </rect>
<path class="bond-0" d="m184.4 116.45-15.971 4.125" fill="none" stroke="#000" stroke-width="2px"/>
<path class="bond-0" d="m180.79 112.36-11.18 2.888" fill="none" stroke="#000" stroke-width="2px"/>
<path class="bond-1" d="m184.4 116.45 5.379-19.375" fill="none" stroke="#000" stroke-width="2px"/>
<path class="bond-2" d="m186.93 88.972-9.076-9.2419" fill="none" stroke="#000" stroke-width="2px"/>
<path class="bond-2" d="m182.1 90.993-6.354-6.4693" fill="none" stroke="#000" stroke-width="2px"/>
<path class="bond-3" d="m166.3 77.633-8.402 2.1702" fill="none" stroke="#000" stroke-width="2px"/>
<path class="bond-4" d="m146.35 77.706-9.077-9.2419" fill="none" stroke="#000" stroke-width="2px"/>
<path class="bond-5" d="m149.21 85.81-4.254 15.322" fill="none" stroke="#000" stroke-width="2px"/>
<path class="bond-5" d="m153.26 89.41-2.978 10.725" fill="none" stroke="#000" stroke-width="2px"/>
<path class="bond-6" d="m147.81 109.24 9.077 9.242" fill="none" stroke="#000" stroke-width="2px"/>
<path class="bond-7" d="m136.26 107.14-8.402 2.17" fill="none" stroke="#000" stroke-width="2px"/>
<path class="bond-8" d="m116.31 107.21-9.076-9.2414" fill="none" stroke="#000" stroke-width="2px"/>
<path class="bond-8" d="m118.42 102.42-6.353-6.4693" fill="none" stroke="#000" stroke-width="2px"/>
<path class="bond-9" d="m104.38 89.867 4.254-15.322" fill="none" stroke="#000" stroke-width="2px"/>
<path class="bond-10" d="m95.683 95.875-4.8848 1.2618" fill="none" stroke="#000" stroke-width="2px"/>
<path class="bond-11" d="m117.33 68.538 8.401-2.1703" fill="none" stroke="#000" stroke-width="2px"/>
<path class="bond-11" d="m119.8 72.92 5.881-1.5192" fill="none" stroke="#000" stroke-width="2px"/>
<path class="bond-12" d="m105.78 66.44-4.539-4.621" fill="none" stroke="#000" stroke-width="2px"/>
<path class="bond-12" d="m101.24 61.82-4.538-4.6209" fill="none" stroke="#f00" stroke-width="2px"/>
<path class="bond-13" d="m93.845 49.094 2.1271-7.6613" fill="none" stroke="#f00" stroke-width="2px"/>
<path class="bond-13" d="m95.972 41.433 2.127-7.6612" fill="none" stroke="#000" stroke-width="2px"/>
<path class="bond-14" d="m80.758 104.05 3.9872 15.436" fill="none" stroke="#000" stroke-width="2px"/>
<path class="bond-15" d="m78.665 95.948-3.9872-15.436" fill="none" stroke="#000" stroke-width="2px"/>
<path class="bond-16" d="m68.626 102.86-2.1801 0.563" fill="none" stroke="#000" stroke-width="2px"/>
<path class="bond-17" d="m96.066 126.39 2.879 0.799" fill="none" stroke="#000" stroke-width="2px"/>
<path class="bond-18" d="m81.666 127.59-9.0944 8.932" fill="none" stroke="#000" stroke-width="2px"/>
<path class="bond-18" d="m83.71 132.4-6.366 6.253" fill="none" stroke="#000" stroke-width="2px"/>
<path class="bond-19" d="m69.493 144.63 3.9871 15.436" fill="none" stroke="#000" stroke-width="2px"/>
<path class="bond-20" d="m84.801 166.97 2.879 0.799" fill="none" stroke="#000" stroke-width="2px"/>
<path class="bond-20" d="m86.533 162.4 2.0153 0.559" fill="none" stroke="#000" stroke-width="2px"/>
<path class="bond-21" d="m102.08 166.57 9.095-8.932" fill="none" stroke="#000" stroke-width="2px"/>
<path class="bond-22" d="m114.25 149.53-3.987-15.436" fill="none" stroke="#000" stroke-width="2px"/>
<path class="bond-22" d="m108.95 148.43-2.791-10.805" fill="none" stroke="#000" stroke-width="2px"/>
<path class="bond-23" d="m63.357 73.607-2.879-0.7993" fill="none" stroke="#000" stroke-width="2px"/>
<path class="bond-24" d="m77.757 72.408 9.0943-8.9317" fill="none" stroke="#000" stroke-width="2px"/>
<path class="bond-24" d="m75.714 67.598 6.3661-6.2522" fill="none" stroke="#000" stroke-width="2px"/>
<path class="bond-25" d="m89.931 55.372-3.9872-15.436" fill="none" stroke="#000" stroke-width="2px"/>
<path class="bond-26" d="m74.623 33.031-2.879-0.7994" fill="none" stroke="#000" stroke-width="2px"/>
<path class="bond-26" d="m72.89 37.596-2.0153-0.5595" fill="none" stroke="#000" stroke-width="2px"/>
<path class="bond-27" d="m57.344 33.431-9.0944 8.9317" fill="none" stroke="#000" stroke-width="2px"/>
<path class="bond-28" d="m45.171 50.467 3.9872 15.436" fill="none" stroke="#000" stroke-width="2px"/>
<path class="bond-28" d="m50.477 51.567 2.7911 10.805" fill="none" stroke="#000" stroke-width="2px"/>
<path class="bond-29" d="m55.046 110.13-4.2542 15.322" fill="none" stroke="#000" stroke-width="2px"/>
<path class="bond-30" d="m52.192 102.03-9.0767-9.2415" fill="none" stroke="#000" stroke-width="2px"/>
<path class="bond-30" d="m47.361 104.05-6.3537-6.469" fill="none" stroke="#000" stroke-width="2px"/>
<path class="bond-31" d="m28.862 91.388-2.9925 0.773" fill="none" stroke="#000" stroke-width="2px"/>
<path class="bond-32" d="m14.47 98.867-4.2541 15.323" fill="none" stroke="#000" stroke-width="2px"/>
<path class="bond-32" d="m18.517 102.47-2.9779 10.726" fill="none" stroke="#000" stroke-width="2px"/>
<path class="bond-33" d="m13.071 122.29 9.0767 9.242" fill="none" stroke="#000" stroke-width="2px"/>
<path class="bond-34" d="m36.401 132.93 2.9925-0.773" fill="none" stroke="#000" stroke-width="2px"/>
<path class="bond-34" d="m35.634 128.11 2.0948-0.541" fill="none" stroke="#000" stroke-width="2px"/>
<text x="183.34" y="97.0761" fill="#000000" font-family="sans-serif" font-size="8px"><tspan>C:1</tspan></text>
<text x="166.304" y="79.7299" fill="#000000" font-family="sans-serif" font-size="8px"><tspan>C:2</tspan></text>
<text x="142.764" y="85.8105" fill="#000000" font-family="sans-serif" font-size="8px"><tspan>C:3</tspan></text>
<text x="136.259" y="109.237" fill="#000000" font-family="sans-serif" font-size="8px"><tspan>C:4</tspan></text>
<text x="153.295" y="126.583" fill="#000000" font-family="sans-serif" font-size="8px"><tspan>C:5</tspan></text>
<text x="112.719" y="115.318" fill="#000000" font-family="sans-serif" font-size="8px"><tspan>C:6</tspan></text>
<text x="95.6829" y="97.9716" fill="#000000" font-family="sans-serif" font-size="8px"><tspan>C:7</tspan></text>
<text x="102.187" y="74.5448" fill="#000000" font-family="sans-serif" font-size="8px"><tspan>C:8</tspan></text>
<text x="125.727" y="68.4642" fill="#000000" font-family="sans-serif" font-size="8px"><tspan>C:9</tspan></text>
<text x="82.174" y="57.1986" fill="#FF0000" font-family="sans-serif" font-size="8px"><tspan>O:10</tspan></text>
<text x="88.9506" y="33.7718" fill="#000000" font-family="sans-serif" font-size="8px"><tspan>C:11</tspan></text>
<text x="68.6255" y="104.052" fill="#000000" font-family="sans-serif" font-size="8px"><tspan>Si:12</tspan></text>
<text x="75.5185" y="127.592" fill="#000000" font-family="sans-serif" font-size="8px"><tspan>C:13</tspan></text>
<text x="58.1723" y="144.629" fill="#000000" font-family="sans-serif" font-size="8px"><tspan>C:14</tspan></text>
<text x="64.2528" y="168.169" fill="#000000" font-family="sans-serif" font-size="8px"><tspan>C:15</tspan></text>
<text x="87.6796" y="174.673" fill="#000000" font-family="sans-serif" font-size="8px"><tspan>C:16</tspan></text>
<text x="105.026" y="157.637" fill="#000000" font-family="sans-serif" font-size="8px"><tspan>C:17</tspan></text>
<text x="98.9453" y="134.097" fill="#000000" font-family="sans-serif" font-size="8px"><tspan>C:18</tspan></text>
<text x="63.3574" y="80.5119" fill="#000000" font-family="sans-serif" font-size="8px"><tspan>C:19</tspan></text>
<text x="80.7036" y="63.4758" fill="#000000" font-family="sans-serif" font-size="8px"><tspan>C:20</tspan></text>
<text x="74.623" y="39.9355" fill="#000000" font-family="sans-serif" font-size="8px"><tspan>C:21</tspan></text>
<text x="51.1962" y="33.4313" fill="#000000" font-family="sans-serif" font-size="8px"><tspan>C:22</tspan></text>
<text x="33.85" y="50.4673" fill="#000000" font-family="sans-serif" font-size="8px"><tspan>C:23</tspan></text>
<text x="39.9306" y="74.0076" fill="#000000" font-family="sans-serif" font-size="8px"><tspan>C:24</tspan></text>
<text x="45.8976" y="110.133" fill="#000000" font-family="sans-serif" font-size="8px"><tspan>C:25</tspan></text>
<text x="28.8615" y="92.7865" fill="#000000" font-family="sans-serif" font-size="8px"><tspan>C:26</tspan></text>
<text x="5.32124" y="98.8671" fill="#000000" font-family="sans-serif" font-size="8px"><tspan>C:27</tspan></text>
<text x="-1.18299" y="122.294" fill="#000000" font-family="sans-serif" font-size="8px"><tspan>C:28</tspan></text>
<text x="15.8531" y="139.64" fill="#000000" font-family="sans-serif" font-size="8px"><tspan>C:29</tspan></text>
<text x="39.3934" y="133.56" fill="#000000" font-family="sans-serif" font-size="8px"><tspan>C:30</tspan></text>
<text x="70.3745" y="194" fill="#000000" font-family="sans-serif" font-size="12px"><tspan>comp510</tspan></text>
<path class="bond-0" d="m261.8 84.313v20.261" fill="none" stroke="#000" stroke-width="2px"/>
<path class="bond-0" d="m266.66 87.352v14.183" fill="none" stroke="#000" stroke-width="2px"/>
<path class="bond-1" d="m261.8 84.313 14.037-8.1043" fill="none" stroke="#000" stroke-width="2px"/>
<path class="bond-2" d="m261.8 84.313-7.019-4.0522" fill="none" stroke="#000" stroke-width="2px"/>
<path class="bond-2" d="m254.78 80.261-7.018-4.0521" fill="none" stroke="#f00" stroke-width="2px"/>
<path class="bond-3" d="m289.87 76.209 7.019 4.0521" fill="none" stroke="#000" stroke-width="2px"/>
<path class="bond-3" d="m288.49 81.028 4.913 2.8365" fill="none" stroke="#000" stroke-width="2px"/>
<path class="bond-4" d="m310.93 80.261 7.018-4.0521" fill="none" stroke="#000" stroke-width="2px"/>
<path class="bond-5" d="m303.91 88.365v16.209" fill="none" stroke="#000" stroke-width="2px"/>
<path class="bond-6" d="m296.89 112.68-7.019 4.052" fill="none" stroke="#000" stroke-width="2px"/>
<path class="bond-6" d="m293.41 109.08-4.913 2.836" fill="none" stroke="#000" stroke-width="2px"/>
<path class="bond-7" d="m310.93 112.68 7.018 4.052" fill="none" stroke="#000" stroke-width="2px"/>
<path class="bond-8" d="m275.83 116.73-7.019-4.052" fill="none" stroke="#000" stroke-width="2px"/>
<path class="bond-9" d="m254.78 112.68-3.509 2.026" fill="none" stroke="#000" stroke-width="2px"/>
<path class="bond-9" d="m251.27 114.7-3.509 2.026" fill="none" stroke="#f00" stroke-width="2px"/>
<path class="bond-10" d="m331.98 116.73 7.019-4.052" fill="none" stroke="#000" stroke-width="2px"/>
<path class="bond-10" d="m330.6 111.91 4.913-2.836" fill="none" stroke="#000" stroke-width="2px"/>
<path class="bond-11" d="m346.02 104.57v-16.209" fill="none" stroke="#000" stroke-width="2px"/>
<path class="bond-12" d="m339 80.261-7.019-4.0521" fill="none" stroke="#000" stroke-width="2px"/>
<path class="bond-12" d="m335.52 83.864-4.913-2.8365" fill="none" stroke="#000" stroke-width="2px"/>
<text x="275.283" y="76.2086" fill="#000000" font-family="sans-serif" font-size="8px"><tspan>C:1</tspan></text>
<text x="296.339" y="88.365" fill="#000000" font-family="sans-serif" font-size="8px"><tspan>C:2</tspan></text>
<text x="296.339" y="112.678" fill="#000000" font-family="sans-serif" font-size="8px"><tspan>C:3</tspan></text>
<text x="275.283" y="124.834" fill="#000000" font-family="sans-serif" font-size="8px"><tspan>C:4</tspan></text>
<text x="254.228" y="112.678" fill="#000000" font-family="sans-serif" font-size="8px"><tspan>C:5</tspan></text>
<text x="229.387" y="124.834" fill="#FF0000" font-family="sans-serif" font-size="8px"><tspan>HO:6</tspan></text>
<text x="317.395" y="124.834" fill="#000000" font-family="sans-serif" font-size="8px"><tspan>C:7</tspan></text>
<text x="338.45" y="112.678" fill="#000000" font-family="sans-serif" font-size="8px"><tspan>C:8</tspan></text>
<text x="338.45" y="88.365" fill="#000000" font-family="sans-serif" font-size="8px"><tspan>C:9</tspan></text>
<text x="314.69" y="76.2086" fill="#000000" font-family="sans-serif" font-size="8px"><tspan>C:10</tspan></text>
<text x="226.683" y="76.2086" fill="#FF0000" font-family="sans-serif" font-size="8px"><tspan>HO:11</tspan></text>
<text x="270.375" y="194" fill="#000000" font-family="sans-serif" font-size="12px"><tspan>comp512</tspan></text>
<path class="bond-0" d="m539.12 113.69-15.113 5.834" fill="none" stroke="#000" stroke-width="2px"/>
<path class="bond-0" d="m535.1 110.03-10.579 4.084" fill="none" stroke="#000" stroke-width="2px"/>
<path class="bond-1" d="m539.12 113.69 3.124-19.969" fill="none" stroke="#000" stroke-width="2px"/>
<path class="bond-2" d="m537.86 85.62-8.877-7.1606" fill="none" stroke="#000" stroke-width="2px"/>
<path class="bond-2" d="m533.47 88.33-6.214-5.0125" fill="none" stroke="#000" stroke-width="2px"/>
<path class="bond-3" d="m516.39 77.329-7.543 2.9119" fill="none" stroke="#000" stroke-width="2px"/>
<path class="bond-4" d="m496.25 79.111-8.877-7.1606" fill="none" stroke="#000" stroke-width="2px"/>
<path class="bond-5" d="m500.64 87.215-2.491 15.916" fill="none" stroke="#000" stroke-width="2px"/>
<path class="bond-5" d="m505.07 90.354-1.743 11.142" fill="none" stroke="#000" stroke-width="2px"/>
<path class="bond-6" d="m502.54 111.24 8.877 7.16" fill="none" stroke="#000" stroke-width="2px"/>
<path class="bond-7" d="m489.95 110.11-7.543 2.911" fill="none" stroke="#000" stroke-width="2px"/>
<path class="bond-8" d="m469.81 111.89-8.876-7.16" fill="none" stroke="#000" stroke-width="2px"/>
<path class="bond-8" d="m471.53 107.03-6.214-5.012" fill="none" stroke="#000" stroke-width="2px"/>
<path class="bond-9" d="m456.54 96.622 2.49-15.916" fill="none" stroke="#000" stroke-width="2px"/>
<path class="bond-10" d="m448.34 103.6-1.783 0.689" fill="none" stroke="#000" stroke-width="2px"/>
<path class="bond-10" d="m446.56 104.28-1.783 0.688" fill="none" stroke="#00f" stroke-width="2px"/>
<path class="bond-11" d="m467.24 73.732 7.543-2.9119" fill="none" stroke="#000" stroke-width="2px"/>
<path class="bond-11" d="m470.12 77.831 5.28-2.0383" fill="none" stroke="#000" stroke-width="2px"/>
<text x="535.31" y="93.7241" fill="#000000" font-family="sans-serif" font-size="8px"><tspan>C:1</tspan></text>
<text x="516.387" y="78.4592" fill="#000000" font-family="sans-serif" font-size="8px"><tspan>C:2</tspan></text>
<text x="493.705" y="87.215" fill="#000000" font-family="sans-serif" font-size="8px"><tspan>C:3</tspan></text>
<text x="489.947" y="111.236" fill="#000000" font-family="sans-serif" font-size="8px"><tspan>C:4</tspan></text>
<text x="508.871" y="126.501" fill="#000000" font-family="sans-serif" font-size="8px"><tspan>C:5</tspan></text>
<text x="467.266" y="119.992" fill="#000000" font-family="sans-serif" font-size="8px"><tspan>C:6</tspan></text>
<text x="448.342" y="104.727" fill="#000000" font-family="sans-serif" font-size="8px"><tspan>C:7</tspan></text>
<text x="452.1" y="80.7059" fill="#000000" font-family="sans-serif" font-size="8px"><tspan>C:8</tspan></text>
<text x="474.782" y="71.9501" fill="#000000" font-family="sans-serif" font-size="8px"><tspan>C:9</tspan></text>
<text x="418.091" y="113.888" fill="#0000FF" font-family="sans-serif" font-size="8px"><tspan>H</tspan><tspan baseline-shift="sub" font-size="6px">2</tspan><tspan>N:10</tspan></text>
<text x="470.375" y="194" fill="#000000" font-family="sans-serif" font-size="12px"><tspan>comp538</tspan></text>
<path class="bond-0" d="m734.49 97.635-12.516 14.171" fill="none" stroke="#000" stroke-width="2px"/>
<path class="bond-0" d="m728.97 96.542-8.761 9.9201" fill="none" stroke="#000" stroke-width="2px"/>
<path class="bond-1" d="m734.49 97.635-6.375-18.998" fill="none" stroke="#000" stroke-width="2px"/>
<path class="bond-2" d="m734.49 97.635 7.047 1.4276" fill="none" stroke="#000" stroke-width="2px"/>
<path class="bond-2" d="m741.54 99.063 7.048 1.4273" fill="none" stroke="#3cc" stroke-width="2px"/>
<path class="bond-3" d="m719.18 73.052-8.69-1.7603" fill="none" stroke="#000" stroke-width="2px"/>
<path class="bond-3" d="m716.92 77.554-6.083-1.2323" fill="none" stroke="#000" stroke-width="2px"/>
<path class="bond-4" d="m699.35 73.811-8.937 10.119" fill="none" stroke="#000" stroke-width="2px"/>
<path class="bond-5" d="m679.26 86.448-8.691-1.7604" fill="none" stroke="#000" stroke-width="2px"/>
<path class="bond-6" d="m688.19 92.034 5.015 14.945" fill="none" stroke="#000" stroke-width="2px"/>
<path class="bond-6" d="m693.55 92.729 3.51 10.462" fill="none" stroke="#000" stroke-width="2px"/>
<path class="bond-7" d="m702.13 112.56 8.691 1.76" fill="none" stroke="#000" stroke-width="2px"/>
<path class="bond-8" d="m690.99 115.08-8.937 10.118" fill="none" stroke="#000" stroke-width="2px"/>
<path class="bond-9" d="m670.9 127.72-8.69-1.76" fill="none" stroke="#000" stroke-width="2px"/>
<path class="bond-9" d="m670.56 122.69-6.083-1.233" fill="none" stroke="#000" stroke-width="2px"/>
<path class="bond-10" d="m653.28 120.38-5.015-14.946" fill="none" stroke="#000" stroke-width="2px"/>
<path class="bond-11" d="m650.49 97.326 8.937-10.119" fill="none" stroke="#000" stroke-width="2px"/>
<path class="bond-11" d="m655.47 99.027 6.256-7.0832" fill="none" stroke="#000" stroke-width="2px"/>
<path class="bond-12" d="m661.64 79.103-2.439-7.2701" fill="none" stroke="#000" stroke-width="2px"/>
<path class="bond-12" d="m659.2 71.832-2.44-7.2702" fill="none" stroke="#00f" stroke-width="2px"/>
<text x="719.185" y="78.6374" fill="#000000" font-family="sans-serif" font-size="8px"><tspan>C:1</tspan></text>
<text x="695.356" y="73.8106" fill="#000000" font-family="sans-serif" font-size="8px"><tspan>C:2</tspan></text>
<text x="679.262" y="92.0337" fill="#000000" font-family="sans-serif" font-size="8px"><tspan>C:3</tspan></text>
<text x="686.996" y="115.084" fill="#000000" font-family="sans-serif" font-size="8px"><tspan>C:4</tspan></text>
<text x="710.825" y="119.91" fill="#000000" font-family="sans-serif" font-size="8px"><tspan>C:5</tspan></text>
<text x="670.901" y="133.307" fill="#000000" font-family="sans-serif" font-size="8px"><tspan>C:6</tspan></text>
<text x="647.072" y="128.48" fill="#000000" font-family="sans-serif" font-size="8px"><tspan>C:7</tspan></text>
<text x="639.338" y="105.43" fill="#000000" font-family="sans-serif" font-size="8px"><tspan>C:8</tspan></text>
<text x="655.433" y="87.207" fill="#000000" font-family="sans-serif" font-size="8px"><tspan>C:9</tspan></text>
<text x="640.129" y="64.5623" fill="#0000FF" font-family="sans-serif" font-size="8px"><tspan>NH</tspan><tspan baseline-shift="sub" font-size="6px">2</tspan><tspan>:10</tspan></text>
<text x="748.584" y="106.514" fill="#33CCCC" font-family="sans-serif" font-size="8px"><tspan>F:11</tspan></text>
<text x="670.375" y="194" fill="#000000" font-family="sans-serif" font-size="12px"><tspan>comp544</tspan></text>
</svg>
