<?xml version="1.0" encoding="UTF-8"?>
<svg baseProfile="full" version="1.1" viewBox="0 0 800 200" xml:space="preserve" xmlns="http://www.w3.org/2000/svg">

 <!-- END OF HEADER -->
<rect width="800" height="200" fill="#fff"> </rect>
<path class="bond-0" d="m170.37 115.6-13.47 8.592" fill="none" stroke="#000" stroke-width="2px"/>
<path class="bond-0" d="m165.86 112.98-9.429 6.015" fill="none" stroke="#000" stroke-width="2px"/>
<path class="bond-1" d="m170.37 115.6-0.853-19.272" fill="none" stroke="#000" stroke-width="2px"/>
<path class="bond-2" d="m170.37 115.6 6.189 3.217" fill="none" stroke="#000" stroke-width="2px"/>
<path class="bond-2" d="m176.56 118.82 6.188 3.217" fill="none" stroke="#00f" stroke-width="2px"/>
<path class="bond-3" d="m162.13 88.722-6.127-3.1849" fill="none" stroke="#000" stroke-width="2px"/>
<path class="bond-3" d="m159.08 92.352-4.289-2.2294" fill="none" stroke="#000" stroke-width="2px"/>
<path class="bond-4" d="m142.75 85.648-7.421 4.7339" fill="none" stroke="#000" stroke-width="2px"/>
<path class="bond-5" d="m122.07 90.494-6.127-3.185" fill="none" stroke="#000" stroke-width="2px"/>
<path class="bond-6" d="m129.45 98.1 0.682 15.413" fill="none" stroke="#000" stroke-width="2px"/>
<path class="bond-6" d="m134.18 100.21 0.477 10.789" fill="none" stroke="#000" stroke-width="2px"/>
<path class="bond-7" d="m137.51 121.12 6.127 3.185" fill="none" stroke="#000" stroke-width="2px"/>
<path class="bond-8" d="m124.25 121.23-3.711 2.367" fill="none" stroke="#000" stroke-width="2px"/>
<path class="bond-8" d="m120.54 123.6-3.71 2.367" fill="none" stroke="#00f" stroke-width="2px"/>
<path class="bond-9" d="m103.58 126.08-3.063-1.592" fill="none" stroke="#00f" stroke-width="2px"/>
<path class="bond-9" d="m100.51 124.48-3.0638-1.593" fill="none" stroke="#000" stroke-width="2px"/>
<path class="bond-9" d="m104.79 121.49-2.144-1.115" fill="none" stroke="#00f" stroke-width="2px"/>
<path class="bond-9" d="m102.65 120.38-2.145-1.115" fill="none" stroke="#000" stroke-width="2px"/>
<path class="bond-10" d="m90.069 115.28-0.341-7.706" fill="none" stroke="#000" stroke-width="2px"/>
<path class="bond-10" d="m89.728 107.58-0.341-7.7063" fill="none" stroke="#00f" stroke-width="2px"/>
<path class="bond-11" d="m95.266 92.155 3.7105-2.3669" fill="none" stroke="#00f" stroke-width="2px"/>
<path class="bond-11" d="m98.976 89.788 3.7105-2.367" fill="none" stroke="#000" stroke-width="2px"/>
<path class="bond-12" d="m82.009 92.267-2.9559-1.5365" fill="none" stroke="#00f" stroke-width="2px"/>
<path class="bond-12" d="m79.053 90.73-2.9559-1.5365" fill="none" stroke="#000" stroke-width="2px"/>
<path class="bond-13" d="m110.88 79.601-0.341-7.7063" fill="none" stroke="#000" stroke-width="2px"/>
<path class="bond-13" d="m110.54 71.895-0.341-7.7063" fill="none" stroke="#f00" stroke-width="2px"/>
<path class="bond-13" d="m106.25 79.806-0.341-7.7063" fill="none" stroke="#000" stroke-width="2px"/>
<path class="bond-13" d="m105.91 72.1-0.341-7.7063" fill="none" stroke="#f00" stroke-width="2px"/>
<path class="bond-14" d="m62.624 89.194-7.4211 4.7338" fill="none" stroke="#000" stroke-width="2px"/>
<path class="bond-15" d="m49.324 101.64 0.682 15.413" fill="none" stroke="#000" stroke-width="2px"/>
<path class="bond-16" d="m41.73 93.928-5.6964-2.9611" fill="none" stroke="#000" stroke-width="2px"/>
<path class="bond-16" d="m38.74 97.592-3.9875-2.0728" fill="none" stroke="#000" stroke-width="2px"/>
<path class="bond-17" d="m22.561 90.967-7.4211 4.7339" fill="none" stroke="#000" stroke-width="2px"/>
<path class="bond-18" d="m9.2617 103.42 0.68199 15.413" fill="none" stroke="#000" stroke-width="2px"/>
<path class="bond-18" d="m13.99 105.52 0.4774 10.789" fill="none" stroke="#000" stroke-width="2px"/>
<path class="bond-19" d="m17.538 126.55 5.6964 2.961" fill="none" stroke="#000" stroke-width="2px"/>
<path class="bond-20" d="m36.707 129.51 7.4211-4.734" fill="none" stroke="#000" stroke-width="2px"/>
<path class="bond-20" d="m35.33 124.9 5.1948-3.314" fill="none" stroke="#000" stroke-width="2px"/>
<text x="162.134" y="96.3273" fill="#000000" font-family="sans-serif" font-size="7px"><tspan>C:1</tspan></text>
<text x="141.591" y="85.6485" fill="#000000" font-family="sans-serif" font-size="7px"><tspan>C:2</tspan></text>
<text x="122.071" y="98.1" fill="#000000" font-family="sans-serif" font-size="7px"><tspan>C:3</tspan></text>
<text x="123.095" y="121.23" fill="#000000" font-family="sans-serif" font-size="7px"><tspan>C:4</tspan></text>
<text x="143.638" y="131.909" fill="#000000" font-family="sans-serif" font-size="7px"><tspan>C:5</tspan></text>
<text x="103.575" y="133.682" fill="#0000FF" font-family="sans-serif" font-size="7px"><tspan>N:6</tspan></text>
<text x="83.0321" y="123.003" fill="#000000" font-family="sans-serif" font-size="7px"><tspan>C:7</tspan></text>
<text x="82.0086" y="99.8727" fill="#0000FF" font-family="sans-serif" font-size="7px"><tspan>N:8</tspan></text>
<text x="101.528" y="87.4212" fill="#000000" font-family="sans-serif" font-size="7px"><tspan>C:9</tspan></text>
<text x="97.6697" y="64.2909" fill="#FF0000" font-family="sans-serif" font-size="7px"><tspan>O:10</tspan></text>
<text x="58.8898" y="89.194" fill="#000000" font-family="sans-serif" font-size="7px"><tspan>C:11</tspan></text>
<text x="39.3701" y="101.645" fill="#000000" font-family="sans-serif" font-size="7px"><tspan>C:12</tspan></text>
<text x="18.8269" y="90.9667" fill="#000000" font-family="sans-serif" font-size="7px"><tspan>C:13</tspan></text>
<text x="-0.692809" y="103.418" fill="#000000" font-family="sans-serif" font-size="7px"><tspan>C:14</tspan></text>
<text x="0.330684" y="126.549" fill="#000000" font-family="sans-serif" font-size="7px"><tspan>C:15</tspan></text>
<text x="20.8739" y="137.227" fill="#000000" font-family="sans-serif" font-size="7px"><tspan>C:16</tspan></text>
<text x="40.3936" y="124.776" fill="#000000" font-family="sans-serif" font-size="7px"><tspan>C:17</tspan></text>
<text x="176.493" y="130.522" fill="#0000FF" font-family="sans-serif" font-size="7px"><tspan>NH</tspan><tspan baseline-shift="sub" font-size="5.25px">2</tspan><tspan>:18</tspan></text>
<text x="70.3745" y="194" fill="#000000" font-family="sans-serif" font-size="12px"><tspan>comp580</tspan></text>
<path class="bond-0" d="m352.21 115.97-12.948 11.563" fill="none" stroke="#000" stroke-width="2px"/>
<path class="bond-0" d="m347.18 114.25-9.064 8.093" fill="none" stroke="#000" stroke-width="2px"/>
<path class="bond-1" d="m352.21 115.97-3.916-18.807" fill="none" stroke="#000" stroke-width="2px"/>
<path class="bond-2" d="m340.28 90.93-7.574-2.4956" fill="none" stroke="#000" stroke-width="2px"/>
<path class="bond-2" d="m337.7 94.953-5.302-1.7468" fill="none" stroke="#000" stroke-width="2px"/>
<path class="bond-3" d="m351.81 89.446 4.097-3.6588" fill="none" stroke="#000" stroke-width="2px"/>
<path class="bond-3" d="m355.91 85.787 4.098-3.6587" fill="none" stroke="#00f" stroke-width="2px"/>
<path class="bond-4" d="m321.18 89.918-8.627 7.7034" fill="none" stroke="#000" stroke-width="2px"/>
<path class="bond-5" d="m301.02 99.105-7.573-2.4956" fill="none" stroke="#000" stroke-width="2px"/>
<path class="bond-6" d="m309.03 105.34 3.113 14.949" fill="none" stroke="#000" stroke-width="2px"/>
<path class="bond-6" d="m314.03 106.64 2.179 10.465" fill="none" stroke="#000" stroke-width="2px"/>
<path class="bond-7" d="m320.16 126.52 7.573 2.495" fill="none" stroke="#000" stroke-width="2px"/>
<path class="bond-8" d="m308.63 128.01-4.313 3.851" fill="none" stroke="#000" stroke-width="2px"/>
<path class="bond-8" d="m304.31 131.86-4.314 3.852" fill="none" stroke="#00f" stroke-width="2px"/>
<path class="bond-9" d="m288.47 137.19-3.787-1.248" fill="none" stroke="#00f" stroke-width="2px"/>
<path class="bond-9" d="m284.68 135.94-3.787-1.248" fill="none" stroke="#000" stroke-width="2px"/>
<path class="bond-9" d="m288.78 132.42-2.651-0.874" fill="none" stroke="#00f" stroke-width="2px"/>
<path class="bond-9" d="m286.13 131.55-2.651-0.873" fill="none" stroke="#000" stroke-width="2px"/>
<path class="bond-10" d="m272.88 128.46-1.556-7.474" fill="none" stroke="#000" stroke-width="2px"/>
<path class="bond-10" d="m271.33 120.99-1.557-7.475" fill="none" stroke="#00f" stroke-width="2px"/>
<path class="bond-11" d="m273.29 105.8 4.314-3.852" fill="none" stroke="#00f" stroke-width="2px"/>
<path class="bond-11" d="m277.6 101.94 4.313-3.8517" fill="none" stroke="#000" stroke-width="2px"/>
<path class="bond-12" d="m261.76 107.28-2.5-0.824" fill="none" stroke="#00f" stroke-width="2px"/>
<path class="bond-12" d="m259.26 106.46-2.499-0.823" fill="none" stroke="#000" stroke-width="2px"/>
<path class="bond-13" d="m287.7 89.904-1.557-7.4746" fill="none" stroke="#000" stroke-width="2px"/>
<path class="bond-13" d="m286.14 82.429-1.556-7.4745" fill="none" stroke="#f00" stroke-width="2px"/>
<path class="bond-13" d="m283.17 90.848-1.556-7.4746" fill="none" stroke="#000" stroke-width="2px"/>
<path class="bond-13" d="m281.61 83.373-1.557-7.4745" fill="none" stroke="#f00" stroke-width="2px"/>
<path class="bond-14" d="m243.53 98.551-8.53-9.5523" fill="none" stroke="#000" stroke-width="2px"/>
<path class="bond-15" d="m237.2 104.45-3.099 0.646" fill="none" stroke="#000" stroke-width="2px"/>
<path class="bond-16" d="m225.58 103.27 4.703-14.272" fill="none" stroke="#000" stroke-width="2px"/>
<text x="340.28" y="97.1636" fill="#000000" font-family="sans-serif" font-size="7px"><tspan>C:1</tspan></text>
<text x="318.29" y="89.9179" fill="#000000" font-family="sans-serif" font-size="7px"><tspan>C:2</tspan></text>
<text x="301.02" y="105.339" fill="#000000" font-family="sans-serif" font-size="7px"><tspan>C:3</tspan></text>
<text x="305.74" y="128.006" fill="#000000" font-family="sans-serif" font-size="7px"><tspan>C:4</tspan></text>
<text x="327.73" y="135.251" fill="#000000" font-family="sans-serif" font-size="7px"><tspan>C:5</tspan></text>
<text x="288.471" y="143.427" fill="#0000FF" font-family="sans-serif" font-size="7px"><tspan>N:6</tspan></text>
<text x="266.481" y="136.181" fill="#000000" font-family="sans-serif" font-size="7px"><tspan>C:7</tspan></text>
<text x="261.761" y="113.514" fill="#0000FF" font-family="sans-serif" font-size="7px"><tspan>N:8</tspan></text>
<text x="279.03" y="98.0933" fill="#000000" font-family="sans-serif" font-size="7px"><tspan>C:9</tspan></text>
<text x="271.475" y="75.4266" fill="#FF0000" font-family="sans-serif" font-size="7px"><tspan>O:10</tspan></text>
<text x="237.195" y="106.269" fill="#000000" font-family="sans-serif" font-size="7px"><tspan>C:11</tspan></text>
<text x="214.528" y="110.989" fill="#000000" font-family="sans-serif" font-size="7px"><tspan>C:12</tspan></text>
<text x="221.774" y="88.9988" fill="#000000" font-family="sans-serif" font-size="7px"><tspan>C:13</tspan></text>
<text x="350.342" y="82.1284" fill="#0000FF" font-family="sans-serif" font-size="7px"><tspan>NH</tspan><tspan baseline-shift="sub" font-size="5.25px">2</tspan><tspan>:14</tspan></text>
<text x="270.375" y="194" fill="#000000" font-family="sans-serif" font-size="12px"><tspan>comp581</tspan></text>
</svg>
