<?xml version="1.0" encoding="UTF-8"?>
<svg baseProfile="full" version="1.1" viewBox="0 0 800 200" xml:space="preserve" xmlns="http://www.w3.org/2000/svg">

 <!-- END OF HEADER -->
<rect width="800" height="200" fill="#fff"> </rect>
<path class="bond-0" d="m57.275 109.04 5.6138 1.824" fill="none" stroke="#000" stroke-width="2px"/>
<path class="bond-0" d="m62.889 110.86 5.6139 1.824" fill="none" stroke="#f00" stroke-width="2px"/>
<path class="bond-1" d="m57.275 109.04v-14.886" fill="none" stroke="#000" stroke-width="2px"/>
<path class="bond-1" d="m60.848 106.81v-10.42" fill="none" stroke="#000" stroke-width="2px"/>
<path class="bond-2" d="m62.836 89.369 2.9333-0.9531" fill="none" stroke="#000" stroke-width="2px"/>
<path class="bond-2" d="m65.77 88.416 2.9332-0.953" fill="none" stroke="#00f" stroke-width="2px"/>
<path class="bond-3" d="m76.427 88.633 3.0868 4.2487" fill="none" stroke="#00f" stroke-width="2px"/>
<path class="bond-3" d="m79.514 92.882 3.0868 4.2487" fill="none" stroke="#000" stroke-width="2px"/>
<path class="bond-3" d="m74.463 92.007 2.1608 2.9741" fill="none" stroke="#00f" stroke-width="2px"/>
<path class="bond-3" d="m76.624 94.982 2.1608 2.9741" fill="none" stroke="#000" stroke-width="2px"/>
<path class="bond-4" d="m82.601 103.08-3.0868 4.248" fill="none" stroke="#000" stroke-width="2px"/>
<path class="bond-4" d="m79.514 107.33-3.0868 4.249" fill="none" stroke="#f00" stroke-width="2px"/>
<path class="bond-5" d="m90.326 100.11h6.7408" fill="none" stroke="#000" stroke-width="2px"/>
<path class="bond-6" d="m104.35 97.13 5.493-9.5157" fill="none" stroke="#000" stroke-width="2px"/>
<path class="bond-7" d="m104.35 103.08 5.493 9.515" fill="none" stroke="#000" stroke-width="2px"/>
<path class="bond-7" d="m108.26 102.73 3.845 6.661" fill="none" stroke="#000" stroke-width="2px"/>
<path class="bond-8" d="m117.12 115.58h6.74" fill="none" stroke="#000" stroke-width="2px"/>
<path class="bond-9" d="m131.14 112.6 5.494-9.515" fill="none" stroke="#000" stroke-width="2px"/>
<path class="bond-9" d="m128.87 109.39 3.845-6.661" fill="none" stroke="#000" stroke-width="2px"/>
<path class="bond-10" d="m136.64 97.13-5.494-9.5157" fill="none" stroke="#000" stroke-width="2px"/>
<path class="bond-11" d="m123.86 84.637h-4.753" fill="none" stroke="#000" stroke-width="2px"/>
<path class="bond-11" d="m123.15 88.21h-3.327" fill="none" stroke="#000" stroke-width="2px"/>
<text x="51.7138" y="94.1529" fill="#000000" font-family="sans-serif" font-size="5px"><tspan>C:1</tspan></text>
<text x="68.7029" y="88.6328" fill="#0000FF" font-family="sans-serif" font-size="5px"><tspan>N:2</tspan></text>
<text x="79.2028" y="103.085" fill="#000000" font-family="sans-serif" font-size="5px"><tspan>C:3</tspan></text>
<text x="68.5028" y="117.537" fill="#FF0000" font-family="sans-serif" font-size="5px"><tspan>O:4</tspan></text>
<text x="97.0663" y="103.085" fill="#000000" font-family="sans-serif" font-size="5px"><tspan>C:5</tspan></text>
<text x="105.998" y="118.555" fill="#000000" font-family="sans-serif" font-size="5px"><tspan>C:6</tspan></text>
<text x="123.861" y="118.555" fill="#000000" font-family="sans-serif" font-size="5px"><tspan>C:7</tspan></text>
<text x="132.793" y="103.085" fill="#000000" font-family="sans-serif" font-size="5px"><tspan>C:8</tspan></text>
<text x="123.861" y="87.6145" fill="#000000" font-family="sans-serif" font-size="5px"><tspan>C:9</tspan></text>
<text x="104.011" y="87.6145" fill="#000000" font-family="sans-serif" font-size="5px"><tspan>C:10</tspan></text>
<text x="74.3794" y="194" fill="#000000" font-family="sans-serif" font-size="11px"><tspan>comp43</tspan></text>
<path class="bond-0" d="m371.58 106.92-11.076 4.329" fill="none" stroke="#000" stroke-width="2px"/>
<path class="bond-0" d="m368.62 104.24-7.753 3.03" fill="none" stroke="#000" stroke-width="2px"/>
<path class="bond-1" d="m371.58 106.92 2.234-14.683" fill="none" stroke="#000" stroke-width="2px"/>
<path class="bond-2" d="m370.55 86.282-6.506-5.2028" fill="none" stroke="#000" stroke-width="2px"/>
<path class="bond-2" d="m367.34 88.292-4.553-3.6419" fill="none" stroke="#000" stroke-width="2px"/>
<path class="bond-3" d="m379.83 87.086 1.962-0.767" fill="none" stroke="#000" stroke-width="2px"/>
<path class="bond-3" d="m381.8 86.319 1.962-0.7669" fill="none" stroke="#3cc" stroke-width="2px"/>
<path class="bond-4" d="m354.76 80.276-5.515 2.1556" fill="none" stroke="#000" stroke-width="2px"/>
<path class="bond-5" d="m343.23 87.583-1.781 11.706" fill="none" stroke="#000" stroke-width="2px"/>
<path class="bond-5" d="m346.5 89.876-1.247 8.194" fill="none" stroke="#000" stroke-width="2px"/>
<path class="bond-6" d="m344.72 105.24 6.506 5.203" fill="none" stroke="#000" stroke-width="2px"/>
<path class="bond-7" d="m335.43 104.44-5.515 2.156" fill="none" stroke="#000" stroke-width="2px"/>
<path class="bond-8" d="m319.71 105.79-2.874-1.841" fill="none" stroke="#000" stroke-width="2px"/>
<path class="bond-8" d="m316.84 103.95-2.874-1.842" fill="none" stroke="#00f" stroke-width="2px"/>
<path class="bond-8" d="m316.92 108.25-2.012-1.289" fill="none" stroke="#000" stroke-width="2px"/>
<path class="bond-8" d="m314.91 106.96-2.012-1.29" fill="none" stroke="#00f" stroke-width="2px"/>
<path class="bond-9" d="m323.58 111.75-1.481 5.664" fill="none" stroke="#000" stroke-width="2px"/>
<path class="bond-9" d="m322.1 117.41-1.481 5.664" fill="none" stroke="#f00" stroke-width="2px"/>
<path class="bond-10" d="m314.08 126.39-3.255 0.191" fill="none" stroke="#f00" stroke-width="2px"/>
<path class="bond-10" d="m310.82 126.58-3.255 0.19" fill="none" stroke="#000" stroke-width="2px"/>
<path class="bond-11" d="m300.84 124.12-4.176-10.683" fill="none" stroke="#000" stroke-width="2px"/>
<path class="bond-11" d="m303.54 121.21-2.923-7.478" fill="none" stroke="#000" stroke-width="2px"/>
<path class="bond-12" d="m299.14 107.48 3.276-2.685" fill="none" stroke="#000" stroke-width="2px"/>
<path class="bond-12" d="m302.41 104.79 3.275-2.686" fill="none" stroke="#00f" stroke-width="2px"/>
<path class="bond-13" d="m289.94 109-4.172-1.091" fill="none" stroke="#000" stroke-width="2px"/>
<path class="bond-14" d="m275.28 108.92-6.672 6.754" fill="none" stroke="#000" stroke-width="2px"/>
<path class="bond-15" d="m277.4 102.96-3.094-11.272" fill="none" stroke="#000" stroke-width="2px"/>
<path class="bond-15" d="m273.5 102.22-2.166-7.8906" fill="none" stroke="#000" stroke-width="2px"/>
<path class="bond-16" d="m265.94 86.738-1.092-0.2857" fill="none" stroke="#000" stroke-width="2px"/>
<path class="bond-16" d="m264.85 86.452-1.093-0.2857" fill="none" stroke="#00f" stroke-width="2px"/>
<path class="bond-17" d="m253.27 87.17-3.336 3.3767" fill="none" stroke="#00f" stroke-width="2px"/>
<path class="bond-17" d="m249.93 90.547-3.336 3.3767" fill="none" stroke="#000" stroke-width="2px"/>
<path class="bond-17" d="m254.81 90.694-2.335 2.3637" fill="none" stroke="#00f" stroke-width="2px"/>
<path class="bond-17" d="m252.48 93.058-2.335 2.3636" fill="none" stroke="#000" stroke-width="2px"/>
<path class="bond-18" d="m244.47 99.878 3.094 11.272" fill="none" stroke="#000" stroke-width="2px"/>
<path class="bond-19" d="m236.11 94.928-2.185-0.5714" fill="none" stroke="#000" stroke-width="2px"/>
<path class="bond-20" d="m255.93 116.1 2.185 0.571" fill="none" stroke="#000" stroke-width="2px"/>
<path class="bond-20" d="m257.16 112.73 1.53 0.4" fill="none" stroke="#000" stroke-width="2px"/>
<path class="bond-21" d="m225.6 95.36-2.962 11.328" fill="none" stroke="#000" stroke-width="2px"/>
<path class="bond-22" d="m227.15 89.405 2.962-11.328" fill="none" stroke="#000" stroke-width="2px"/>
<path class="bond-23" d="m218.82 90.409 0.298 0.0778" fill="none" stroke="#000" stroke-width="2px"/>
<path class="bond-23" d="m219.12 90.487 0.297 0.0778" fill="none" stroke="#f00" stroke-width="2px"/>
<text x="368.71" y="92.237" fill="#000000" font-family="sans-serif" font-size="5px"><tspan>C:1</tspan></text>
<text x="354.759" y="81.0797" fill="#000000" font-family="sans-serif" font-size="5px"><tspan>C:2</tspan></text>
<text x="338.122" y="87.5826" fill="#000000" font-family="sans-serif" font-size="5px"><tspan>C:3</tspan></text>
<text x="335.434" y="105.243" fill="#000000" font-family="sans-serif" font-size="5px"><tspan>C:4</tspan></text>
<text x="349.385" y="116.4" fill="#000000" font-family="sans-serif" font-size="5px"><tspan>C:5</tspan></text>
<text x="318.797" y="111.746" fill="#000000" font-family="sans-serif" font-size="5px"><tspan>C:6</tspan></text>
<text x="314.078" y="129.028" fill="#FF0000" font-family="sans-serif" font-size="5px"><tspan>O:7</tspan></text>
<text x="296.445" y="130.072" fill="#000000" font-family="sans-serif" font-size="5px"><tspan>C:8</tspan></text>
<text x="289.942" y="113.434" fill="#000000" font-family="sans-serif" font-size="5px"><tspan>C:9</tspan></text>
<text x="301.769" y="102.108" fill="#0000FF" font-family="sans-serif" font-size="5px"><tspan>N:10</tspan></text>
<text x="270.673" y="108.915" fill="#000000" font-family="sans-serif" font-size="5px"><tspan>C:11</tspan></text>
<text x="265.944" y="91.6889" fill="#000000" font-family="sans-serif" font-size="5px"><tspan>C:12</tspan></text>
<text x="248.662" y="87.1705" fill="#0000FF" font-family="sans-serif" font-size="5px"><tspan>N:13</tspan></text>
<text x="236.107" y="99.8784" fill="#000000" font-family="sans-serif" font-size="5px"><tspan>C:14</tspan></text>
<text x="240.836" y="117.105" fill="#000000" font-family="sans-serif" font-size="5px"><tspan>C:15</tspan></text>
<text x="258.118" y="121.623" fill="#000000" font-family="sans-serif" font-size="5px"><tspan>C:16</tspan></text>
<text x="218.825" y="95.3599" fill="#000000" font-family="sans-serif" font-size="5px"><tspan>C:17</tspan></text>
<text x="214.306" y="112.642" fill="#000000" font-family="sans-serif" font-size="5px"><tspan>C:18</tspan></text>
<text x="223.343" y="78.0773" fill="#000000" font-family="sans-serif" font-size="5px"><tspan>C:19</tspan></text>
<text x="198.762" y="90.8414" fill="#FF0000" font-family="sans-serif" font-size="5px"><tspan>HO:20</tspan></text>
<text x="383.757" y="85.7341" fill="#33CCCC" font-family="sans-serif" font-size="5px"><tspan>F:21</tspan></text>
<text x="270.375" y="194" fill="#000000" font-family="sans-serif" font-size="11px"><tspan>comp119</tspan></text>
<path class="bond-0" d="m527.88 124.59-11.256-4.032" fill="none" stroke="#000" stroke-width="2px"/>
<path class="bond-0" d="m527.39 120.62-7.879-2.822" fill="none" stroke="#000" stroke-width="2px"/>
<path class="bond-1" d="m527.88 124.59 10.114-8.576" fill="none" stroke="#000" stroke-width="2px"/>
<path class="bond-2" d="m540.96 110.06-2.11-11.622" fill="none" stroke="#000" stroke-width="2px"/>
<path class="bond-2" d="m537.13 108.95-1.478-8.135" fill="none" stroke="#000" stroke-width="2px"/>
<path class="bond-3" d="m532.75 93.465-5.695-2.0396" fill="none" stroke="#000" stroke-width="2px"/>
<path class="bond-4" d="m520.27 86.456-2.168-5.2868" fill="none" stroke="#000" stroke-width="2px"/>
<path class="bond-4" d="m518.1 81.17-2.168-5.2868" fill="none" stroke="#00f" stroke-width="2px"/>
<path class="bond-5" d="m517.98 92.411-6.602 5.5981" fill="none" stroke="#000" stroke-width="2px"/>
<path class="bond-5" d="m519.3 95.976-4.621 3.9187" fill="none" stroke="#000" stroke-width="2px"/>
<path class="bond-6" d="m508.41 103.96 2.111 11.621" fill="none" stroke="#000" stroke-width="2px"/>
<path class="bond-7" d="m503.05 98.009-5.558-3.4337" fill="none" stroke="#000" stroke-width="2px"/>
<path class="bond-8" d="m493.4 88.621 2.78-11.4" fill="none" stroke="#000" stroke-width="2px"/>
<path class="bond-8" d="m497.28 87.757 1.946-7.9802" fill="none" stroke="#000" stroke-width="2px"/>
<path class="bond-9" d="m487.11 93.878-5.406 2.2163" fill="none" stroke="#000" stroke-width="2px"/>
<path class="bond-10" d="m502.46 73.826 2.055-0.1543" fill="none" stroke="#000" stroke-width="2px"/>
<path class="bond-10" d="m504.52 73.671 2.055-0.1543" fill="none" stroke="#00f" stroke-width="2px"/>
<path class="bond-11" d="m471.32 95.398-2.779-1.7169" fill="none" stroke="#000" stroke-width="2px"/>
<path class="bond-11" d="m468.54 93.681-2.779-1.7168" fill="none" stroke="#f00" stroke-width="2px"/>
<path class="bond-12" d="m475.42 101.35-2.78 11.401" fill="none" stroke="#000" stroke-width="2px"/>
<path class="bond-12" d="m471.53 102.22-1.946 7.98" fill="none" stroke="#000" stroke-width="2px"/>
<path class="bond-13" d="m464.36 116.3-1.358 0.102" fill="none" stroke="#000" stroke-width="2px"/>
<path class="bond-13" d="m463 116.4-1.358 0.102" fill="none" stroke="#00f" stroke-width="2px"/>
<path class="bond-14" d="m452.88 114.09-2.167-5.286" fill="none" stroke="#00f" stroke-width="2px"/>
<path class="bond-14" d="m450.71 108.8-2.168-5.287" fill="none" stroke="#000" stroke-width="2px"/>
<path class="bond-14" d="m455.53 111.15-1.518-3.701" fill="none" stroke="#00f" stroke-width="2px"/>
<path class="bond-14" d="m454.01 107.45-1.517-3.701" fill="none" stroke="#000" stroke-width="2px"/>
<path class="bond-15" d="m450.83 97.562 3.301-2.799" fill="none" stroke="#000" stroke-width="2px"/>
<path class="bond-15" d="m454.13 94.763 3.301-2.7991" fill="none" stroke="#f00" stroke-width="2px"/>
<text x="535.942" y="116.01" fill="#000000" font-family="sans-serif" font-size="5px"><tspan>C:1</tspan></text>
<text x="532.75" y="98.4343" fill="#000000" font-family="sans-serif" font-size="5px"><tspan>C:2</tspan></text>
<text x="515.932" y="92.411" fill="#000000" font-family="sans-serif" font-size="5px"><tspan>C:3</tspan></text>
<text x="502.307" y="103.964" fill="#000000" font-family="sans-serif" font-size="5px"><tspan>C:4</tspan></text>
<text x="505.5" y="121.54" fill="#000000" font-family="sans-serif" font-size="5px"><tspan>C:5</tspan></text>
<text x="487.11" y="94.5754" fill="#000000" font-family="sans-serif" font-size="5px"><tspan>C:6</tspan></text>
<text x="491.342" y="77.2206" fill="#000000" font-family="sans-serif" font-size="5px"><tspan>C:7</tspan></text>
<text x="506.575" y="75.8829" fill="#0000FF" font-family="sans-serif" font-size="5px"><tspan>NH:8</tspan></text>
<text x="470.582" y="101.352" fill="#000000" font-family="sans-serif" font-size="5px"><tspan>C:9</tspan></text>
<text x="464.362" y="118.707" fill="#000000" font-family="sans-serif" font-size="5px"><tspan>C:10</tspan></text>
<text x="446.549" y="120.045" fill="#0000FF" font-family="sans-serif" font-size="5px"><tspan>N:11</tspan></text>
<text x="439.772" y="103.517" fill="#000000" font-family="sans-serif" font-size="5px"><tspan>C:12</tspan></text>
<text x="453.197" y="91.9641" fill="#FF0000" font-family="sans-serif" font-size="5px"><tspan>O:13</tspan></text>
<text x="470.375" y="194" fill="#000000" font-family="sans-serif" font-size="11px"><tspan>comp122</tspan></text>
</svg>
