<?xml version="1.0" encoding="UTF-8"?>
<svg baseProfile="full" version="1.1" viewBox="0 0 800 200" xml:space="preserve" xmlns="http://www.w3.org/2000/svg">

 <!-- END OF HEADER -->
<rect width="800" height="200" fill="#fff"> </rect>
<path class="bond-0" d="m189.95 114.9-15.651 8.32" fill="none" stroke="#000" stroke-width="2px"/>
<path class="bond-0" d="m185.03 111.31-10.955 5.824" fill="none" stroke="#000" stroke-width="2px"/>
<path class="bond-1" d="m189.95 114.9 0.797-22.798" fill="none" stroke="#000" stroke-width="2px"/>
<path class="bond-2" d="m183.61 82.976-4.307-2.6918" fill="none" stroke="#000" stroke-width="2px"/>
<path class="bond-2" d="m179.3 80.284-4.307-2.6917" fill="none" stroke="#00f" stroke-width="2px"/>
<path class="bond-2" d="m179.41 86.812-3.015-1.8842" fill="none" stroke="#000" stroke-width="2px"/>
<path class="bond-2" d="m176.4 84.928-3.015-1.8843" fill="none" stroke="#00f" stroke-width="2px"/>
<path class="bond-3" d="m159.17 77.561-3.563 1.8945" fill="none" stroke="#00f" stroke-width="2px"/>
<path class="bond-3" d="m155.61 79.455-3.564 1.8945" fill="none" stroke="#000" stroke-width="2px"/>
<path class="bond-4" d="m135 82.778-4.339-1.5798" fill="none" stroke="#000" stroke-width="2px"/>
<path class="bond-4" d="m130.66 81.198-4.34-1.5799" fill="none" stroke="#00f" stroke-width="2px"/>
<path class="bond-5" d="m143.36 90.444-0.638 18.235" fill="none" stroke="#000" stroke-width="2px"/>
<path class="bond-5" d="m148.74 93.371-0.446 12.764" fill="none" stroke="#000" stroke-width="2px"/>
<path class="bond-6" d="m149.86 117.8 8.615 5.383" fill="none" stroke="#000" stroke-width="2px"/>
<path class="bond-7" d="m134.04 115.68-4.482 1.285" fill="none" stroke="#000" stroke-width="2px"/>
<path class="bond-7" d="m129.56 116.97-4.482 1.285" fill="none" stroke="#f00" stroke-width="2px"/>
<path class="bond-8" d="m113.17 116.22-4.576-6.787" fill="none" stroke="#f00" stroke-width="2px"/>
<path class="bond-8" d="m108.59 109.44-4.577-6.786" fill="none" stroke="#000" stroke-width="2px"/>
<path class="bond-9" d="m104.5 93.525 4.863-6.2234" fill="none" stroke="#000" stroke-width="2px"/>
<path class="bond-9" d="m109.36 87.302 4.863-6.2235" fill="none" stroke="#00f" stroke-width="2px"/>
<path class="bond-9" d="m110.28 95.03 3.404-4.3564" fill="none" stroke="#000" stroke-width="2px"/>
<path class="bond-9" d="m113.68 90.673 3.404-4.3564" fill="none" stroke="#00f" stroke-width="2px"/>
<path class="bond-10" d="m92.412 100.78-16.029 5.053" fill="none" stroke="#000" stroke-width="2px"/>
<path class="bond-10" d="m76.383 105.83-16.029 5.053" fill="none" stroke="#00f" stroke-width="2px"/>
<path class="bond-11" d="m46.481 109-4.0895-3.488" fill="none" stroke="#00f" stroke-width="2px"/>
<path class="bond-11" d="m42.391 105.52-4.0895-3.488" fill="none" stroke="#000" stroke-width="2px"/>
<path class="bond-12" d="m57.028 118.13 1.9371 1.7" fill="none" stroke="#00f" stroke-width="2px"/>
<path class="bond-12" d="m58.965 119.83 1.9371 1.701" fill="none" stroke="#000" stroke-width="2px"/>
<path class="bond-13" d="m44.136 121.05-2.6814 0.945" fill="none" stroke="#000" stroke-width="2px"/>
<path class="bond-14" d="m56.557 112.41 3.3207-17.787" fill="none" stroke="#000" stroke-width="2px"/>
<path class="bond-15" d="m55.401 85.493-10.138-8.6818" fill="none" stroke="#000" stroke-width="2px"/>
<path class="bond-16" d="m28.366 76.328-1.3407 0.4728" fill="none" stroke="#000" stroke-width="2px"/>
<path class="bond-16" d="m27.025 76.801-1.3407 0.4728" fill="none" stroke="#00f" stroke-width="2px"/>
<path class="bond-17" d="m19.472 85.917 5.0409 4.2942" fill="none" stroke="#00f" stroke-width="2px"/>
<path class="bond-17" d="m24.513 90.211 5.041 4.2942" fill="none" stroke="#000" stroke-width="2px"/>
<path class="bond-18" d="m13.264 85.917-1.6603 8.8933" fill="none" stroke="#00f" stroke-width="2px"/>
<path class="bond-18" d="m11.603 94.81-1.6604 8.8931" fill="none" stroke="#000" stroke-width="2px"/>
<path class="bond-19" d="m29.33 94.505-1.9589-1.6016" fill="none" stroke="#000" stroke-width="2px"/>
<path class="bond-20" d="m14.419 112.83 10.138 8.682" fill="none" stroke="#000" stroke-width="2px"/>
<text x="182.386" y="92.1019" fill="#000000" font-family="sans-serif" font-size="9px"><tspan>C:1</tspan></text>
<text x="159.169" y="77.5925" fill="#0000FF" font-family="sans-serif" font-size="9px"><tspan>N:2</tspan></text>
<text x="134.995" y="90.4439" fill="#000000" font-family="sans-serif" font-size="9px"><tspan>C:3</tspan></text>
<text x="134.038" y="117.805" fill="#000000" font-family="sans-serif" font-size="9px"><tspan>C:4</tspan></text>
<text x="157.255" y="132.314" fill="#000000" font-family="sans-serif" font-size="9px"><tspan>C:5</tspan></text>
<text x="107.414" y="125.349" fill="#FF0000" font-family="sans-serif" font-size="9px"><tspan>O:6</tspan></text>
<text x="92.4124" y="102.651" fill="#000000" font-family="sans-serif" font-size="9px"><tspan>C:7</tspan></text>
<text x="109.269" y="81.0785" fill="#0000FF" font-family="sans-serif" font-size="9px"><tspan>N:8</tspan></text>
<text x="43.3075" y="118.131" fill="#0000FF" font-family="sans-serif" font-size="9px"><tspan>N:9</tspan></text>
<text x="44.1361" y="121.532" fill="#000000" font-family="sans-serif" font-size="9px"><tspan>C:10</tspan></text>
<text x="49.1606" y="94.6193" fill="#000000" font-family="sans-serif" font-size="9px"><tspan>C:11</tspan></text>
<text x="28.3658" y="76.8116" fill="#000000" font-family="sans-serif" font-size="9px"><tspan>C:12</tspan></text>
<text x="2.54646" y="85.9166" fill="#0000FF" font-family="sans-serif" font-size="9px"><tspan>N:13</tspan></text>
<text x="23.3413" y="103.631" fill="#000000" font-family="sans-serif" font-size="9px"><tspan>C:14</tspan></text>
<text x="21.3824" y="102.029" fill="#000000" font-family="sans-serif" font-size="9px"><tspan>C:15</tspan></text>
<text x="-2.47805" y="112.829" fill="#000000" font-family="sans-serif" font-size="9px"><tspan>C:16</tspan></text>
<text x="18.3167" y="130.637" fill="#000000" font-family="sans-serif" font-size="9px"><tspan>C:17</tspan></text>
<path d="m33.085 100.89v-3.6502h3.6504v3.6502z" fill="none" stroke="#f00" stroke-width="2px"/>
<text x="70.3745" y="194" fill="#000000" font-family="sans-serif" font-size="12px"><tspan>comp264</tspan></text>
</svg>
