<?xml version="1.0" encoding="UTF-8"?>
<svg baseProfile="full" version="1.1" viewBox="0 0 800 200" xml:space="preserve" xmlns="http://www.w3.org/2000/svg">

 <!-- END OF HEADER -->
<rect width="800" height="200" fill="#fff"> </rect>
<path class="bond-0" d="m72.836 91.803 9.4588 14.157" fill="none" stroke="#000" stroke-width="2px"/>
<path class="bond-0" d="m77.796 91.561 6.6211 9.9094" fill="none" stroke="#000" stroke-width="2px"/>
<path class="bond-1" d="m72.836 91.803 7.6682-15.549" fill="none" stroke="#000" stroke-width="2px"/>
<path class="bond-2" d="m72.836 91.803-6.0058 0.3935" fill="none" stroke="#000" stroke-width="2px"/>
<path class="bond-2" d="m66.831 92.197-6.0059 0.3936" fill="none" stroke="#f00" stroke-width="2px"/>
<path class="bond-3" d="m88.884 72.271 7.9898-0.5235" fill="none" stroke="#000" stroke-width="2px"/>
<path class="bond-3" d="m90.361 76.442 5.5928-0.3665" fill="none" stroke="#000" stroke-width="2px"/>
<path class="bond-4" d="m79.884 69.156-3.5438-5.3037" fill="none" stroke="#000" stroke-width="2px"/>
<path class="bond-4" d="m76.34 63.852-3.5437-5.3038" fill="none" stroke="#f00" stroke-width="2px"/>
<path class="bond-5" d="m105.88 74.862 7.087 10.608" fill="none" stroke="#000" stroke-width="2px"/>
<path class="bond-6" d="m121.96 88.584 7.99-0.5236" fill="none" stroke="#000" stroke-width="2px"/>
<path class="bond-7" d="m113.58 92.567-5.918 12" fill="none" stroke="#000" stroke-width="2px"/>
<path class="bond-7" d="m108.88 92.484-4.143 8.4003" fill="none" stroke="#000" stroke-width="2px"/>
<path class="bond-8" d="m99.286 108.55-7.9898 0.523" fill="none" stroke="#000" stroke-width="2px"/>
<path class="bond-9" d="m108.29 111.66 3.544 5.304" fill="none" stroke="#000" stroke-width="2px"/>
<path class="bond-9" d="m111.83 116.97 3.544 5.304" fill="none" stroke="#00f" stroke-width="2px"/>
<path class="bond-10" d="m124.38 125.39 3.994-0.262" fill="none" stroke="#00f" stroke-width="2px"/>
<path class="bond-10" d="m128.37 125.13 3.995-0.262" fill="none" stroke="#000" stroke-width="2px"/>
<path class="bond-10" d="m125.29 121.06 2.797-0.183" fill="none" stroke="#00f" stroke-width="2px"/>
<path class="bond-10" d="m128.09 120.88 2.796-0.183" fill="none" stroke="#000" stroke-width="2px"/>
<path class="bond-11" d="m140.74 120.88 5.918-12" fill="none" stroke="#000" stroke-width="2px"/>
<path class="bond-12" d="m146.04 101.78-7.088-10.608" fill="none" stroke="#000" stroke-width="2px"/>
<path class="bond-12" d="m141.44 102.56-4.962-7.4248" fill="none" stroke="#000" stroke-width="2px"/>
<path class="bond-13" d="m155.04 104.9 2.928-0.192" fill="none" stroke="#000" stroke-width="2px"/>
<path class="bond-13" d="m157.97 104.7 2.928-0.192" fill="none" stroke="#cc0" stroke-width="2px"/>
<path class="bond-14" d="m167.77 107.63 0.464 7.076" fill="none" stroke="#cc0" stroke-width="2px"/>
<path class="bond-14" d="m168.23 114.7 0.464 7.075" fill="none" stroke="#f00" stroke-width="2px"/>
<path class="bond-14" d="m172.02 107.35 0.464 7.075" fill="none" stroke="#cc0" stroke-width="2px"/>
<path class="bond-14" d="m172.48 114.42 0.463 7.075" fill="none" stroke="#f00" stroke-width="2px"/>
<path class="bond-15" d="m171.55 100.25-0.464-7.0753" fill="none" stroke="#cc0" stroke-width="2px"/>
<path class="bond-15" d="m171.09 93.176-0.463-7.0752" fill="none" stroke="#f00" stroke-width="2px"/>
<path class="bond-15" d="m167.3 100.53-0.463-7.0748" fill="none" stroke="#cc0" stroke-width="2px"/>
<path class="bond-15" d="m166.84 93.454-0.464-7.0752" fill="none" stroke="#f00" stroke-width="2px"/>
<path class="bond-16" d="m178.42 103.36 0.086-6e-3" fill="none" stroke="#cc0" stroke-width="2px"/>
<path class="bond-16" d="m178.51 103.36 0.086-5e-3" fill="none" stroke="#f00" stroke-width="2px"/>
<path class="bond-17" d="m49.838 96.745-2.959 6.0004" fill="none" stroke="#f00" stroke-width="2px"/>
<path class="bond-17" d="m46.879 102.74-2.9589 5.999" fill="none" stroke="#000" stroke-width="2px"/>
<path class="bond-18" d="m33.171 112.88-3.2521 0.213" fill="none" stroke="#000" stroke-width="2px"/>
<path class="bond-19" d="m20.32 108.95-3.5438-5.304" fill="none" stroke="#000" stroke-width="2px"/>
<path class="bond-19" d="m16.776 103.65-3.5437-5.3037" fill="none" stroke="#f00" stroke-width="2px"/>
<path class="bond-19" d="m16.779 111.32-3.5437-5.304" fill="none" stroke="#000" stroke-width="2px"/>
<path class="bond-19" d="m13.235 106.02-3.5438-5.304" fill="none" stroke="#f00" stroke-width="2px"/>
<path class="bond-20" d="m19.171 117.24-2.959 6" fill="none" stroke="#000" stroke-width="2px"/>
<path class="bond-20" d="m16.212 123.24-2.959 6" fill="none" stroke="#f00" stroke-width="2px"/>
<text x="75.6255" y="76.2542" fill="#000000" font-family="sans-serif" font-size="7px"><tspan>C:1</tspan></text>
<text x="96.874" y="74.8619" fill="#000000" font-family="sans-serif" font-size="7px"><tspan>C:2</tspan></text>
<text x="108.704" y="92.5674" fill="#000000" font-family="sans-serif" font-size="7px"><tspan>C:3</tspan></text>
<text x="99.2857" y="111.665" fill="#000000" font-family="sans-serif" font-size="7px"><tspan>C:4</tspan></text>
<text x="78.0372" y="113.058" fill="#000000" font-family="sans-serif" font-size="7px"><tspan>C:5</tspan></text>
<text x="111.116" y="129.371" fill="#0000FF" font-family="sans-serif" font-size="7px"><tspan>N:6</tspan></text>
<text x="132.364" y="127.979" fill="#000000" font-family="sans-serif" font-size="7px"><tspan>C:7</tspan></text>
<text x="141.783" y="108.881" fill="#000000" font-family="sans-serif" font-size="7px"><tspan>C:8</tspan></text>
<text x="129.953" y="91.175" fill="#000000" font-family="sans-serif" font-size="7px"><tspan>C:9</tspan></text>
<text x="160.897" y="107.488" fill="#CCCC00" font-family="sans-serif" font-size="7px"><tspan>S:10</tspan></text>
<text x="161.816" y="128.737" fill="#FF0000" font-family="sans-serif" font-size="7px"><tspan>O:11</tspan></text>
<text x="159.031" y="86.2397" fill="#FF0000" font-family="sans-serif" font-size="7px"><tspan>O:12</tspan></text>
<text x="178.596" y="106.096" fill="#FF0000" font-family="sans-serif" font-size="7px"><tspan>OH:13</tspan></text>
<text x="58.1119" y="58.5487" fill="#FF0000" font-family="sans-serif" font-size="7px"><tspan>OH:14</tspan></text>
<text x="42.3511" y="96.7446" fill="#FF0000" font-family="sans-serif" font-size="7px"><tspan>O:15</tspan></text>
<text x="33.1713" y="115.843" fill="#000000" font-family="sans-serif" font-size="7px"><tspan>C:16</tspan></text>
<text x="11.9228" y="117.235" fill="#000000" font-family="sans-serif" font-size="7px"><tspan>C:17</tspan></text>
<text x="-0.1459" y="99.5293" fill="#FF0000" font-family="sans-serif" font-size="7px"><tspan>O:18</tspan></text>
<text x="-0.810323" y="136.333" fill="#FF0000" font-family="sans-serif" font-size="7px"><tspan>OH:19</tspan></text>
<text x="70.3745" y="194" fill="#000000" font-family="sans-serif" font-size="12px"><tspan>comp415</tspan></text>
<path class="bond-0" d="m291.91 139.82 13.836-3.976" fill="none" stroke="#000" stroke-width="2px"/>
<path class="bond-0" d="m292.81 135.13 9.686-2.783" fill="none" stroke="#000" stroke-width="2px"/>
<path class="bond-1" d="m291.91 139.82-11.647-11.234" fill="none" stroke="#000" stroke-width="2px"/>
<path class="bond-2" d="m277.47 121.49 3.374-13.567" fill="none" stroke="#000" stroke-width="2px"/>
<path class="bond-2" d="m282.11 120.48 2.362-9.497" fill="none" stroke="#000" stroke-width="2px"/>
<path class="bond-3" d="m288.36 102.47 7.207-2.071" fill="none" stroke="#000" stroke-width="2px"/>
<path class="bond-4" d="m278.05 100.82-3.984-3.8425" fill="none" stroke="#000" stroke-width="2px"/>
<path class="bond-4" d="m274.06 96.98-3.984-3.8426" fill="none" stroke="#cc0" stroke-width="2px"/>
<path class="bond-5" d="m303.08 94.941 3.374-13.566" fill="none" stroke="#000" stroke-width="2px"/>
<path class="bond-6" d="m305.87 102.04 7.968 7.685" fill="none" stroke="#000" stroke-width="2px"/>
<path class="bond-6" d="m304.11 106.26 5.577 5.379" fill="none" stroke="#000" stroke-width="2px"/>
<path class="bond-7" d="m316.64 116.82-3.374 13.566" fill="none" stroke="#000" stroke-width="2px"/>
<path class="bond-8" d="m324.15 111.37 3.604-1.036" fill="none" stroke="#000" stroke-width="2px"/>
<path class="bond-8" d="m327.75 110.33 3.604-1.035" fill="none" stroke="#00f" stroke-width="2px"/>
<path class="bond-9" d="m316.06 137.49 3.984 3.842" fill="none" stroke="#000" stroke-width="2px"/>
<path class="bond-9" d="m320.04 141.33 3.983 3.843" fill="none" stroke="#f00" stroke-width="2px"/>
<path class="bond-10" d="m338.87 103.84 1.687-6.7837" fill="none" stroke="#00f" stroke-width="2px"/>
<path class="bond-10" d="m340.55 97.059 1.687-6.7832" fill="none" stroke="#000" stroke-width="2px"/>
<path class="bond-10" d="m335.24 100.78 1.181-4.7486" fill="none" stroke="#00f" stroke-width="2px"/>
<path class="bond-10" d="m336.42 96.031 1.181-4.7483" fill="none" stroke="#000" stroke-width="2px"/>
<path class="bond-11" d="m339.44 83.178-7.968-7.6851" fill="none" stroke="#000" stroke-width="2px"/>
<path class="bond-12" d="m321.17 73.849-4.838 1.3903" fill="none" stroke="#000" stroke-width="2px"/>
<path class="bond-12" d="m321.62 78.151-3.386 0.9732" fill="none" stroke="#000" stroke-width="2px"/>
<path class="bond-13" d="m328.68 68.395 1.687-6.7832" fill="none" stroke="#000" stroke-width="2px"/>
<path class="bond-13" d="m330.37 61.612 1.687-6.7833" fill="none" stroke="#7F4C19" stroke-width="2px"/>
<path class="bond-14" d="m261.44 91.659-3.968 4.1141" fill="none" stroke="#cc0" stroke-width="2px"/>
<path class="bond-14" d="m257.48 95.773-3.969 4.1141" fill="none" stroke="#f00" stroke-width="2px"/>
<path class="bond-14" d="m264.51 94.615-3.968 4.1141" fill="none" stroke="#cc0" stroke-width="2px"/>
<path class="bond-14" d="m260.54 98.729-3.969 4.1137" fill="none" stroke="#f00" stroke-width="2px"/>
<path class="bond-15" d="m271.36 87.517 3.968-4.1142" fill="none" stroke="#cc0" stroke-width="2px"/>
<path class="bond-15" d="m275.32 83.403 3.968-4.1141" fill="none" stroke="#f00" stroke-width="2px"/>
<path class="bond-15" d="m268.29 84.56 3.969-4.1141" fill="none" stroke="#cc0" stroke-width="2px"/>
<path class="bond-15" d="m272.26 80.446 3.968-4.1141" fill="none" stroke="#f00" stroke-width="2px"/>
<path class="bond-16" d="m262.72 86.039-3.983-3.8425" fill="none" stroke="#cc0" stroke-width="2px"/>
<path class="bond-16" d="m258.74 82.196-3.984-3.8426" fill="none" stroke="#f00" stroke-width="2px"/>
<text x="269.957" y="128.585" fill="#000000" font-family="sans-serif" font-size="7px"><tspan>C:1</tspan></text>
<text x="275.097" y="107.92" fill="#000000" font-family="sans-serif" font-size="7px"><tspan>C:2</tspan></text>
<text x="295.562" y="102.039" fill="#000000" font-family="sans-serif" font-size="7px"><tspan>C:3</tspan></text>
<text x="310.889" y="116.822" fill="#000000" font-family="sans-serif" font-size="7px"><tspan>C:4</tspan></text>
<text x="305.749" y="137.487" fill="#000000" font-family="sans-serif" font-size="7px"><tspan>C:5</tspan></text>
<text x="317.761" y="152.27" fill="#FF0000" font-family="sans-serif" font-size="7px"><tspan>OH:6</tspan></text>
<text x="331.355" y="110.941" fill="#0000FF" font-family="sans-serif" font-size="7px"><tspan>N:7</tspan></text>
<text x="336.494" y="90.2761" fill="#000000" font-family="sans-serif" font-size="7px"><tspan>C:8</tspan></text>
<text x="321.168" y="75.4929" fill="#000000" font-family="sans-serif" font-size="7px"><tspan>C:9</tspan></text>
<text x="298.333" y="81.3742" fill="#000000" font-family="sans-serif" font-size="7px"><tspan>C:10</tspan></text>
<text x="322.754" y="54.8283" fill="#7F4C19" font-family="sans-serif" font-size="7px"><tspan>Br:11</tspan></text>
<text x="257.636" y="93.1369" fill="#CCCC00" font-family="sans-serif" font-size="7px"><tspan>S:12</tspan></text>
<text x="242.38" y="108.463" fill="#FF0000" font-family="sans-serif" font-size="7px"><tspan>O:13</tspan></text>
<text x="271.946" y="77.8106" fill="#FF0000" font-family="sans-serif" font-size="7px"><tspan>O:14</tspan></text>
<text x="238.761" y="78.3537" fill="#FF0000" font-family="sans-serif" font-size="7px"><tspan>HO:15</tspan></text>
<text x="270.375" y="194" fill="#000000" font-family="sans-serif" font-size="12px"><tspan>comp416</tspan></text>
<path class="bond-0" d="m507.45 136.5 12.303-9.227" fill="none" stroke="#000" stroke-width="2px"/>
<path class="bond-0" d="m506.74 131.71 8.613-6.459" fill="none" stroke="#000" stroke-width="2px"/>
<path class="bond-1" d="m507.45 136.5-12.953-5.534" fill="none" stroke="#000" stroke-width="2px"/>
<path class="bond-2" d="m487.44 124.58-1.691-14.043" fill="none" stroke="#000" stroke-width="2px"/>
<path class="bond-2" d="m491.41 121.97-1.184-9.83" fill="none" stroke="#000" stroke-width="2px"/>
<path class="bond-3" d="m490.05 103.44 7.571-5.6778" fill="none" stroke="#000" stroke-width="2px"/>
<path class="bond-4" d="m478.69 104.16-2.322-0.993" fill="none" stroke="#000" stroke-width="2px"/>
<path class="bond-4" d="m476.37 103.17-2.323-0.992" fill="none" stroke="#cc0" stroke-width="2px"/>
<path class="bond-5" d="m501.93 90.668-1.691-14.043" fill="none" stroke="#000" stroke-width="2px"/>
<path class="bond-6" d="m508.98 97.049 6.323 2.7013" fill="none" stroke="#000" stroke-width="2px"/>
<path class="bond-6" d="m508.26 101.37 4.427 1.891" fill="none" stroke="#000" stroke-width="2px"/>
<path class="bond-7" d="m522.36 106.13 1.691 14.043" fill="none" stroke="#000" stroke-width="2px"/>
<path class="bond-8" d="m526.67 99.034 3.786-2.8387" fill="none" stroke="#000" stroke-width="2px"/>
<path class="bond-8" d="m530.45 96.195 3.785-2.8388" fill="none" stroke="#00f" stroke-width="2px"/>
<path class="bond-9" d="m531.11 126.56 2.323 0.993" fill="none" stroke="#000" stroke-width="2px"/>
<path class="bond-9" d="m533.43 127.55 2.322 0.992" fill="none" stroke="#f00" stroke-width="2px"/>
<path class="bond-10" d="m538.54 86.258-0.845-7.0217" fill="none" stroke="#00f" stroke-width="2px"/>
<path class="bond-10" d="m537.7 79.237-0.846-7.0216" fill="none" stroke="#000" stroke-width="2px"/>
<path class="bond-10" d="m534.06 84.661-0.592-4.9152" fill="none" stroke="#00f" stroke-width="2px"/>
<path class="bond-10" d="m533.47 79.746-0.592-4.9151" fill="none" stroke="#000" stroke-width="2px"/>
<path class="bond-11" d="m529.8 65.834-6.323-2.7014" fill="none" stroke="#000" stroke-width="2px"/>
<path class="bond-12" d="m512.11 63.849-7.571 5.6775" fill="none" stroke="#000" stroke-width="2px"/>
<path class="bond-12" d="m513.53 68.108-5.3 3.9743" fill="none" stroke="#000" stroke-width="2px"/>
<path class="bond-13" d="m462.26 101.34-2.667 6.242" fill="none" stroke="#cc0" stroke-width="2px"/>
<path class="bond-13" d="m459.6 107.58-2.667 6.242" fill="none" stroke="#f00" stroke-width="2px"/>
<path class="bond-13" d="m466.18 103.01-2.667 6.242" fill="none" stroke="#cc0" stroke-width="2px"/>
<path class="bond-13" d="m463.51 109.26-2.666 6.241" fill="none" stroke="#f00" stroke-width="2px"/>
<path class="bond-14" d="m469.21 95.914 2.667-6.2419" fill="none" stroke="#cc0" stroke-width="2px"/>
<path class="bond-14" d="m471.88 89.673 2.667-6.242" fill="none" stroke="#f00" stroke-width="2px"/>
<path class="bond-14" d="m465.29 94.241 2.667-6.242" fill="none" stroke="#cc0" stroke-width="2px"/>
<path class="bond-14" d="m467.96 87.999 2.666-6.2419" fill="none" stroke="#f00" stroke-width="2px"/>
<path class="bond-15" d="m457.43 95.078-1.484-0.6339" fill="none" stroke="#cc0" stroke-width="2px"/>
<path class="bond-15" d="m455.94 94.444-1.484-0.6339" fill="none" stroke="#f00" stroke-width="2px"/>
<text x="481.234" y="131.683" fill="#000000" font-family="sans-serif" font-size="7px"><tspan>C:1</tspan></text>
<text x="478.688" y="110.542" fill="#000000" font-family="sans-serif" font-size="7px"><tspan>C:2</tspan></text>
<text x="495.724" y="97.7662" fill="#000000" font-family="sans-serif" font-size="7px"><tspan>C:3</tspan></text>
<text x="515.306" y="106.132" fill="#000000" font-family="sans-serif" font-size="7px"><tspan>C:4</tspan></text>
<text x="517.852" y="127.273" fill="#000000" font-family="sans-serif" font-size="7px"><tspan>C:5</tspan></text>
<text x="534.12" y="135.639" fill="#FF0000" font-family="sans-serif" font-size="7px"><tspan>OH:6</tspan></text>
<text x="532.342" y="93.3564" fill="#0000FF" font-family="sans-serif" font-size="7px"><tspan>N:7</tspan></text>
<text x="529.796" y="72.2151" fill="#000000" font-family="sans-serif" font-size="7px"><tspan>C:8</tspan></text>
<text x="510.214" y="63.8493" fill="#000000" font-family="sans-serif" font-size="7px"><tspan>C:9</tspan></text>
<text x="490.81" y="76.6249" fill="#000000" font-family="sans-serif" font-size="7px"><tspan>C:10</tspan></text>
<text x="456.972" y="102.176" fill="#CCCC00" font-family="sans-serif" font-size="7px"><tspan>S:11</tspan></text>
<text x="448.133" y="121.758" fill="#FF0000" font-family="sans-serif" font-size="7px"><tspan>O:12</tspan></text>
<text x="464.865" y="82.5941" fill="#FF0000" font-family="sans-serif" font-size="7px"><tspan>O:13</tspan></text>
<text x="433.841" y="93.8102" fill="#FF0000" font-family="sans-serif" font-size="7px"><tspan>HO:14</tspan></text>
<text x="470.375" y="194" fill="#000000" font-family="sans-serif" font-size="12px"><tspan>comp417</tspan></text>
</svg>
