<?xml version="1.0" encoding="UTF-8"?>
<svg baseProfile="full" version="1.1" viewBox="0 0 800 400" xml:space="preserve" xmlns="http://www.w3.org/2000/svg">

 <!-- END OF HEADER -->
<rect width="800" height="400" fill="#fff"> </rect>
<path class="bond-0" d="m81.444 123.31-13.991-19.257" fill="none" stroke="#000" stroke-width="2px"/>
<path class="bond-0" d="m84.196 116.9-9.7937-13.48" fill="none" stroke="#000" stroke-width="2px"/>
<path class="bond-1" d="m81.444 123.31 9.5893-3.116" fill="none" stroke="#000" stroke-width="2px"/>
<path class="bond-1" d="m91.034 120.2 9.5894-3.116" fill="none" stroke="#00f" stroke-width="2px"/>
<path class="bond-2" d="m109.96 109.05v-9.9929" fill="none" stroke="#00f" stroke-width="2px"/>
<path class="bond-2" d="m109.96 99.057v-9.993" fill="none" stroke="#000" stroke-width="2px"/>
<path class="bond-3" d="m118.61 119.04 4.327 2.498" fill="none" stroke="#00f" stroke-width="2px"/>
<path class="bond-3" d="m122.94 121.54 4.327 2.499" fill="none" stroke="#000" stroke-width="2px"/>
<path class="bond-4" d="m144.57 124.04 8.654-4.997" fill="none" stroke="#000" stroke-width="2px"/>
<path class="bond-4" d="m142.87 118.1 6.058-3.498" fill="none" stroke="#000" stroke-width="2px"/>
<path class="bond-5" d="m161.88 109.05v-9.9929" fill="none" stroke="#000" stroke-width="2px"/>
<path class="bond-5" d="m161.88 99.057v-9.993" fill="none" stroke="#00f" stroke-width="2px"/>
<path class="bond-6" d="m153.23 79.071-4.327-2.4983" fill="none" stroke="#00f" stroke-width="2px"/>
<path class="bond-6" d="m148.9 76.573-4.327-2.4982" fill="none" stroke="#000" stroke-width="2px"/>
<path class="bond-6" d="m148.93 83.514-3.029-1.7488" fill="none" stroke="#00f" stroke-width="2px"/>
<path class="bond-6" d="m145.9 81.765-3.029-1.7488" fill="none" stroke="#000" stroke-width="2px"/>
<path class="bond-7" d="m127.26 74.075-8.654 4.9965" fill="none" stroke="#000" stroke-width="2px"/>
<path class="bond-8" d="m100.62 81.035-4.9229-1.5995" fill="none" stroke="#000" stroke-width="2px"/>
<path class="bond-8" d="m95.7 79.436-4.9226-1.5994" fill="none" stroke="#00f" stroke-width="2px"/>
<path class="bond-8" d="m97.293 86.258-3.4459-1.1196" fill="none" stroke="#000" stroke-width="2px"/>
<path class="bond-8" d="m93.847 85.138-3.4458-1.1197" fill="none" stroke="#00f" stroke-width="2px"/>
<path class="bond-9" d="m77.814 79.8-5.1804 7.1303" fill="none" stroke="#00f" stroke-width="2px"/>
<path class="bond-9" d="m72.634 86.93-5.1804 7.1302" fill="none" stroke="#000" stroke-width="2px"/>
<text x="100.623" y="119.043" fill="#0000FF" font-family="sans-serif" font-size="9px"><tspan>N:1</tspan></text>
<text x="126.585" y="134.033" fill="#000000" font-family="sans-serif" font-size="9px"><tspan>C:2</tspan></text>
<text x="152.548" y="119.043" fill="#000000" font-family="sans-serif" font-size="9px"><tspan>C:3</tspan></text>
<text x="152.548" y="89.0641" fill="#0000FF" font-family="sans-serif" font-size="9px"><tspan>N:4</tspan></text>
<text x="126.585" y="74.0747" fill="#000000" font-family="sans-serif" font-size="9px"><tspan>C:5</tspan></text>
<text x="100.623" y="89.0641" fill="#000000" font-family="sans-serif" font-size="9px"><tspan>C:6</tspan></text>
<text x="72.1111" y="79.8001" fill="#0000FF" font-family="sans-serif" font-size="9px"><tspan>N:7</tspan></text>
<text x="54.4899" y="104.054" fill="#000000" font-family="sans-serif" font-size="9px"><tspan>C:8</tspan></text>
<text x="74.3794" y="194" fill="#000000" font-family="sans-serif" font-size="12px"><tspan>comp38</tspan></text>
<path class="bond-0" d="m364.42 50.068-9.966 2.2145" fill="none" stroke="#000" stroke-width="2px"/>
<path class="bond-0" d="m354.45 52.282-9.966 2.2145" fill="none" stroke="#00f" stroke-width="2px"/>
<path class="bond-1" d="m364.42 50.068 15.681 17.096" fill="none" stroke="#000" stroke-width="2px"/>
<path class="bond-1" d="m362.35 56.685 10.977 11.968" fill="none" stroke="#000" stroke-width="2px"/>
<path class="bond-2" d="m383.11 77.157-2.927 9.3014" fill="none" stroke="#000" stroke-width="2px"/>
<path class="bond-2" d="m380.18 86.458-2.928 9.3014" fill="none" stroke="#00f" stroke-width="2px"/>
<path class="bond-3" d="m366.35 102.83-5.3 1.178" fill="none" stroke="#00f" stroke-width="2px"/>
<path class="bond-3" d="m361.05 104.01-5.299 1.177" fill="none" stroke="#000" stroke-width="2px"/>
<path class="bond-4" d="m378.63 105.75 4.668 7.915" fill="none" stroke="#00f" stroke-width="2px"/>
<path class="bond-4" d="m383.3 113.67 4.668 7.915" fill="none" stroke="#000" stroke-width="2px"/>
<path class="bond-5" d="m386.49 131.58-11.021 12.47" fill="none" stroke="#000" stroke-width="2px"/>
<path class="bond-5" d="m380.35 129.48-7.715 8.729" fill="none" stroke="#000" stroke-width="2px"/>
<path class="bond-6" d="m361.72 144.99-4.416-1.917" fill="none" stroke="#000" stroke-width="2px"/>
<path class="bond-6" d="m357.31 143.07-4.416-1.918" fill="none" stroke="#00f" stroke-width="2px"/>
<path class="bond-7" d="m344.04 132.1 0.95-9.925" fill="none" stroke="#00f" stroke-width="2px"/>
<path class="bond-7" d="m344.99 122.18 0.951-9.924" fill="none" stroke="#000" stroke-width="2px"/>
<path class="bond-7" d="m350.29 129.7 0.666-6.947" fill="none" stroke="#00f" stroke-width="2px"/>
<path class="bond-7" d="m350.96 122.75 0.665-6.947" fill="none" stroke="#000" stroke-width="2px"/>
<path class="bond-8" d="m341.83 102.26-11.098-12.1" fill="none" stroke="#000" stroke-width="2px"/>
<path class="bond-9" d="m327.72 80.17 2.928-9.3014" fill="none" stroke="#000" stroke-width="2px"/>
<path class="bond-9" d="m330.65 70.868 2.928-9.3015" fill="none" stroke="#00f" stroke-width="2px"/>
<path class="bond-9" d="m334.32 79.18 2.049-6.5109" fill="none" stroke="#000" stroke-width="2px"/>
<path class="bond-9" d="m336.37 72.669 2.05-6.511" fill="none" stroke="#00f" stroke-width="2px"/>
<path class="bond-10" d="m316.82 87.24-5.299 1.1775" fill="none" stroke="#000" stroke-width="2px"/>
<path class="bond-10" d="m311.52 88.418-5.299 1.1776" fill="none" stroke="#00f" stroke-width="2px"/>
<path class="bond-11" d="m295.31 96.666-2.928 9.3013" fill="none" stroke="#00f" stroke-width="2px"/>
<path class="bond-11" d="m292.39 105.97-2.928 9.301" fill="none" stroke="#000" stroke-width="2px"/>
<path class="bond-12" d="m292.3 86.673-5.55-6.05" fill="none" stroke="#00f" stroke-width="2px"/>
<path class="bond-12" d="m286.75 80.623-5.549-6.05" fill="none" stroke="#000" stroke-width="2px"/>
<path class="bond-13" d="m263.95 72.391-3.929 0.873" fill="none" stroke="#000" stroke-width="2px"/>
<path class="bond-14" d="m245.78 81.076-2.927 9.3014" fill="none" stroke="#000" stroke-width="2px"/>
<path class="bond-14" d="m242.86 90.377-2.928 9.3014" fill="none" stroke="#00f" stroke-width="2px"/>
<path class="bond-15" d="m242.94 109.67 5.549 6.05" fill="none" stroke="#00f" stroke-width="2px"/>
<path class="bond-15" d="m248.49 115.72 5.549 6.05" fill="none" stroke="#000" stroke-width="2px"/>
<path class="bond-16" d="m225.69 107.49-1.965 0.436" fill="none" stroke="#00f" stroke-width="2px"/>
<path class="bond-16" d="m223.72 107.93-1.964 0.437" fill="none" stroke="#000" stroke-width="2px"/>
<path class="bond-17" d="m271.29 123.95 3.928-0.873" fill="none" stroke="#000" stroke-width="2px"/>
<text x="375.349" y="77.157" fill="#000000" font-family="sans-serif" font-size="9px"><tspan>C:1</tspan></text>
<text x="366.348" y="105.753" fill="#0000FF" font-family="sans-serif" font-size="9px"><tspan>N:2</tspan></text>
<text x="381.576" y="131.576" fill="#000000" font-family="sans-serif" font-size="9px"><tspan>C:3</tspan></text>
<text x="361.722" y="154.039" fill="#000000" font-family="sans-serif" font-size="9px"><tspan>C:4</tspan></text>
<text x="334.224" y="142.098" fill="#0000FF" font-family="sans-serif" font-size="9px"><tspan>N:5</tspan></text>
<text x="337.083" y="112.256" fill="#000000" font-family="sans-serif" font-size="9px"><tspan>C:6</tspan></text>
<text x="316.818" y="90.1628" fill="#000000" font-family="sans-serif" font-size="9px"><tspan>C:7</tspan></text>
<text x="325.819" y="61.5669" fill="#0000FF" font-family="sans-serif" font-size="9px"><tspan>N:8</tspan></text>
<text x="287.553" y="96.6657" fill="#0000FF" font-family="sans-serif" font-size="9px"><tspan>N:9</tspan></text>
<text x="263.954" y="74.5727" fill="#000000" font-family="sans-serif" font-size="9px"><tspan>C:10</tspan></text>
<text x="234.689" y="81.0756" fill="#000000" font-family="sans-serif" font-size="9px"><tspan>C:11</tspan></text>
<text x="225.688" y="109.671" fill="#0000FF" font-family="sans-serif" font-size="9px"><tspan>N:12</tspan></text>
<text x="245.952" y="131.764" fill="#000000" font-family="sans-serif" font-size="9px"><tspan>C:13</tspan></text>
<text x="275.217" y="125.261" fill="#000000" font-family="sans-serif" font-size="9px"><tspan>C:14</tspan></text>
<text x="196.423" y="116.174" fill="#000000" font-family="sans-serif" font-size="9px"><tspan>C:15</tspan></text>
<text x="274.379" y="194" fill="#000000" font-family="sans-serif" font-size="12px"><tspan>comp39</tspan></text>
<path class="bond-0" d="m559.14 118.02 8.389-23.195" fill="none" stroke="#000" stroke-width="2px"/>
<path class="bond-0" d="m554.76 112.5 5.872-16.237" fill="none" stroke="#000" stroke-width="2px"/>
<path class="bond-1" d="m559.14 118.02-10.315-0.339" fill="none" stroke="#000" stroke-width="2px"/>
<path class="bond-1" d="m548.82 117.68-10.315-0.339" fill="none" stroke="#00f" stroke-width="2px"/>
<path class="bond-2" d="m527.73 112.04-2.718-9.404" fill="none" stroke="#00f" stroke-width="2px"/>
<path class="bond-2" d="m525.02 102.64-2.717-9.404" fill="none" stroke="#000" stroke-width="2px"/>
<path class="bond-3" d="m524.37 122.03-5.585 5.807" fill="none" stroke="#00f" stroke-width="2px"/>
<path class="bond-3" d="m518.79 127.84-5.585 5.807" fill="none" stroke="#000" stroke-width="2px"/>
<path class="bond-4" d="m499.06 136.34-10.437-2.58" fill="none" stroke="#000" stroke-width="2px"/>
<path class="bond-4" d="m498.94 130.13-7.306-1.805" fill="none" stroke="#000" stroke-width="2px"/>
<path class="bond-5" d="m477.85 126.45-2.717-9.404" fill="none" stroke="#000" stroke-width="2px"/>
<path class="bond-5" d="m475.13 117.05-2.717-9.404" fill="none" stroke="#00f" stroke-width="2px"/>
<path class="bond-6" d="m475.78 97.653 5.585-5.8072" fill="none" stroke="#00f" stroke-width="2px"/>
<path class="bond-6" d="m481.36 91.846 5.586-5.8073" fill="none" stroke="#000" stroke-width="2px"/>
<path class="bond-6" d="m481.77 100.07 3.91-4.0648" fill="none" stroke="#00f" stroke-width="2px"/>
<path class="bond-6" d="m485.68 96.002 3.91-4.0651" fill="none" stroke="#000" stroke-width="2px"/>
<path class="bond-7" d="m501.08 83.349 10.437 2.5796" fill="none" stroke="#000" stroke-width="2px"/>
<path class="bond-8" d="m490.31 76.046-2.717-9.4039" fill="none" stroke="#000" stroke-width="2px"/>
<path class="bond-8" d="m487.59 66.642-2.717-9.4039" fill="none" stroke="#0c0" stroke-width="2px"/>
<path class="bond-9" d="m528.23 83.239 5.035-3.4108" fill="none" stroke="#000" stroke-width="2px"/>
<path class="bond-9" d="m533.26 79.828 5.035-3.4108" fill="none" stroke="#00f" stroke-width="2px"/>
<path class="bond-9" d="m533.1 87.18 3.524-2.3876" fill="none" stroke="#000" stroke-width="2px"/>
<path class="bond-9" d="m536.63 84.792 3.524-2.3876" fill="none" stroke="#00f" stroke-width="2px"/>
<path class="bond-10" d="m552.1 76.417 5.408 4.2078" fill="none" stroke="#00f" stroke-width="2px"/>
<path class="bond-10" d="m557.5 80.625 5.409 4.2079" fill="none" stroke="#000" stroke-width="2px"/>
<text x="519.844" y="122.033" fill="#0000FF" font-family="sans-serif" font-size="9px"><tspan>N:1</tspan></text>
<text x="499.063" y="143.64" fill="#000000" font-family="sans-serif" font-size="9px"><tspan>C:2</tspan></text>
<text x="469.96" y="136.447" fill="#000000" font-family="sans-serif" font-size="9px"><tspan>C:3</tspan></text>
<text x="461.638" y="107.646" fill="#0000FF" font-family="sans-serif" font-size="9px"><tspan>N:4</tspan></text>
<text x="482.419" y="86.0387" fill="#000000" font-family="sans-serif" font-size="9px"><tspan>C:5</tspan></text>
<text x="511.522" y="93.232" fill="#000000" font-family="sans-serif" font-size="9px"><tspan>C:6</tspan></text>
<text x="536.342" y="76.4174" fill="#0000FF" font-family="sans-serif" font-size="9px"><tspan>N:7</tspan></text>
<text x="560.003" y="94.8261" fill="#000000" font-family="sans-serif" font-size="9px"><tspan>C:8</tspan></text>
<text x="472.765" y="57.238" fill="#00CC00" font-family="sans-serif" font-size="9px"><tspan>Cl:9</tspan></text>
<text x="474.379" y="194" fill="#000000" font-family="sans-serif" font-size="12px"><tspan>comp40</tspan></text>
<path class="bond-0" d="m755.98 88.057-2.132 12.27" fill="none" stroke="#000" stroke-width="2px"/>
<path class="bond-0" d="m753.85 100.33-2.132 12.27" fill="none" stroke="#00f" stroke-width="2px"/>
<path class="bond-1" d="m755.98 88.057-17.028-14.216" fill="none" stroke="#000" stroke-width="2px"/>
<path class="bond-1" d="m749.58 90.528-11.92-9.9512" fill="none" stroke="#000" stroke-width="2px"/>
<path class="bond-2" d="m755.98 88.057 7.262-2.6638" fill="none" stroke="#000" stroke-width="2px"/>
<path class="bond-2" d="m763.24 85.394 7.262-2.6637" fill="none" stroke="#7F4C19" stroke-width="2px"/>
<path class="bond-3" d="m723.63 72.268-4.74 1.7384" fill="none" stroke="#000" stroke-width="2px"/>
<path class="bond-3" d="m718.89 74.007-4.739 1.7385" fill="none" stroke="#00f" stroke-width="2px"/>
<path class="bond-4" d="m695.49 74.236-3.919-2.0713" fill="none" stroke="#00f" stroke-width="2px"/>
<path class="bond-4" d="m691.57 72.165-3.919-2.0714" fill="none" stroke="#000" stroke-width="2px"/>
<path class="bond-5" d="m703.95 84.165-1.697 9.7717" fill="none" stroke="#00f" stroke-width="2px"/>
<path class="bond-5" d="m702.26 93.937-1.698 9.772" fill="none" stroke="#000" stroke-width="2px"/>
<path class="bond-6" d="m705.67 113.7 11.043 9.219" fill="none" stroke="#000" stroke-width="2px"/>
<path class="bond-7" d="m690.36 110.04-5.505 0.788" fill="none" stroke="#000" stroke-width="2px"/>
<path class="bond-7" d="m684.85 110.83-5.505 0.787" fill="none" stroke="#00f" stroke-width="2px"/>
<path class="bond-7" d="m687.86 104.34-3.854 0.551" fill="none" stroke="#000" stroke-width="2px"/>
<path class="bond-7" d="m684 104.89-3.854 0.552" fill="none" stroke="#00f" stroke-width="2px"/>
<path class="bond-8" d="m732.04 124.49 4.74-1.738" fill="none" stroke="#000" stroke-width="2px"/>
<path class="bond-8" d="m736.78 122.76 4.739-1.739" fill="none" stroke="#00f" stroke-width="2px"/>
<path class="bond-8" d="m731.39 118.34 3.318-1.217" fill="none" stroke="#000" stroke-width="2px"/>
<path class="bond-8" d="m734.71 117.13 3.318-1.217" fill="none" stroke="#00f" stroke-width="2px"/>
<path class="bond-9" d="m721.83 132.91-1.698 9.772" fill="none" stroke="#000" stroke-width="2px"/>
<path class="bond-9" d="m720.14 142.69-1.698 9.772" fill="none" stroke="#7F4C19" stroke-width="2px"/>
<path class="bond-10" d="m667.56 107.96-4.153-8.459" fill="none" stroke="#00f" stroke-width="2px"/>
<path class="bond-10" d="m663.41 99.496-4.152-8.4595" fill="none" stroke="#000" stroke-width="2px"/>
<path class="bond-11" d="m661.95 81.044 11.216-10.886" fill="none" stroke="#000" stroke-width="2px"/>
<path class="bond-11" d="m667.81 83.713 7.852-7.6203" fill="none" stroke="#000" stroke-width="2px"/>
<text x="723.633" y="73.8413" fill="#000000" font-family="sans-serif" font-size="9px"><tspan>C:1</tspan></text>
<text x="695.487" y="84.1653" fill="#0000FF" font-family="sans-serif" font-size="9px"><tspan>N:2</tspan></text>
<text x="690.355" y="113.702" fill="#000000" font-family="sans-serif" font-size="9px"><tspan>C:3</tspan></text>
<text x="713.369" y="132.914" fill="#000000" font-family="sans-serif" font-size="9px"><tspan>C:4</tspan></text>
<text x="741.514" y="122.59" fill="#0000FF" font-family="sans-serif" font-size="9px"><tspan>N:5</tspan></text>
<text x="706.57" y="162.451" fill="#7F4C19" font-family="sans-serif" font-size="9px"><tspan>Br:6</tspan></text>
<text x="660.679" y="117.948" fill="#0000FF" font-family="sans-serif" font-size="9px"><tspan>N:7</tspan></text>
<text x="647.469" y="91.0365" fill="#000000" font-family="sans-serif" font-size="9px"><tspan>C:8</tspan></text>
<text x="668.982" y="70.1574" fill="#000000" font-family="sans-serif" font-size="9px"><tspan>C:9</tspan></text>
<text x="769.789" y="82.7299" fill="#7F4C19" font-family="sans-serif" font-size="9px"><tspan>Br:10</tspan></text>
<text x="670.375" y="194" fill="#000000" font-family="sans-serif" font-size="12px"><tspan>comp111</tspan></text>
<path class="bond-0" d="m100.81 256.64h10.323" fill="none" stroke="#000" stroke-width="2px"/>
<path class="bond-0" d="m111.14 256.64h10.323" fill="none" stroke="#00f" stroke-width="2px"/>
<path class="bond-1" d="m100.81 256.64-12.105 20.966" fill="none" stroke="#000" stroke-width="2px"/>
<path class="bond-1" d="m104.19 262.78-8.4735 14.676" fill="none" stroke="#000" stroke-width="2px"/>
<path class="bond-2" d="m88.708 287.6 4.61 7.985" fill="none" stroke="#000" stroke-width="2px"/>
<path class="bond-2" d="m93.318 295.58 4.61 7.985" fill="none" stroke="#00f" stroke-width="2px"/>
<path class="bond-3" d="m76.49 282.6h-7.9776" fill="none" stroke="#000" stroke-width="2px"/>
<path class="bond-4" d="m99.19 313.56-3.0085 9.259" fill="none" stroke="#00f" stroke-width="2px"/>
<path class="bond-4" d="m96.181 322.82-3.0086 9.259" fill="none" stroke="#000" stroke-width="2px"/>
<path class="bond-5" d="m110.15 308.56h5.657" fill="none" stroke="#00f" stroke-width="2px"/>
<path class="bond-5" d="m115.8 308.56h5.656" fill="none" stroke="#000" stroke-width="2px"/>
<path class="bond-6" d="m133.68 303.56 9.22-15.97" fill="none" stroke="#000" stroke-width="2px"/>
<path class="bond-7" d="m132.42 313.56 3.009 9.259" fill="none" stroke="#000" stroke-width="2px"/>
<path class="bond-7" d="m135.42 322.82 3.009 9.259" fill="none" stroke="#00f" stroke-width="2px"/>
<path class="bond-7" d="m127.62 318.19 2.106 6.482" fill="none" stroke="#000" stroke-width="2px"/>
<path class="bond-7" d="m129.72 324.67 2.106 6.481" fill="none" stroke="#00f" stroke-width="2px"/>
<path class="bond-8" d="m142.9 277.6-4.61-7.985" fill="none" stroke="#000" stroke-width="2px"/>
<path class="bond-8" d="m138.29 269.62-4.61-7.984" fill="none" stroke="#00f" stroke-width="2px"/>
<path class="bond-8" d="m136.32 278.2-3.227-5.59" fill="none" stroke="#000" stroke-width="2px"/>
<path class="bond-8" d="m133.09 272.62-3.227-5.589" fill="none" stroke="#00f" stroke-width="2px"/>
<path class="bond-9" d="m155.12 282.6h4.99" fill="none" stroke="#000" stroke-width="2px"/>
<path class="bond-9" d="m160.1 282.6h4.991" fill="none" stroke="#0c0" stroke-width="2px"/>
<path class="bond-10" d="m133.18 342.07-5.25 3.814" fill="none" stroke="#00f" stroke-width="2px"/>
<path class="bond-10" d="m127.93 345.88-5.249 3.815" fill="none" stroke="#000" stroke-width="2px"/>
<path class="bond-11" d="m108.92 349.7-10.499-7.629" fill="none" stroke="#000" stroke-width="2px"/>
<path class="bond-11" d="m110.88 343.7-7.35-5.34" fill="none" stroke="#000" stroke-width="2px"/>
<text x="76.4904" y="287.595" fill="#000000" font-family="sans-serif" font-size="9px"><tspan>C:1</tspan></text>
<text x="91.4799" y="313.558" fill="#0000FF" font-family="sans-serif" font-size="9px"><tspan>N:2</tspan></text>
<text x="121.459" y="313.558" fill="#000000" font-family="sans-serif" font-size="9px"><tspan>C:3</tspan></text>
<text x="136.448" y="287.595" fill="#000000" font-family="sans-serif" font-size="9px"><tspan>C:4</tspan></text>
<text x="121.459" y="261.633" fill="#0000FF" font-family="sans-serif" font-size="9px"><tspan>N:5</tspan></text>
<text x="165.096" y="287.595" fill="#00CC00" font-family="sans-serif" font-size="9px"><tspan>Cl:6</tspan></text>
<text x="130.723" y="342.069" fill="#0000FF" font-family="sans-serif" font-size="9px"><tspan>N:7</tspan></text>
<text x="106.469" y="359.691" fill="#000000" font-family="sans-serif" font-size="9px"><tspan>C:8</tspan></text>
<text x="82.2159" y="342.069" fill="#000000" font-family="sans-serif" font-size="9px"><tspan>C:9</tspan></text>
<text x="43.1764" y="287.595" fill="#000000" font-family="sans-serif" font-size="9px"><tspan>C:10</tspan></text>
<text x="70.3745" y="394" fill="#000000" font-family="sans-serif" font-size="12px"><tspan>comp112</tspan></text>
<path class="bond-0" d="m346.18 298.56-5.479 6.359" fill="none" stroke="#00f" stroke-width="2px"/>
<path class="bond-0" d="m340.7 304.92-5.479 6.359" fill="none" stroke="#000" stroke-width="2px"/>
<path class="bond-0" d="m340 296.55-3.835 4.451" fill="none" stroke="#00f" stroke-width="2px"/>
<path class="bond-0" d="m336.16 301-3.836 4.452" fill="none" stroke="#000" stroke-width="2px"/>
<path class="bond-1" d="m348.74 288.56-3.197-9.155" fill="none" stroke="#00f" stroke-width="2px"/>
<path class="bond-1" d="m345.55 279.41-3.197-9.155" fill="none" stroke="#000" stroke-width="2px"/>
<path class="bond-2" d="m331.27 263.48-10.786-2.048" fill="none" stroke="#000" stroke-width="2px"/>
<path class="bond-2" d="m328.54 269.07-7.551-1.433" fill="none" stroke="#000" stroke-width="2px"/>
<path class="bond-3" d="m344.91 260.26 5.479-6.359" fill="none" stroke="#000" stroke-width="2px"/>
<path class="bond-3" d="m350.39 253.9 5.479-6.359" fill="none" stroke="#7F4C19" stroke-width="2px"/>
<path class="bond-4" d="m306.85 264.66-5.479 6.359" fill="none" stroke="#000" stroke-width="2px"/>
<path class="bond-4" d="m301.37 271.02-5.479 6.359" fill="none" stroke="#00f" stroke-width="2px"/>
<path class="bond-5" d="m282.25 282.58-3.985 0.087" fill="none" stroke="#00f" stroke-width="2px"/>
<path class="bond-5" d="m278.26 282.67-3.985 0.087" fill="none" stroke="#000" stroke-width="2px"/>
<path class="bond-6" d="m293.33 287.37 3.198 9.155" fill="none" stroke="#00f" stroke-width="2px"/>
<path class="bond-6" d="m296.52 296.53 3.197 9.155" fill="none" stroke="#000" stroke-width="2px"/>
<path class="bond-7" d="m310.8 312.45 10.786 2.048" fill="none" stroke="#000" stroke-width="2px"/>
<path class="bond-8" d="m294.9 315.68-5.361 4.076" fill="none" stroke="#000" stroke-width="2px"/>
<path class="bond-8" d="m289.54 319.75-5.361 4.077" fill="none" stroke="#00f" stroke-width="2px"/>
<path class="bond-8" d="m289.66 312.13-3.752 2.854" fill="none" stroke="#000" stroke-width="2px"/>
<path class="bond-8" d="m285.91 314.98-3.753 2.853" fill="none" stroke="#00f" stroke-width="2px"/>
<path class="bond-9" d="m332.66 321.27 3.197 9.155" fill="none" stroke="#000" stroke-width="2px"/>
<path class="bond-9" d="m335.86 330.42 3.197 9.155" fill="none" stroke="#cc0" stroke-width="2px"/>
<path class="bond-10" d="m349.81 346.28 5.558 1.055" fill="none" stroke="#cc0" stroke-width="2px"/>
<path class="bond-10" d="m355.36 347.34 5.558 1.055" fill="none" stroke="#000" stroke-width="2px"/>
<path class="bond-11" d="m270.4 323.83-5.114-3.548" fill="none" stroke="#00f" stroke-width="2px"/>
<path class="bond-11" d="m265.29 320.28-5.113-3.547" fill="none" stroke="#000" stroke-width="2px"/>
<path class="bond-12" d="m254.48 306.74 5.632-18.714" fill="none" stroke="#000" stroke-width="2px"/>
<path class="bond-12" d="m261.06 305.66 3.943-13.1" fill="none" stroke="#000" stroke-width="2px"/>
<text x="346.158" y="298.556" fill="#0000FF" font-family="sans-serif" font-size="9px"><tspan>N</tspan></text>
<text x="331.271" y="270.253" fill="#000000" font-family="sans-serif" font-size="9px"><tspan>C:1</tspan></text>
<text x="301.818" y="264.662" fill="#000000" font-family="sans-serif" font-size="9px"><tspan>C:2</tspan></text>
<text x="282.249" y="287.373" fill="#0000FF" font-family="sans-serif" font-size="9px"><tspan>N:3</tspan></text>
<text x="292.133" y="315.676" fill="#000000" font-family="sans-serif" font-size="9px"><tspan>C:4</tspan></text>
<text x="321.586" y="321.267" fill="#000000" font-family="sans-serif" font-size="9px"><tspan>C:5</tspan></text>
<text x="331.8" y="349.57" fill="#CCCC00" font-family="sans-serif" font-size="9px"><tspan>S:6</tspan></text>
<text x="360.923" y="355.162" fill="#000000" font-family="sans-serif" font-size="9px"><tspan>C:7</tspan></text>
<text x="268.27" y="333.822" fill="#0000FF" font-family="sans-serif" font-size="9px"><tspan>N:8</tspan></text>
<text x="243.638" y="316.734" fill="#000000" font-family="sans-serif" font-size="9px"><tspan>C:9</tspan></text>
<text x="248.943" y="288.027" fill="#000000" font-family="sans-serif" font-size="9px"><tspan>C:10</tspan></text>
<text x="345.838" y="247.542" fill="#7F4C19" font-family="sans-serif" font-size="9px"><tspan>Br:11</tspan></text>
<text x="270.375" y="394" fill="#000000" font-family="sans-serif" font-size="12px"><tspan>comp186</tspan></text>
</svg>
