<?xml version="1.0" encoding="UTF-8"?>
<svg baseProfile="full" version="1.1" viewBox="0 0 800 200" xml:space="preserve" xmlns="http://www.w3.org/2000/svg">

 <!-- END OF HEADER -->
<rect width="800" height="200" fill="#fff"> </rect>
<path class="bond-0" d="m32.064 131.42-2.1363-5.232" fill="none" stroke="#00f" stroke-width="2px"/>
<path class="bond-0" d="m29.928 126.19-2.1363-5.231" fill="none" stroke="#000" stroke-width="2px"/>
<path class="bond-0" d="m34.693 128.52-1.4954-3.663" fill="none" stroke="#00f" stroke-width="2px"/>
<path class="bond-0" d="m33.198 124.86-1.4954-3.662" fill="none" stroke="#000" stroke-width="2px"/>
<path class="bond-1" d="m35.817 134.72 4.7243 0.646" fill="none" stroke="#00f" stroke-width="2px"/>
<path class="bond-1" d="m40.542 135.36 4.7244 0.646" fill="none" stroke="#000" stroke-width="2px"/>
<path class="bond-2" d="m53.047 133.82 3.1287-4.035" fill="none" stroke="#000" stroke-width="2px"/>
<path class="bond-2" d="m56.175 129.78 3.1287-4.035" fill="none" stroke="#00f" stroke-width="2px"/>
<path class="bond-2" d="m51.194 130.44 2.1901-2.825" fill="none" stroke="#000" stroke-width="2px"/>
<path class="bond-2" d="m53.384 127.62 2.1901-2.824" fill="none" stroke="#00f" stroke-width="2px"/>
<path class="bond-3" d="m60.384 119.86-4.2725-10.464" fill="none" stroke="#00f" stroke-width="2px"/>
<path class="bond-4" d="m56.332 103.51 2.4196-5.008" fill="none" stroke="#00f" stroke-width="2px"/>
<path class="bond-4" d="m58.752 98.5 2.4196-5.0077" fill="none" stroke="#000" stroke-width="2px"/>
<path class="bond-5" d="m49.412 105.7-3.2508-0.445" fill="none" stroke="#00f" stroke-width="2px"/>
<path class="bond-5" d="m46.161 105.25-3.2508-0.444" fill="none" stroke="#000" stroke-width="2px"/>
<path class="bond-6" d="m35.129 107-6.2574 8.07" fill="none" stroke="#000" stroke-width="2px"/>
<path class="bond-7" d="m36.881 101.11-2.0705-11.494" fill="none" stroke="#000" stroke-width="2px"/>
<path class="bond-7" d="m40.047 98.764-1.4494-8.0462" fill="none" stroke="#000" stroke-width="2px"/>
<path class="bond-8" d="m21.091 117.26-1.484-0.203" fill="none" stroke="#000" stroke-width="2px"/>
<path class="bond-8" d="m19.607 117.06-1.4839-0.203" fill="none" stroke="#00f" stroke-width="2px"/>
<path class="bond-9" d="m39.768 83.732 4.5891-2.4618" fill="none" stroke="#000" stroke-width="2px"/>
<path class="bond-10" d="m52.915 81.271 6.6082 6.3346" fill="none" stroke="#000" stroke-width="2px"/>
<path class="bond-10" d="m51.462 84.771 4.6257 4.4342" fill="none" stroke="#000" stroke-width="2px"/>
<path class="bond-11" d="m68.092 89.558 4.4201-0.7962" fill="none" stroke="#000" stroke-width="2px"/>
<path class="bond-12" d="m82.02 84.474 5.9868-8.6175" fill="none" stroke="#000" stroke-width="2px"/>
<path class="bond-13" d="m84.212 90.361 6.0306 4.1896" fill="none" stroke="#000" stroke-width="2px"/>
<path class="bond-14" d="m96.525 94.551 2.9934-4.3087" fill="none" stroke="#000" stroke-width="2px"/>
<path class="bond-14" d="m99.518 90.242 2.9935-4.3088" fill="none" stroke="#00f" stroke-width="2px"/>
<path class="bond-15" d="m100.32 80.046-3.0154-2.0949" fill="none" stroke="#00f" stroke-width="2px"/>
<path class="bond-15" d="m97.305 77.952-3.0153-2.0948" fill="none" stroke="#000" stroke-width="2px"/>
<path class="bond-16" d="m112.02 81.646 1.228-0.2211" fill="none" stroke="#00f" stroke-width="2px"/>
<path class="bond-16" d="m113.25 81.424 1.227-0.2212" fill="none" stroke="#000" stroke-width="2px"/>
<path class="bond-17" d="m124.66 77.513 1.93-5.3657" fill="none" stroke="#000" stroke-width="2px"/>
<path class="bond-17" d="m126.59 72.148 1.931-5.3657" fill="none" stroke="#f00" stroke-width="2px"/>
<path class="bond-17" d="m121.34 76.318 1.93-5.3657" fill="none" stroke="#000" stroke-width="2px"/>
<path class="bond-17" d="m123.27 70.952 1.931-5.3656" fill="none" stroke="#f00" stroke-width="2px"/>
<path class="bond-18" d="m124.43 82.803 3.213 3.8002" fill="none" stroke="#000" stroke-width="2px"/>
<path class="bond-18" d="m127.64 86.603 3.212 3.8001" fill="none" stroke="#f00" stroke-width="2px"/>
<path class="bond-19" d="m141 91.966 1.129-0.2033" fill="none" stroke="#f00" stroke-width="2px"/>
<path class="bond-19" d="m142.13 91.763 1.129-0.2033" fill="none" stroke="#000" stroke-width="2px"/>
<path class="bond-20" d="m153.21 93.159 6.426 7.6009" fill="none" stroke="#000" stroke-width="2px"/>
<path class="bond-21" d="m169.59 102.36 2.456-0.443" fill="none" stroke="#000" stroke-width="2px"/>
<path class="bond-22" d="m161.07 106.65-3.861 10.731" fill="none" stroke="#000" stroke-width="2px"/>
<path class="bond-22" d="m163.81 109.45-2.702 7.512" fill="none" stroke="#000" stroke-width="2px"/>
<path class="bond-23" d="m158.63 123.26 6.426 7.601" fill="none" stroke="#000" stroke-width="2px"/>
<path class="bond-24" d="m175.01 132.46 2.456-0.443" fill="none" stroke="#000" stroke-width="2px"/>
<path class="bond-24" d="m174.75 128.92 1.719-0.31" fill="none" stroke="#000" stroke-width="2px"/>
<path class="bond-25" d="m185.99 127.74 3.861-10.732" fill="none" stroke="#000" stroke-width="2px"/>
<path class="bond-26" d="m188.42 111.12-6.426-7.6" fill="none" stroke="#000" stroke-width="2px"/>
<path class="bond-26" d="m184.76 112.26-4.497-5.321" fill="none" stroke="#000" stroke-width="2px"/>
<text x="30.7145" y="137.31" fill="#0000FF" font-family="sans-serif" font-size="5px"><tspan>N</tspan></text>
<text x="45.2659" y="139.703" fill="#000000" font-family="sans-serif" font-size="5px"><tspan>C:1</tspan></text>
<text x="56.088" y="125.746" fill="#0000FF" font-family="sans-serif" font-size="5px"><tspan>N:2</tspan></text>
<text x="49.4116" y="109.395" fill="#0000FF" font-family="sans-serif" font-size="5px"><tspan>N:3</tspan></text>
<text x="31.9131" y="107.001" fill="#000000" font-family="sans-serif" font-size="5px"><tspan>C:4</tspan></text>
<text x="21.091" y="120.959" fill="#000000" font-family="sans-serif" font-size="5px"><tspan>C:5</tspan></text>
<text x="0.058763" y="118.859" fill="#0000FF" font-family="sans-serif" font-size="5px"><tspan>H</tspan><tspan baseline-shift="sub" font-size="3.75px">2</tspan><tspan>N:6</tspan></text>
<text x="28.7821" y="89.6195" fill="#000000" font-family="sans-serif" font-size="5px"><tspan>C:7</tspan></text>
<text x="44.3456" y="81.2706" fill="#000000" font-family="sans-serif" font-size="5px"><tspan>C:8</tspan></text>
<text x="57.0953" y="93.4923" fill="#000000" font-family="sans-serif" font-size="5px"><tspan>C:9</tspan></text>
<text x="72.5123" y="90.3614" fill="#000000" font-family="sans-serif" font-size="5px"><tspan>C:10</tspan></text>
<text x="87.0169" y="100.438" fill="#000000" font-family="sans-serif" font-size="5px"><tspan>C:11</tspan></text>
<text x="97.0937" y="85.9335" fill="#0000FF" font-family="sans-serif" font-size="5px"><tspan>N:12</tspan></text>
<text x="82.5891" y="75.8567" fill="#000000" font-family="sans-serif" font-size="5px"><tspan>C:13</tspan></text>
<text x="114.475" y="82.8026" fill="#000000" font-family="sans-serif" font-size="5px"><tspan>C:14</tspan></text>
<text x="120.257" y="66.1841" fill="#FF0000" font-family="sans-serif" font-size="5px"><tspan>O:15</tspan></text>
<text x="125.68" y="96.2901" fill="#FF0000" font-family="sans-serif" font-size="5px"><tspan>O:16</tspan></text>
<text x="143.26" y="93.1591" fill="#000000" font-family="sans-serif" font-size="5px"><tspan>C:17</tspan></text>
<text x="154.662" y="106.647" fill="#000000" font-family="sans-serif" font-size="5px"><tspan>C:18</tspan></text>
<text x="148.682" y="123.265" fill="#000000" font-family="sans-serif" font-size="5px"><tspan>C:19</tspan></text>
<text x="160.085" y="136.753" fill="#000000" font-family="sans-serif" font-size="5px"><tspan>C:20</tspan></text>
<text x="177.467" y="133.622" fill="#000000" font-family="sans-serif" font-size="5px"><tspan>C:21</tspan></text>
<text x="183.446" y="117.003" fill="#000000" font-family="sans-serif" font-size="5px"><tspan>C:22</tspan></text>
<text x="172.044" y="103.516" fill="#000000" font-family="sans-serif" font-size="5px"><tspan>C:23</tspan></text>
<text x="70.3745" y="194" fill="#000000" font-family="sans-serif" font-size="12px"><tspan>comp411</tspan></text>
</svg>
