<?xml version="1.0" encoding="UTF-8"?>
<svg baseProfile="full" version="1.1" viewBox="0 0 800 200" xml:space="preserve" xmlns="http://www.w3.org/2000/svg">

 <!-- END OF HEADER -->
<rect width="800" height="200" fill="#fff"> </rect>
<path class="bond-0" d="m63.853 105.84 2.9429 5.518" fill="none" stroke="#00f" stroke-width="2px"/>
<path class="bond-0" d="m66.796 111.36 2.9429 5.519" fill="none" stroke="#000" stroke-width="2px"/>
<path class="bond-0" d="m61.188 109.38 2.06 3.863" fill="none" stroke="#00f" stroke-width="2px"/>
<path class="bond-0" d="m63.248 113.25 2.0601 3.863" fill="none" stroke="#000" stroke-width="2px"/>
<path class="bond-1" d="m59.162 102.39-5.4644-0.184" fill="none" stroke="#00f" stroke-width="2px"/>
<path class="bond-1" d="m53.698 102.2-5.4644-0.184" fill="none" stroke="#000" stroke-width="2px"/>
<path class="bond-2" d="m39.887 105.16-6.4563 10.36" fill="none" stroke="#000" stroke-width="2px"/>
<path class="bond-2" d="m42.331 108.84-4.5195 7.252" fill="none" stroke="#000" stroke-width="2px"/>
<path class="bond-3" d="m40.188 98.459-5.8857-11.037" fill="none" stroke="#000" stroke-width="2px"/>
<path class="bond-4" d="m33.13 122.22 5.8858 11.038" fill="none" stroke="#000" stroke-width="2px"/>
<path class="bond-5" d="m39.587 139.96-2.2115 6.099" fill="none" stroke="#000" stroke-width="2px"/>
<path class="bond-5" d="m37.376 146.06-2.2114 6.099" fill="none" stroke="#00f" stroke-width="2px"/>
<path class="bond-5" d="m42.703 143.16-1.548 4.269" fill="none" stroke="#000" stroke-width="2px"/>
<path class="bond-5" d="m41.155 147.43-1.5481 4.269" fill="none" stroke="#00f" stroke-width="2px"/>
<path class="bond-6" d="m47.06 136.82 3.7872 0.128" fill="none" stroke="#000" stroke-width="2px"/>
<path class="bond-6" d="m50.848 136.95 3.7872 0.127" fill="none" stroke="#00f" stroke-width="2px"/>
<path class="bond-7" d="m62.981 133.94 3.2281-5.18" fill="none" stroke="#00f" stroke-width="2px"/>
<path class="bond-7" d="m66.21 128.76 3.2282-5.18" fill="none" stroke="#000" stroke-width="2px"/>
<path class="bond-8" d="m61.858 140.64 1.8171 6.308" fill="none" stroke="#00f" stroke-width="2px"/>
<path class="bond-8" d="m63.676 146.94 1.8171 6.308" fill="none" stroke="#000" stroke-width="2px"/>
<path class="bond-9" d="m77.784 120.44 7.5744 0.256" fill="none" stroke="#000" stroke-width="2px"/>
<path class="bond-10" d="m93.883 124.25 6.7302 9.952" fill="none" stroke="#000" stroke-width="2px"/>
<path class="bond-11" d="m94.228 117.55 7.1348-9.155" fill="none" stroke="#000" stroke-width="2px"/>
<path class="bond-11" d="m98.47 118.65 4.9944-6.408" fill="none" stroke="#000" stroke-width="2px"/>
<path class="bond-12" d="m110.23 107.32 3.191 1.157" fill="none" stroke="#000" stroke-width="2px"/>
<path class="bond-12" d="m113.42 108.47 3.191 1.157" fill="none" stroke="#00f" stroke-width="2px"/>
<path class="bond-13" d="m122.76 115.25-0.451 13.39" fill="none" stroke="#00f" stroke-width="2px"/>
<path class="bond-14" d="m127.83 108.55 3.372-2.28" fill="none" stroke="#00f" stroke-width="2px"/>
<path class="bond-14" d="m131.2 106.27 3.372-2.281" fill="none" stroke="#000" stroke-width="2px"/>
<path class="bond-15" d="m115.94 133.79-2.282 0.658" fill="none" stroke="#00f" stroke-width="2px"/>
<path class="bond-15" d="m113.66 134.45-2.282 0.657" fill="none" stroke="#000" stroke-width="2px"/>
<path class="bond-15" d="m114.14 130.13-1.598 0.46" fill="none" stroke="#00f" stroke-width="2px"/>
<path class="bond-15" d="m112.54 130.59-1.597 0.46" fill="none" stroke="#000" stroke-width="2px"/>
<path class="bond-16" d="m146.42 103.99 4.298 2.09" fill="none" stroke="#000" stroke-width="2px"/>
<path class="bond-17" d="m139.29 97.287-0.95-13.351" fill="none" stroke="#000" stroke-width="2px"/>
<path class="bond-18" d="m162.56 106.08 6.743-4.56" fill="none" stroke="#000" stroke-width="2px"/>
<path class="bond-19" d="m179.21 94.817 3.372-2.2802" fill="none" stroke="#000" stroke-width="2px"/>
<path class="bond-19" d="m182.58 92.536 3.372-2.2803" fill="none" stroke="#00f" stroke-width="2px"/>
<path class="bond-19" d="m182.48 97.463 2.866-1.9382" fill="none" stroke="#000" stroke-width="2px"/>
<path class="bond-19" d="m185.34 95.525 2.866-1.9382" fill="none" stroke="#00f" stroke-width="2px"/>
<path class="bond-19" d="m177.97 90.802 2.866-1.9382" fill="none" stroke="#000" stroke-width="2px"/>
<path class="bond-19" d="m180.84 88.864 2.866-1.9382" fill="none" stroke="#00f" stroke-width="2px"/>
<path class="bond-20" d="m139.73 77.235 5.533-11.378" fill="none" stroke="#000" stroke-width="2px"/>
<path class="bond-21" d="m135.83 77.235-6.73-9.9514" fill="none" stroke="#000" stroke-width="2px"/>
<path class="bond-22" d="m135.33 63.329 3.063-0.2179" fill="none" stroke="#000" stroke-width="2px"/>
<path class="bond-23" d="m61.503 159.95-6.7437 4.561" fill="none" stroke="#000" stroke-width="2px"/>
<path class="bond-23" d="m58.24 157.31-4.7206 3.192" fill="none" stroke="#000" stroke-width="2px"/>
<path class="bond-24" d="m45.506 164.52-3.629-2.829" fill="none" stroke="#000" stroke-width="2px"/>
<path class="bond-24" d="m41.877 161.69-3.629-2.828" fill="none" stroke="#00f" stroke-width="2px"/>
<path class="bond-25" d="m34.145 80.721 5.5324-11.378" fill="none" stroke="#000" stroke-width="2px"/>
<path class="bond-25" d="m31.359 77.256 3.8727-7.9645" fill="none" stroke="#000" stroke-width="2px"/>
<path class="bond-26" d="m24.021 82.888-2.9209-0.4069" fill="none" stroke="#000" stroke-width="2px"/>
<path class="bond-27" d="m12.011 77.947-1.1624-6.5461" fill="none" stroke="#000" stroke-width="2px"/>
<path class="bond-27" d="m10.848 71.401-1.1624-6.5461" fill="none" stroke="#00f" stroke-width="2px"/>
<path class="bond-27" d="m15.621 75.28-0.8137-4.5822" fill="none" stroke="#000" stroke-width="2px"/>
<path class="bond-27" d="m14.807 70.698-0.8137-4.5823" fill="none" stroke="#00f" stroke-width="2px"/>
<path class="bond-28" d="m15.374 58.154 5.1723-2.7582" fill="none" stroke="#00f" stroke-width="2px"/>
<path class="bond-29" d="m30.307 55.396 3.7609 3.6231" fill="none" stroke="#00f" stroke-width="2px"/>
<path class="bond-29" d="m34.068 59.019 3.7609 3.6231" fill="none" stroke="#000" stroke-width="2px"/>
<path class="bond-30" d="m27.296 48.695 0.9201-6.6048" fill="none" stroke="#00f" stroke-width="2px"/>
<path class="bond-30" d="m28.216 42.09 0.9201-6.6048" fill="none" stroke="#000" stroke-width="2px"/>
<text x="59.1625" y="105.838" fill="#0000FF" font-family="sans-serif" font-size="6px"><tspan>N</tspan></text>
<text x="35.7167" y="105.16" fill="#000000" font-family="sans-serif" font-size="6px"><tspan>C:1</tspan></text>
<text x="25.0844" y="122.221" fill="#000000" font-family="sans-serif" font-size="6px"><tspan>C:2</tspan></text>
<text x="34.5435" y="139.959" fill="#000000" font-family="sans-serif" font-size="6px"><tspan>C:3</tspan></text>
<text x="54.6349" y="140.637" fill="#0000FF" font-family="sans-serif" font-size="6px"><tspan>N:4</tspan></text>
<text x="65.2672" y="123.576" fill="#000000" font-family="sans-serif" font-size="6px"><tspan>C:5</tspan></text>
<text x="85.3585" y="124.253" fill="#000000" font-family="sans-serif" font-size="6px"><tspan>C:6</tspan></text>
<text x="97.7159" y="108.397" fill="#000000" font-family="sans-serif" font-size="6px"><tspan>C:7</tspan></text>
<text x="116.615" y="115.25" fill="#0000FF" font-family="sans-serif" font-size="6px"><tspan>N:8</tspan></text>
<text x="115.937" y="135.341" fill="#0000FF" font-family="sans-serif" font-size="6px"><tspan>N:9</tspan></text>
<text x="94.3836" y="140.906" fill="#000000" font-family="sans-serif" font-size="6px"><tspan>C:10</tspan></text>
<text x="131.031" y="103.988" fill="#000000" font-family="sans-serif" font-size="6px"><tspan>C:11</tspan></text>
<text x="149.11" y="112.779" fill="#000000" font-family="sans-serif" font-size="6px"><tspan>C:12</tspan></text>
<text x="165.762" y="101.518" fill="#000000" font-family="sans-serif" font-size="6px"><tspan>C:13</tspan></text>
<text x="182.414" y="90.2561" fill="#0000FF" font-family="sans-serif" font-size="6px"><tspan>N:14</tspan></text>
<text x="129.604" y="83.9362" fill="#000000" font-family="sans-serif" font-size="6px"><tspan>C:15</tspan></text>
<text x="118.343" y="67.2839" fill="#000000" font-family="sans-serif" font-size="6px"><tspan>C:16</tspan></text>
<text x="138.395" y="65.8574" fill="#000000" font-family="sans-serif" font-size="6px"><tspan>C:17</tspan></text>
<text x="57.963" y="159.954" fill="#000000" font-family="sans-serif" font-size="6px"><tspan>C:18</tspan></text>
<text x="41.3106" y="171.216" fill="#000000" font-family="sans-serif" font-size="6px"><tspan>C:19</tspan></text>
<text x="25.4545" y="158.858" fill="#0000FF" font-family="sans-serif" font-size="6px"><tspan>N:20</tspan></text>
<text x="24.0213" y="87.4219" fill="#000000" font-family="sans-serif" font-size="6px"><tspan>C:21</tspan></text>
<text x="4.1108" y="84.6481" fill="#000000" font-family="sans-serif" font-size="6px"><tspan>C:22</tspan></text>
<text x="0.5961" y="64.855" fill="#0000FF" font-family="sans-serif" font-size="6px"><tspan>N:23</tspan></text>
<text x="18.3344" y="55.3959" fill="#0000FF" font-family="sans-serif" font-size="6px"><tspan>N:24</tspan></text>
<text x="32.812" y="69.343" fill="#000000" font-family="sans-serif" font-size="6px"><tspan>C:25</tspan></text>
<text x="21.1081" y="35.4854" fill="#000000" font-family="sans-serif" font-size="6px"><tspan>C:26</tspan></text>
<text x="70.3745" y="194" fill="#000000" font-family="sans-serif" font-size="12px"><tspan>comp175</tspan></text>
</svg>
