<?xml version="1.0" encoding="UTF-8"?>
<svg baseProfile="full" version="1.1" viewBox="0 0 800 200" xml:space="preserve" xmlns="http://www.w3.org/2000/svg">

 <!-- END OF HEADER -->
<rect width="800" height="200" fill="#fff"> </rect>
<path class="bond-0" d="m131 133.14-17.08-9.862" fill="none" stroke="#000" stroke-width="2px"/>
<path class="bond-1" d="m131 133.14 17.08-9.862" fill="none" stroke="#000" stroke-width="2px"/>
<path class="bond-1" d="m130.61 126.54 11.956-6.903" fill="none" stroke="#000" stroke-width="2px"/>
<path class="bond-2" d="m156.63 113.42v-19.723" fill="none" stroke="#000" stroke-width="2px"/>
<path class="bond-3" d="m148.08 83.837-4.27-2.4653" fill="none" stroke="#000" stroke-width="2px"/>
<path class="bond-3" d="m143.82 81.372-4.27-2.4653" fill="none" stroke="#00f" stroke-width="2px"/>
<path class="bond-3" d="m143.85 88.221-2.989-1.7258" fill="none" stroke="#000" stroke-width="2px"/>
<path class="bond-3" d="m140.86 86.496-2.989-1.7257" fill="none" stroke="#00f" stroke-width="2px"/>
<path class="bond-4" d="m122.46 78.906-8.54 4.9306" fill="none" stroke="#00f" stroke-width="2px"/>
<path class="bond-5" d="m96.174 85.775-4.8578-1.5784" fill="none" stroke="#00f" stroke-width="2px"/>
<path class="bond-5" d="m91.316 84.196-4.8579-1.5784" fill="none" stroke="#000" stroke-width="2px"/>
<path class="bond-6" d="m105.38 93.698v9.8618" fill="none" stroke="#00f" stroke-width="2px"/>
<path class="bond-6" d="m105.38 103.56v9.861" fill="none" stroke="#000" stroke-width="2px"/>
<path class="bond-7" d="m96.174 121.34-4.8578 1.579" fill="none" stroke="#000" stroke-width="2px"/>
<path class="bond-7" d="m91.316 122.92-4.8579 1.578" fill="none" stroke="#00f" stroke-width="2px"/>
<path class="bond-7" d="m92.888 116.19-3.4005 1.104" fill="none" stroke="#000" stroke-width="2px"/>
<path class="bond-7" d="m89.488 117.3-3.4005 1.105" fill="none" stroke="#00f" stroke-width="2px"/>
<path class="bond-8" d="m73.666 122.56-10.224-14.073" fill="none" stroke="#00f" stroke-width="2px"/>
<path class="bond-9" d="m63.441 98.629 5.1122-7.0363" fill="none" stroke="#00f" stroke-width="2px"/>
<path class="bond-9" d="m68.554 91.593 5.1122-7.0364" fill="none" stroke="#000" stroke-width="2px"/>
<path class="bond-9" d="m69.762 99.996 3.5785-4.9254" fill="none" stroke="#00f" stroke-width="2px"/>
<path class="bond-9" d="m73.34 95.07 3.5786-4.9254" fill="none" stroke="#000" stroke-width="2px"/>
<text x="147.415" y="123.282" fill="#000000" font-family="sans-serif" font-size="9px"><tspan>C:1</tspan></text>
<text x="147.415" y="93.6982" fill="#000000" font-family="sans-serif" font-size="9px"><tspan>C:2</tspan></text>
<text x="121.795" y="78.9062" fill="#0000FF" font-family="sans-serif" font-size="9px"><tspan>N:3</tspan></text>
<text x="96.1741" y="93.6982" fill="#0000FF" font-family="sans-serif" font-size="9px"><tspan>N:4</tspan></text>
<text x="96.1741" y="123.282" fill="#000000" font-family="sans-serif" font-size="9px"><tspan>C:5</tspan></text>
<text x="68.0379" y="132.424" fill="#0000FF" font-family="sans-serif" font-size="9px"><tspan>N:6</tspan></text>
<text x="50.6488" y="108.49" fill="#0000FF" font-family="sans-serif" font-size="9px"><tspan>N:7</tspan></text>
<text x="68.0379" y="84.5562" fill="#000000" font-family="sans-serif" font-size="9px"><tspan>C:8</tspan></text>
<text x="74.3794" y="194" fill="#000000" font-family="sans-serif" font-size="12px"><tspan>comp41</tspan></text>
<path class="bond-0" d="m301.14 80.941 4.774 24.089" fill="none" stroke="#000" stroke-width="2px"/>
<path class="bond-1" d="m301.14 80.941-9.398-3.1979" fill="none" stroke="#000" stroke-width="2px"/>
<path class="bond-1" d="m291.74 77.743-9.399-3.1978" fill="none" stroke="#00f" stroke-width="2px"/>
<path class="bond-1" d="m296.41 85.583-6.579-2.2385" fill="none" stroke="#000" stroke-width="2px"/>
<path class="bond-1" d="m289.83 83.345-6.579-2.2385" fill="none" stroke="#00f" stroke-width="2px"/>
<path class="bond-2" d="m267.5 76.342-10.995 9.629" fill="none" stroke="#00f" stroke-width="2px"/>
<path class="bond-3" d="m241.66 89.805-3.832-0.4564" fill="none" stroke="#00f" stroke-width="2px"/>
<path class="bond-3" d="m237.83 89.349-3.833-0.4563" fill="none" stroke="#000" stroke-width="2px"/>
<path class="bond-4" d="m251.85 95.833 1.899 9.5793" fill="none" stroke="#00f" stroke-width="2px"/>
<path class="bond-4" d="m253.75 105.41 1.898 9.579" fill="none" stroke="#000" stroke-width="2px"/>
<path class="bond-5" d="m265.83 123.06 9.586 3.261" fill="none" stroke="#000" stroke-width="2px"/>
<path class="bond-6" d="m247.8 124.85-4.092 2.288" fill="none" stroke="#000" stroke-width="2px"/>
<path class="bond-6" d="m243.71 127.14-4.092 2.288" fill="none" stroke="#00f" stroke-width="2px"/>
<path class="bond-6" d="m243.69 120.37-2.864 1.602" fill="none" stroke="#000" stroke-width="2px"/>
<path class="bond-6" d="m240.82 121.98-2.865 1.601" fill="none" stroke="#00f" stroke-width="2px"/>
<path class="bond-7" d="m290.26 124.52 10.996-9.629" fill="none" stroke="#000" stroke-width="2px"/>
<path class="bond-7" d="m288.01 118.62 7.697-6.74" fill="none" stroke="#000" stroke-width="2px"/>
<path class="bond-8" d="m316.1 113.1 9.587 3.262" fill="none" stroke="#000" stroke-width="2px"/>
<path class="bond-9" d="m340.52 114.56 10.995-9.629" fill="none" stroke="#000" stroke-width="2px"/>
<path class="bond-10" d="m335.87 124.42 1.898 9.579" fill="none" stroke="#000" stroke-width="2px"/>
<path class="bond-10" d="m337.77 134 1.898 9.579" fill="none" stroke="#00f" stroke-width="2px"/>
<path class="bond-10" d="m342.24 126.14 1.329 6.705" fill="none" stroke="#000" stroke-width="2px"/>
<path class="bond-10" d="m343.57 132.85 1.329 6.706" fill="none" stroke="#00f" stroke-width="2px"/>
<path class="bond-11" d="m349.86 151.64 4.793 1.631" fill="none" stroke="#00f" stroke-width="2px"/>
<path class="bond-11" d="m354.65 153.28 4.793 1.631" fill="none" stroke="#000" stroke-width="2px"/>
<path class="bond-12" d="m374.28 153.11 10.996-9.629" fill="none" stroke="#000" stroke-width="2px"/>
<path class="bond-12" d="m372.03 147.21 7.697-6.74" fill="none" stroke="#000" stroke-width="2px"/>
<path class="bond-13" d="m389.93 133.62-3.797-19.159" fill="none" stroke="#000" stroke-width="2px"/>
<path class="bond-14" d="m372.66 105.28-3.005-1.022" fill="none" stroke="#000" stroke-width="2px"/>
<path class="bond-14" d="m370.3 110.72-2.103-0.716" fill="none" stroke="#000" stroke-width="2px"/>
<path class="bond-15" d="m356.17 95.069-3.797-19.158" fill="none" stroke="#000" stroke-width="2px"/>
<path class="bond-16" d="m350.42 66.05-1.899-9.5792" fill="none" stroke="#000" stroke-width="2px"/>
<path class="bond-16" d="m348.52 56.47-1.898-9.5792" fill="none" stroke="#3cc" stroke-width="2px"/>
<path class="bond-17" d="m363.9 68.503 2.337-0.4632" fill="none" stroke="#000" stroke-width="2px"/>
<path class="bond-17" d="m366.24 68.04 2.337-0.4631" fill="none" stroke="#3cc" stroke-width="2px"/>
<path class="bond-18" d="m338.9 73.458-2.338 0.4632" fill="none" stroke="#000" stroke-width="2px"/>
<path class="bond-18" d="m336.56 73.921-2.337 0.4631" fill="none" stroke="#3cc" stroke-width="2px"/>
<path class="bond-19" d="m225.48 129.43-11.058-10.236" fill="none" stroke="#00f" stroke-width="2px"/>
<path class="bond-20" d="m211.37 109.33 3.925-8.498" fill="none" stroke="#00f" stroke-width="2px"/>
<path class="bond-20" d="m215.29 100.83 3.925-8.4985" fill="none" stroke="#000" stroke-width="2px"/>
<path class="bond-20" d="m217.92 109.26 2.748-5.948" fill="none" stroke="#00f" stroke-width="2px"/>
<path class="bond-20" d="m220.66 103.31 2.747-5.9491" fill="none" stroke="#000" stroke-width="2px"/>
<text x="263.918" y="76.3423" fill="#0000FF" font-family="sans-serif" font-size="9px"><tspan>N:1</tspan></text>
<text x="241.662" y="95.8327" fill="#0000FF" font-family="sans-serif" font-size="9px"><tspan>N:2</tspan></text>
<text x="247.413" y="124.852" fill="#000000" font-family="sans-serif" font-size="9px"><tspan>C:3</tspan></text>
<text x="275.42" y="134.382" fill="#000000" font-family="sans-serif" font-size="9px"><tspan>C:4</tspan></text>
<text x="297.677" y="114.892" fill="#000000" font-family="sans-serif" font-size="9px"><tspan>C:5</tspan></text>
<text x="325.684" y="124.421" fill="#000000" font-family="sans-serif" font-size="9px"><tspan>C:6</tspan></text>
<text x="331.435" y="153.441" fill="#0000FF" font-family="sans-serif" font-size="9px"><tspan>N:7</tspan></text>
<text x="359.442" y="162.97" fill="#000000" font-family="sans-serif" font-size="9px"><tspan>C:8</tspan></text>
<text x="381.699" y="143.48" fill="#000000" font-family="sans-serif" font-size="9px"><tspan>C:9</tspan></text>
<text x="372.657" y="114.46" fill="#000000" font-family="sans-serif" font-size="9px"><tspan>C:10</tspan></text>
<text x="344.649" y="104.931" fill="#000000" font-family="sans-serif" font-size="9px"><tspan>C:11</tspan></text>
<text x="338.899" y="75.9109" fill="#000000" font-family="sans-serif" font-size="9px"><tspan>C:12</tspan></text>
<text x="333.805" y="46.8911" fill="#33CCCC" font-family="sans-serif" font-size="9px"><tspan>F:13</tspan></text>
<text x="368.575" y="70.16" fill="#33CCCC" font-family="sans-serif" font-size="9px"><tspan>F:14</tspan></text>
<text x="310.536" y="81.6618" fill="#33CCCC" font-family="sans-serif" font-size="9px"><tspan>F:15</tspan></text>
<text x="218.3" y="139.29" fill="#0000FF" font-family="sans-serif" font-size="9px"><tspan>N:16</tspan></text>
<text x="196.59" y="119.192" fill="#0000FF" font-family="sans-serif" font-size="9px"><tspan>N:17</tspan></text>
<text x="208.994" y="92.3345" fill="#000000" font-family="sans-serif" font-size="9px"><tspan>C:18</tspan></text>
<text x="270.375" y="194" fill="#000000" font-family="sans-serif" font-size="12px"><tspan>comp116</tspan></text>
</svg>
