<?xml version="1.0" encoding="UTF-8"?>
<svg baseProfile="full" version="1.1" viewBox="0 0 800 200" xml:space="preserve" xmlns="http://www.w3.org/2000/svg">

 <!-- END OF HEADER -->
<rect width="800" height="200" fill="#fff"> </rect>
<path class="bond-0" d="m90.823 109.64-6.1948-10.73" fill="none" stroke="#000" stroke-width="2px"/>
<path class="bond-0" d="m92.551 106.5-4.3364-7.5109" fill="none" stroke="#000" stroke-width="2px"/>
<path class="bond-1" d="m90.823 109.64h10.566" fill="none" stroke="#000" stroke-width="2px"/>
<path class="bond-2" d="m107.64 107.09 4.718-8.1731" fill="none" stroke="#000" stroke-width="2px"/>
<path class="bond-2" d="m105.69 104.33 3.303-5.7204" fill="none" stroke="#000" stroke-width="2px"/>
<path class="bond-3" d="m112.36 93.8-2.359-4.0864" fill="none" stroke="#000" stroke-width="2px"/>
<path class="bond-3" d="m110 89.713-2.359-4.0863" fill="none" stroke="#00f" stroke-width="2px"/>
<path class="bond-4" d="m118.61 96.357h2.554" fill="none" stroke="#000" stroke-width="2px"/>
<path class="bond-4" d="m121.17 96.357h2.554" fill="none" stroke="#0c0" stroke-width="2px"/>
<path class="bond-5" d="m101.39 83.07h-5.7894" fill="none" stroke="#00f" stroke-width="2px"/>
<path class="bond-5" d="m100.52 86.138h-4.053" fill="none" stroke="#00f" stroke-width="2px"/>
<path class="bond-6" d="m89.347 85.627-2.3593 4.0863" fill="none" stroke="#00f" stroke-width="2px"/>
<path class="bond-6" d="m86.988 89.713-2.3592 4.0864" fill="none" stroke="#000" stroke-width="2px"/>
<path class="bond-7" d="m78.376 96.357h-1.3599" fill="none" stroke="#000" stroke-width="2px"/>
<path class="bond-7" d="m77.016 96.357h-1.3598" fill="none" stroke="#00f" stroke-width="2px"/>
<text x="101.389" y="112.201" fill="#000000" font-family="sans-serif" font-size="5px"><tspan>C:1</tspan></text>
<text x="109.06" y="98.9139" fill="#000000" font-family="sans-serif" font-size="5px"><tspan>C:2</tspan></text>
<text x="101.389" y="85.6271" fill="#0000FF" font-family="sans-serif" font-size="5px"><tspan>N:3</tspan></text>
<text x="86.0468" y="85.6271" fill="#0000FF" font-family="sans-serif" font-size="5px"><tspan>N:4</tspan></text>
<text x="78.3756" y="98.9139" fill="#000000" font-family="sans-serif" font-size="5px"><tspan>C:5</tspan></text>
<text x="59.9636" y="99.1696" fill="#0000FF" font-family="sans-serif" font-size="5px"><tspan>H</tspan><tspan baseline-shift="sub" font-size="3.75px">2</tspan><tspan>N:6</tspan></text>
<text x="123.721" y="98.9139" fill="#00CC00" font-family="sans-serif" font-size="5px"><tspan>Cl:7</tspan></text>
<text x="74.3794" y="194" fill="#000000" font-family="sans-serif" font-size="12px"><tspan>comp32</tspan></text>
<path class="bond-0" d="m331.55 97.727-10.397 1.5575" fill="none" stroke="#000" stroke-width="2px"/>
<path class="bond-0" d="m329.54 94.926-7.278 1.0902" fill="none" stroke="#000" stroke-width="2px"/>
<path class="bond-1" d="m331.55 97.727 4.611-11.72" fill="none" stroke="#000" stroke-width="2px"/>
<path class="bond-2" d="m335.13 80.893-5.484-6.8896" fill="none" stroke="#000" stroke-width="2px"/>
<path class="bond-2" d="m331.91 81.771-3.839-4.8227" fill="none" stroke="#000" stroke-width="2px"/>
<path class="bond-3" d="m322.84 72.162-5.62 0.842" fill="none" stroke="#000" stroke-width="2px"/>
<path class="bond-4" d="m311.44 76.277-3.606 9.1626" fill="none" stroke="#000" stroke-width="2px"/>
<path class="bond-4" d="m313.75 78.775-2.524 6.4138" fill="none" stroke="#000" stroke-width="2px"/>
<path class="bond-5" d="m308.86 90.553 5.484 6.8896" fill="none" stroke="#000" stroke-width="2px"/>
<path class="bond-6" d="m302.05 88.712-3.913 0.5862" fill="none" stroke="#000" stroke-width="2px"/>
<path class="bond-7" d="m315.37 102.56-3.606 9.163" fill="none" stroke="#000" stroke-width="2px"/>
<path class="bond-8" d="m309.76 116.83-1.803 4.581" fill="none" stroke="#000" stroke-width="2px"/>
<path class="bond-8" d="m307.95 121.42-1.803 4.581" fill="none" stroke="#3cc" stroke-width="2px"/>
<path class="bond-9" d="m315.54 116.16 2.532 0.997" fill="none" stroke="#000" stroke-width="2px"/>
<path class="bond-9" d="m318.07 117.15 2.533 0.996" fill="none" stroke="#3cc" stroke-width="2px"/>
<path class="bond-10" d="m305.98 112.4-2.532-0.996" fill="none" stroke="#000" stroke-width="2px"/>
<path class="bond-10" d="m303.45 111.4-2.532-0.997" fill="none" stroke="#3cc" stroke-width="2px"/>
<path class="bond-11" d="m290.64 92.826-3.606 9.1626" fill="none" stroke="#000" stroke-width="2px"/>
<path class="bond-12" d="m289.62 87.712-2.742-3.4448" fill="none" stroke="#000" stroke-width="2px"/>
<path class="bond-12" d="m286.87 84.268-2.742-3.4448" fill="none" stroke="#00f" stroke-width="2px"/>
<path class="bond-12" d="m286.39 88.59-1.919-2.4114" fill="none" stroke="#000" stroke-width="2px"/>
<path class="bond-12" d="m284.47 86.178-1.92-2.4113" fill="none" stroke="#00f" stroke-width="2px"/>
<path class="bond-13" d="m275.61 79.237-2.207 0.3306" fill="none" stroke="#00f" stroke-width="2px"/>
<path class="bond-14" d="m265.92 83.096-1.803 4.5813" fill="none" stroke="#00f" stroke-width="2px"/>
<path class="bond-14" d="m264.11 87.677-1.803 4.5813" fill="none" stroke="#000" stroke-width="2px"/>
<path class="bond-14" d="m268.23 85.594-1.262 3.2069" fill="none" stroke="#00f" stroke-width="2px"/>
<path class="bond-14" d="m266.97 88.801-1.262 3.2069" fill="none" stroke="#000" stroke-width="2px"/>
<path class="bond-15" d="m263.34 97.372 5.484 6.8895" fill="none" stroke="#000" stroke-width="2px"/>
<path class="bond-16" d="m254.82 95.787 0.431-0.0647" fill="none" stroke="#000" stroke-width="2px"/>
<path class="bond-16" d="m255.25 95.722 0.432-0.0646" fill="none" stroke="#00f" stroke-width="2px"/>
<path class="bond-17" d="m277.34 105.85 2.207-0.331" fill="none" stroke="#000" stroke-width="2px"/>
<path class="bond-17" d="m277.22 102.76 1.545-0.232" fill="none" stroke="#000" stroke-width="2px"/>
<text x="332.393" y="86.0073" fill="#000000" font-family="sans-serif" font-size="5px"><tspan>C:1</tspan></text>
<text x="322.838" y="74.0036" fill="#000000" font-family="sans-serif" font-size="5px"><tspan>C:2</tspan></text>
<text x="307.665" y="76.2767" fill="#000000" font-family="sans-serif" font-size="5px"><tspan>C:3</tspan></text>
<text x="302.047" y="90.5534" fill="#000000" font-family="sans-serif" font-size="5px"><tspan>C:4</tspan></text>
<text x="311.602" y="102.557" fill="#000000" font-family="sans-serif" font-size="5px"><tspan>C:5</tspan></text>
<text x="305.984" y="116.834" fill="#000000" font-family="sans-serif" font-size="5px"><tspan>C:6</tspan></text>
<text x="300.707" y="131.11" fill="#33CCCC" font-family="sans-serif" font-size="5px"><tspan>F:7</tspan></text>
<text x="320.602" y="122.452" fill="#33CCCC" font-family="sans-serif" font-size="5px"><tspan>F:8</tspan></text>
<text x="292.048" y="111.216" fill="#33CCCC" font-family="sans-serif" font-size="5px"><tspan>F:9</tspan></text>
<text x="285.168" y="92.8264" fill="#000000" font-family="sans-serif" font-size="5px"><tspan>C:10</tspan></text>
<text x="275.613" y="80.8227" fill="#0000FF" font-family="sans-serif" font-size="5px"><tspan>N:11</tspan></text>
<text x="260.44" y="83.0958" fill="#0000FF" font-family="sans-serif" font-size="5px"><tspan>N:12</tspan></text>
<text x="254.822" y="97.3725" fill="#000000" font-family="sans-serif" font-size="5px"><tspan>C:13</tspan></text>
<text x="264.377" y="109.376" fill="#000000" font-family="sans-serif" font-size="5px"><tspan>C:14</tspan></text>
<text x="279.55" y="107.103" fill="#000000" font-family="sans-serif" font-size="5px"><tspan>C:15</tspan></text>
<text x="236.579" y="99.9012" fill="#0000FF" font-family="sans-serif" font-size="5px"><tspan>H</tspan><tspan baseline-shift="sub" font-size="3.75px">2</tspan><tspan>N:16</tspan></text>
<text x="274.379" y="194" fill="#000000" font-family="sans-serif" font-size="12px"><tspan>comp33</tspan></text>
<path class="bond-0" d="m564.65 115.22-9.531-3.69" fill="none" stroke="#000" stroke-width="2px"/>
<path class="bond-0" d="m564.33 111.81-6.671-2.583" fill="none" stroke="#000" stroke-width="2px"/>
<path class="bond-1" d="m564.65 115.22 8.774-7.063" fill="none" stroke="#000" stroke-width="2px"/>
<path class="bond-2" d="m576.2 103.04-0.781-5.0233" fill="none" stroke="#000" stroke-width="2px"/>
<path class="bond-2" d="m575.42 98.022-0.78-5.0231" fill="none" stroke="#00f" stroke-width="2px"/>
<path class="bond-2" d="m572.94 102.01-0.546-3.5162" fill="none" stroke="#000" stroke-width="2px"/>
<path class="bond-2" d="m572.39 98.493-0.546-3.5162" fill="none" stroke="#00f" stroke-width="2px"/>
<path class="bond-3" d="m581.38 107.45 1.134 0.439" fill="none" stroke="#000" stroke-width="2px"/>
<path class="bond-3" d="m582.51 107.89 1.133 0.439" fill="none" stroke="#00f" stroke-width="2px"/>
<path class="bond-4" d="m569.47 88.592-4.754-1.8409" fill="none" stroke="#00f" stroke-width="2px"/>
<path class="bond-5" d="m556.76 87.458-2.799 2.2531" fill="none" stroke="#00f" stroke-width="2px"/>
<path class="bond-5" d="m553.96 89.712-2.799 2.2531" fill="none" stroke="#000" stroke-width="2px"/>
<path class="bond-5" d="m557.85 90.525-1.959 1.5772" fill="none" stroke="#00f" stroke-width="2px"/>
<path class="bond-5" d="m555.89 92.102-1.96 1.5771" fill="none" stroke="#000" stroke-width="2px"/>
<path class="bond-6" d="m548.38 97.079 1.561 10.046" fill="none" stroke="#000" stroke-width="2px"/>
<path class="bond-7" d="m543.21 92.672-4.754-1.841" fill="none" stroke="#000" stroke-width="2px"/>
<path class="bond-8" d="m533 86.424-2.574-9.717" fill="none" stroke="#000" stroke-width="2px"/>
<path class="bond-9" d="m529.72 91.538-4.966 3.2042" fill="none" stroke="#000" stroke-width="2px"/>
<path class="bond-9" d="m527.31 89.441-3.476 2.2429" fill="none" stroke="#000" stroke-width="2px"/>
<path class="bond-10" d="m517.65 94.743-2.808-2.288" fill="none" stroke="#000" stroke-width="2px"/>
<path class="bond-10" d="m514.84 92.455-2.809-2.2881" fill="none" stroke="#00f" stroke-width="2px"/>
<path class="bond-11" d="m509.88 85.052 3.56-9.193" fill="none" stroke="#00f" stroke-width="2px"/>
<path class="bond-12" d="m504.12 88.874-1.786 0.4729" fill="none" stroke="#00f" stroke-width="2px"/>
<path class="bond-12" d="m502.33 89.347-1.786 0.4729" fill="none" stroke="#000" stroke-width="2px"/>
<path class="bond-13" d="m519.21 73.567 2.029 0.1123" fill="none" stroke="#00f" stroke-width="2px"/>
<path class="bond-13" d="m521.24 73.679 2.03 0.1123" fill="none" stroke="#000" stroke-width="2px"/>
<path class="bond-13" d="m519.65 76.664 1.421 0.0787" fill="none" stroke="#00f" stroke-width="2px"/>
<path class="bond-13" d="m521.07 76.743 1.421 0.0786" fill="none" stroke="#000" stroke-width="2px"/>
<path class="bond-14" d="m493.37 94.094-2.628 9.6939" fill="none" stroke="#000" stroke-width="2px"/>
<path class="bond-15" d="m491.52 88.98-5.732-5.7663" fill="none" stroke="#000" stroke-width="2px"/>
<path class="bond-16" d="m476.76 82.373-1.865 0.4938" fill="none" stroke="#000" stroke-width="2px"/>
<path class="bond-17" d="m467.72 87.141-1.314 4.8469" fill="none" stroke="#000" stroke-width="2px"/>
<path class="bond-17" d="m466.41 91.988-1.314 4.8468" fill="none" stroke="#00f" stroke-width="2px"/>
<path class="bond-18" d="m466.94 101.95 2.866 2.883" fill="none" stroke="#00f" stroke-width="2px"/>
<path class="bond-18" d="m469.81 104.83 2.867 2.883" fill="none" stroke="#000" stroke-width="2px"/>
<path class="bond-19" d="m457.92 101.11-0.933 0.247" fill="none" stroke="#00f" stroke-width="2px"/>
<path class="bond-19" d="m456.98 101.36-0.932 0.246" fill="none" stroke="#000" stroke-width="2px"/>
<path class="bond-20" d="m481.7 108.56 1.865-0.493" fill="none" stroke="#000" stroke-width="2px"/>
<path class="bond-21" d="m447.4 105.48-1.314 4.847" fill="none" stroke="#000" stroke-width="2px"/>
<path class="bond-21" d="m446.08 110.32-1.314 4.847" fill="none" stroke="#f00" stroke-width="2px"/>
<path class="bond-21" d="m450.36 106.28-1.313 4.847" fill="none" stroke="#000" stroke-width="2px"/>
<path class="bond-21" d="m449.04 111.12-1.314 4.846" fill="none" stroke="#f00" stroke-width="2px"/>
<path class="bond-22" d="m447.03 100.76-2.866-2.8829" fill="none" stroke="#000" stroke-width="2px"/>
<path class="bond-22" d="m444.16 97.879-2.867-2.8832" fill="none" stroke="#f00" stroke-width="2px"/>
<path class="bond-23" d="m432.1 94.201-0.846 0.2242" fill="none" stroke="#f00" stroke-width="2px"/>
<path class="bond-23" d="m431.25 94.425-0.847 0.2241" fill="none" stroke="#000" stroke-width="2px"/>
<path class="bond-24" d="m423.24 93.809-2.573-9.717" fill="none" stroke="#000" stroke-width="2px"/>
<path class="bond-25" d="m424.6 98.923 2.573 9.7166" fill="none" stroke="#000" stroke-width="2px"/>
<path class="bond-26" d="m417.44 98.083-1.865 0.4938" fill="none" stroke="#000" stroke-width="2px"/>
<text x="571.826" y="108.159" fill="#000000" font-family="sans-serif" font-size="5px"><tspan>C:1</tspan></text>
<text x="569.47" y="92.9986" fill="#0000FF" font-family="sans-serif" font-size="5px"><tspan>N:2</tspan></text>
<text x="555.163" y="87.4584" fill="#0000FF" font-family="sans-serif" font-size="5px"><tspan>N:3</tspan></text>
<text x="543.211" y="97.0787" fill="#000000" font-family="sans-serif" font-size="5px"><tspan>C:4</tspan></text>
<text x="545.567" y="112.239" fill="#000000" font-family="sans-serif" font-size="5px"><tspan>C:5</tspan></text>
<text x="528.904" y="91.5385" fill="#000000" font-family="sans-serif" font-size="5px"><tspan>C:6</tspan></text>
<text x="516.013" y="99.8568" fill="#000000" font-family="sans-serif" font-size="5px"><tspan>C:7</tspan></text>
<text x="504.118" y="90.1666" fill="#0000FF" font-family="sans-serif" font-size="5px"><tspan>N:8</tspan></text>
<text x="509.658" y="75.8595" fill="#0000FF" font-family="sans-serif" font-size="5px"><tspan>N:9</tspan></text>
<text x="523.27" y="76.7074" fill="#000000" font-family="sans-serif" font-size="5px"><tspan>C:10</tspan></text>
<text x="487.58" y="94.0941" fill="#000000" font-family="sans-serif" font-size="5px"><tspan>C:11</tspan></text>
<text x="476.763" y="83.2137" fill="#000000" font-family="sans-serif" font-size="5px"><tspan>C:12</tspan></text>
<text x="461.932" y="87.1411" fill="#000000" font-family="sans-serif" font-size="5px"><tspan>C:13</tspan></text>
<text x="457.918" y="101.949" fill="#0000FF" font-family="sans-serif" font-size="5px"><tspan>N:14</tspan></text>
<text x="468.735" y="112.829" fill="#000000" font-family="sans-serif" font-size="5px"><tspan>C:15</tspan></text>
<text x="483.566" y="108.902" fill="#000000" font-family="sans-serif" font-size="5px"><tspan>C:16</tspan></text>
<text x="443.087" y="105.876" fill="#000000" font-family="sans-serif" font-size="5px"><tspan>C:17</tspan></text>
<text x="438.901" y="120.684" fill="#FF0000" font-family="sans-serif" font-size="5px"><tspan>O:18</tspan></text>
<text x="432.098" y="94.9959" fill="#FF0000" font-family="sans-serif" font-size="5px"><tspan>O:19</tspan></text>
<text x="417.439" y="98.9234" fill="#000000" font-family="sans-serif" font-size="5px"><tspan>C:20</tspan></text>
<text x="413.511" y="84.0923" fill="#000000" font-family="sans-serif" font-size="5px"><tspan>C:21</tspan></text>
<text x="421.366" y="113.754" fill="#000000" font-family="sans-serif" font-size="5px"><tspan>C:22</tspan></text>
<text x="402.608" y="102.851" fill="#000000" font-family="sans-serif" font-size="5px"><tspan>C:23</tspan></text>
<text x="581.356" y="113.955" fill="#0000FF" font-family="sans-serif" font-size="5px"><tspan>NH</tspan><tspan baseline-shift="sub" font-size="3.75px">2</tspan><tspan>:24</tspan></text>
<text x="474.379" y="194" fill="#000000" font-family="sans-serif" font-size="12px"><tspan>comp34</tspan></text>
</svg>
