<?xml version="1.0" encoding="UTF-8"?>
<svg baseProfile="full" version="1.1" viewBox="0 0 800 400" xml:space="preserve" xmlns="http://www.w3.org/2000/svg">

 <!-- END OF HEADER -->
<rect width="800" height="400" fill="#fff"> </rect>
<path class="bond-0" d="m123.28 96.984-8.62 4.9769" fill="none" stroke="#000" stroke-width="2px"/>
<path class="bond-0" d="m120.49 95.145-6.034 3.4836" fill="none" stroke="#000" stroke-width="2px"/>
<path class="bond-1" d="m123.28 96.984v-12.442" fill="none" stroke="#000" stroke-width="2px"/>
<path class="bond-2" d="m118.97 79.566-4.31-2.4883" fill="none" stroke="#000" stroke-width="2px"/>
<path class="bond-2" d="m116.83 81.779-3.017-1.7418" fill="none" stroke="#000" stroke-width="2px"/>
<path class="bond-3" d="m106.04 77.078-4.31 2.4883" fill="none" stroke="#000" stroke-width="2px"/>
<path class="bond-4" d="m92.769 80.544-1.3732-0.4462" fill="none" stroke="#000" stroke-width="2px"/>
<path class="bond-4" d="m91.396 80.098-1.3732-0.4461" fill="none" stroke="#00f" stroke-width="2px"/>
<path class="bond-5" d="m97.417 84.543v9.9532" fill="none" stroke="#000" stroke-width="2px"/>
<path class="bond-5" d="m100.4 86.036v6.9672" fill="none" stroke="#000" stroke-width="2px"/>
<path class="bond-6" d="m101.73 99.472 4.31 2.4886" fill="none" stroke="#000" stroke-width="2px"/>
<path class="bond-7" d="m92.769 98.494-4.9031 1.5926" fill="none" stroke="#000" stroke-width="2px"/>
<path class="bond-8" d="m81.41 99.109-5.1598-7.1019" fill="none" stroke="#000" stroke-width="2px"/>
<path class="bond-8" d="m83.052 96.289-3.6119-4.9713" fill="none" stroke="#000" stroke-width="2px"/>
<path class="bond-9" d="m76.25 87.031 2.5799-3.551" fill="none" stroke="#000" stroke-width="2px"/>
<path class="bond-9" d="m78.83 83.48 2.5799-3.5509" fill="none" stroke="#00f" stroke-width="2px"/>
<text x="118.628" y="84.5426" fill="#000000" font-family="sans-serif" font-size="4px"><tspan>C:1</tspan></text>
<text x="105.698" y="77.0776" fill="#000000" font-family="sans-serif" font-size="4px"><tspan>C:2</tspan></text>
<text x="92.7688" y="84.5426" fill="#000000" font-family="sans-serif" font-size="4px"><tspan>C:3</tspan></text>
<text x="92.7688" y="99.4724" fill="#000000" font-family="sans-serif" font-size="4px"><tspan>C:4</tspan></text>
<text x="105.698" y="106.937" fill="#000000" font-family="sans-serif" font-size="4px"><tspan>C:5</tspan></text>
<text x="78.5696" y="104.086" fill="#000000" font-family="sans-serif" font-size="4px"><tspan>C:6</tspan></text>
<text x="69.7941" y="92.0075" fill="#000000" font-family="sans-serif" font-size="4px"><tspan>C:7</tspan></text>
<text x="76.4129" y="79.929" fill="#0000FF" font-family="sans-serif" font-size="4px"><tspan>NH:8</tspan></text>
<text x="74.3794" y="194" fill="#000000" font-family="sans-serif" font-size="12px"><tspan>comp35</tspan></text>
<path class="bond-0" d="m259.29 90.476 5.364-10.91" fill="none" stroke="#000" stroke-width="2px"/>
<path class="bond-0" d="m262.78 90.157 3.755-7.6368" fill="none" stroke="#000" stroke-width="2px"/>
<path class="bond-1" d="m259.29 90.476 6.643 9.9157" fill="none" stroke="#000" stroke-width="2px"/>
<path class="bond-2" d="m272.25 102.57 5.6-0.374" fill="none" stroke="#000" stroke-width="2px"/>
<path class="bond-2" d="m272.89 99.535 3.92-0.2616" fill="none" stroke="#000" stroke-width="2px"/>
<path class="bond-3" d="m283.72 99.398 4.14-8.4214" fill="none" stroke="#000" stroke-width="2px"/>
<path class="bond-4" d="m293.74 87.171 2.534-0.7179" fill="none" stroke="#000" stroke-width="2px"/>
<path class="bond-4" d="m296.27 86.453 2.534-0.718" fill="none" stroke="#00f" stroke-width="2px"/>
<path class="bond-5" d="m287.42 86-4.976-7.4273" fill="none" stroke="#000" stroke-width="2px"/>
<path class="bond-5" d="m284.19 86.548-3.483-5.1991" fill="none" stroke="#000" stroke-width="2px"/>
<path class="bond-6" d="m276.13 76.394-5.6 0.3738" fill="none" stroke="#000" stroke-width="2px"/>
<path class="bond-7" d="m282.74 73.596 5.316-6.759" fill="none" stroke="#000" stroke-width="2px"/>
<path class="bond-8" d="m294.66 66.057 4.717 1.7339" fill="none" stroke="#000" stroke-width="2px"/>
<path class="bond-8" d="m294.33 69.12 3.302 1.2137" fill="none" stroke="#000" stroke-width="2px"/>
<path class="bond-9" d="m303.93 71.988-0.189 4.9712" fill="none" stroke="#000" stroke-width="2px"/>
<path class="bond-9" d="m303.74 76.959-0.19 4.9712" fill="none" stroke="#00f" stroke-width="2px"/>
<path class="bond-10" d="m306.62 86.907 2.704 2.1262" fill="none" stroke="#00f" stroke-width="2px"/>
<path class="bond-10" d="m309.32 89.033 2.704 2.1263" fill="none" stroke="#FF7F00" stroke-width="2px"/>
<path class="bond-11" d="m317.43 97.31 2.704 2.1262" fill="none" stroke="#FF7F00" stroke-width="2px"/>
<path class="bond-11" d="m320.13 99.436 2.703 2.1263" fill="none" stroke="#f00" stroke-width="2px"/>
<path class="bond-11" d="m319.28 94.962 2.704 2.1263" fill="none" stroke="#FF7F00" stroke-width="2px"/>
<path class="bond-11" d="m321.98 97.089 2.703 2.1262" fill="none" stroke="#f00" stroke-width="2px"/>
<path class="bond-12" d="m313.23 96.136-2.658 3.3795" fill="none" stroke="#FF7F00" stroke-width="2px"/>
<path class="bond-12" d="m310.57 99.515-2.657 3.3796" fill="none" stroke="#000" stroke-width="2px"/>
<path class="bond-13" d="m317.14 91.159 2.657-3.3795" fill="none" stroke="#FF7F00" stroke-width="2px"/>
<path class="bond-13" d="m319.8 87.78 2.658-3.3795" fill="none" stroke="#000" stroke-width="2px"/>
<path class="bond-14" d="m309.12 107.87 5.407 4.252" fill="none" stroke="#000" stroke-width="2px"/>
<path class="bond-15" d="m302.8 102.9-5.408-4.2526" fill="none" stroke="#000" stroke-width="2px"/>
<path class="bond-16" d="m304 107.87-5.315 6.759" fill="none" stroke="#000" stroke-width="2px"/>
<path class="bond-17" d="m327.58 84.4 5.407 4.2525" fill="none" stroke="#000" stroke-width="2px"/>
<path class="bond-18" d="m321.25 79.424-5.408-4.2525" fill="none" stroke="#000" stroke-width="2px"/>
<path class="bond-19" d="m326.37 79.424 5.315-6.759" fill="none" stroke="#000" stroke-width="2px"/>
<text x="262.956" y="105.368" fill="#000000" font-family="sans-serif" font-size="4px"><tspan>C:1</tspan></text>
<text x="277.852" y="104.374" fill="#000000" font-family="sans-serif" font-size="4px"><tspan>C:2</tspan></text>
<text x="284.44" y="90.9764" fill="#000000" font-family="sans-serif" font-size="4px"><tspan>C:3</tspan></text>
<text x="276.13" y="78.5725" fill="#000000" font-family="sans-serif" font-size="4px"><tspan>C:4</tspan></text>
<text x="261.234" y="79.5666" fill="#000000" font-family="sans-serif" font-size="4px"><tspan>C:5</tspan></text>
<text x="285.36" y="66.8369" fill="#000000" font-family="sans-serif" font-size="4px"><tspan>C:6</tspan></text>
<text x="299.373" y="71.9878" fill="#000000" font-family="sans-serif" font-size="4px"><tspan>C:7</tspan></text>
<text x="298.804" y="86.9068" fill="#0000FF" font-family="sans-serif" font-size="4px"><tspan>N:8</tspan></text>
<text x="310.704" y="96.1359" fill="#FF7F00" font-family="sans-serif" font-size="4px"><tspan>P:9</tspan></text>
<text x="320.447" y="105.365" fill="#FF0000" font-family="sans-serif" font-size="4px"><tspan>O:10</tspan></text>
<text x="299.65" y="107.872" fill="#000000" font-family="sans-serif" font-size="4px"><tspan>C:11</tspan></text>
<text x="311.385" y="117.101" fill="#000000" font-family="sans-serif" font-size="4px"><tspan>C:12</tspan></text>
<text x="287.914" y="98.6424" fill="#000000" font-family="sans-serif" font-size="4px"><tspan>C:13</tspan></text>
<text x="290.421" y="119.607" fill="#000000" font-family="sans-serif" font-size="4px"><tspan>C:14</tspan></text>
<text x="318.108" y="84.4003" fill="#000000" font-family="sans-serif" font-size="4px"><tspan>C:15</tspan></text>
<text x="329.844" y="93.6294" fill="#000000" font-family="sans-serif" font-size="4px"><tspan>C:16</tspan></text>
<text x="306.372" y="75.1712" fill="#000000" font-family="sans-serif" font-size="4px"><tspan>C:17</tspan></text>
<text x="327.337" y="72.6647" fill="#000000" font-family="sans-serif" font-size="4px"><tspan>C:18</tspan></text>
<text x="270.375" y="194" fill="#000000" font-family="sans-serif" font-size="12px"><tspan>comp399</tspan></text>
<path class="bond-0" d="m544.08 83.018-8.527 4.5451" fill="none" stroke="#000" stroke-width="2px"/>
<path class="bond-0" d="m541.4 81.064-5.969 3.1815" fill="none" stroke="#000" stroke-width="2px"/>
<path class="bond-1" d="m544.08 83.018 0.421-12.433" fill="none" stroke="#000" stroke-width="2px"/>
<path class="bond-2" d="m540.6 65.608-4.687-2.9221" fill="none" stroke="#000" stroke-width="2px"/>
<path class="bond-2" d="m538.32 67.704-3.281-2.0455" fill="none" stroke="#000" stroke-width="2px"/>
<path class="bond-3" d="m527.27 62.675-3.879 2.0676" fill="none" stroke="#000" stroke-width="2px"/>
<path class="bond-4" d="m514.1 65.534-4.738-1.7192" fill="none" stroke="#000" stroke-width="2px"/>
<path class="bond-5" d="m518.66 69.708-0.337 9.9447" fill="none" stroke="#000" stroke-width="2px"/>
<path class="bond-5" d="m521.59 71.301-0.236 6.9613" fill="none" stroke="#000" stroke-width="2px"/>
<path class="bond-6" d="m522.23 84.63 4.687 2.9221" fill="none" stroke="#000" stroke-width="2px"/>
<path class="bond-7" d="m513.59 83.479-2.525 0.727" fill="none" stroke="#000" stroke-width="2px"/>
<path class="bond-7" d="m511.06 84.206-2.526 0.727" fill="none" stroke="#00f" stroke-width="2px"/>
<path class="bond-8" d="m502.21 83.783-2.498-3.6961" fill="none" stroke="#00f" stroke-width="2px"/>
<path class="bond-8" d="m499.71 80.087-2.499-3.6961" fill="none" stroke="#000" stroke-width="2px"/>
<path class="bond-9" d="m502.99 88.76-1.643 4.529" fill="none" stroke="#00f" stroke-width="2px"/>
<path class="bond-9" d="m501.34 93.289-1.643 4.529" fill="none" stroke="#000" stroke-width="2px"/>
<path class="bond-10" d="m497.47 71.414 5.3-6.7976" fill="none" stroke="#000" stroke-width="2px"/>
<path class="bond-10" d="m500.62 72.23 3.71-4.7583" fill="none" stroke="#000" stroke-width="2px"/>
<path class="bond-11" d="m490.88 73.745-5.625-0.1907" fill="none" stroke="#000" stroke-width="2px"/>
<path class="bond-12" d="m478.93 70.908-4.998-7.3923" fill="none" stroke="#000" stroke-width="2px"/>
<path class="bond-13" d="m478.67 75.885-5.3 6.7977" fill="none" stroke="#000" stroke-width="2px"/>
<path class="bond-14" d="m470.71 88.072 1.349 4.6853" fill="none" stroke="#000" stroke-width="2px"/>
<path class="bond-14" d="m472.06 92.757 1.349 4.6854" fill="none" stroke="#f00" stroke-width="2px"/>
<path class="bond-14" d="m473.58 87.246 1.349 4.6853" fill="none" stroke="#000" stroke-width="2px"/>
<path class="bond-14" d="m474.93 91.931 1.348 4.6854" fill="none" stroke="#f00" stroke-width="2px"/>
<path class="bond-15" d="m465.12 82.882-0.625-0.2267" fill="none" stroke="#000" stroke-width="2px"/>
<path class="bond-15" d="m464.5 82.655-0.625-0.2267" fill="none" stroke="#f00" stroke-width="2px"/>
<path class="bond-16" d="m457.48 77.59 0.168-4.9723" fill="none" stroke="#f00" stroke-width="2px"/>
<path class="bond-16" d="m457.65 72.618 0.169-4.9723" fill="none" stroke="#000" stroke-width="2px"/>
<path class="bond-17" d="m464.21 63.341 1.729-0.4978" fill="none" stroke="#000" stroke-width="2px"/>
<path class="bond-18" d="m492.23 99.955-0.958 0.17" fill="none" stroke="#000" stroke-width="2px"/>
<path class="bond-18" d="m491.27 100.12-0.958 0.17" fill="none" stroke="#f00" stroke-width="2px"/>
<path class="bond-18" d="m492.75 102.9-0.958 0.17" fill="none" stroke="#000" stroke-width="2px"/>
<path class="bond-18" d="m491.79 103.06-0.957 0.17" fill="none" stroke="#f00" stroke-width="2px"/>
<path class="bond-19" d="m500.89 102.79 2.712 3.226" fill="none" stroke="#000" stroke-width="2px"/>
<path class="bond-19" d="m503.6 106.02 2.712 3.225" fill="none" stroke="#f00" stroke-width="2px"/>
<path class="bond-20" d="m507.5 114.22-1.643 4.529" fill="none" stroke="#f00" stroke-width="2px"/>
<path class="bond-20" d="m505.86 118.75-1.644 4.529" fill="none" stroke="#000" stroke-width="2px"/>
<path class="bond-21" d="m509.62 128.06 1.417 0.514" fill="none" stroke="#000" stroke-width="2px"/>
<path class="bond-22" d="m497.01 123.48-1.417-0.514" fill="none" stroke="#000" stroke-width="2px"/>
<path class="bond-23" d="m502.41 128.26-3.287 9.058" fill="none" stroke="#000" stroke-width="2px"/>
<text x="539.941" y="70.5846" fill="#000000" font-family="sans-serif" font-size="4px"><tspan>C:1</tspan></text>
<text x="527.271" y="62.6858" fill="#000000" font-family="sans-serif" font-size="4px"><tspan>C:2</tspan></text>
<text x="514.096" y="69.7084" fill="#000000" font-family="sans-serif" font-size="4px"><tspan>C:3</tspan></text>
<text x="513.59" y="84.6297" fill="#000000" font-family="sans-serif" font-size="4px"><tspan>C:4</tspan></text>
<text x="526.26" y="92.5284" fill="#000000" font-family="sans-serif" font-size="4px"><tspan>C:5</tspan></text>
<text x="499.243" y="88.7596" fill="#0000FF" font-family="sans-serif" font-size="4px"><tspan>N:6</tspan></text>
<text x="490.882" y="76.3907" fill="#000000" font-family="sans-serif" font-size="4px"><tspan>C:7</tspan></text>
<text x="500.062" y="64.6164" fill="#000000" font-family="sans-serif" font-size="4px"><tspan>C:8</tspan></text>
<text x="475.961" y="75.8848" fill="#000000" font-family="sans-serif" font-size="4px"><tspan>C:9</tspan></text>
<text x="465.12" y="87.6591" fill="#000000" font-family="sans-serif" font-size="4px"><tspan>C:10</tspan></text>
<text x="469.083" y="102.006" fill="#FF0000" font-family="sans-serif" font-size="4px"><tspan>O:11</tspan></text>
<text x="450.918" y="82.5671" fill="#FF0000" font-family="sans-serif" font-size="4px"><tspan>O:12</tspan></text>
<text x="451.591" y="67.6458" fill="#000000" font-family="sans-serif" font-size="4px"><tspan>C:13</tspan></text>
<text x="465.938" y="63.5159" fill="#000000" font-family="sans-serif" font-size="4px"><tspan>C:14</tspan></text>
<text x="492.49" y="102.794" fill="#000000" font-family="sans-serif" font-size="4px"><tspan>C:15</tspan></text>
<text x="477.623" y="105.402" fill="#FF0000" font-family="sans-serif" font-size="4px"><tspan>O:16</tspan></text>
<text x="501.931" y="114.221" fill="#FF0000" font-family="sans-serif" font-size="4px"><tspan>O:17</tspan></text>
<text x="497.007" y="128.256" fill="#000000" font-family="sans-serif" font-size="4px"><tspan>C:18</tspan></text>
<text x="511.041" y="133.348" fill="#000000" font-family="sans-serif" font-size="4px"><tspan>C:19</tspan></text>
<text x="482.972" y="123.164" fill="#000000" font-family="sans-serif" font-size="4px"><tspan>C:20</tspan></text>
<text x="491.915" y="142.291" fill="#000000" font-family="sans-serif" font-size="4px"><tspan>C:21</tspan></text>
<text x="470.375" y="194" fill="#000000" font-family="sans-serif" font-size="12px"><tspan>comp407</tspan></text>
<path class="bond-0" d="m774.54 81.931 2.001 12.246" fill="none" stroke="#000" stroke-width="2px"/>
<path class="bond-0" d="m771.89 84.25 1.401 8.5723" fill="none" stroke="#000" stroke-width="2px"/>
<path class="bond-1" d="m774.54 81.931-9.316-3.5239" fill="none" stroke="#000" stroke-width="2px"/>
<path class="bond-2" d="m757.53 79.138-5.473 4.4757" fill="none" stroke="#000" stroke-width="2px"/>
<path class="bond-2" d="m758.6 82.12-3.83 3.1331" fill="none" stroke="#000" stroke-width="2px"/>
<path class="bond-3" d="m760.17 74.161-1.594-9.7578" fill="none" stroke="#000" stroke-width="2px"/>
<path class="bond-4" d="m749.42 88.59 1.594 9.7578" fill="none" stroke="#000" stroke-width="2px"/>
<path class="bond-5" d="m744.37 84.343-2.25-0.8512" fill="none" stroke="#000" stroke-width="2px"/>
<path class="bond-5" d="m742.12 83.492-2.251-0.8513" fill="none" stroke="#f00" stroke-width="2px"/>
<path class="bond-6" d="m756.07 102.59 4.668 1.766" fill="none" stroke="#000" stroke-width="2px"/>
<path class="bond-6" d="m757.83 100.07 3.267 1.236" fill="none" stroke="#000" stroke-width="2px"/>
<path class="bond-7" d="m748.38 103.32-5.472 4.476" fill="none" stroke="#000" stroke-width="2px"/>
<path class="bond-8" d="m768.43 103.63 5.472-4.476" fill="none" stroke="#000" stroke-width="2px"/>
<path class="bond-9" d="m781.59 98.424 4.668 1.7662" fill="none" stroke="#000" stroke-width="2px"/>
<path class="bond-10" d="m732.01 83.308-2.736 2.2379" fill="none" stroke="#f00" stroke-width="2px"/>
<path class="bond-10" d="m729.27 85.546-2.736 2.2379" fill="none" stroke="#000" stroke-width="2px"/>
<path class="bond-11" d="m718.85 88.514-3.007-1.1375" fill="none" stroke="#000" stroke-width="2px"/>
<path class="bond-12" d="m710.6 82.261-0.797-4.8789" fill="none" stroke="#000" stroke-width="2px"/>
<path class="bond-12" d="m709.8 77.382-0.797-4.8789" fill="none" stroke="#f00" stroke-width="2px"/>
<path class="bond-12" d="m707.65 82.742-0.797-4.8789" fill="none" stroke="#000" stroke-width="2px"/>
<path class="bond-12" d="m706.85 77.863-0.797-4.879" fill="none" stroke="#f00" stroke-width="2px"/>
<path class="bond-13" d="m706.49 87.478-2.736 2.2379" fill="none" stroke="#000" stroke-width="2px"/>
<path class="bond-13" d="m703.75 89.716-2.736 2.2379" fill="none" stroke="#00f" stroke-width="2px"/>
<path class="bond-14" d="m691.4 91.954-1.077-0.4074" fill="none" stroke="#00f" stroke-width="2px"/>
<path class="bond-15" d="m680.97 91.648-2.736 2.2379" fill="none" stroke="#00f" stroke-width="2px"/>
<path class="bond-15" d="m678.23 93.886-2.736 2.2379" fill="none" stroke="#000" stroke-width="2px"/>
<path class="bond-15" d="m682.04 94.631-1.915 1.5665" fill="none" stroke="#00f" stroke-width="2px"/>
<path class="bond-15" d="m680.12 96.198-1.916 1.5665" fill="none" stroke="#000" stroke-width="2px"/>
<path class="bond-16" d="m666.14 96.226-1.347-0.5093" fill="none" stroke="#000" stroke-width="2px"/>
<path class="bond-17" d="m655.45 95.819-5.472 4.4762" fill="none" stroke="#000" stroke-width="2px"/>
<path class="bond-18" d="m658.08 90.842-1.595-9.7578" fill="none" stroke="#000" stroke-width="2px"/>
<path class="bond-18" d="m654.9 89.86-1.116-6.8305" fill="none" stroke="#000" stroke-width="2px"/>
<path class="bond-19" d="m649.77 76.21-1.347-0.5093" fill="none" stroke="#000" stroke-width="2px"/>
<path class="bond-20" d="m639.08 75.802-5.472 4.4757" fill="none" stroke="#000" stroke-width="2px"/>
<path class="bond-20" d="m640.14 78.785-3.83 3.1331" fill="none" stroke="#000" stroke-width="2px"/>
<path class="bond-21" d="m624.25 81.799-2.139-0.3281" fill="none" stroke="#000" stroke-width="2px"/>
<path class="bond-22" d="m630.97 85.255 1.594 9.7579" fill="none" stroke="#000" stroke-width="2px"/>
<path class="bond-23" d="m639.28 99.887 1.346 0.5088" fill="none" stroke="#000" stroke-width="2px"/>
<path class="bond-23" d="m640.54 97.171 0.943 0.3565" fill="none" stroke="#000" stroke-width="2px"/>
<path class="bond-24" d="m628.14 99.989-1.81 0.9329" fill="none" stroke="#000" stroke-width="2px"/>
<path class="bond-24" d="m626.33 100.92-1.809 0.934" fill="none" stroke="#00f" stroke-width="2px"/>
<path class="bond-25" d="m617.19 101.86-2.792-2.7647" fill="none" stroke="#00f" stroke-width="2px"/>
<path class="bond-25" d="m614.4 99.091-2.791-2.7643" fill="none" stroke="#000" stroke-width="2px"/>
<path class="bond-26" d="m610.34 91.35 4.208-8.3591" fill="none" stroke="#000" stroke-width="2px"/>
<path class="bond-26" d="m613.64 91.439 2.945-5.8513" fill="none" stroke="#000" stroke-width="2px"/>
<text x="755.925" y="79.1375" fill="#000000" font-family="sans-serif" font-size="4px"><tspan>C:1</tspan></text>
<text x="744.368" y="88.5899" fill="#000000" font-family="sans-serif" font-size="4px"><tspan>C:2</tspan></text>
<text x="746.776" y="103.324" fill="#000000" font-family="sans-serif" font-size="4px"><tspan>C:3</tspan></text>
<text x="760.74" y="108.606" fill="#000000" font-family="sans-serif" font-size="4px"><tspan>C:4</tspan></text>
<text x="772.297" y="99.154" fill="#000000" font-family="sans-serif" font-size="4px"><tspan>C:5</tspan></text>
<text x="786.261" y="104.436" fill="#000000" font-family="sans-serif" font-size="4px"><tspan>C:6</tspan></text>
<text x="735.219" y="112.777" fill="#000000" font-family="sans-serif" font-size="4px"><tspan>C:7</tspan></text>
<text x="730.237" y="83.3078" fill="#FF0000" font-family="sans-serif" font-size="4px"><tspan>O:8</tspan></text>
<text x="718.847" y="92.7602" fill="#000000" font-family="sans-serif" font-size="4px"><tspan>C:9</tspan></text>
<text x="703.222" y="87.4781" fill="#000000" font-family="sans-serif" font-size="4px"><tspan>C:10</tspan></text>
<text x="700.647" y="72.7437" fill="#FF0000" font-family="sans-serif" font-size="4px"><tspan>O:11</tspan></text>
<text x="689.509" y="96.9305" fill="#0000FF" font-family="sans-serif" font-size="4px"><tspan>NH:12</tspan></text>
<text x="677.701" y="91.6484" fill="#0000FF" font-family="sans-serif" font-size="4px"><tspan>N:13</tspan></text>
<text x="666.145" y="101.101" fill="#000000" font-family="sans-serif" font-size="4px"><tspan>C:14</tspan></text>
<text x="652.181" y="95.8188" fill="#000000" font-family="sans-serif" font-size="4px"><tspan>C:15</tspan></text>
<text x="649.773" y="81.0843" fill="#000000" font-family="sans-serif" font-size="4px"><tspan>C:16</tspan></text>
<text x="635.809" y="75.8023" fill="#000000" font-family="sans-serif" font-size="4px"><tspan>C:17</tspan></text>
<text x="624.252" y="85.2546" fill="#000000" font-family="sans-serif" font-size="4px"><tspan>C:18</tspan></text>
<text x="626.66" y="99.9891" fill="#000000" font-family="sans-serif" font-size="4px"><tspan>C:19</tspan></text>
<text x="640.624" y="105.271" fill="#000000" font-family="sans-serif" font-size="4px"><tspan>C:20</tspan></text>
<text x="611.234" y="106.832" fill="#0000FF" font-family="sans-serif" font-size="4px"><tspan>NH:21</tspan></text>
<text x="602.782" y="96.327" fill="#000000" font-family="sans-serif" font-size="4px"><tspan>C:22</tspan></text>
<text x="609.495" y="82.9913" fill="#000000" font-family="sans-serif" font-size="4px"><tspan>C:23</tspan></text>
<text x="751.856" y="64.403" fill="#000000" font-family="sans-serif" font-size="4px"><tspan>C:24</tspan></text>
<text x="670.375" y="194" fill="#000000" font-family="sans-serif" font-size="12px"><tspan>comp412</tspan></text>
<path class="bond-0" d="m87.209 314.54-1.5785-12.321" fill="none" stroke="#000" stroke-width="2px"/>
<path class="bond-0" d="m89.934 312.31-1.105-8.624" fill="none" stroke="#000" stroke-width="2px"/>
<path class="bond-1" d="m87.209 314.54 9.1254 3.817" fill="none" stroke="#000" stroke-width="2px"/>
<path class="bond-2" d="m104.25 317.81 5.344-4.071" fill="none" stroke="#000" stroke-width="2px"/>
<path class="bond-2" d="m103.24 314.83 3.74-2.85" fill="none" stroke="#000" stroke-width="2px"/>
<path class="bond-3" d="m112.54 308.76-1.26-9.832" fill="none" stroke="#000" stroke-width="2px"/>
<path class="bond-4" d="m113.1 293.96 2.728-3.171" fill="none" stroke="#000" stroke-width="2px"/>
<path class="bond-4" d="m115.83 290.78 2.728-3.171" fill="none" stroke="#00f" stroke-width="2px"/>
<path class="bond-5" d="m106.31 294.5-4.477-1.873" fill="none" stroke="#000" stroke-width="2px"/>
<path class="bond-5" d="m104.49 296.97-3.134-1.311" fill="none" stroke="#000" stroke-width="2px"/>
<path class="bond-6" d="m93.921 293.17-5.3436 4.071" fill="none" stroke="#000" stroke-width="2px"/>
<path class="bond-7" d="m97.392 288.2 0.8141-9.903" fill="none" stroke="#000" stroke-width="2px"/>
<path class="bond-8" d="m80.664 297.79-4.6417-1.942" fill="none" stroke="#000" stroke-width="2px"/>
<path class="bond-9" d="m70.95 291.48-1.1292-4.776" fill="none" stroke="#000" stroke-width="2px"/>
<path class="bond-9" d="m69.821 286.7-1.1291-4.777" fill="none" stroke="#f00" stroke-width="2px"/>
<path class="bond-10" d="m67.446 296.46-2.286 1.39" fill="none" stroke="#000" stroke-width="2px"/>
<path class="bond-10" d="m65.16 297.85-2.286 1.39" fill="none" stroke="#f00" stroke-width="2px"/>
<path class="bond-11" d="m55.888 299.24-2.7665-2.38" fill="none" stroke="#f00" stroke-width="2px"/>
<path class="bond-11" d="m53.122 296.86-2.7665-2.379" fill="none" stroke="#000" stroke-width="2px"/>
<path class="bond-12" d="m48.503 289.5 3.6796-8.797" fill="none" stroke="#000" stroke-width="2px"/>
<path class="bond-13" d="m45.739 294.48-5.0533 7.298" fill="none" stroke="#000" stroke-width="2px"/>
<path class="bond-14" d="m42.917 289.5-4.0055-2.193" fill="none" stroke="#000" stroke-width="2px"/>
<path class="bond-15" d="m57.872 278.6 1.8777 0.154" fill="none" stroke="#000" stroke-width="2px"/>
<path class="bond-15" d="m59.749 278.75 1.8778 0.155" fill="none" stroke="#f00" stroke-width="2px"/>
<path class="bond-16" d="m48.576 276.82-3.3433-1.003" fill="none" stroke="#000" stroke-width="2px"/>
<path class="bond-17" d="m53.694 275.73 1.8315-9.694" fill="none" stroke="#000" stroke-width="2px"/>
<path class="bond-18" d="m104.72 274.31 1.911-0.452" fill="none" stroke="#000" stroke-width="2px"/>
<path class="bond-18" d="m105.69 277.15 1.339-0.316" fill="none" stroke="#000" stroke-width="2px"/>
<path class="bond-19" d="m114.45 274.86 2.365 3.89" fill="none" stroke="#000" stroke-width="2px"/>
<path class="bond-19" d="m116.82 278.75 2.366 3.89" fill="none" stroke="#00f" stroke-width="2px"/>
<path class="bond-20" d="m127.01 285.64 0.881 0.073" fill="none" stroke="#00f" stroke-width="2px"/>
<path class="bond-20" d="m127.89 285.72 0.882 0.072" fill="none" stroke="#000" stroke-width="2px"/>
<path class="bond-21" d="m135.78 283.86 0.814-9.903" fill="none" stroke="#000" stroke-width="2px"/>
<path class="bond-22" d="m135.37 288.84-0.814 9.903" fill="none" stroke="#000" stroke-width="2px"/>
<path class="bond-23" d="m142.38 286.91 1.763 0.144" fill="none" stroke="#000" stroke-width="2px"/>
<path class="bond-24" d="m142.06 268.98 2.97-1.404" fill="none" stroke="#000" stroke-width="2px"/>
<path class="bond-25" d="m133.21 268.98-5.087-3.523" fill="none" stroke="#000" stroke-width="2px"/>
<path class="bond-26" d="m137.95 303.72 5.087 3.522" fill="none" stroke="#000" stroke-width="2px"/>
<path class="bond-27" d="m129.09 303.72-2.97 1.404" fill="none" stroke="#000" stroke-width="2px"/>
<path class="bond-28" d="m151.63 290.06 4.028 8.522" fill="none" stroke="#000" stroke-width="2px"/>
<path class="bond-29" d="m152.18 285.08 5.053-7.298" fill="none" stroke="#000" stroke-width="2px"/>
<text x="96.3342" y="322.789" fill="#000000" font-family="sans-serif" font-size="4px"><tspan>C:1</tspan></text>
<text x="108.21" y="313.742" fill="#000000" font-family="sans-serif" font-size="4px"><tspan>C:2</tspan></text>
<text x="106.313" y="298.933" fill="#000000" font-family="sans-serif" font-size="4px"><tspan>C:3</tspan></text>
<text x="92.5397" y="293.172" fill="#000000" font-family="sans-serif" font-size="4px"><tspan>C:4</tspan></text>
<text x="80.6635" y="302.219" fill="#000000" font-family="sans-serif" font-size="4px"><tspan>C:5</tspan></text>
<text x="67.0543" y="296.458" fill="#000000" font-family="sans-serif" font-size="4px"><tspan>B:6</tspan></text>
<text x="53.9659" y="304.214" fill="#FF0000" font-family="sans-serif" font-size="4px"><tspan>O:7</tspan></text>
<text x="42.8142" y="294.479" fill="#000000" font-family="sans-serif" font-size="4px"><tspan>C:8</tspan></text>
<text x="48.5755" y="280.705" fill="#000000" font-family="sans-serif" font-size="4px"><tspan>C:9</tspan></text>
<text x="61.6271" y="281.928" fill="#FF0000" font-family="sans-serif" font-size="4px"><tspan>O:10</tspan></text>
<text x="32.6144" y="276.415" fill="#000000" font-family="sans-serif" font-size="4px"><tspan>C:11</tspan></text>
<text x="49.6864" y="266.035" fill="#000000" font-family="sans-serif" font-size="4px"><tspan>C:12</tspan></text>
<text x="32.6542" y="306.753" fill="#000000" font-family="sans-serif" font-size="4px"><tspan>C:13</tspan></text>
<text x="28.0575" y="287.309" fill="#000000" font-family="sans-serif" font-size="4px"><tspan>C:14</tspan></text>
<text x="92.1019" y="278.292" fill="#000000" font-family="sans-serif" font-size="4px"><tspan>C:15</tspan></text>
<text x="106.631" y="274.857" fill="#000000" font-family="sans-serif" font-size="4px"><tspan>C:16</tspan></text>
<text x="114.388" y="287.614" fill="#0000FF" font-family="sans-serif" font-size="4px"><tspan>N:17</tspan></text>
<text x="128.769" y="288.837" fill="#000000" font-family="sans-serif" font-size="4px"><tspan>Si:18</tspan></text>
<text x="130.491" y="273.958" fill="#000000" font-family="sans-serif" font-size="4px"><tspan>C:19</tspan></text>
<text x="143.988" y="267.577" fill="#000000" font-family="sans-serif" font-size="4px"><tspan>C:20</tspan></text>
<text x="118.216" y="265.458" fill="#000000" font-family="sans-serif" font-size="4px"><tspan>C:21</tspan></text>
<text x="128.044" y="303.717" fill="#000000" font-family="sans-serif" font-size="4px"><tspan>C:22</tspan></text>
<text x="140.319" y="312.216" fill="#000000" font-family="sans-serif" font-size="4px"><tspan>C:23</tspan></text>
<text x="114.547" y="310.098" fill="#000000" font-family="sans-serif" font-size="4px"><tspan>C:24</tspan></text>
<text x="144.147" y="290.06" fill="#000000" font-family="sans-serif" font-size="4px"><tspan>C:25</tspan></text>
<text x="150.528" y="303.558" fill="#000000" font-family="sans-serif" font-size="4px"><tspan>C:26</tspan></text>
<text x="152.646" y="277.786" fill="#000000" font-family="sans-serif" font-size="4px"><tspan>C:27</tspan></text>
<text x="70.3745" y="394" fill="#000000" font-family="sans-serif" font-size="12px"><tspan>comp425</tspan></text>
<path class="bond-0" d="m282.43 291.08 6.305-10.217" fill="none" stroke="#000" stroke-width="2px"/>
<path class="bond-1" d="m282.43 291.08 5.741 10.654" fill="none" stroke="#000" stroke-width="2px"/>
<path class="bond-1" d="m285.92 291.27 4.019 7.459" fill="none" stroke="#000" stroke-width="2px"/>
<path class="bond-2" d="m282.43 291.08-8.779-0.258" fill="none" stroke="#000" stroke-width="2px"/>
<path class="bond-3" d="m294.16 304.36 5.628 0.165" fill="none" stroke="#000" stroke-width="2px"/>
<path class="bond-4" d="m305.97 302.18 4.77-7.728" fill="none" stroke="#000" stroke-width="2px"/>
<path class="bond-4" d="m304.15 299.45 3.339-5.41" fill="none" stroke="#000" stroke-width="2px"/>
<path class="bond-5" d="m316.93 291.11 2.696-0.491" fill="none" stroke="#000" stroke-width="2px"/>
<path class="bond-5" d="m319.62 290.62 2.696-0.491" fill="none" stroke="#00f" stroke-width="2px"/>
<path class="bond-6" d="m310.94 289.47-4.401-8.166" fill="none" stroke="#000" stroke-width="2px"/>
<path class="bond-7" d="m300.55 278.68-5.627-0.165" fill="none" stroke="#000" stroke-width="2px"/>
<path class="bond-7" d="m299.62 281.64-3.939-0.116" fill="none" stroke="#000" stroke-width="2px"/>
<path class="bond-8" d="m307.57 276.33 5.559-5.821" fill="none" stroke="#000" stroke-width="2px"/>
<path class="bond-9" d="m320.16 270.26 4.159 2" fill="none" stroke="#000" stroke-width="2px"/>
<path class="bond-9" d="m319.48 273.25 2.912 1.4" fill="none" stroke="#000" stroke-width="2px"/>
<path class="bond-10" d="m328.63 276.98-0.662 4.91" fill="none" stroke="#000" stroke-width="2px"/>
<path class="bond-10" d="m327.96 281.89-0.662 4.91" fill="none" stroke="#00f" stroke-width="2px"/>
<path class="bond-11" d="m329.57 291.77 2.793 2.667" fill="none" stroke="#00f" stroke-width="2px"/>
<path class="bond-11" d="m332.37 294.44 2.793 2.668" fill="none" stroke="#000" stroke-width="2px"/>
<path class="bond-12" d="m342.41 298.24 3.372-0.987" fill="none" stroke="#000" stroke-width="2px"/>
<path class="bond-13" d="m352.7 292.91 2.32-9.53" fill="none" stroke="#000" stroke-width="2px"/>
<path class="bond-14" d="m354.7 297.89 5.586 5.335" fill="none" stroke="#000" stroke-width="2px"/>
<path class="bond-14" d="m357.6 296.53 3.911 3.734" fill="none" stroke="#000" stroke-width="2px"/>
<path class="bond-15" d="m369.2 303.87 1.71-0.501" fill="none" stroke="#000" stroke-width="2px"/>
<path class="bond-16" d="m377.82 299.03 2.32-9.529" fill="none" stroke="#000" stroke-width="2px"/>
<path class="bond-16" d="m375.27 296.89 1.623-6.671" fill="none" stroke="#000" stroke-width="2px"/>
<path class="bond-17" d="m378.14 284.52-5.586-5.334" fill="none" stroke="#000" stroke-width="2px"/>
<path class="bond-18" d="m363.64 278.55-1.71 0.5" fill="none" stroke="#000" stroke-width="2px"/>
<path class="bond-18" d="m364.23 281.49-1.198 0.351" fill="none" stroke="#000" stroke-width="2px"/>
<path class="bond-19" d="m265.81 288.16-2.51-3.677" fill="none" stroke="#000" stroke-width="2px"/>
<path class="bond-19" d="m263.3 284.48-2.511-3.678" fill="none" stroke="#f00" stroke-width="2px"/>
<path class="bond-20" d="m265.59 293.14-2.641 3.42" fill="none" stroke="#000" stroke-width="2px"/>
<path class="bond-20" d="m262.94 296.56-2.641 3.42" fill="none" stroke="#f00" stroke-width="2px"/>
<path class="bond-21" d="m251.91 300.15-0.636-0.228" fill="none" stroke="#f00" stroke-width="2px"/>
<path class="bond-21" d="m251.27 299.92-0.637-0.228" fill="none" stroke="#000" stroke-width="2px"/>
<path class="bond-22" d="m244.4 294.95 0.291-9.947" fill="none" stroke="#000" stroke-width="2px"/>
<path class="bond-23" d="m243.72 299.92-2.32 9.53" fill="none" stroke="#000" stroke-width="2px"/>
<path class="bond-24" d="m238.02 296.58-2.178-0.294" fill="none" stroke="#000" stroke-width="2px"/>
<path class="bond-25" d="m251.07 280.66 0.772-0.226" fill="none" stroke="#000" stroke-width="2px"/>
<path class="bond-25" d="m251.84 280.44 0.772-0.226" fill="none" stroke="#f00" stroke-width="2px"/>
<path class="bond-26" d="m238.45 282.99-2.269 0.171" fill="none" stroke="#000" stroke-width="2px"/>
<path class="bond-27" d="m244.31 280.02-1.768-9.712" fill="none" stroke="#000" stroke-width="2px"/>
<text x="284.866" y="306.716" fill="#000000" font-family="sans-serif" font-size="4px"><tspan>C:1</tspan></text>
<text x="299.79" y="307.154" fill="#000000" font-family="sans-serif" font-size="4px"><tspan>C:2</tspan></text>
<text x="307.631" y="294.449" fill="#000000" font-family="sans-serif" font-size="4px"><tspan>C:3</tspan></text>
<text x="300.548" y="281.306" fill="#000000" font-family="sans-serif" font-size="4px"><tspan>C:4</tspan></text>
<text x="285.625" y="280.868" fill="#000000" font-family="sans-serif" font-size="4px"><tspan>C:5</tspan></text>
<text x="310.859" y="270.508" fill="#000000" font-family="sans-serif" font-size="4px"><tspan>C:6</tspan></text>
<text x="324.314" y="276.978" fill="#000000" font-family="sans-serif" font-size="4px"><tspan>C:7</tspan></text>
<text x="322.319" y="291.774" fill="#0000FF" font-family="sans-serif" font-size="4px"><tspan>N:8</tspan></text>
<text x="333.116" y="302.085" fill="#000000" font-family="sans-serif" font-size="4px"><tspan>C:9</tspan></text>
<text x="345.784" y="297.89" fill="#000000" font-family="sans-serif" font-size="4px"><tspan>C:10</tspan></text>
<text x="356.581" y="308.201" fill="#000000" font-family="sans-serif" font-size="4px"><tspan>C:11</tspan></text>
<text x="370.909" y="304.006" fill="#000000" font-family="sans-serif" font-size="4px"><tspan>C:12</tspan></text>
<text x="374.44" y="289.5" fill="#000000" font-family="sans-serif" font-size="4px"><tspan>C:13</tspan></text>
<text x="363.643" y="279.189" fill="#000000" font-family="sans-serif" font-size="4px"><tspan>C:14</tspan></text>
<text x="349.315" y="283.384" fill="#000000" font-family="sans-serif" font-size="4px"><tspan>C:15</tspan></text>
<text x="261.364" y="293.135" fill="#000000" font-family="sans-serif" font-size="4px"><tspan>B:16</tspan></text>
<text x="251.906" y="304.951" fill="#FF0000" font-family="sans-serif" font-size="4px"><tspan>O:17</tspan></text>
<text x="238.016" y="299.923" fill="#000000" font-family="sans-serif" font-size="4px"><tspan>C:18</tspan></text>
<text x="238.453" y="285" fill="#000000" font-family="sans-serif" font-size="4px"><tspan>C:19</tspan></text>
<text x="252.615" y="280.804" fill="#FF0000" font-family="sans-serif" font-size="4px"><tspan>O:20</tspan></text>
<text x="223.566" y="286.124" fill="#000000" font-family="sans-serif" font-size="4px"><tspan>C:21</tspan></text>
<text x="235.779" y="270.311" fill="#000000" font-family="sans-serif" font-size="4px"><tspan>C:22</tspan></text>
<text x="234.485" y="314.429" fill="#000000" font-family="sans-serif" font-size="4px"><tspan>C:23</tspan></text>
<text x="223.22" y="297.928" fill="#000000" font-family="sans-serif" font-size="4px"><tspan>C:24</tspan></text>
<text x="270.375" y="394" fill="#000000" font-family="sans-serif" font-size="12px"><tspan>comp426</tspan></text>
</svg>
