<?xml version="1.0" encoding="UTF-8"?>
<svg baseProfile="full" version="1.1" viewBox="0 0 800 200" xml:space="preserve" xmlns="http://www.w3.org/2000/svg">

 <!-- END OF HEADER -->
<rect width="800" height="200" fill="#fff"> </rect>
<path class="bond-0" d="m170.05 90.616 0.022 20.082" fill="none" stroke="#000" stroke-width="2px"/>
<path class="bond-1" d="m170.05 90.616-6.955-4.0052" fill="none" stroke="#000" stroke-width="2px"/>
<path class="bond-1" d="m163.1 86.611-6.954-4.0051" fill="none" stroke="#00f" stroke-width="2px"/>
<path class="bond-1" d="m165.56 93.591-4.868-2.8036" fill="none" stroke="#000" stroke-width="2px"/>
<path class="bond-1" d="m160.69 90.787-4.868-2.8036" fill="none" stroke="#00f" stroke-width="2px"/>
<path class="bond-2" d="m170.05 90.616 13.918-8.0556" fill="none" stroke="#000" stroke-width="2px"/>
<path class="bond-3" d="m142.23 82.606-3.489 2.0196" fill="none" stroke="#00f" stroke-width="2px"/>
<path class="bond-3" d="m138.74 84.625-3.489 2.0195" fill="none" stroke="#000" stroke-width="2px"/>
<path class="bond-4" d="m120.81 88.232-7.922-2.5646" fill="none" stroke="#000" stroke-width="2px"/>
<path class="bond-4" d="m118.14 92.433-5.545-1.7952" fill="none" stroke="#000" stroke-width="2px"/>
<path class="bond-5" d="m128.32 94.678 9e-3 8.0333" fill="none" stroke="#000" stroke-width="2px"/>
<path class="bond-5" d="m128.32 102.71 8e-3 8.033" fill="none" stroke="#00f" stroke-width="2px"/>
<path class="bond-6" d="m135.31 118.78 3.467 1.997" fill="none" stroke="#00f" stroke-width="2px"/>
<path class="bond-6" d="m138.78 120.77 3.468 1.997" fill="none" stroke="#000" stroke-width="2px"/>
<path class="bond-7" d="m120.84 117.21-7.906 2.578" fill="none" stroke="#00f" stroke-width="2px"/>
<path class="bond-8" d="m156.16 122.77 6.979-4.039" fill="none" stroke="#000" stroke-width="2px"/>
<path class="bond-8" d="m154.79 117.99 4.885-2.827" fill="none" stroke="#000" stroke-width="2px"/>
<path class="bond-9" d="m149.22 130.8 0.018 16.066" fill="none" stroke="#000" stroke-width="2px"/>
<path class="bond-10" d="m102.5 118.22-4.1685-5.724" fill="none" stroke="#00f" stroke-width="2px"/>
<path class="bond-10" d="m98.334 112.49-4.1682-5.724" fill="none" stroke="#000" stroke-width="2px"/>
<path class="bond-10" d="m105.15 113.66-2.917-4.007" fill="none" stroke="#00f" stroke-width="2px"/>
<path class="bond-10" d="m102.23 109.65-2.918-4.007" fill="none" stroke="#000" stroke-width="2px"/>
<path class="bond-11" d="m94.152 98.734 8.321-11.479" fill="none" stroke="#000" stroke-width="2px"/>
<path class="bond-12" d="m83.738 102.76-6.4128 7e-3" fill="none" stroke="#000" stroke-width="2px"/>
<path class="bond-13" d="m64.829 106.79-7.4006 12.851" fill="none" stroke="#000" stroke-width="2px"/>
<path class="bond-14" d="m64.817 98.76-7.4226-12.824" fill="none" stroke="#000" stroke-width="2px"/>
<path class="bond-14" d="m59.532 99.251-5.1959-8.9769" fill="none" stroke="#000" stroke-width="2px"/>
<path class="bond-15" d="m44.886 81.931-3.7319 4e-3" fill="none" stroke="#000" stroke-width="2px"/>
<path class="bond-16" d="m28.658 85.962-7.4005 12.85" fill="none" stroke="#000" stroke-width="2px"/>
<path class="bond-16" d="m31.724 90.295-5.1804 8.9952" fill="none" stroke="#000" stroke-width="2px"/>
<path class="bond-17" d="m21.269 106.85 7.4226 12.824" fill="none" stroke="#000" stroke-width="2px"/>
<path class="bond-18" d="m41.2 123.68 3.7319-4e-3" fill="none" stroke="#000" stroke-width="2px"/>
<path class="bond-18" d="m41.754 118.86 2.6124-3e-3" fill="none" stroke="#000" stroke-width="2px"/>
<text x="141.666" y="82.6056" fill="#0000FF" font-family="sans-serif" font-size="8px"><tspan>N:1</tspan></text>
<text x="120.809" y="94.6777" fill="#000000" font-family="sans-serif" font-size="8px"><tspan>C:2</tspan></text>
<text x="120.835" y="118.776" fill="#0000FF" font-family="sans-serif" font-size="8px"><tspan>N:3</tspan></text>
<text x="141.719" y="130.803" fill="#000000" font-family="sans-serif" font-size="8px"><tspan>C:4</tspan></text>
<text x="162.576" y="118.731" fill="#000000" font-family="sans-serif" font-size="8px"><tspan>C:5</tspan></text>
<text x="141.745" y="154.902" fill="#000000" font-family="sans-serif" font-size="8px"><tspan>C:6</tspan></text>
<text x="97.924" y="126.248" fill="#0000FF" font-family="sans-serif" font-size="8px"><tspan>N:7</tspan></text>
<text x="83.7379" y="106.767" fill="#000000" font-family="sans-serif" font-size="8px"><tspan>C:8</tspan></text>
<text x="97.8817" y="87.2556" fill="#000000" font-family="sans-serif" font-size="8px"><tspan>C:9</tspan></text>
<text x="56.9583" y="106.793" fill="#000000" font-family="sans-serif" font-size="8px"><tspan>C:10</tspan></text>
<text x="44.8862" y="85.9364" fill="#000000" font-family="sans-serif" font-size="8px"><tspan>C:11</tspan></text>
<text x="20.7874" y="85.9625" fill="#000000" font-family="sans-serif" font-size="8px"><tspan>C:12</tspan></text>
<text x="8.76068" y="106.846" fill="#000000" font-family="sans-serif" font-size="8px"><tspan>C:13</tspan></text>
<text x="20.8327" y="127.703" fill="#000000" font-family="sans-serif" font-size="8px"><tspan>C:14</tspan></text>
<text x="44.9315" y="127.677" fill="#000000" font-family="sans-serif" font-size="8px"><tspan>C:15</tspan></text>
<text x="180.726" y="82.5603" fill="#000000" font-family="sans-serif" font-size="8px"><tspan>C:16</tspan></text>
<text x="74.3794" y="194" fill="#000000" font-family="sans-serif" font-size="12px"><tspan>comp36</tspan></text>
<path class="bond-0" d="m344.73 55.303 7.396 18.332" fill="none" stroke="#000" stroke-width="2px"/>
<path class="bond-1" d="m344.73 55.303-8.18-1.1536" fill="none" stroke="#000" stroke-width="2px"/>
<path class="bond-1" d="m336.55 54.15-8.18-1.1537" fill="none" stroke="#00f" stroke-width="2px"/>
<path class="bond-1" d="m341.6 59.73-5.726-0.8076" fill="none" stroke="#000" stroke-width="2px"/>
<path class="bond-1" d="m335.87 58.922-5.726-0.8075" fill="none" stroke="#00f" stroke-width="2px"/>
<path class="bond-2" d="m344.73 55.303 11.705-14.966" fill="none" stroke="#000" stroke-width="2px"/>
<path class="bond-3" d="m317.72 55.954-4.282 5.475" fill="none" stroke="#00f" stroke-width="2px"/>
<path class="bond-3" d="m313.44 61.429-4.282 5.4751" fill="none" stroke="#000" stroke-width="2px"/>
<path class="bond-4" d="m298.52 71.442-6.355 0.4413" fill="none" stroke="#000" stroke-width="2px"/>
<path class="bond-4" d="m297.9 76.316-4.448 0.3089" fill="none" stroke="#000" stroke-width="2px"/>
<path class="bond-5" d="m307.64 74.937 2.888 7.1577" fill="none" stroke="#000" stroke-width="2px"/>
<path class="bond-5" d="m310.53 82.095 2.888 7.1577" fill="none" stroke="#00f" stroke-width="2px"/>
<path class="bond-6" d="m322.54 94.327 4.428 0.6246" fill="none" stroke="#00f" stroke-width="2px"/>
<path class="bond-6" d="m326.97 94.952 4.429 0.6246" fill="none" stroke="#000" stroke-width="2px"/>
<path class="bond-7" d="m310.24 97.286-8.886 7.4483" fill="none" stroke="#00f" stroke-width="2px"/>
<path class="bond-8" d="m342.04 92.618 8.563-10.95" fill="none" stroke="#000" stroke-width="2px"/>
<path class="bond-8" d="m339.53 88.006 5.994-7.6651" fill="none" stroke="#000" stroke-width="2px"/>
<path class="bond-9" d="m340.52 100.65 5.776 14.316" fill="none" stroke="#000" stroke-width="2px"/>
<path class="bond-10" d="m355.42 120.04 6.177 0.871" fill="none" stroke="#000" stroke-width="2px"/>
<path class="bond-11" d="m344.77 123-8.563 10.95" fill="none" stroke="#000" stroke-width="2px"/>
<path class="bond-11" d="m347.28 127.61-5.994 7.665" fill="none" stroke="#000" stroke-width="2px"/>
<path class="bond-12" d="m334.69 141.98 5.776 14.316" fill="none" stroke="#000" stroke-width="2px"/>
<path class="bond-13" d="m349.59 161.37 8.858 1.25" fill="none" stroke="#000" stroke-width="2px"/>
<path class="bond-13" d="m351.59 156.79 6.2 0.875" fill="none" stroke="#000" stroke-width="2px"/>
<path class="bond-14" d="m369.09 159.66 8.564-10.95" fill="none" stroke="#000" stroke-width="2px"/>
<path class="bond-15" d="m379.17 140.68-5.776-14.315" fill="none" stroke="#000" stroke-width="2px"/>
<path class="bond-15" d="m373.84 140.34-4.043-10.02" fill="none" stroke="#000" stroke-width="2px"/>
<path class="bond-16" d="m290.15 104.73-3.795-2.373" fill="none" stroke="#00f" stroke-width="2px"/>
<path class="bond-16" d="m286.35 102.36-3.794-2.3741" fill="none" stroke="#000" stroke-width="2px"/>
<path class="bond-16" d="m291.56 99.936-2.657-1.6616" fill="none" stroke="#00f" stroke-width="2px"/>
<path class="bond-16" d="m288.91 98.274-2.656-1.6615" fill="none" stroke="#000" stroke-width="2px"/>
<path class="bond-17" d="m277.14 91.954 3.834-15.347" fill="none" stroke="#000" stroke-width="2px"/>
<path class="bond-18" d="m266.18 99.987-2.438 0.9841" fill="none" stroke="#000" stroke-width="2px"/>
<path class="bond-19" d="m253.22 109-2.232 15.829" fill="none" stroke="#000" stroke-width="2px"/>
<path class="bond-20" d="m248.65 100.97-8.712-6.8131" fill="none" stroke="#000" stroke-width="2px"/>
<path class="bond-20" d="m244.38 103.74-6.098-4.7686" fill="none" stroke="#000" stroke-width="2px"/>
<path class="bond-21" d="m224.85 94.158-2.439 0.9838" fill="none" stroke="#000" stroke-width="2px"/>
<path class="bond-22" d="m211.89 103.18-2.233 15.829" fill="none" stroke="#000" stroke-width="2px"/>
<path class="bond-22" d="m216.33 106.22-1.563 11.081" fill="none" stroke="#000" stroke-width="2px"/>
<path class="bond-23" d="m214.23 127.04 8.711 6.813" fill="none" stroke="#000" stroke-width="2px"/>
<path class="bond-24" d="m238.03 133.85 2.438-0.984" fill="none" stroke="#000" stroke-width="2px"/>
<path class="bond-24" d="m236.59 129.23 1.707-0.689" fill="none" stroke="#000" stroke-width="2px"/>
<text x="313.362" y="55.9543" fill="#0000FF" font-family="sans-serif" font-size="8px"><tspan>N:1</tspan></text>
<text x="298.516" y="74.9373" fill="#000000" font-family="sans-serif" font-size="8px"><tspan>C:2</tspan></text>
<text x="307.533" y="97.2857" fill="#0000FF" font-family="sans-serif" font-size="8px"><tspan>N:3</tspan></text>
<text x="331.395" y="100.651" fill="#000000" font-family="sans-serif" font-size="8px"><tspan>C:4</tspan></text>
<text x="346.241" y="81.6681" fill="#000000" font-family="sans-serif" font-size="8px"><tspan>C:5</tspan></text>
<text x="340.412" y="122.999" fill="#000000" font-family="sans-serif" font-size="8px"><tspan>C:6</tspan></text>
<text x="325.566" y="141.982" fill="#000000" font-family="sans-serif" font-size="8px"><tspan>C:7</tspan></text>
<text x="334.583" y="164.331" fill="#000000" font-family="sans-serif" font-size="8px"><tspan>C:8</tspan></text>
<text x="358.446" y="167.696" fill="#000000" font-family="sans-serif" font-size="8px"><tspan>C:9</tspan></text>
<text x="370.611" y="148.713" fill="#000000" font-family="sans-serif" font-size="8px"><tspan>C:10</tspan></text>
<text x="361.594" y="126.365" fill="#000000" font-family="sans-serif" font-size="8px"><tspan>C:11</tspan></text>
<text x="286.383" y="112.767" fill="#0000FF" font-family="sans-serif" font-size="8px"><tspan>N:12</tspan></text>
<text x="265.953" y="99.9869" fill="#000000" font-family="sans-serif" font-size="8px"><tspan>C:13</tspan></text>
<text x="271.794" y="76.6068" fill="#000000" font-family="sans-serif" font-size="8px"><tspan>C:14</tspan></text>
<text x="243.604" y="109.004" fill="#000000" font-family="sans-serif" font-size="8px"><tspan>C:15</tspan></text>
<text x="224.621" y="94.1579" fill="#000000" font-family="sans-serif" font-size="8px"><tspan>C:16</tspan></text>
<text x="202.273" y="103.175" fill="#000000" font-family="sans-serif" font-size="8px"><tspan>C:17</tspan></text>
<text x="198.907" y="127.037" fill="#000000" font-family="sans-serif" font-size="8px"><tspan>C:18</tspan></text>
<text x="217.89" y="141.883" fill="#000000" font-family="sans-serif" font-size="8px"><tspan>C:19</tspan></text>
<text x="240.239" y="132.866" fill="#000000" font-family="sans-serif" font-size="8px"><tspan>C:20</tspan></text>
<text x="349.389" y="40.3367" fill="#000000" font-family="sans-serif" font-size="8px"><tspan>C:21</tspan></text>
<text x="270.375" y="194" fill="#000000" font-family="sans-serif" font-size="12px"><tspan>comp115</tspan></text>
</svg>
