<?xml version="1.0" encoding="UTF-8"?>
<svg baseProfile="full" version="1.1" viewBox="0 0 800 200" xml:space="preserve" xmlns="http://www.w3.org/2000/svg">

 <!-- END OF HEADER -->
<rect width="800" height="200" fill="#fff"> </rect>
<path class="bond-0" d="m190.91 121.29-24.579 14.19" fill="none" stroke="#000" stroke-width="2px"/>
<path class="bond-0" d="m182.96 116.04-17.205 9.933" fill="none" stroke="#000" stroke-width="2px"/>
<path class="bond-1" d="m190.91 121.29v-35.476" fill="none" stroke="#000" stroke-width="2px"/>
<path class="bond-2" d="m178.62 71.619-6.145-3.5476" fill="none" stroke="#000" stroke-width="2px"/>
<path class="bond-2" d="m172.48 68.071-6.145-3.5476" fill="none" stroke="#00f" stroke-width="2px"/>
<path class="bond-2" d="m172.52 77.928-4.301-2.4833" fill="none" stroke="#000" stroke-width="2px"/>
<path class="bond-2" d="m168.22 75.445-4.301-2.4833" fill="none" stroke="#00f" stroke-width="2px"/>
<path class="bond-3" d="m141.75 64.524-6.145 3.5476" fill="none" stroke="#00f" stroke-width="2px"/>
<path class="bond-3" d="m135.61 68.071-6.145 3.5476" fill="none" stroke="#000" stroke-width="2px"/>
<path class="bond-4" d="m103.92 74.408-3.916-1.2722" fill="none" stroke="#000" stroke-width="2px"/>
<path class="bond-4" d="m100 73.136-3.9154-1.2722" fill="none" stroke="#00f" stroke-width="2px"/>
<path class="bond-5" d="m117.17 85.81v28.38" fill="none" stroke="#000" stroke-width="2px"/>
<path class="bond-5" d="m125.69 90.067v19.866" fill="none" stroke="#000" stroke-width="2px"/>
<path class="bond-6" d="m129.46 128.38 12.29 7.095" fill="none" stroke="#000" stroke-width="2px"/>
<path class="bond-7" d="m103.92 125.59-6.7523 2.194" fill="none" stroke="#000" stroke-width="2px"/>
<path class="bond-7" d="m97.168 127.79-6.7519 2.194" fill="none" stroke="#f00" stroke-width="2px"/>
<path class="bond-8" d="m71.53 127.35-7.3565-10.125" fill="none" stroke="#f00" stroke-width="2px"/>
<path class="bond-8" d="m64.174 117.22-7.3564-10.126" fill="none" stroke="#000" stroke-width="2px"/>
<path class="bond-9" d="m38.409 95.743h-7.7937" fill="none" stroke="#000" stroke-width="2px"/>
<path class="bond-9" d="m30.615 95.743h-7.7937" fill="none" stroke="#f00" stroke-width="2px"/>
<path class="bond-9" d="m38.409 104.26h-7.7937" fill="none" stroke="#000" stroke-width="2px"/>
<path class="bond-9" d="m30.615 104.26h-7.7937" fill="none" stroke="#f00" stroke-width="2px"/>
<path class="bond-10" d="m56.817 92.905 7.3564-10.125" fill="none" stroke="#000" stroke-width="2px"/>
<path class="bond-10" d="m64.174 82.78 7.3565-10.125" fill="none" stroke="#00f" stroke-width="2px"/>
<text x="177.656" y="85.8095" fill="#000000" font-family="sans-serif" font-size="14px"><tspan>C:1</tspan></text>
<text x="140.788" y="64.5238" fill="#0000FF" font-family="sans-serif" font-size="14px"><tspan>N:2</tspan></text>
<text x="103.92" y="85.8095" fill="#000000" font-family="sans-serif" font-size="14px"><tspan>C:3</tspan></text>
<text x="103.92" y="128.381" fill="#000000" font-family="sans-serif" font-size="14px"><tspan>C:4</tspan></text>
<text x="140.788" y="149.667" fill="#000000" font-family="sans-serif" font-size="14px"><tspan>C:5</tspan></text>
<text x="62.9547" y="141.536" fill="#FF0000" font-family="sans-serif" font-size="14px"><tspan>O:6</tspan></text>
<text x="38.4088" y="107.095" fill="#000000" font-family="sans-serif" font-size="14px"><tspan>C:7</tspan></text>
<text x="-4.63963" y="107.095" fill="#FF0000" font-family="sans-serif" font-size="14px"><tspan>O:8</tspan></text>
<text x="57.2819" y="72.6542" fill="#0000FF" font-family="sans-serif" font-size="14px"><tspan>NH:9</tspan></text>
<text x="70.3745" y="194" fill="#000000" font-family="sans-serif" font-size="12px"><tspan>comp261</tspan></text>
</svg>
