<?xml version="1.0" encoding="UTF-8"?>
<svg baseProfile="full" version="1.1" viewBox="0 0 800 200" xml:space="preserve" xmlns="http://www.w3.org/2000/svg">

 <!-- END OF HEADER -->
<rect width="800" height="200" fill="#fff"> </rect>
<path class="bond-0" d="m35.952 100 9.52-4.0383" fill="none" stroke="#000" stroke-width="2px"/>
<path class="bond-0" d="m38.6 102.27 6.664-2.8266" fill="none" stroke="#000" stroke-width="2px"/>
<path class="bond-1" d="m35.952 100-1.5876 12.904" fill="none" stroke="#000" stroke-width="2px"/>
<path class="bond-2" d="m35.952 100-9.0223-6.8023" fill="none" stroke="#000" stroke-width="2px"/>
<path class="bond-3" d="m37.498 118.11 5.5682 4.198" fill="none" stroke="#000" stroke-width="2px"/>
<path class="bond-3" d="m40.214 116.25 3.8978 2.938" fill="none" stroke="#000" stroke-width="2px"/>
<path class="bond-4" d="m51.385 122.85 4.6555-1.975" fill="none" stroke="#000" stroke-width="2px"/>
<path class="bond-5" d="m61.225 116.21 1.2672-10.3" fill="none" stroke="#000" stroke-width="2px"/>
<path class="bond-5" d="m58.314 114.28 0.8871-7.21" fill="none" stroke="#000" stroke-width="2px"/>
<path class="bond-6" d="m59.359 100.7-5.5683-4.1985" fill="none" stroke="#000" stroke-width="2px"/>
<path class="bond-7" d="m67.677 101.24 4.6555-1.9745" fill="none" stroke="#000" stroke-width="2px"/>
<path class="bond-8" d="m77.518 94.599 1.2672-10.3" fill="none" stroke="#000" stroke-width="2px"/>
<path class="bond-9" d="m80.651 99.807 5.5682 4.1978" fill="none" stroke="#000" stroke-width="2px"/>
<path class="bond-9" d="m83.368 97.942 3.8978 2.9384" fill="none" stroke="#000" stroke-width="2px"/>
<path class="bond-10" d="m94.538 104.55 4.6555-1.975" fill="none" stroke="#000" stroke-width="2px"/>
<path class="bond-11" d="m108.92 102.78 3.714 1.732" fill="none" stroke="#000" stroke-width="2px"/>
<path class="bond-12" d="m104.38 97.904 1.268-10.3" fill="none" stroke="#000" stroke-width="2px"/>
<path class="bond-12" d="m101.47 95.977 0.887-7.2098" fill="none" stroke="#000" stroke-width="2px"/>
<path class="bond-13" d="m102.51 82.396-2.7842-2.0991" fill="none" stroke="#000" stroke-width="2px"/>
<path class="bond-13" d="m99.728 80.296-2.7842-2.099" fill="none" stroke="#00f" stroke-width="2px"/>
<path class="bond-14" d="m110.83 84.055 1.849-0.3588" fill="none" stroke="#000" stroke-width="2px"/>
<path class="bond-14" d="m112.68 83.696 1.848-0.3588" fill="none" stroke="#f00" stroke-width="2px"/>
<path class="bond-15" d="m87.35 78.197-1.053 0.4466" fill="none" stroke="#00f" stroke-width="2px"/>
<path class="bond-15" d="m86.297 78.644-1.053 0.4467" fill="none" stroke="#000" stroke-width="2px"/>
<path class="bond-15" d="m88.255 81.208-0.7371 0.3126" fill="none" stroke="#00f" stroke-width="2px"/>
<path class="bond-15" d="m87.518 81.521-0.7372 0.3127" fill="none" stroke="#000" stroke-width="2px"/>
<path class="bond-16" d="m122.75 84.626 2.344 4.2298" fill="none" stroke="#f00" stroke-width="2px"/>
<path class="bond-16" d="m125.09 88.856 2.343 4.2297" fill="none" stroke="#000" stroke-width="2px"/>
<path class="bond-17" d="m126.45 98.294-5.8 6.216" fill="none" stroke="#000" stroke-width="2px"/>
<path class="bond-17" d="m123.29 97.095-4.06 4.3514" fill="none" stroke="#000" stroke-width="2px"/>
<path class="bond-18" d="m135.48 96.502 2.303 0.2833" fill="none" stroke="#000" stroke-width="2px"/>
<path class="bond-19" d="m146.35 94.994 5.48-7.2681" fill="none" stroke="#000" stroke-width="2px"/>
<path class="bond-20" d="m145.49 100.2 3.893 9.176" fill="none" stroke="#000" stroke-width="2px"/>
<path class="bond-20" d="m148.95 100.36 2.725 6.423" fill="none" stroke="#000" stroke-width="2px"/>
<path class="bond-21" d="m157.09 112.8 2.303 0.283" fill="none" stroke="#000" stroke-width="2px"/>
<path class="bond-22" d="m167.96 111.29 5.48-7.268" fill="none" stroke="#000" stroke-width="2px"/>
<path class="bond-22" d="m166.28 108.32 3.835-5.088" fill="none" stroke="#000" stroke-width="2px"/>
<path class="bond-23" d="m174.3 98.81-3.892-9.1761" fill="none" stroke="#000" stroke-width="2px"/>
<path class="bond-24" d="m182 102.23 1.325 0.163" fill="none" stroke="#000" stroke-width="2px"/>
<path class="bond-24" d="m183.33 102.39 1.324 0.163" fill="none" stroke="#3cc" stroke-width="2px"/>
<path class="bond-25" d="m162.7 86.217-2.303-0.2833" fill="none" stroke="#000" stroke-width="2px"/>
<path class="bond-25" d="m161.97 89.276-1.612-0.1983" fill="none" stroke="#000" stroke-width="2px"/>
<path class="bond-26" d="m16.726 91.759-1.053 0.4467" fill="none" stroke="#000" stroke-width="2px"/>
<path class="bond-26" d="m15.673 92.206-1.0531 0.4466" fill="none" stroke="#f00" stroke-width="2px"/>
<path class="bond-26" d="m17.946 94.636-1.053 0.4467" fill="none" stroke="#000" stroke-width="2px"/>
<path class="bond-26" d="m16.893 95.083-1.053 0.4466" fill="none" stroke="#f00" stroke-width="2px"/>
<path class="bond-27" d="m23.796 87.989 0.6336-5.1499" fill="none" stroke="#000" stroke-width="2px"/>
<path class="bond-27" d="m24.429 82.84 0.6336-5.1499" fill="none" stroke="#f00" stroke-width="2px"/>
<text x="29.1793" y="118.112" fill="#000000" font-family="sans-serif" font-size="5px"><tspan>C:1</tspan></text>
<text x="41.6558" y="127.519" fill="#000000" font-family="sans-serif" font-size="5px"><tspan>C:2</tspan></text>
<text x="56.0402" y="121.417" fill="#000000" font-family="sans-serif" font-size="5px"><tspan>C:3</tspan></text>
<text x="57.9482" y="105.909" fill="#000000" font-family="sans-serif" font-size="5px"><tspan>C:4</tspan></text>
<text x="45.4718" y="96.5025" fill="#000000" font-family="sans-serif" font-size="5px"><tspan>C:5</tspan></text>
<text x="72.3326" y="99.8072" fill="#000000" font-family="sans-serif" font-size="5px"><tspan>C:6</tspan></text>
<text x="84.8091" y="109.214" fill="#000000" font-family="sans-serif" font-size="5px"><tspan>C:7</tspan></text>
<text x="99.1935" y="103.112" fill="#000000" font-family="sans-serif" font-size="5px"><tspan>C:8</tspan></text>
<text x="101.102" y="87.6038" fill="#000000" font-family="sans-serif" font-size="5px"><tspan>C:9</tspan></text>
<text x="86.8869" y="78.1974" fill="#0000FF" font-family="sans-serif" font-size="5px"><tspan>N:10</tspan></text>
<text x="72.5024" y="84.2991" fill="#000000" font-family="sans-serif" font-size="5px"><tspan>C:11</tspan></text>
<text x="114.527" y="84.6261" fill="#FF0000" font-family="sans-serif" font-size="5px"><tspan>O:12</tspan></text>
<text x="122.274" y="98.294" fill="#000000" font-family="sans-serif" font-size="5px"><tspan>C:13</tspan></text>
<text x="111.615" y="109.719" fill="#000000" font-family="sans-serif" font-size="5px"><tspan>C:14</tspan></text>
<text x="137.782" y="100.202" fill="#000000" font-family="sans-serif" font-size="5px"><tspan>C:15</tspan></text>
<text x="143.884" y="114.586" fill="#000000" font-family="sans-serif" font-size="5px"><tspan>C:16</tspan></text>
<text x="159.392" y="116.494" fill="#000000" font-family="sans-serif" font-size="5px"><tspan>C:17</tspan></text>
<text x="168.798" y="104.018" fill="#000000" font-family="sans-serif" font-size="5px"><tspan>C:18</tspan></text>
<text x="162.697" y="89.6335" fill="#000000" font-family="sans-serif" font-size="5px"><tspan>C:19</tspan></text>
<text x="147.188" y="87.7255" fill="#000000" font-family="sans-serif" font-size="5px"><tspan>C:20</tspan></text>
<text x="184.653" y="105.926" fill="#33CCCC" font-family="sans-serif" font-size="5px"><tspan>F:21</tspan></text>
<text x="16.8727" y="93.1977" fill="#000000" font-family="sans-serif" font-size="5px"><tspan>C:22</tspan></text>
<text x="2.31317" y="99.2994" fill="#FF0000" font-family="sans-serif" font-size="5px"><tspan>O:23</tspan></text>
<text x="16.3484" y="77.6896" fill="#FF0000" font-family="sans-serif" font-size="5px"><tspan>OH:24</tspan></text>
<text x="70.3745" y="194" fill="#000000" font-family="sans-serif" font-size="12px"><tspan>comp455</tspan></text>
<path class="bond-0" d="m324.96 105.84-9.021 5.208" fill="none" stroke="#000" stroke-width="2px"/>
<path class="bond-0" d="m322.04 103.91-6.315 3.645" fill="none" stroke="#000" stroke-width="2px"/>
<path class="bond-1" d="m324.96 105.84v-13.021" fill="none" stroke="#000" stroke-width="2px"/>
<path class="bond-2" d="m320.44 87.607-2.255-1.3021" fill="none" stroke="#000" stroke-width="2px"/>
<path class="bond-2" d="m318.19 86.305-2.255-1.302" fill="none" stroke="#00f" stroke-width="2px"/>
<path class="bond-2" d="m318.2 89.923-1.579-0.9115" fill="none" stroke="#000" stroke-width="2px"/>
<path class="bond-2" d="m316.63 89.012-1.578-0.9115" fill="none" stroke="#00f" stroke-width="2px"/>
<path class="bond-3" d="m306.91 85.003-2.256 1.302" fill="none" stroke="#00f" stroke-width="2px"/>
<path class="bond-3" d="m304.66 86.305-2.255 1.3021" fill="none" stroke="#000" stroke-width="2px"/>
<path class="bond-4" d="m293.03 88.631-2.478-0.8052" fill="none" stroke="#000" stroke-width="2px"/>
<path class="bond-4" d="m290.55 87.826-2.478-0.8053" fill="none" stroke="#f00" stroke-width="2px"/>
<path class="bond-5" d="m297.89 92.816v10.417" fill="none" stroke="#000" stroke-width="2px"/>
<path class="bond-5" d="m301.02 94.378v7.2917" fill="none" stroke="#000" stroke-width="2px"/>
<path class="bond-6" d="m302.4 108.44 4.511 2.604" fill="none" stroke="#000" stroke-width="2px"/>
<path class="bond-7" d="m293.03 107.42-5.131 1.668" fill="none" stroke="#000" stroke-width="2px"/>
<path class="bond-8" d="m281.14 108.06-5.4-7.433" fill="none" stroke="#000" stroke-width="2px"/>
<path class="bond-8" d="m282.86 105.11-3.78-5.2026" fill="none" stroke="#000" stroke-width="2px"/>
<path class="bond-9" d="m275.74 95.42 2.7-3.7163" fill="none" stroke="#000" stroke-width="2px"/>
<path class="bond-9" d="m278.44 91.704 2.7-3.7163" fill="none" stroke="#f00" stroke-width="2px"/>
<path class="bond-10" d="m268.98 98.024h-5.896" fill="none" stroke="#000" stroke-width="2px"/>
<text x="320.09" y="92.8158" fill="#000000" font-family="sans-serif" font-size="5px"><tspan>C:1</tspan></text>
<text x="306.559" y="85.0033" fill="#0000FF" font-family="sans-serif" font-size="5px"><tspan>N:2</tspan></text>
<text x="293.027" y="92.8158" fill="#000000" font-family="sans-serif" font-size="5px"><tspan>C:3</tspan></text>
<text x="293.027" y="108.441" fill="#000000" font-family="sans-serif" font-size="5px"><tspan>C:4</tspan></text>
<text x="306.559" y="116.253" fill="#000000" font-family="sans-serif" font-size="5px"><tspan>C:5</tspan></text>
<text x="278.167" y="113.269" fill="#000000" font-family="sans-serif" font-size="5px"><tspan>C:6</tspan></text>
<text x="268.982" y="100.628" fill="#000000" font-family="sans-serif" font-size="5px"><tspan>C:7</tspan></text>
<text x="277.992" y="87.9874" fill="#FF0000" font-family="sans-serif" font-size="5px"><tspan>O:8</tspan></text>
<text x="253.357" y="100.628" fill="#000000" font-family="sans-serif" font-size="5px"><tspan>C:9</tspan></text>
<text x="270.375" y="194" fill="#000000" font-family="sans-serif" font-size="12px"><tspan>comp462</tspan></text>
</svg>
