<?xml version="1.0" encoding="UTF-8"?>
<svg baseProfile="full" version="1.1" viewBox="0 0 800 200" xml:space="preserve" xmlns="http://www.w3.org/2000/svg">

 <!-- END OF HEADER -->
<rect width="800" height="200" fill="#fff"> </rect>
<path class="bond-0" d="m41.645 76.571 11.262-7.0414" fill="none" stroke="#000" stroke-width="2px"/>
<path class="bond-0" d="m45.388 78.8 7.8831-4.929" fill="none" stroke="#000" stroke-width="2px"/>
<path class="bond-1" d="m41.645 76.571-10.437-2.9895" fill="none" stroke="#000" stroke-width="2px"/>
<path class="bond-2" d="m41.645 76.571 1.9429 7.7832" fill="none" stroke="#000" stroke-width="2px"/>
<path class="bond-2" d="m43.588 84.354 1.9429 7.7832" fill="none" stroke="#00f" stroke-width="2px"/>
<path class="bond-3" d="m52.367 95.786 3.6315 0.2529" fill="none" stroke="#00f" stroke-width="2px"/>
<path class="bond-3" d="m55.999 96.038 3.6316 0.2529" fill="none" stroke="#000" stroke-width="2px"/>
<path class="bond-4" d="m42.995 98.594-3.6241 3.5018" fill="none" stroke="#00f" stroke-width="2px"/>
<path class="bond-4" d="m39.371 102.1-3.6241 3.502" fill="none" stroke="#000" stroke-width="2px"/>
<path class="bond-5" d="m66.965 93.483 2.3224-5.7529" fill="none" stroke="#000" stroke-width="2px"/>
<path class="bond-5" d="m69.287 87.73 2.3225-5.753" fill="none" stroke="#00f" stroke-width="2px"/>
<path class="bond-5" d="m64.069 90.307 1.6257-4.0271" fill="none" stroke="#000" stroke-width="2px"/>
<path class="bond-5" d="m65.694 86.28 1.6257-4.027" fill="none" stroke="#00f" stroke-width="2px"/>
<path class="bond-6" d="m67.68 99.94 6.2326 9.9679" fill="none" stroke="#000" stroke-width="2px"/>
<path class="bond-7" d="m69.063 75.52-3.5716-2.9952" fill="none" stroke="#00f" stroke-width="2px"/>
<path class="bond-7" d="m65.492 72.524-3.5716-2.9953" fill="none" stroke="#000" stroke-width="2px"/>
<path class="bond-8" d="m81.962 112.92 2.5715-0.09" fill="none" stroke="#000" stroke-width="2px"/>
<path class="bond-8" d="m84.534 112.83 2.5714-0.091" fill="none" stroke="#00f" stroke-width="2px"/>
<path class="bond-9" d="m74.216 116.36-5.6586 10.65" fill="none" stroke="#000" stroke-width="2px"/>
<path class="bond-10" d="m68.86 133.47 6.2325 9.968" fill="none" stroke="#000" stroke-width="2px"/>
<path class="bond-11" d="m83.142 146.46 7.298-0.257" fill="none" stroke="#000" stroke-width="2px"/>
<path class="bond-12" d="m98.187 142.76 5.6581-10.65" fill="none" stroke="#000" stroke-width="2px"/>
<path class="bond-13" d="m103.54 125.65-3.116-4.984" fill="none" stroke="#000" stroke-width="2px"/>
<path class="bond-13" d="m100.43 120.67-3.1163-4.984" fill="none" stroke="#00f" stroke-width="2px"/>
<path class="bond-14" d="m111.59 128.67 5.143-0.181" fill="none" stroke="#000" stroke-width="2px"/>
<path class="bond-15" d="m97.006 109.23 2.8293-5.325" fill="none" stroke="#00f" stroke-width="2px"/>
<path class="bond-15" d="m99.836 103.9 2.8292-5.3249" fill="none" stroke="#000" stroke-width="2px"/>
<path class="bond-16" d="m104 91.093-3.116-4.984" fill="none" stroke="#000" stroke-width="2px"/>
<path class="bond-16" d="m100.89 86.109-3.1161-4.984" fill="none" stroke="#f00" stroke-width="2px"/>
<path class="bond-16" d="m100.72 93.147-3.1159-4.984" fill="none" stroke="#000" stroke-width="2px"/>
<path class="bond-16" d="m97.603 88.163-3.1163-4.984" fill="none" stroke="#f00" stroke-width="2px"/>
<path class="bond-17" d="m112.57 95.06 1.385-0.0487" fill="none" stroke="#000" stroke-width="2px"/>
<path class="bond-17" d="m113.95 95.012 1.385-0.0488" fill="none" stroke="#f00" stroke-width="2px"/>
<path class="bond-18" d="m125.46 91.438 2.829-5.3248" fill="none" stroke="#f00" stroke-width="2px"/>
<path class="bond-18" d="m128.28 86.114 2.829-5.3247" fill="none" stroke="#000" stroke-width="2px"/>
<path class="bond-19" d="m141.02 77.272 2.988-0.1051" fill="none" stroke="#000" stroke-width="2px"/>
<path class="bond-20" d="m153.9 73.65 5.659-10.65" fill="none" stroke="#000" stroke-width="2px"/>
<path class="bond-21" d="m154.21 80.107 6.233 9.968" fill="none" stroke="#000" stroke-width="2px"/>
<path class="bond-21" d="m158.43 79.549 4.363 6.9776" fill="none" stroke="#000" stroke-width="2px"/>
<path class="bond-22" d="m170.65 93.016 2.988-0.1052" fill="none" stroke="#000" stroke-width="2px"/>
<path class="bond-23" d="m183.54 89.394 5.659-10.65" fill="none" stroke="#000" stroke-width="2px"/>
<path class="bond-23" d="m180.96 85.979 3.961-7.4547" fill="none" stroke="#000" stroke-width="2px"/>
<path class="bond-24" d="m188.89 72.287-6.232-9.968" fill="none" stroke="#000" stroke-width="2px"/>
<path class="bond-25" d="m172.45 59.379-2.988 0.1052" fill="none" stroke="#000" stroke-width="2px"/>
<path class="bond-25" d="m172.14 63.266-2.091 0.0736" fill="none" stroke="#000" stroke-width="2px"/>
<path class="bond-26" d="m133.11 127.91 1.709-0.06" fill="none" stroke="#000" stroke-width="2px"/>
<path class="bond-26" d="m134.82 127.85 1.709-0.06" fill="none" stroke="#3cc" stroke-width="2px"/>
<path class="bond-27" d="m125.03 131.43 0.227 6.451" fill="none" stroke="#000" stroke-width="2px"/>
<path class="bond-27" d="m125.26 137.88 0.228 6.451" fill="none" stroke="#3cc" stroke-width="2px"/>
<path class="bond-28" d="m124.81 124.97-0.227-6.451" fill="none" stroke="#000" stroke-width="2px"/>
<path class="bond-28" d="m124.58 118.52-0.227-6.451" fill="none" stroke="#3cc" stroke-width="2px"/>
<path class="bond-29" d="m24.22 106.48-2.251-0.644" fill="none" stroke="#000" stroke-width="2px"/>
<path class="bond-29" d="m24.949 102.66-1.5757-0.451" fill="none" stroke="#000" stroke-width="2px"/>
<path class="bond-30" d="m12.977 100.26-1.5399-6.1686" fill="none" stroke="#000" stroke-width="2px"/>
<path class="bond-30" d="m11.437 94.094-1.54-6.1689" fill="none" stroke="#00f" stroke-width="2px"/>
<path class="bond-31" d="m12.432 81.468 3.624-3.5017" fill="none" stroke="#00f" stroke-width="2px"/>
<path class="bond-31" d="m16.056 77.967 3.6241-3.5017" fill="none" stroke="#000" stroke-width="2px"/>
<path class="bond-31" d="m16.212 83.204 2.5369-2.4512" fill="none" stroke="#00f" stroke-width="2px"/>
<path class="bond-31" d="m18.749 80.753 2.5368-2.4512" fill="none" stroke="#000" stroke-width="2px"/>
<path class="bond-32" d="m22.216 68.008-1.5399-6.1689" fill="none" stroke="#000" stroke-width="2px"/>
<path class="bond-32" d="m20.676 61.839-1.5399-6.1689" fill="none" stroke="#0c0" stroke-width="2px"/>
<text x="40.3055" y="98.5942" fill="#0000FF" font-family="sans-serif" font-size="6px"><tspan>N:1</tspan></text>
<text x="59.6304" y="99.9401" fill="#000000" font-family="sans-serif" font-size="6px"><tspan>C:2</tspan></text>
<text x="66.8821" y="81.9769" fill="#0000FF" font-family="sans-serif" font-size="6px"><tspan>N:3</tspan></text>
<text x="52.0391" y="69.5292" fill="#000000" font-family="sans-serif" font-size="6px"><tspan>C:4</tspan></text>
<text x="69.9004" y="116.365" fill="#000000" font-family="sans-serif" font-size="6px"><tspan>C:5</tspan></text>
<text x="60.8108" y="133.472" fill="#000000" font-family="sans-serif" font-size="6px"><tspan>C:6</tspan></text>
<text x="71.0808" y="149.897" fill="#000000" font-family="sans-serif" font-size="6px"><tspan>C:7</tspan></text>
<text x="90.4405" y="149.216" fill="#000000" font-family="sans-serif" font-size="6px"><tspan>C:8</tspan></text>
<text x="99.5301" y="132.109" fill="#000000" font-family="sans-serif" font-size="6px"><tspan>C:9</tspan></text>
<text x="87.1051" y="115.684" fill="#0000FF" font-family="sans-serif" font-size="6px"><tspan>N:10</tspan></text>
<text x="96.1948" y="98.5771" fill="#000000" font-family="sans-serif" font-size="6px"><tspan>C:11</tspan></text>
<text x="85.7077" y="82.1519" fill="#FF0000" font-family="sans-serif" font-size="6px"><tspan>O:12</tspan></text>
<text x="115.337" y="97.8956" fill="#FF0000" font-family="sans-serif" font-size="6px"><tspan>O:13</tspan></text>
<text x="124.644" y="80.7889" fill="#000000" font-family="sans-serif" font-size="6px"><tspan>C:14</tspan></text>
<text x="144.004" y="80.1074" fill="#000000" font-family="sans-serif" font-size="6px"><tspan>C:15</tspan></text>
<text x="154.274" y="96.5327" fill="#000000" font-family="sans-serif" font-size="6px"><tspan>C:16</tspan></text>
<text x="173.634" y="95.8512" fill="#000000" font-family="sans-serif" font-size="6px"><tspan>C:17</tspan></text>
<text x="182.723" y="78.7445" fill="#000000" font-family="sans-serif" font-size="6px"><tspan>C:18</tspan></text>
<text x="172.453" y="62.3192" fill="#000000" font-family="sans-serif" font-size="6px"><tspan>C:19</tspan></text>
<text x="153.094" y="63.0007" fill="#000000" font-family="sans-serif" font-size="6px"><tspan>C:20</tspan></text>
<text x="116.735" y="131.428" fill="#000000" font-family="sans-serif" font-size="6px"><tspan>C:21</tspan></text>
<text x="136.525" y="130.746" fill="#33CCCC" font-family="sans-serif" font-size="6px"><tspan>F:22</tspan></text>
<text x="117.847" y="150.787" fill="#33CCCC" font-family="sans-serif" font-size="6px"><tspan>F:23</tspan></text>
<text x="116.484" y="112.068" fill="#33CCCC" font-family="sans-serif" font-size="6px"><tspan>F:24</tspan></text>
<text x="24.2195" y="112.055" fill="#000000" font-family="sans-serif" font-size="6px"><tspan>C:25</tspan></text>
<text x="5.59673" y="106.72" fill="#000000" font-family="sans-serif" font-size="6px"><tspan>C:26</tspan></text>
<text x="0.905036" y="87.9255" fill="#0000FF" font-family="sans-serif" font-size="6px"><tspan>N:27</tspan></text>
<text x="14.8361" y="74.4649" fill="#000000" font-family="sans-serif" font-size="6px"><tspan>C:28</tspan></text>
<text x="9.28395" y="55.6699" fill="#00CC00" font-family="sans-serif" font-size="6px"><tspan>Cl:29</tspan></text>
<text x="70.3745" y="194" fill="#000000" font-family="sans-serif" font-size="12px"><tspan>comp279</tspan></text>
<path class="bond-0" d="m253.32 108.23 1.898-6.007" fill="none" stroke="#00f" stroke-width="2px"/>
<path class="bond-0" d="m255.22 102.22 1.899-6.0076" fill="none" stroke="#000" stroke-width="2px"/>
<path class="bond-0" d="m257.58 107.59 1.329-4.205" fill="none" stroke="#00f" stroke-width="2px"/>
<path class="bond-0" d="m258.91 103.39 1.329-4.205" fill="none" stroke="#000" stroke-width="2px"/>
<path class="bond-1" d="m255.1 114.51 3.663 4.002" fill="none" stroke="#00f" stroke-width="2px"/>
<path class="bond-1" d="m258.76 118.52 3.663 4.002" fill="none" stroke="#000" stroke-width="2px"/>
<path class="bond-2" d="m271.41 124.41 6.853-1.515" fill="none" stroke="#000" stroke-width="2px"/>
<path class="bond-2" d="m271.6 120.4 4.797-1.061" fill="none" stroke="#000" stroke-width="2px"/>
<path class="bond-3" d="m285.31 118.34 1.898-6.008" fill="none" stroke="#000" stroke-width="2px"/>
<path class="bond-3" d="m287.21 112.33 1.898-6.007" fill="none" stroke="#00f" stroke-width="2px"/>
<path class="bond-4" d="m296.16 100.35 2.786-1.2673" fill="none" stroke="#00f" stroke-width="2px"/>
<path class="bond-4" d="m298.95 99.084 2.785-1.2672" fill="none" stroke="#000" stroke-width="2px"/>
<path class="bond-5" d="m287.18 99.866-3.585-3.9167" fill="none" stroke="#00f" stroke-width="2px"/>
<path class="bond-5" d="m283.59 95.949-3.584-3.9167" fill="none" stroke="#000" stroke-width="2px"/>
<path class="bond-6" d="m271.02 90.137-6.853 1.5148" fill="none" stroke="#000" stroke-width="2px"/>
<path class="bond-7" d="m278.88 85.576 5.891-10.397" fill="none" stroke="#000" stroke-width="2px"/>
<path class="bond-7" d="m283.14 85.926 4.124-7.2778" fill="none" stroke="#000" stroke-width="2px"/>
<path class="bond-8" d="m255.18 89.756-7.169-7.8334" fill="none" stroke="#000" stroke-width="2px"/>
<path class="bond-9" d="m292.63 73.181 3.459 0.706" fill="none" stroke="#000" stroke-width="2px"/>
<path class="bond-9" d="m296.09 73.887 3.459 0.7061" fill="none" stroke="#00f" stroke-width="2px"/>
<path class="bond-10" d="m305.95 79.053 0.725 6.3956" fill="none" stroke="#00f" stroke-width="2px"/>
<path class="bond-10" d="m306.67 85.448 0.724 6.3957" fill="none" stroke="#000" stroke-width="2px"/>
<path class="bond-10" d="m302.32 81.408 0.507 4.477" fill="none" stroke="#00f" stroke-width="2px"/>
<path class="bond-10" d="m302.82 85.885 0.507 4.4769" fill="none" stroke="#000" stroke-width="2px"/>
<path class="bond-11" d="m313.46 98.301 5.458 3.0927" fill="none" stroke="#000" stroke-width="2px"/>
<path class="bond-12" d="m330.31 107.85 5.458 3.093" fill="none" stroke="#000" stroke-width="2px"/>
<path class="bond-13" d="m326.44 101.39 5.892-10.397" fill="none" stroke="#000" stroke-width="2px"/>
<path class="bond-14" d="m325.51 101.39 0.962-3.4617" fill="none" stroke="#000" stroke-width="2px"/>
<path class="bond-15" d="m339.86 90.997 2.729 1.5463" fill="none" stroke="#000" stroke-width="2px"/>
<path class="bond-15" d="m342.59 92.543 2.729 1.5463" fill="none" stroke="#f00" stroke-width="2px"/>
<path class="bond-16" d="m349.19 100.55-2.946 5.198" fill="none" stroke="#f00" stroke-width="2px"/>
<path class="bond-16" d="m346.24 105.74-2.945 5.199" fill="none" stroke="#000" stroke-width="2px"/>
<text x="249.501" y="114.685" fill="#0000FF" font-family="sans-serif" font-size="6px"><tspan>N</tspan></text>
<text x="259.346" y="128.975" fill="#000000" font-family="sans-serif" font-size="6px"><tspan>C:1</tspan></text>
<text x="278.261" y="124.795" fill="#000000" font-family="sans-serif" font-size="6px"><tspan>C:2</tspan></text>
<text x="284.098" y="106.323" fill="#0000FF" font-family="sans-serif" font-size="6px"><tspan>N:3</tspan></text>
<text x="271.02" y="92.0327" fill="#000000" font-family="sans-serif" font-size="6px"><tspan>C:4</tspan></text>
<text x="252.105" y="96.2134" fill="#000000" font-family="sans-serif" font-size="6px"><tspan>C:5</tspan></text>
<text x="239.027" y="81.9228" fill="#000000" font-family="sans-serif" font-size="6px"><tspan>C:6</tspan></text>
<text x="280.57" y="75.1786" fill="#000000" font-family="sans-serif" font-size="6px"><tspan>C:7</tspan></text>
<text x="299.55" y="79.0528" fill="#0000FF" font-family="sans-serif" font-size="6px"><tspan>N:8</tspan></text>
<text x="301.731" y="98.3013" fill="#000000" font-family="sans-serif" font-size="6px"><tspan>C:9</tspan></text>
<text x="316.43" y="107.851" fill="#000000" font-family="sans-serif" font-size="6px"><tspan>C:10</tspan></text>
<text x="325.98" y="90.997" fill="#000000" font-family="sans-serif" font-size="6px"><tspan>C:11</tspan></text>
<text x="342.617" y="100.547" fill="#FF0000" font-family="sans-serif" font-size="6px"><tspan>O:12</tspan></text>
<text x="333.284" y="117.401" fill="#000000" font-family="sans-serif" font-size="6px"><tspan>C:13</tspan></text>
<text x="319.187" y="97.9323" fill="#000000" font-family="sans-serif" font-size="6px"><tspan>C:14</tspan></text>
<text x="270.375" y="194" fill="#000000" font-family="sans-serif" font-size="12px"><tspan>comp406</tspan></text>
</svg>
