<?xml version="1.0" encoding="UTF-8"?>
<svg baseProfile="full" version="1.1" viewBox="0 0 800 200" xml:space="preserve" xmlns="http://www.w3.org/2000/svg">

 <!-- END OF HEADER -->
<rect width="800" height="200" fill="#fff"> </rect>
<path class="bond-0" d="m148.27 86.214-4.768 20.403" fill="none" stroke="#000" stroke-width="2px"/>
<path class="bond-0" d="m142.63 88.124-3.337 14.282" fill="none" stroke="#000" stroke-width="2px"/>
<path class="bond-1" d="m148.27 86.214-6.974-6.5384" fill="none" stroke="#000" stroke-width="2px"/>
<path class="bond-1" d="m141.3 79.675-6.975-6.5384" fill="none" stroke="#00f" stroke-width="2px"/>
<path class="bond-2" d="m148.27 86.214 6.895-2.088" fill="none" stroke="#000" stroke-width="2px"/>
<path class="bond-2" d="m155.17 84.126 6.895-2.0881" fill="none" stroke="#cc0" stroke-width="2px"/>
<path class="bond-3" d="m118.31 72.413-2.401 0.7272" fill="none" stroke="#00f" stroke-width="2px"/>
<path class="bond-3" d="m115.91 73.14-2.401 0.7271" fill="none" stroke="#000" stroke-width="2px"/>
<path class="bond-4" d="m102.87 70.193-4.7268-4.4317" fill="none" stroke="#000" stroke-width="2px"/>
<path class="bond-4" d="m98.142 65.761-4.7271-4.4317" fill="none" stroke="#f00" stroke-width="2px"/>
<path class="bond-4" d="m99.411 73.881-4.7271-4.4317" fill="none" stroke="#000" stroke-width="2px"/>
<path class="bond-4" d="m94.684 69.45-4.7271-4.4317" fill="none" stroke="#f00" stroke-width="2px"/>
<path class="bond-5" d="m104.65 80.464-3.783 16.19" fill="none" stroke="#000" stroke-width="2px"/>
<path class="bond-6" d="m92.233 105.08-6.8448 3.771" fill="none" stroke="#000" stroke-width="2px"/>
<path class="bond-7" d="m104.38 105.08 9.454 8.864" fill="none" stroke="#000" stroke-width="2px"/>
<path class="bond-7" d="m109.25 102.72 6.618 6.205" fill="none" stroke="#000" stroke-width="2px"/>
<path class="bond-8" d="m126.2 115.77 8.454-2.56" fill="none" stroke="#000" stroke-width="2px"/>
<path class="bond-9" d="m116.35 122.37-3.394 7.228" fill="none" stroke="#000" stroke-width="2px"/>
<path class="bond-9" d="m112.95 129.6-3.394 7.228" fill="none" stroke="#f00" stroke-width="2px"/>
<path class="bond-10" d="m99.426 140.02-4.5297-0.569" fill="none" stroke="#f00" stroke-width="2px"/>
<path class="bond-10" d="m94.897 139.45-4.5297-0.568" fill="none" stroke="#000" stroke-width="2px"/>
<path class="bond-11" d="m81.689 133.68-3.1428-16.402" fill="none" stroke="#000" stroke-width="2px"/>
<path class="bond-11" d="m86.184 130.27-2.1999-11.481" fill="none" stroke="#000" stroke-width="2px"/>
<path class="bond-12" d="m69.869 109.37-6.0396-2.836" fill="none" stroke="#000" stroke-width="2px"/>
<path class="bond-13" d="m48.805 106.53-8.6436 6.018" fill="none" stroke="#000" stroke-width="2px"/>
<path class="bond-14" d="m54.499 98.106-1.4215-16.763" fill="none" stroke="#000" stroke-width="2px"/>
<path class="bond-14" d="m49.248 96.019-0.9951-11.734" fill="none" stroke="#000" stroke-width="2px"/>
<path class="bond-15" d="m43.747 72.916-4.9368-2.3182" fill="none" stroke="#000" stroke-width="2px"/>
<path class="bond-16" d="m23.786 70.598-8.6436 6.0181" fill="none" stroke="#000" stroke-width="2px"/>
<path class="bond-16" d="m25.378 75.65-6.0505 4.2126" fill="none" stroke="#000" stroke-width="2px"/>
<path class="bond-17" d="m9.4482 85.043 1.4216 16.763" fill="none" stroke="#000" stroke-width="2px"/>
<path class="bond-18" d="m20.2 110.23 4.9369 2.318" fill="none" stroke="#000" stroke-width="2px"/>
<path class="bond-18" d="m23.09 106 3.4558 1.622" fill="none" stroke="#000" stroke-width="2px"/>
<path class="bond-19" d="m176.96 83.1 4.727 4.4318" fill="none" stroke="#cc0" stroke-width="2px"/>
<path class="bond-19" d="m181.69 87.532 4.727 4.4317" fill="none" stroke="#000" stroke-width="2px"/>
<text x="118.307" y="73.1369" fill="#0000FF" font-family="sans-serif" font-size="8px"><tspan>NH:1</tspan></text>
<text x="97.7642" y="80.4636" fill="#000000" font-family="sans-serif" font-size="8px"><tspan>C:2</tspan></text>
<text x="79.0384" y="63.1735" fill="#FF0000" font-family="sans-serif" font-size="8px"><tspan>O:3</tspan></text>
<text x="92.0118" y="105.08" fill="#000000" font-family="sans-serif" font-size="8px"><tspan>C:4</tspan></text>
<text x="110.454" y="122.37" fill="#000000" font-family="sans-serif" font-size="8px"><tspan>C:5</tspan></text>
<text x="134.649" y="115.044" fill="#000000" font-family="sans-serif" font-size="8px"><tspan>C:6</tspan></text>
<text x="99.4263" y="145.253" fill="#FF0000" font-family="sans-serif" font-size="8px"><tspan>O:7</tspan></text>
<text x="74.6264" y="142.105" fill="#000000" font-family="sans-serif" font-size="8px"><tspan>C:8</tspan></text>
<text x="69.869" y="117.277" fill="#000000" font-family="sans-serif" font-size="8px"><tspan>C:9</tspan></text>
<text x="44.174" y="106.532" fill="#000000" font-family="sans-serif" font-size="8px"><tspan>C:10</tspan></text>
<text x="42.0378" y="81.343" fill="#000000" font-family="sans-serif" font-size="8px"><tspan>C:11</tspan></text>
<text x="19.155" y="70.5982" fill="#000000" font-family="sans-serif" font-size="8px"><tspan>C:12</tspan></text>
<text x="-1.59157" y="85.0429" fill="#000000" font-family="sans-serif" font-size="8px"><tspan>C:13</tspan></text>
<text x="0.544572" y="110.232" fill="#000000" font-family="sans-serif" font-size="8px"><tspan>C:14</tspan></text>
<text x="23.4273" y="120.977" fill="#000000" font-family="sans-serif" font-size="8px"><tspan>C:15</tspan></text>
<text x="162.062" y="83.1003" fill="#CCCC00" font-family="sans-serif" font-size="8px"><tspan>S:16</tspan></text>
<text x="180.227" y="100.39" fill="#000000" font-family="sans-serif" font-size="8px"><tspan>C:17</tspan></text>
<text x="70.3745" y="194" fill="#000000" font-family="sans-serif" font-size="12px"><tspan>comp456</tspan></text>
</svg>
