<?xml version="1.0" encoding="UTF-8"?>
<svg baseProfile="full" version="1.1" viewBox="0 0 800 200" xml:space="preserve" xmlns="http://www.w3.org/2000/svg">

 <!-- END OF HEADER -->
<rect width="800" height="200" fill="#fff"> </rect>
<path class="bond-0" d="m9.0909 77.736 7.6837 4.1812" fill="none" stroke="#000" stroke-width="2px"/>
<path class="bond-0" d="m16.775 81.917 7.6836 4.1812" fill="none" stroke="#00f" stroke-width="2px"/>
<path class="bond-1" d="m33.27 95.052 2.3109 17.681" fill="none" stroke="#00f" stroke-width="2px"/>
<path class="bond-2" d="m41.048 86.596 3.7652-1.7916" fill="none" stroke="#00f" stroke-width="2px"/>
<path class="bond-2" d="m44.813 84.804 3.7651-1.7915" fill="none" stroke="#000" stroke-width="2px"/>
<path class="bond-3" d="m44.529 118.77 4.841 0.902" fill="none" stroke="#00f" stroke-width="2px"/>
<path class="bond-3" d="m49.37 119.67 4.8409 0.902" fill="none" stroke="#000" stroke-width="2px"/>
<path class="bond-3" d="m46.966 113.76 3.3886 0.632" fill="none" stroke="#00f" stroke-width="2px"/>
<path class="bond-3" d="m50.354 114.39 3.3887 0.631" fill="none" stroke="#000" stroke-width="2px"/>
<path class="bond-4" d="m65.01 117.65 7.9669-14.64" fill="none" stroke="#000" stroke-width="2px"/>
<path class="bond-5" d="m61.182 83.511 9.9911 10.548" fill="none" stroke="#000" stroke-width="2px"/>
<path class="bond-5" d="m58.78 88.787 6.9937 7.3837" fill="none" stroke="#000" stroke-width="2px"/>
<path class="bond-6" d="m83.776 97.443 9.9097-1.2952" fill="none" stroke="#000" stroke-width="2px"/>
<path class="bond-7" d="m106.29 99.531 4.995 5.2737" fill="none" stroke="#000" stroke-width="2px"/>
<path class="bond-7" d="m111.28 104.8 4.996 5.274" fill="none" stroke="#cc0" stroke-width="2px"/>
<path class="bond-8" d="m104.48 90.578 3.984-7.3203" fill="none" stroke="#000" stroke-width="2px"/>
<path class="bond-8" d="m108.47 83.257 3.983-7.3203" fill="none" stroke="#00f" stroke-width="2px"/>
<path class="bond-8" d="m110.4 90.949 2.789-5.1242" fill="none" stroke="#000" stroke-width="2px"/>
<path class="bond-8" d="m113.19 85.825 2.788-5.1242" fill="none" stroke="#00f" stroke-width="2px"/>
<path class="bond-9" d="m128.59 110.72 3.39-1.613" fill="none" stroke="#cc0" stroke-width="2px"/>
<path class="bond-9" d="m131.98 109.1 3.39-1.613" fill="none" stroke="#000" stroke-width="2px"/>
<path class="bond-10" d="m123.25 73.018 4.841 0.9019" fill="none" stroke="#00f" stroke-width="2px"/>
<path class="bond-10" d="m128.09 73.92 4.841 0.9019" fill="none" stroke="#000" stroke-width="2px"/>
<path class="bond-11" d="m147.14 71.903 9.635-7.3785" fill="none" stroke="#000" stroke-width="2px"/>
<path class="bond-12" d="m141.88 80.857 2.311 17.681" fill="none" stroke="#000" stroke-width="2px"/>
<path class="bond-12" d="m136.9 84.205 1.618 12.377" fill="none" stroke="#000" stroke-width="2px"/>
<path class="bond-13" d="m155.56 107.49 3.247 1.349" fill="none" stroke="#000" stroke-width="2px"/>
<path class="bond-14" d="m175.43 108.84 4.817-3.69" fill="none" stroke="#000" stroke-width="2px"/>
<path class="bond-14" d="m180.25 105.15 4.817-3.689" fill="none" stroke="#00f" stroke-width="2px"/>
<path class="bond-15" d="m167.5 118.14 1.155 8.84" fill="none" stroke="#000" stroke-width="2px"/>
<path class="bond-15" d="m168.66 126.98 1.156 8.841" fill="none" stroke="#f00" stroke-width="2px"/>
<path class="bond-15" d="m172.83 117.45 1.155 8.841" fill="none" stroke="#000" stroke-width="2px"/>
<path class="bond-15" d="m173.99 126.29 1.156 8.841" fill="none" stroke="#f00" stroke-width="2px"/>
<path class="bond-16" d="m190.32 92.508-1.156-8.8406" fill="none" stroke="#00f" stroke-width="2px"/>
<path class="bond-16" d="m189.17 83.668-1.155-8.8406" fill="none" stroke="#000" stroke-width="2px"/>
<path class="bond-17" d="m176.65 65.873-3.248-1.3488" fill="none" stroke="#000" stroke-width="2px"/>
<path class="bond-17" d="m174.1 70.632-2.273-0.9442" fill="none" stroke="#000" stroke-width="2px"/>
<text x="24.3227" y="95.0521" fill="#0000FF" font-family="sans-serif" font-size="8px"><tspan>N:1</tspan></text>
<text x="27.8039" y="121.687" fill="#0000FF" font-family="sans-serif" font-size="8px"><tspan>N:2</tspan></text>
<text x="54.2111" y="126.607" fill="#000000" font-family="sans-serif" font-size="8px"><tspan>C:3</tspan></text>
<text x="48.5783" y="83.5106" fill="#000000" font-family="sans-serif" font-size="8px"><tspan>C:4</tspan></text>
<text x="67.0504" y="103.013" fill="#000000" font-family="sans-serif" font-size="8px"><tspan>C:5</tspan></text>
<text x="93.6854" y="99.5313" fill="#000000" font-family="sans-serif" font-size="8px"><tspan>C:6</tspan></text>
<text x="112.453" y="119.033" fill="#CCCC00" font-family="sans-serif" font-size="8px"><tspan>S:7</tspan></text>
<text x="106.525" y="75.9369" fill="#0000FF" font-family="sans-serif" font-size="8px"><tspan>N:8</tspan></text>
<text x="132.932" y="80.8567" fill="#000000" font-family="sans-serif" font-size="8px"><tspan>C:9</tspan></text>
<text x="133.425" y="107.492" fill="#000000" font-family="sans-serif" font-size="8px"><tspan>C:10</tspan></text>
<text x="158.232" y="117.794" fill="#000000" font-family="sans-serif" font-size="8px"><tspan>C:11</tspan></text>
<text x="175.678" y="101.462" fill="#0000FF" font-family="sans-serif" font-size="8px"><tspan>NH:12</tspan></text>
<text x="176.077" y="74.827" fill="#000000" font-family="sans-serif" font-size="8px"><tspan>C:13</tspan></text>
<text x="151.27" y="64.5244" fill="#000000" font-family="sans-serif" font-size="8px"><tspan>C:14</tspan></text>
<text x="161.412" y="144.429" fill="#FF0000" font-family="sans-serif" font-size="8px"><tspan>O:15</tspan></text>
<text x="70.3745" y="194" fill="#000000" font-family="sans-serif" font-size="12px"><tspan>comp585</tspan></text>
</svg>
