<?xml version="1.0" encoding="UTF-8"?>
<svg baseProfile="full" version="1.1" viewBox="0 0 800 200" xml:space="preserve" xmlns="http://www.w3.org/2000/svg">

 <!-- END OF HEADER -->
<rect width="800" height="200" fill="#fff"> </rect>
<path class="bond-0" d="m72.745 107.43-13.524-1.676" fill="none" stroke="#000" stroke-width="2px"/>
<path class="bond-0" d="m71.205 103.24-9.4666-1.173" fill="none" stroke="#000" stroke-width="2px"/>
<path class="bond-1" d="m72.745 107.43 9.4681-12.535" fill="none" stroke="#000" stroke-width="2px"/>
<path class="bond-2" d="m72.745 107.43 6.3374 14.977" fill="none" stroke="#000" stroke-width="2px"/>
<path class="bond-3" d="m83.312 88.276-4.9372-11.668" fill="none" stroke="#000" stroke-width="2px"/>
<path class="bond-3" d="m78.915 88.073-3.456-8.1675" fill="none" stroke="#000" stroke-width="2px"/>
<path class="bond-4" d="m90.895 92.351 7.3421 0.91" fill="none" stroke="#000" stroke-width="2px"/>
<path class="bond-5" d="m70.793 72.532-7.342-0.9099" fill="none" stroke="#000" stroke-width="2px"/>
<path class="bond-6" d="m54.958 67.547-3.3737-4.8297" fill="none" stroke="#000" stroke-width="2px"/>
<path class="bond-6" d="m51.584 62.717-3.3737-4.8298" fill="none" stroke="#00f" stroke-width="2px"/>
<path class="bond-6" d="m50.69 68.372-2.3615-3.3808" fill="none" stroke="#000" stroke-width="2px"/>
<path class="bond-6" d="m48.328 64.991-2.3616-3.3808" fill="none" stroke="#00f" stroke-width="2px"/>
<path class="bond-7" d="m54.77 74.166-3.4842 4.6129" fill="none" stroke="#000" stroke-width="2px"/>
<path class="bond-7" d="m51.286 78.779-3.4842 4.6128" fill="none" stroke="#00f" stroke-width="2px"/>
<path class="bond-8" d="m46.702 90.01 2.4686 5.8339" fill="none" stroke="#00f" stroke-width="2px"/>
<path class="bond-8" d="m49.17 95.844 2.4685 5.8339" fill="none" stroke="#000" stroke-width="2px"/>
<path class="bond-9" d="m39.12 84.564-3.2019-1.1066" fill="none" stroke="#00f" stroke-width="2px"/>
<path class="bond-9" d="m35.918 83.458-3.2018-1.1065" fill="none" stroke="#000" stroke-width="2px"/>
<path class="bond-10" d="m26.596 76.906 0.123-6.6171" fill="none" stroke="#000" stroke-width="2px"/>
<path class="bond-10" d="m26.719 70.288 0.123-6.617" fill="none" stroke="#00f" stroke-width="2px"/>
<path class="bond-10" d="m30.603 74.994 0.0861-4.632" fill="none" stroke="#000" stroke-width="2px"/>
<path class="bond-10" d="m30.689 70.362 0.0861-4.6319" fill="none" stroke="#00f" stroke-width="2px"/>
<path class="bond-11" d="m33.085 58.48 6.6318-2.0194" fill="none" stroke="#00f" stroke-width="2px"/>
<path class="bond-12" d="m106.92 90.718 3.484-4.6128" fill="none" stroke="#000" stroke-width="2px"/>
<path class="bond-12" d="m110.4 86.105 3.485-4.6129" fill="none" stroke="#f00" stroke-width="2px"/>
<path class="bond-13" d="m125 79.25 1.02 0.1263" fill="none" stroke="#f00" stroke-width="2px"/>
<path class="bond-13" d="m126.02 79.377 1.019 0.1263" fill="none" stroke="#000" stroke-width="2px"/>
<path class="bond-14" d="m145.15 81.747 2.261 0.2802" fill="none" stroke="#000" stroke-width="2px"/>
<path class="bond-15" d="m136.5 77.316 1.622-13.087" fill="none" stroke="#000" stroke-width="2px"/>
<path class="bond-16" d="m135.68 83.935-1.622 13.087" fill="none" stroke="#000" stroke-width="2px"/>
<path class="bond-17" d="m155.39 86.377-1.622 13.087" fill="none" stroke="#000" stroke-width="2px"/>
<path class="bond-18" d="m156.21 79.758 1.622-13.087" fill="none" stroke="#000" stroke-width="2px"/>
<path class="bond-19" d="m164.19 84.107 2.924 0.3624" fill="none" stroke="#000" stroke-width="2px"/>
<path class="bond-20" d="m80.073 129.03-1.6219 13.087" fill="none" stroke="#000" stroke-width="2px"/>
<path class="bond-21" d="m84.864 129.03 7.0817 5.349" fill="none" stroke="#000" stroke-width="2px"/>
<path class="bond-22" d="m88.506 140.99-2.6446 1.119" fill="none" stroke="#000" stroke-width="2px"/>
<text x="78.531" y="94.8946" fill="#000000" font-family="sans-serif" font-size="6px"><tspan>C:1</tspan></text>
<text x="70.7932" y="76.6079" fill="#000000" font-family="sans-serif" font-size="6px"><tspan>C:2</tspan></text>
<text x="51.0876" y="74.1657" fill="#000000" font-family="sans-serif" font-size="6px"><tspan>C:3</tspan></text>
<text x="39.1198" y="90.0102" fill="#0000FF" font-family="sans-serif" font-size="6px"><tspan>N:4</tspan></text>
<text x="46.8576" y="108.297" fill="#000000" font-family="sans-serif" font-size="6px"><tspan>C:5</tspan></text>
<text x="20.3525" y="83.5243" fill="#000000" font-family="sans-serif" font-size="6px"><tspan>C:6</tspan></text>
<text x="20.7216" y="63.6714" fill="#0000FF" font-family="sans-serif" font-size="6px"><tspan>N:7</tspan></text>
<text x="39.7169" y="57.8874" fill="#0000FF" font-family="sans-serif" font-size="6px"><tspan>N:8</tspan></text>
<text x="98.2367" y="97.3368" fill="#000000" font-family="sans-serif" font-size="6px"><tspan>C:9</tspan></text>
<text x="107.773" y="81.4923" fill="#FF0000" font-family="sans-serif" font-size="6px"><tspan>O:10</tspan></text>
<text x="127.038" y="83.9346" fill="#000000" font-family="sans-serif" font-size="6px"><tspan>Si:11</tspan></text>
<text x="147.407" y="86.3768" fill="#000000" font-family="sans-serif" font-size="6px"><tspan>C:12</tspan></text>
<text x="144.965" y="106.082" fill="#000000" font-family="sans-serif" font-size="6px"><tspan>C:13</tspan></text>
<text x="149.849" y="66.6711" fill="#000000" font-family="sans-serif" font-size="6px"><tspan>C:14</tspan></text>
<text x="167.112" y="88.819" fill="#000000" font-family="sans-serif" font-size="6px"><tspan>C:15</tspan></text>
<text x="130.143" y="64.2289" fill="#000000" font-family="sans-serif" font-size="6px"><tspan>C:16</tspan></text>
<text x="125.259" y="103.64" fill="#000000" font-family="sans-serif" font-size="6px"><tspan>C:17</tspan></text>
<text x="72.0921" y="129.026" fill="#000000" font-family="sans-serif" font-size="6px"><tspan>C:18</tspan></text>
<text x="87.9366" y="140.994" fill="#000000" font-family="sans-serif" font-size="6px"><tspan>C:19</tspan></text>
<text x="69.6499" y="148.731" fill="#000000" font-family="sans-serif" font-size="6px"><tspan>C:20</tspan></text>
<text x="70.3745" y="194" fill="#000000" font-family="sans-serif" font-size="12px"><tspan>comp143</tspan></text>
<path class="bond-0" d="m264.14 63.108 6.702 14.773" fill="none" stroke="#000" stroke-width="2px"/>
<path class="bond-1" d="m264.14 63.108-13.58-1.3313" fill="none" stroke="#000" stroke-width="2px"/>
<path class="bond-1" d="m261.71 66.861-9.506-0.9319" fill="none" stroke="#000" stroke-width="2px"/>
<path class="bond-2" d="m242 64.48-3.41 4.7633" fill="none" stroke="#000" stroke-width="2px"/>
<path class="bond-2" d="m238.6 69.244-3.41 4.7633" fill="none" stroke="#00f" stroke-width="2px"/>
<path class="bond-3" d="m226.63 78.01-2.58 0.2894" fill="none" stroke="#00f" stroke-width="2px"/>
<path class="bond-3" d="m224.05 78.299-2.58 0.2895" fill="none" stroke="#000" stroke-width="2px"/>
<path class="bond-4" d="m234.32 80.626 2.6 5.732" fill="none" stroke="#00f" stroke-width="2px"/>
<path class="bond-4" d="m236.92 86.358 2.601 5.732" fill="none" stroke="#000" stroke-width="2px"/>
<path class="bond-5" d="m247.2 96.005 7.398 0.7253" fill="none" stroke="#000" stroke-width="2px"/>
<path class="bond-6" d="m237.4 98.709-3.707 3.3854" fill="none" stroke="#000" stroke-width="2px"/>
<path class="bond-6" d="m233.69 102.09-3.708 3.385" fill="none" stroke="#00f" stroke-width="2px"/>
<path class="bond-6" d="m233.6 96.792-2.595 2.3697" fill="none" stroke="#000" stroke-width="2px"/>
<path class="bond-6" d="m231.01 99.161-2.595 2.3697" fill="none" stroke="#00f" stroke-width="2px"/>
<path class="bond-7" d="m263.15 94.027 6.82-9.5266" fill="none" stroke="#000" stroke-width="2px"/>
<path class="bond-7" d="m260.94 90.286 4.774-6.6687" fill="none" stroke="#000" stroke-width="2px"/>
<path class="bond-8" d="m262.28 100.65 5.2 11.464" fill="none" stroke="#000" stroke-width="2px"/>
<path class="bond-9" d="m278.52 81.797 3.699 0.3627" fill="none" stroke="#000" stroke-width="2px"/>
<path class="bond-9" d="m282.22 82.16 3.699 0.3626" fill="none" stroke="#00f" stroke-width="2px"/>
<path class="bond-10" d="m294.47 79.819 3.41-4.7633" fill="none" stroke="#00f" stroke-width="2px"/>
<path class="bond-10" d="m297.88 75.056 3.41-4.7633" fill="none" stroke="#000" stroke-width="2px"/>
<path class="bond-11" d="m293.6 86.438 2.6 5.732" fill="none" stroke="#00f" stroke-width="2px"/>
<path class="bond-11" d="m296.2 92.17 2.601 5.732" fill="none" stroke="#000" stroke-width="2px"/>
<path class="bond-12" d="m306.49 101.82 7.398 0.726" fill="none" stroke="#000" stroke-width="2px"/>
<path class="bond-13" d="m322.44 99.839 6.82-9.5266" fill="none" stroke="#000" stroke-width="2px"/>
<path class="bond-14" d="m330.12 83.694-5.201-11.464" fill="none" stroke="#000" stroke-width="2px"/>
<path class="bond-15" d="m337.81 87.609 5.189 0.5088" fill="none" stroke="#000" stroke-width="2px"/>
<path class="bond-16" d="m315.03 68.098-2.98-0.2922" fill="none" stroke="#000" stroke-width="2px"/>
<path class="bond-17" d="m353.76 85.631 6.82-9.5267" fill="none" stroke="#000" stroke-width="2px"/>
<path class="bond-18" d="m352.89 92.25 5.201 11.464" fill="none" stroke="#000" stroke-width="2px"/>
<path class="bond-18" d="m357.28 92.329 3.64 8.025" fill="none" stroke="#000" stroke-width="2px"/>
<path class="bond-19" d="m367.98 107.85 2.98 0.292" fill="none" stroke="#000" stroke-width="2px"/>
<path class="bond-20" d="m381.72 105.65 6.82-9.5262" fill="none" stroke="#000" stroke-width="2px"/>
<path class="bond-20" d="m379.51 101.91 4.774-6.6689" fill="none" stroke="#000" stroke-width="2px"/>
<path class="bond-21" d="m389.41 89.506-5.201-11.464" fill="none" stroke="#000" stroke-width="2px"/>
<path class="bond-22" d="m374.32 73.91-2.98-0.2922" fill="none" stroke="#000" stroke-width="2px"/>
<path class="bond-22" d="m373.48 77.818-2.086-0.2045" fill="none" stroke="#000" stroke-width="2px"/>
<path class="bond-23" d="m270.48 118.73 2.6 5.732" fill="none" stroke="#000" stroke-width="2px"/>
<path class="bond-23" d="m273.08 124.46 2.6 5.732" fill="none" stroke="#00f" stroke-width="2px"/>
<path class="bond-23" d="m267.65 122.09 2.211 4.872" fill="none" stroke="#000" stroke-width="2px"/>
<path class="bond-23" d="m269.86 126.96 2.21 4.872" fill="none" stroke="#00f" stroke-width="2px"/>
<path class="bond-23" d="m274.88 118.81 2.211 4.872" fill="none" stroke="#000" stroke-width="2px"/>
<path class="bond-23" d="m277.09 123.68 2.21 4.872" fill="none" stroke="#00f" stroke-width="2px"/>
<path class="bond-24" d="m220.53 105.48-5.613-3.189" fill="none" stroke="#00f" stroke-width="2px"/>
<path class="bond-25" d="m209.77 95.672 1.317-6.416" fill="none" stroke="#00f" stroke-width="2px"/>
<path class="bond-25" d="m211.09 89.256 1.317-6.416" fill="none" stroke="#000" stroke-width="2px"/>
<path class="bond-25" d="m214.06 94.545 0.922-4.4912" fill="none" stroke="#00f" stroke-width="2px"/>
<path class="bond-25" d="m214.98 90.054 0.922-4.4912" fill="none" stroke="#000" stroke-width="2px"/>
<text x="238.193" y="64.4804" fill="#000000" font-family="sans-serif" font-size="6px"><tspan>C:1</tspan></text>
<text x="226.634" y="80.6258" fill="#0000FF" font-family="sans-serif" font-size="6px"><tspan>N:2</tspan></text>
<text x="234.837" y="98.7086" fill="#000000" font-family="sans-serif" font-size="6px"><tspan>C:3</tspan></text>
<text x="254.599" y="100.646" fill="#000000" font-family="sans-serif" font-size="6px"><tspan>C:4</tspan></text>
<text x="266.157" y="84.5006" fill="#000000" font-family="sans-serif" font-size="6px"><tspan>C:5</tspan></text>
<text x="285.919" y="86.4379" fill="#0000FF" font-family="sans-serif" font-size="6px"><tspan>N:6</tspan></text>
<text x="294.122" y="104.521" fill="#000000" font-family="sans-serif" font-size="6px"><tspan>C:7</tspan></text>
<text x="313.884" y="106.458" fill="#000000" font-family="sans-serif" font-size="6px"><tspan>C:8</tspan></text>
<text x="325.442" y="90.3127" fill="#000000" font-family="sans-serif" font-size="6px"><tspan>C:9</tspan></text>
<text x="315.03" y="72.2299" fill="#000000" font-family="sans-serif" font-size="6px"><tspan>C:10</tspan></text>
<text x="295.269" y="70.2925" fill="#000000" font-family="sans-serif" font-size="6px"><tspan>C:11</tspan></text>
<text x="342.995" y="92.25" fill="#000000" font-family="sans-serif" font-size="6px"><tspan>C:12</tspan></text>
<text x="351.198" y="110.333" fill="#000000" font-family="sans-serif" font-size="6px"><tspan>C:13</tspan></text>
<text x="370.96" y="112.27" fill="#000000" font-family="sans-serif" font-size="6px"><tspan>C:14</tspan></text>
<text x="382.518" y="96.1248" fill="#000000" font-family="sans-serif" font-size="6px"><tspan>C:15</tspan></text>
<text x="374.315" y="78.042" fill="#000000" font-family="sans-serif" font-size="6px"><tspan>C:16</tspan></text>
<text x="354.554" y="76.1046" fill="#000000" font-family="sans-serif" font-size="6px"><tspan>C:17</tspan></text>
<text x="260.593" y="118.729" fill="#000000" font-family="sans-serif" font-size="6px"><tspan>C:18</tspan></text>
<text x="268.796" y="136.812" fill="#0000FF" font-family="sans-serif" font-size="6px"><tspan>N:19</tspan></text>
<text x="217.965" y="112.098" fill="#0000FF" font-family="sans-serif" font-size="6px"><tspan>N:20</tspan></text>
<text x="200.7" y="102.29" fill="#0000FF" font-family="sans-serif" font-size="6px"><tspan>N:21</tspan></text>
<text x="204.693" y="82.8395" fill="#000000" font-family="sans-serif" font-size="6px"><tspan>C:22</tspan></text>
<text x="270.375" y="194" fill="#000000" font-family="sans-serif" font-size="12px"><tspan>comp150</tspan></text>
</svg>
