<?xml version="1.0" encoding="UTF-8"?>
<svg baseProfile="full" version="1.1" viewBox="0 0 800 200" xml:space="preserve" xmlns="http://www.w3.org/2000/svg">

 <!-- END OF HEADER -->
<rect width="800" height="200" fill="#fff"> </rect>
<path class="bond-0" d="m68.085 90.062-1.4854 27.518" fill="none" stroke="#000" stroke-width="2px"/>
<path class="bond-1" d="m68.085 90.062-19.254-12.546" fill="none" stroke="#000" stroke-width="2px"/>
<path class="bond-1" d="m61.585 93.723-13.478-8.7825" fill="none" stroke="#000" stroke-width="2px"/>
<path class="bond-2" d="m68.085 90.062 9.5994-4.8722" fill="none" stroke="#000" stroke-width="2px"/>
<path class="bond-2" d="m77.684 85.19 9.5994-4.8722" fill="none" stroke="#00f" stroke-width="2px"/>
<path class="bond-3" d="m30.073 77.23-8.9005 4.5175" fill="none" stroke="#000" stroke-width="2px"/>
<path class="bond-4" d="m10.576 92.487-1.1878 22.005" fill="none" stroke="#000" stroke-width="2px"/>
<path class="bond-4" d="m17.004 96.144-0.8314 15.404" fill="none" stroke="#000" stroke-width="2px"/>
<path class="bond-5" d="m17.551 125.52 10.793 7.033" fill="none" stroke="#000" stroke-width="2px"/>
<path class="bond-6" d="m47.103 132.84 8.9004-4.517" fill="none" stroke="#000" stroke-width="2px"/>
<path class="bond-6" d="m45.444 126.26 6.2303-3.162" fill="none" stroke="#000" stroke-width="2px"/>
<path class="bond-7" d="m74.763 128.61 5.3966 3.517" fill="none" stroke="#000" stroke-width="2px"/>
<path class="bond-7" d="m80.159 132.12 5.3966 3.516" fill="none" stroke="#3cc" stroke-width="2px"/>
<path class="bond-8" d="m107.88 80.358 4.186 2.1415" fill="none" stroke="#00f" stroke-width="2px"/>
<path class="bond-8" d="m112.07 82.5 4.187 2.1415" fill="none" stroke="#000" stroke-width="2px"/>
<path class="bond-9" d="m98.464 69.578 3.4618-21.637" fill="none" stroke="#00f" stroke-width="2px"/>
<path class="bond-10" d="m113.11 40.813 12.084-1.8944" fill="none" stroke="#00f" stroke-width="2px"/>
<path class="bond-10" d="m115.94 47.064 8.458-1.3261" fill="none" stroke="#00f" stroke-width="2px"/>
<path class="bond-11" d="m138.29 42.817 4.688 9.2353" fill="none" stroke="#00f" stroke-width="2px"/>
<path class="bond-11" d="m142.97 52.052 4.687 9.2354" fill="none" stroke="#000" stroke-width="2px"/>
<path class="bond-12" d="m164.44 70.57 3.983 1.0737" fill="none" stroke="#000" stroke-width="2px"/>
<path class="bond-13" d="m144.93 72.314-12.366 12.327" fill="none" stroke="#000" stroke-width="2px"/>
<path class="bond-13" d="m138.4 69.478-8.656 8.6291" fill="none" stroke="#000" stroke-width="2px"/>
<path class="bond-14" d="m128.5 95.668 2.788 10.469" fill="none" stroke="#000" stroke-width="2px"/>
<path class="bond-14" d="m131.29 106.14 2.788 10.469" fill="none" stroke="#00f" stroke-width="2px"/>
<path class="bond-15" d="m154.3 127.18-0.398-0.107" fill="none" stroke="#00f" stroke-width="2px"/>
<path class="bond-15" d="m153.9 127.07-0.398-0.108" fill="none" stroke="#000" stroke-width="2px"/>
<path class="bond-16" d="m165.75 137.1 2.787 10.47" fill="none" stroke="#000" stroke-width="2px"/>
<path class="bond-16" d="m168.54 147.56 2.788 10.469" fill="none" stroke="#f00" stroke-width="2px"/>
<path class="bond-16" d="m172.15 135.39 2.787 10.47" fill="none" stroke="#000" stroke-width="2px"/>
<path class="bond-16" d="m174.93 145.86 2.788 10.469" fill="none" stroke="#f00" stroke-width="2px"/>
<path class="bond-17" d="m173.01 125.22 12.366-12.327" fill="none" stroke="#000" stroke-width="2px"/>
<path class="bond-18" d="m189.44 101.86-5.575-20.939" fill="none" stroke="#000" stroke-width="2px"/>
<path class="bond-18" d="m182.21 100.43-3.903-14.658" fill="none" stroke="#000" stroke-width="2px"/>
<text x="30.0727" y="77.5157" fill="#000000" font-family="sans-serif" font-size="11px"><tspan>C:1</tspan></text>
<text x="0.575557" y="92.4871" fill="#000000" font-family="sans-serif" font-size="11px"><tspan>C:2</tspan></text>
<text x="-1.2074" y="125.518" fill="#000000" font-family="sans-serif" font-size="11px"><tspan>C:3</tspan></text>
<text x="26.5067" y="143.578" fill="#000000" font-family="sans-serif" font-size="11px"><tspan>C:4</tspan></text>
<text x="56.0038" y="128.606" fill="#000000" font-family="sans-serif" font-size="11px"><tspan>C:5</tspan></text>
<text x="84.4526" y="146.666" fill="#33CCCC" font-family="sans-serif" font-size="11px"><tspan>F:6</tspan></text>
<text x="87.2839" y="80.6039" fill="#0000FF" font-family="sans-serif" font-size="11px"><tspan>N:7</tspan></text>
<text x="92.5097" y="47.9403" fill="#0000FF" font-family="sans-serif" font-size="11px"><tspan>N:8</tspan></text>
<text x="125.19" y="42.8168" fill="#0000FF" font-family="sans-serif" font-size="11px"><tspan>N:9</tspan></text>
<text x="136.481" y="72.3139" fill="#000000" font-family="sans-serif" font-size="11px"><tspan>C:10</tspan></text>
<text x="113.054" y="95.6676" fill="#000000" font-family="sans-serif" font-size="11px"><tspan>C:11</tspan></text>
<text x="116.787" y="127.633" fill="#0000FF" font-family="sans-serif" font-size="11px"><tspan>NH:12</tspan></text>
<text x="153.504" y="136.244" fill="#000000" font-family="sans-serif" font-size="11px"><tspan>C:13</tspan></text>
<text x="161.645" y="168.21" fill="#FF0000" font-family="sans-serif" font-size="11px"><tspan>O:14</tspan></text>
<text x="176.931" y="112.891" fill="#000000" font-family="sans-serif" font-size="11px"><tspan>C:15</tspan></text>
<text x="168.42" y="80.9254" fill="#000000" font-family="sans-serif" font-size="11px"><tspan>C:16</tspan></text>
<text x="70.3745" y="194" fill="#000000" font-family="sans-serif" font-size="12px"><tspan>comp267</tspan></text>
</svg>
