<?xml version="1.0" encoding="UTF-8"?>
<svg baseProfile="full" version="1.1" viewBox="0 0 800 400" xml:space="preserve" xmlns="http://www.w3.org/2000/svg">

 <!-- END OF HEADER -->
<rect width="800" height="400" fill="#fff"> </rect>
<path class="bond-0" d="m12.571 92.732 4.5489-4.9808" fill="none" stroke="#00f" stroke-width="2px"/>
<path class="bond-0" d="m17.12 87.751 4.5489-4.9809" fill="none" stroke="#000" stroke-width="2px"/>
<path class="bond-0" d="m17.492 94.486 3.1842-3.4866" fill="none" stroke="#00f" stroke-width="2px"/>
<path class="bond-0" d="m20.677 91 3.1843-3.4866" fill="none" stroke="#000" stroke-width="2px"/>
<path class="bond-1" d="m10.364 100.56 2.3676 7.466" fill="none" stroke="#00f" stroke-width="2px"/>
<path class="bond-1" d="m12.732 108.02 2.3676 7.466" fill="none" stroke="#000" stroke-width="2px"/>
<path class="bond-2" d="m23.872 121.15 8.5272 1.876" fill="none" stroke="#000" stroke-width="2px"/>
<path class="bond-2" d="m26.186 116.73 5.969 1.313" fill="none" stroke="#000" stroke-width="2px"/>
<path class="bond-3" d="m43.564 120.66 8.911-9.757" fill="none" stroke="#000" stroke-width="2px"/>
<path class="bond-4" d="m63.641 106.94 9.0889 0.064" fill="none" stroke="#000" stroke-width="2px"/>
<path class="bond-5" d="m54.869 102.88-4.7352-14.932" fill="none" stroke="#000" stroke-width="2px"/>
<path class="bond-5" d="m49.566 102.09-3.3147-10.452" fill="none" stroke="#000" stroke-width="2px"/>
<path class="bond-6" d="m41.361 82.28-8.5272-1.8755" fill="none" stroke="#000" stroke-width="2px"/>
<path class="bond-7" d="m54.469 79.915 4.1849-2.9955" fill="none" stroke="#000" stroke-width="2px"/>
<path class="bond-7" d="m58.654 76.92 4.185-2.9956" fill="none" stroke="#f00" stroke-width="2px"/>
<path class="bond-8" d="m24.062 74.741-2.304-7.2651" fill="none" stroke="#000" stroke-width="2px"/>
<path class="bond-8" d="m21.758 67.476-2.3039-7.265" fill="none" stroke="#00f" stroke-width="2px"/>
<path class="bond-9" d="m73.892 73.924 4.2491 3.1332" fill="none" stroke="#f00" stroke-width="2px"/>
<path class="bond-9" d="m78.141 77.057 4.2491 3.1333" fill="none" stroke="#000" stroke-width="2px"/>
<path class="bond-10" d="m86.498 88.22-4.9335 14.826" fill="none" stroke="#000" stroke-width="2px"/>
<path class="bond-10" d="m81.187 88.923-3.4534 10.378" fill="none" stroke="#000" stroke-width="2px"/>
<path class="bond-11" d="m95.333 81.827 5.2827-1.6753" fill="none" stroke="#000" stroke-width="2px"/>
<path class="bond-12" d="m115.19 80.938 8.995 8.2147" fill="none" stroke="#000" stroke-width="2px"/>
<path class="bond-13" d="m111.68 72.909 3.408-15.496" fill="none" stroke="#000" stroke-width="2px"/>
<path class="bond-13" d="m116.89 71.62 2.386-10.847" fill="none" stroke="#000" stroke-width="2px"/>
<path class="bond-14" d="m126.15 50.17 2.604-0.8256" fill="none" stroke="#000" stroke-width="2px"/>
<path class="bond-15" d="m143.33 50.131 8.995 8.2147" fill="none" stroke="#000" stroke-width="2px"/>
<path class="bond-15" d="m141.43 54.921 6.296 5.7502" fill="none" stroke="#000" stroke-width="2px"/>
<path class="bond-16" d="m155.83 66.375-3.409 15.496" fill="none" stroke="#000" stroke-width="2px"/>
<path class="bond-17" d="m155.94 89.901 8.995 8.2147" fill="none" stroke="#000" stroke-width="2px"/>
<path class="bond-18" d="m141.36 89.114-2.603 0.8256" fill="none" stroke="#000" stroke-width="2px"/>
<path class="bond-18" d="m139.52 84.646-1.823 0.578" fill="none" stroke="#000" stroke-width="2px"/>
<path class="bond-19" d="m127.7 97.182-3.408 15.496" fill="none" stroke="#000" stroke-width="2px"/>
<path class="bond-20" d="m127.8 120.71 4.497 4.107" fill="none" stroke="#000" stroke-width="2px"/>
<path class="bond-20" d="m132.3 124.82 4.497 4.107" fill="none" stroke="#00f" stroke-width="2px"/>
<path class="bond-20" d="m132.4 118.38 3.148 2.875" fill="none" stroke="#000" stroke-width="2px"/>
<path class="bond-20" d="m135.55 121.26 3.148 2.875" fill="none" stroke="#00f" stroke-width="2px"/>
<path class="bond-21" d="m151.37 129.71 2.603-0.826" fill="none" stroke="#00f" stroke-width="2px"/>
<path class="bond-22" d="m165.04 121.64 1.704-7.748" fill="none" stroke="#00f" stroke-width="2px"/>
<path class="bond-22" d="m166.74 113.89 1.705-7.748" fill="none" stroke="#000" stroke-width="2px"/>
<path class="bond-22" d="m160.84 118.28 1.193-5.424" fill="none" stroke="#00f" stroke-width="2px"/>
<path class="bond-22" d="m162.04 112.86 1.193-5.424" fill="none" stroke="#000" stroke-width="2px"/>
<text x="5.61124" y="100.556" fill="#0000FF" font-family="sans-serif" font-size="8px"><tspan>N</tspan></text>
<text x="8.8733" y="123.517" fill="#000000" font-family="sans-serif" font-size="8px"><tspan>C:1</tspan></text>
<text x="32.3987" y="128.692" fill="#000000" font-family="sans-serif" font-size="8px"><tspan>C:2</tspan></text>
<text x="48.6427" y="110.905" fill="#000000" font-family="sans-serif" font-size="8px"><tspan>C:3</tspan></text>
<text x="41.3612" y="87.9445" fill="#000000" font-family="sans-serif" font-size="8px"><tspan>C:4</tspan></text>
<text x="17.8357" y="82.77" fill="#000000" font-family="sans-serif" font-size="8px"><tspan>C:5</tspan></text>
<text x="5.73473" y="60.2107" fill="#0000FF" font-family="sans-serif" font-size="8px"><tspan>NH</tspan><tspan baseline-shift="sub" font-size="6px">2</tspan><tspan>:6</tspan></text>
<text x="60.6782" y="73.9241" fill="#FF0000" font-family="sans-serif" font-size="8px"><tspan>O:7</tspan></text>
<text x="80.335" y="88.2198" fill="#000000" font-family="sans-serif" font-size="8px"><tspan>C:8</tspan></text>
<text x="72.7298" y="111.076" fill="#000000" font-family="sans-serif" font-size="8px"><tspan>C:9</tspan></text>
<text x="100.616" y="80.9383" fill="#000000" font-family="sans-serif" font-size="8px"><tspan>C:10</tspan></text>
<text x="105.791" y="57.4129" fill="#000000" font-family="sans-serif" font-size="8px"><tspan>C:11</tspan></text>
<text x="128.752" y="50.1314" fill="#000000" font-family="sans-serif" font-size="8px"><tspan>C:12</tspan></text>
<text x="146.538" y="66.3753" fill="#000000" font-family="sans-serif" font-size="8px"><tspan>C:13</tspan></text>
<text x="141.363" y="89.9007" fill="#000000" font-family="sans-serif" font-size="8px"><tspan>C:14</tspan></text>
<text x="118.403" y="97.1823" fill="#000000" font-family="sans-serif" font-size="8px"><tspan>C:15</tspan></text>
<text x="113.228" y="120.708" fill="#000000" font-family="sans-serif" font-size="8px"><tspan>C:16</tspan></text>
<text x="131.015" y="136.952" fill="#0000FF" font-family="sans-serif" font-size="8px"><tspan>N:17</tspan></text>
<text x="153.975" y="129.67" fill="#0000FF" font-family="sans-serif" font-size="8px"><tspan>N:18</tspan></text>
<text x="159.15" y="106.145" fill="#000000" font-family="sans-serif" font-size="8px"><tspan>C:19</tspan></text>
<text x="70.3745" y="194" fill="#000000" font-family="sans-serif" font-size="12px"><tspan>comp268</tspan></text>
<path class="bond-0" d="m371.31 89.398-4.583 4.9515" fill="none" stroke="#00f" stroke-width="2px"/>
<path class="bond-0" d="m366.73 94.35-4.584 4.9516" fill="none" stroke="#000" stroke-width="2px"/>
<path class="bond-0" d="m366.4 87.611-3.208 3.4661" fill="none" stroke="#00f" stroke-width="2px"/>
<path class="bond-0" d="m363.19 91.077-3.209 3.4661" fill="none" stroke="#000" stroke-width="2px"/>
<path class="bond-1" d="m373.55 81.625-2.32-7.49" fill="none" stroke="#00f" stroke-width="2px"/>
<path class="bond-1" d="m371.23 74.135-2.32-7.49" fill="none" stroke="#000" stroke-width="2px"/>
<path class="bond-2" d="m360.16 60.928-8.492-1.9278" fill="none" stroke="#000" stroke-width="2px"/>
<path class="bond-2" d="m357.82 65.337-5.945-1.3494" fill="none" stroke="#000" stroke-width="2px"/>
<path class="bond-3" d="m340.46 61.312-8.931 9.6475" fill="none" stroke="#000" stroke-width="2px"/>
<path class="bond-4" d="m320.31 74.871-9.087-0.1253" fill="none" stroke="#000" stroke-width="2px"/>
<path class="bond-5" d="m329.05 78.989 4.64 14.98" fill="none" stroke="#000" stroke-width="2px"/>
<path class="bond-5" d="m334.35 79.811 3.248 10.486" fill="none" stroke="#000" stroke-width="2px"/>
<path class="bond-6" d="m342.44 99.686 8.492 1.9279" fill="none" stroke="#000" stroke-width="2px"/>
<path class="bond-7" d="m329.25 102-4.152 2.93" fill="none" stroke="#000" stroke-width="2px"/>
<path class="bond-7" d="m325.1 104.93-4.151 2.929" fill="none" stroke="#f00" stroke-width="2px"/>
<path class="bond-8" d="m359.67 107.33 2.258 7.289" fill="none" stroke="#000" stroke-width="2px"/>
<path class="bond-8" d="m361.93 114.62 2.258 7.289" fill="none" stroke="#00f" stroke-width="2px"/>
<path class="bond-9" d="m309.89 107.86-4.277-3.198" fill="none" stroke="#f00" stroke-width="2px"/>
<path class="bond-9" d="m305.61 104.66-4.277-3.198" fill="none" stroke="#000" stroke-width="2px"/>
<path class="bond-10" d="m297.33 93.432 5.027-14.775" fill="none" stroke="#000" stroke-width="2px"/>
<path class="bond-10" d="m302.64 92.767 3.519-10.342" fill="none" stroke="#000" stroke-width="2px"/>
<path class="bond-11" d="m288.47 99.769-5.332 1.6509" fill="none" stroke="#000" stroke-width="2px"/>
<path class="bond-12" d="m267.59 100.56-4.277-3.1986" fill="none" stroke="#000" stroke-width="2px"/>
<path class="bond-12" d="m263.31 97.36-4.276-3.1983" fill="none" stroke="#00f" stroke-width="2px"/>
<path class="bond-13" d="m271.59 108.59-5.027 14.775" fill="none" stroke="#000" stroke-width="2px"/>
<path class="bond-13" d="m266.28 109.25-3.519 10.343" fill="none" stroke="#000" stroke-width="2px"/>
<path class="bond-14" d="m255.02 127.24-1.864-0.026" fill="none" stroke="#000" stroke-width="2px"/>
<path class="bond-14" d="m253.15 127.21-1.864-0.025" fill="none" stroke="#00f" stroke-width="2px"/>
<path class="bond-15" d="m239.87 123.03-2.32-7.49" fill="none" stroke="#00f" stroke-width="2px"/>
<path class="bond-15" d="m237.55 115.54-2.32-7.49" fill="none" stroke="#000" stroke-width="2px"/>
<path class="bond-15" d="m243.77 119.36-1.624-5.243" fill="none" stroke="#00f" stroke-width="2px"/>
<path class="bond-15" d="m242.15 114.12-1.624-5.243" fill="none" stroke="#000" stroke-width="2px"/>
<path class="bond-16" d="m225.29 100.02-4.483-2.0703" fill="none" stroke="#000" stroke-width="2px"/>
<path class="bond-17" d="m239.67 100.02 4.152-2.9293" fill="none" stroke="#000" stroke-width="2px"/>
<path class="bond-17" d="m243.82 97.092 4.151-2.9296" fill="none" stroke="#00f" stroke-width="2px"/>
<path class="bond-18" d="m253.3 86.133-0.728-7.9795" fill="none" stroke="#00f" stroke-width="2px"/>
<path class="bond-18" d="m252.57 78.153-0.727-7.9795" fill="none" stroke="#000" stroke-width="2px"/>
<path class="bond-19" d="m242.78 62.145-4.483-2.0706" fill="none" stroke="#000" stroke-width="2px"/>
<path class="bond-19" d="m240.09 66.208-3.138-1.4494" fill="none" stroke="#000" stroke-width="2px"/>
<path class="bond-20" d="m223.92 60.074-4.152 2.9296" fill="none" stroke="#000" stroke-width="2px"/>
<path class="bond-20" d="m219.77 63.004-4.151 2.9296" fill="none" stroke="#00f" stroke-width="2px"/>
<path class="bond-21" d="m210.3 73.962 0.728 7.9795" fill="none" stroke="#00f" stroke-width="2px"/>
<path class="bond-21" d="m211.02 81.942 0.727 7.9795" fill="none" stroke="#000" stroke-width="2px"/>
<path class="bond-21" d="m215.31 75.919 0.509 5.5856" fill="none" stroke="#00f" stroke-width="2px"/>
<path class="bond-21" d="m215.82 81.504 0.51 5.5857" fill="none" stroke="#000" stroke-width="2px"/>
<text x="371.309" y="89.6541" fill="#0000FF" font-family="sans-serif" font-size="8px"><tspan>N</tspan></text>
<text x="360.163" y="66.6448" fill="#000000" font-family="sans-serif" font-size="8px"><tspan>C:1</tspan></text>
<text x="336.673" y="61.3123" fill="#000000" font-family="sans-serif" font-size="8px"><tspan>C:2</tspan></text>
<text x="320.31" y="78.9891" fill="#000000" font-family="sans-serif" font-size="8px"><tspan>C:3</tspan></text>
<text x="327.437" y="101.998" fill="#000000" font-family="sans-serif" font-size="8px"><tspan>C:4</tspan></text>
<text x="350.927" y="107.331" fill="#000000" font-family="sans-serif" font-size="8px"><tspan>C:5</tspan></text>
<text x="353.234" y="130.742" fill="#0000FF" font-family="sans-serif" font-size="8px"><tspan>NH</tspan><tspan baseline-shift="sub" font-size="6px">2</tspan><tspan>:6</tspan></text>
<text x="307.486" y="115.887" fill="#FF0000" font-family="sans-serif" font-size="8px"><tspan>O:7</tspan></text>
<text x="288.466" y="101.461" fill="#000000" font-family="sans-serif" font-size="8px"><tspan>C:8</tspan></text>
<text x="296.224" y="78.6569" fill="#000000" font-family="sans-serif" font-size="8px"><tspan>C:9</tspan></text>
<text x="262.777" y="108.588" fill="#000000" font-family="sans-serif" font-size="8px"><tspan>C:10</tspan></text>
<text x="255.018" y="131.392" fill="#000000" font-family="sans-serif" font-size="8px"><tspan>C:11</tspan></text>
<text x="230.933" y="131.06" fill="#0000FF" font-family="sans-serif" font-size="8px"><tspan>N:12</tspan></text>
<text x="223.806" y="108.051" fill="#000000" font-family="sans-serif" font-size="8px"><tspan>C:13</tspan></text>
<text x="243.486" y="94.1621" fill="#0000FF" font-family="sans-serif" font-size="8px"><tspan>N:14</tspan></text>
<text x="241.299" y="70.1739" fill="#000000" font-family="sans-serif" font-size="8px"><tspan>C:15</tspan></text>
<text x="219.431" y="60.074" fill="#000000" font-family="sans-serif" font-size="8px"><tspan>C:16</tspan></text>
<text x="199.75" y="73.9624" fill="#0000FF" font-family="sans-serif" font-size="8px"><tspan>N:17</tspan></text>
<text x="201.937" y="97.9507" fill="#000000" font-family="sans-serif" font-size="8px"><tspan>C:18</tspan></text>
<text x="270.375" y="194" fill="#000000" font-family="sans-serif" font-size="12px"><tspan>comp269</tspan></text>
<path class="bond-0" d="m525.09 91.858-4.678 4.8644" fill="none" stroke="#00f" stroke-width="2px"/>
<path class="bond-0" d="m520.41 96.723-4.679 4.8644" fill="none" stroke="#000" stroke-width="2px"/>
<path class="bond-0" d="m520.21 89.978-3.275 3.405" fill="none" stroke="#00f" stroke-width="2px"/>
<path class="bond-0" d="m516.94 93.383-3.274 3.4051" fill="none" stroke="#000" stroke-width="2px"/>
<path class="bond-1" d="m527.41 84.226-2.184-7.5559" fill="none" stroke="#00f" stroke-width="2px"/>
<path class="bond-1" d="m525.22 76.67-2.183-7.5559" fill="none" stroke="#000" stroke-width="2px"/>
<path class="bond-2" d="m514.38 63.246-8.386-2.0727" fill="none" stroke="#000" stroke-width="2px"/>
<path class="bond-2" d="m511.97 67.612-5.87-1.4508" fill="none" stroke="#000" stroke-width="2px"/>
<path class="bond-3" d="m494.63 63.334-8.975 9.3321" fill="none" stroke="#000" stroke-width="2px"/>
<path class="bond-4" d="m474.3 76.434-9.076-0.2984" fill="none" stroke="#000" stroke-width="2px"/>
<path class="bond-5" d="m482.96 80.695 4.366 15.112" fill="none" stroke="#000" stroke-width="2px"/>
<path class="bond-5" d="m488.24 81.625 3.056 10.578" fill="none" stroke="#000" stroke-width="2px"/>
<path class="bond-6" d="m495.98 101.68 8.386 2.073" fill="none" stroke="#000" stroke-width="2px"/>
<path class="bond-7" d="m482.56 103.84-4.045 2.741" fill="none" stroke="#000" stroke-width="2px"/>
<path class="bond-7" d="m478.51 106.58-4.045 2.741" fill="none" stroke="#f00" stroke-width="2px"/>
<path class="bond-8" d="m513.03 109.62 2.126 7.355" fill="none" stroke="#000" stroke-width="2px"/>
<path class="bond-8" d="m515.15 116.97 2.125 7.356" fill="none" stroke="#00f" stroke-width="2px"/>
<path class="bond-9" d="m463.38 109.32-4.346-3.381" fill="none" stroke="#f00" stroke-width="2px"/>
<path class="bond-9" d="m459.04 105.94-4.345-3.381" fill="none" stroke="#000" stroke-width="2px"/>
<path class="bond-10" d="m450.98 94.526 5.289-14.623" fill="none" stroke="#000" stroke-width="2px"/>
<path class="bond-10" d="m456.31 93.972 3.702-10.236" fill="none" stroke="#000" stroke-width="2px"/>
<text x="525.086" y="92.2549" fill="#0000FF" font-family="sans-serif" font-size="8px"><tspan>N</tspan></text>
<text x="514.38" y="69.1138" fill="#000000" font-family="sans-serif" font-size="8px"><tspan>C:1</tspan></text>
<text x="490.996" y="63.3341" fill="#000000" font-family="sans-serif" font-size="8px"><tspan>C:2</tspan></text>
<text x="474.298" y="80.6954" fill="#000000" font-family="sans-serif" font-size="8px"><tspan>C:3</tspan></text>
<text x="480.985" y="103.836" fill="#000000" font-family="sans-serif" font-size="8px"><tspan>C:4</tspan></text>
<text x="504.369" y="109.616" fill="#000000" font-family="sans-serif" font-size="8px"><tspan>C:5</tspan></text>
<text x="506.236" y="133.159" fill="#0000FF" font-family="sans-serif" font-size="8px"><tspan>NH</tspan><tspan baseline-shift="sub" font-size="6px">2</tspan><tspan>:6</tspan></text>
<text x="460.773" y="117.347" fill="#FF0000" font-family="sans-serif" font-size="8px"><tspan>O:7</tspan></text>
<text x="442.031" y="102.556" fill="#000000" font-family="sans-serif" font-size="8px"><tspan>C:8</tspan></text>
<text x="450.224" y="79.9038" fill="#000000" font-family="sans-serif" font-size="8px"><tspan>C:9</tspan></text>
<text x="470.375" y="194" fill="#000000" font-family="sans-serif" font-size="12px"><tspan>comp270</tspan></text>
<path class="bond-0" d="m771.31 89.398-4.583 4.9515" fill="none" stroke="#00f" stroke-width="2px"/>
<path class="bond-0" d="m766.73 94.35-4.584 4.9516" fill="none" stroke="#000" stroke-width="2px"/>
<path class="bond-0" d="m766.4 87.611-3.208 3.4661" fill="none" stroke="#00f" stroke-width="2px"/>
<path class="bond-0" d="m763.19 91.077-3.209 3.4661" fill="none" stroke="#000" stroke-width="2px"/>
<path class="bond-1" d="m773.55 81.625-2.32-7.49" fill="none" stroke="#00f" stroke-width="2px"/>
<path class="bond-1" d="m771.23 74.135-2.32-7.49" fill="none" stroke="#000" stroke-width="2px"/>
<path class="bond-2" d="m760.16 60.928-8.492-1.9278" fill="none" stroke="#000" stroke-width="2px"/>
<path class="bond-2" d="m757.82 65.337-5.945-1.3494" fill="none" stroke="#000" stroke-width="2px"/>
<path class="bond-3" d="m740.46 61.312-8.931 9.6475" fill="none" stroke="#000" stroke-width="2px"/>
<path class="bond-4" d="m720.31 74.871-9.087-0.1253" fill="none" stroke="#000" stroke-width="2px"/>
<path class="bond-5" d="m729.05 78.989 4.64 14.98" fill="none" stroke="#000" stroke-width="2px"/>
<path class="bond-5" d="m734.35 79.811 3.248 10.486" fill="none" stroke="#000" stroke-width="2px"/>
<path class="bond-6" d="m742.44 99.686 8.492 1.9279" fill="none" stroke="#000" stroke-width="2px"/>
<path class="bond-7" d="m729.25 102-4.152 2.93" fill="none" stroke="#000" stroke-width="2px"/>
<path class="bond-7" d="m725.1 104.93-4.151 2.929" fill="none" stroke="#f00" stroke-width="2px"/>
<path class="bond-8" d="m759.67 107.33 2.258 7.289" fill="none" stroke="#000" stroke-width="2px"/>
<path class="bond-8" d="m761.93 114.62 2.258 7.289" fill="none" stroke="#00f" stroke-width="2px"/>
<path class="bond-9" d="m709.89 107.86-4.277-3.198" fill="none" stroke="#f00" stroke-width="2px"/>
<path class="bond-9" d="m705.61 104.66-4.277-3.198" fill="none" stroke="#000" stroke-width="2px"/>
<path class="bond-10" d="m697.33 93.432 5.027-14.775" fill="none" stroke="#000" stroke-width="2px"/>
<path class="bond-10" d="m702.64 92.767 3.519-10.342" fill="none" stroke="#000" stroke-width="2px"/>
<path class="bond-11" d="m688.47 99.769-5.332 1.6509" fill="none" stroke="#000" stroke-width="2px"/>
<path class="bond-12" d="m667.59 100.56-8.553-6.3969" fill="none" stroke="#000" stroke-width="2px"/>
<path class="bond-13" d="m671.59 108.59-5.027 14.775" fill="none" stroke="#000" stroke-width="2px"/>
<path class="bond-13" d="m666.28 109.25-3.519 10.343" fill="none" stroke="#000" stroke-width="2px"/>
<path class="bond-14" d="m655.02 127.24-1.997-0.028" fill="none" stroke="#000" stroke-width="2px"/>
<path class="bond-14" d="m653.02 127.21-1.996-0.027" fill="none" stroke="#cc0" stroke-width="2px"/>
<path class="bond-15" d="m639.87 123.03-2.32-7.49" fill="none" stroke="#cc0" stroke-width="2px"/>
<path class="bond-15" d="m637.55 115.54-2.32-7.49" fill="none" stroke="#000" stroke-width="2px"/>
<path class="bond-16" d="m625.29 100.02-4.483-2.0703" fill="none" stroke="#000" stroke-width="2px"/>
<path class="bond-17" d="m639.67 100.02 8.303-5.8589" fill="none" stroke="#000" stroke-width="2px"/>
<path class="bond-17" d="m643.7 103.08 5.812-4.1018" fill="none" stroke="#000" stroke-width="2px"/>
<path class="bond-18" d="m653.3 86.133-1.455-15.959" fill="none" stroke="#000" stroke-width="2px"/>
<path class="bond-19" d="m642.78 62.145-2.241-1.0353" fill="none" stroke="#000" stroke-width="2px"/>
<path class="bond-19" d="m640.54 61.109-2.242-1.0353" fill="none" stroke="#00f" stroke-width="2px"/>
<path class="bond-19" d="m640.09 66.208-1.569-0.7247" fill="none" stroke="#000" stroke-width="2px"/>
<path class="bond-19" d="m638.52 65.483-1.569-0.7247" fill="none" stroke="#00f" stroke-width="2px"/>
<path class="bond-20" d="m623.92 60.074-8.303 5.8592" fill="none" stroke="#00f" stroke-width="2px"/>
<path class="bond-21" d="m610.3 73.962 0.728 7.9795" fill="none" stroke="#00f" stroke-width="2px"/>
<path class="bond-21" d="m611.02 81.942 0.727 7.9795" fill="none" stroke="#000" stroke-width="2px"/>
<path class="bond-21" d="m615.31 75.919 0.509 5.5856" fill="none" stroke="#00f" stroke-width="2px"/>
<path class="bond-21" d="m615.82 81.504 0.51 5.5857" fill="none" stroke="#000" stroke-width="2px"/>
<text x="771.309" y="89.6541" fill="#0000FF" font-family="sans-serif" font-size="8px"><tspan>N</tspan></text>
<text x="760.163" y="66.6448" fill="#000000" font-family="sans-serif" font-size="8px"><tspan>C:1</tspan></text>
<text x="736.673" y="61.3123" fill="#000000" font-family="sans-serif" font-size="8px"><tspan>C:2</tspan></text>
<text x="720.31" y="78.9891" fill="#000000" font-family="sans-serif" font-size="8px"><tspan>C:3</tspan></text>
<text x="727.437" y="101.998" fill="#000000" font-family="sans-serif" font-size="8px"><tspan>C:4</tspan></text>
<text x="750.927" y="107.331" fill="#000000" font-family="sans-serif" font-size="8px"><tspan>C:5</tspan></text>
<text x="753.234" y="130.742" fill="#0000FF" font-family="sans-serif" font-size="8px"><tspan>NH</tspan><tspan baseline-shift="sub" font-size="6px">2</tspan><tspan>:6</tspan></text>
<text x="707.486" y="115.887" fill="#FF0000" font-family="sans-serif" font-size="8px"><tspan>O:7</tspan></text>
<text x="688.466" y="101.461" fill="#000000" font-family="sans-serif" font-size="8px"><tspan>C:8</tspan></text>
<text x="696.224" y="78.6569" fill="#000000" font-family="sans-serif" font-size="8px"><tspan>C:9</tspan></text>
<text x="662.777" y="108.588" fill="#000000" font-family="sans-serif" font-size="8px"><tspan>C:10</tspan></text>
<text x="655.018" y="131.392" fill="#000000" font-family="sans-serif" font-size="8px"><tspan>C:11</tspan></text>
<text x="631.198" y="131.06" fill="#CCCC00" font-family="sans-serif" font-size="8px"><tspan>S:12</tspan></text>
<text x="623.806" y="108.051" fill="#000000" font-family="sans-serif" font-size="8px"><tspan>C:13</tspan></text>
<text x="643.486" y="94.1621" fill="#000000" font-family="sans-serif" font-size="8px"><tspan>C:14</tspan></text>
<text x="641.299" y="70.1739" fill="#000000" font-family="sans-serif" font-size="8px"><tspan>C:15</tspan></text>
<text x="619.431" y="60.074" fill="#0000FF" font-family="sans-serif" font-size="8px"><tspan>N:16</tspan></text>
<text x="599.75" y="73.9624" fill="#0000FF" font-family="sans-serif" font-size="8px"><tspan>N:17</tspan></text>
<text x="601.937" y="97.9507" fill="#000000" font-family="sans-serif" font-size="8px"><tspan>C:18</tspan></text>
<text x="670.375" y="194" fill="#000000" font-family="sans-serif" font-size="12px"><tspan>comp271</tspan></text>
<path class="bond-0" d="m171.31 289.4-4.583 4.952" fill="none" stroke="#00f" stroke-width="2px"/>
<path class="bond-0" d="m166.73 294.35-4.584 4.952" fill="none" stroke="#000" stroke-width="2px"/>
<path class="bond-0" d="m166.4 287.61-3.208 3.466" fill="none" stroke="#00f" stroke-width="2px"/>
<path class="bond-0" d="m163.19 291.08-3.209 3.467" fill="none" stroke="#000" stroke-width="2px"/>
<path class="bond-1" d="m173.55 281.62-2.32-7.49" fill="none" stroke="#00f" stroke-width="2px"/>
<path class="bond-1" d="m171.23 274.14-2.32-7.49" fill="none" stroke="#000" stroke-width="2px"/>
<path class="bond-2" d="m160.16 260.93-8.492-1.928" fill="none" stroke="#000" stroke-width="2px"/>
<path class="bond-2" d="m157.82 265.34-5.945-1.35" fill="none" stroke="#000" stroke-width="2px"/>
<path class="bond-3" d="m140.46 261.31-8.931 9.648" fill="none" stroke="#000" stroke-width="2px"/>
<path class="bond-4" d="m120.31 274.87-9.087-0.125" fill="none" stroke="#000" stroke-width="2px"/>
<path class="bond-5" d="m129.05 278.99 4.64 14.98" fill="none" stroke="#000" stroke-width="2px"/>
<path class="bond-5" d="m134.35 279.81 3.248 10.486" fill="none" stroke="#000" stroke-width="2px"/>
<path class="bond-6" d="m142.44 299.69 8.492 1.928" fill="none" stroke="#000" stroke-width="2px"/>
<path class="bond-7" d="m129.25 302-4.152 2.93" fill="none" stroke="#000" stroke-width="2px"/>
<path class="bond-7" d="m125.1 304.93-4.151 2.929" fill="none" stroke="#f00" stroke-width="2px"/>
<path class="bond-8" d="m159.67 307.33 2.258 7.289" fill="none" stroke="#000" stroke-width="2px"/>
<path class="bond-8" d="m161.93 314.62 2.258 7.289" fill="none" stroke="#00f" stroke-width="2px"/>
<path class="bond-9" d="m109.89 307.86-4.277-3.198" fill="none" stroke="#f00" stroke-width="2px"/>
<path class="bond-9" d="m105.61 304.66-4.277-3.198" fill="none" stroke="#000" stroke-width="2px"/>
<path class="bond-10" d="m97.331 293.43 5.0274-14.775" fill="none" stroke="#000" stroke-width="2px"/>
<path class="bond-10" d="m102.64 292.77 3.519-10.342" fill="none" stroke="#000" stroke-width="2px"/>
<path class="bond-11" d="m88.466 299.77-5.3314 1.651" fill="none" stroke="#000" stroke-width="2px"/>
<path class="bond-12" d="m67.587 300.56-8.5535-6.397" fill="none" stroke="#000" stroke-width="2px"/>
<path class="bond-13" d="m71.59 308.59-5.0268 14.775" fill="none" stroke="#000" stroke-width="2px"/>
<path class="bond-13" d="m66.275 309.25-3.5188 10.343" fill="none" stroke="#000" stroke-width="2px"/>
<path class="bond-14" d="m55.018 327.24-1.9965-0.028" fill="none" stroke="#000" stroke-width="2px"/>
<path class="bond-14" d="m53.022 327.21-1.9966-0.027" fill="none" stroke="#cc0" stroke-width="2px"/>
<path class="bond-15" d="m39.868 323.03-2.32-7.49" fill="none" stroke="#cc0" stroke-width="2px"/>
<path class="bond-15" d="m37.548 315.54-2.32-7.49" fill="none" stroke="#000" stroke-width="2px"/>
<path class="bond-16" d="m25.292 300.02-4.4833-2.07" fill="none" stroke="#000" stroke-width="2px"/>
<path class="bond-17" d="m39.673 300.02 8.3028-5.859" fill="none" stroke="#000" stroke-width="2px"/>
<path class="bond-17" d="m43.696 303.08 5.812-4.102" fill="none" stroke="#000" stroke-width="2px"/>
<path class="bond-18" d="m53.299 286.13-1.4552-15.959" fill="none" stroke="#000" stroke-width="2px"/>
<path class="bond-19" d="m42.785 262.14-4.4832-2.071" fill="none" stroke="#000" stroke-width="2px"/>
<path class="bond-19" d="m40.093 266.21-3.1383-1.45" fill="none" stroke="#000" stroke-width="2px"/>
<path class="bond-20" d="m23.921 260.07-4.1514 2.93" fill="none" stroke="#000" stroke-width="2px"/>
<path class="bond-20" d="m19.769 263-4.1514 2.929" fill="none" stroke="#00f" stroke-width="2px"/>
<path class="bond-21" d="m10.295 273.96 0.7276 7.98" fill="none" stroke="#00f" stroke-width="2px"/>
<path class="bond-21" d="m11.023 281.94 0.7275 7.979" fill="none" stroke="#000" stroke-width="2px"/>
<path class="bond-21" d="m15.311 275.92 0.5093 5.585" fill="none" stroke="#00f" stroke-width="2px"/>
<path class="bond-21" d="m15.82 281.5 0.5093 5.586" fill="none" stroke="#000" stroke-width="2px"/>
<text x="171.309" y="289.654" fill="#0000FF" font-family="sans-serif" font-size="8px"><tspan>N</tspan></text>
<text x="160.163" y="266.645" fill="#000000" font-family="sans-serif" font-size="8px"><tspan>C:1</tspan></text>
<text x="136.673" y="261.312" fill="#000000" font-family="sans-serif" font-size="8px"><tspan>C:2</tspan></text>
<text x="120.31" y="278.989" fill="#000000" font-family="sans-serif" font-size="8px"><tspan>C:3</tspan></text>
<text x="127.437" y="301.998" fill="#000000" font-family="sans-serif" font-size="8px"><tspan>C:4</tspan></text>
<text x="150.927" y="307.331" fill="#000000" font-family="sans-serif" font-size="8px"><tspan>C:5</tspan></text>
<text x="153.234" y="330.742" fill="#0000FF" font-family="sans-serif" font-size="8px"><tspan>NH</tspan><tspan baseline-shift="sub" font-size="6px">2</tspan><tspan>:6</tspan></text>
<text x="107.486" y="315.887" fill="#FF0000" font-family="sans-serif" font-size="8px"><tspan>O:7</tspan></text>
<text x="88.4656" y="301.461" fill="#000000" font-family="sans-serif" font-size="8px"><tspan>C:8</tspan></text>
<text x="96.2243" y="278.657" fill="#000000" font-family="sans-serif" font-size="8px"><tspan>C:9</tspan></text>
<text x="62.7767" y="308.588" fill="#000000" font-family="sans-serif" font-size="8px"><tspan>C:10</tspan></text>
<text x="55.018" y="331.392" fill="#000000" font-family="sans-serif" font-size="8px"><tspan>C:11</tspan></text>
<text x="31.1976" y="331.06" fill="#CCCC00" font-family="sans-serif" font-size="8px"><tspan>S:12</tspan></text>
<text x="23.8056" y="308.051" fill="#000000" font-family="sans-serif" font-size="8px"><tspan>C:13</tspan></text>
<text x="43.4863" y="294.162" fill="#000000" font-family="sans-serif" font-size="8px"><tspan>C:14</tspan></text>
<text x="41.299" y="270.174" fill="#000000" font-family="sans-serif" font-size="8px"><tspan>C:15</tspan></text>
<text x="19.4309" y="260.074" fill="#000000" font-family="sans-serif" font-size="8px"><tspan>C:16</tspan></text>
<text x="-0.249855" y="273.962" fill="#0000FF" font-family="sans-serif" font-size="8px"><tspan>N:17</tspan></text>
<text x="1.93746" y="297.951" fill="#000000" font-family="sans-serif" font-size="8px"><tspan>C:18</tspan></text>
<text x="70.3745" y="394" fill="#000000" font-family="sans-serif" font-size="12px"><tspan>comp272</tspan></text>
<path class="bond-0" d="m369.64 291.62-4.818 4.712" fill="none" stroke="#00f" stroke-width="2px"/>
<path class="bond-0" d="m364.82 296.33-4.818 4.712" fill="none" stroke="#000" stroke-width="2px"/>
<path class="bond-0" d="m364.82 289.59-3.373 3.298" fill="none" stroke="#00f" stroke-width="2px"/>
<path class="bond-0" d="m361.45 292.89-3.373 3.299" fill="none" stroke="#000" stroke-width="2px"/>
<path class="bond-1" d="m372.09 284.2-1.959-7.653" fill="none" stroke="#00f" stroke-width="2px"/>
<path class="bond-1" d="m370.13 276.55-1.959-7.653" fill="none" stroke="#000" stroke-width="2px"/>
<path class="bond-2" d="m359.64 262.78-8.198-2.295" fill="none" stroke="#000" stroke-width="2px"/>
<path class="bond-2" d="m357.11 267.08-5.738-1.606" fill="none" stroke="#000" stroke-width="2px"/>
<path class="bond-3" d="m339.84 262.4-9.012 8.812" fill="none" stroke="#000" stroke-width="2px"/>
<path class="bond-4" d="m319.22 274.75-9.041-0.575" fill="none" stroke="#000" stroke-width="2px"/>
<path class="bond-5" d="m327.75 279.24 3.919 15.306" fill="none" stroke="#000" stroke-width="2px"/>
<path class="bond-5" d="m333.01 280.34 2.743 10.714" fill="none" stroke="#000" stroke-width="2px"/>
<path class="bond-6" d="m340.2 300.66 8.197 2.295" fill="none" stroke="#000" stroke-width="2px"/>
<path class="bond-7" d="m326.36 302.58-3.838 2.432" fill="none" stroke="#000" stroke-width="2px"/>
<path class="bond-7" d="m322.52 305.01-3.838 2.432" fill="none" stroke="#f00" stroke-width="2px"/>
<path class="bond-8" d="m356.92 309.07 1.908 7.452" fill="none" stroke="#000" stroke-width="2px"/>
<path class="bond-8" d="m358.83 316.52 1.908 7.452" fill="none" stroke="#00f" stroke-width="2px"/>
<path class="bond-9" d="m307.5 307.44-4.428-3.669" fill="none" stroke="#f00" stroke-width="2px"/>
<path class="bond-9" d="m303.08 303.77-4.429-3.669" fill="none" stroke="#000" stroke-width="2px"/>
<path class="bond-10" d="m295.4 292.08 5.697-14.361" fill="none" stroke="#000" stroke-width="2px"/>
<path class="bond-10" d="m300.73 291.7 3.988-10.052" fill="none" stroke="#000" stroke-width="2px"/>
<path class="bond-11" d="m286.3 298.01-5.657 1.449" fill="none" stroke="#000" stroke-width="2px"/>
<path class="bond-12" d="m266.54 298.05-8.989-9.192" fill="none" stroke="#000" stroke-width="2px"/>
<path class="bond-13" d="m269.34 306.08-4.246 15.167" fill="none" stroke="#000" stroke-width="2px"/>
<path class="bond-13" d="m264.07 307.06-2.972 10.616" fill="none" stroke="#000" stroke-width="2px"/>
<path class="bond-14" d="m253.8 327.87-2.978 0.762" fill="none" stroke="#000" stroke-width="2px"/>
<path class="bond-15" d="m236.71 327.22-8.989-9.192" fill="none" stroke="#000" stroke-width="2px"/>
<path class="bond-15" d="m238.81 322.47-6.293-6.434" fill="none" stroke="#000" stroke-width="2px"/>
<path class="bond-16" d="m224.92 310 4.246-15.167" fill="none" stroke="#000" stroke-width="2px"/>
<path class="bond-17" d="m227.75 286.8-3.903-6.159" fill="none" stroke="#000" stroke-width="2px"/>
<path class="bond-17" d="m223.84 280.64-3.903-6.159" fill="none" stroke="#00f" stroke-width="2px"/>
<path class="bond-18" d="m240.47 288.21 2.978-0.762" fill="none" stroke="#000" stroke-width="2px"/>
<path class="bond-18" d="m242.11 292.76 2.084-0.534" fill="none" stroke="#000" stroke-width="2px"/>
<path class="bond-19" d="m253.88 280.83 0.509-8.005" fill="none" stroke="#000" stroke-width="2px"/>
<path class="bond-19" d="m254.39 272.82 0.509-8.005" fill="none" stroke="#cc0" stroke-width="2px"/>
<path class="bond-20" d="m245.24 256.87-1.179-0.468" fill="none" stroke="#cc0" stroke-width="2px"/>
<path class="bond-20" d="m244.06 256.4-1.178-0.467" fill="none" stroke="#000" stroke-width="2px"/>
<path class="bond-21" d="m229.44 255.94-4.358 5.26" fill="none" stroke="#000" stroke-width="2px"/>
<path class="bond-21" d="m225.08 261.2-4.358 5.26" fill="none" stroke="#00f" stroke-width="2px"/>
<path class="bond-21" d="m231.84 260.59-3.05 3.682" fill="none" stroke="#000" stroke-width="2px"/>
<path class="bond-21" d="m228.79 264.27-3.05 3.682" fill="none" stroke="#00f" stroke-width="2px"/>
<text x="369.636" y="292.231" fill="#0000FF" font-family="sans-serif" font-size="8px"><tspan>N</tspan></text>
<text x="359.643" y="268.896" fill="#000000" font-family="sans-serif" font-size="8px"><tspan>C:1</tspan></text>
<text x="336.447" y="262.403" fill="#000000" font-family="sans-serif" font-size="8px"><tspan>C:2</tspan></text>
<text x="319.225" y="279.244" fill="#000000" font-family="sans-serif" font-size="8px"><tspan>C:3</tspan></text>
<text x="325.199" y="302.579" fill="#000000" font-family="sans-serif" font-size="8px"><tspan>C:4</tspan></text>
<text x="348.395" y="309.073" fill="#000000" font-family="sans-serif" font-size="8px"><tspan>C:5</tspan></text>
<text x="349.55" y="332.809" fill="#0000FF" font-family="sans-serif" font-size="8px"><tspan>NH</tspan><tspan baseline-shift="sub" font-size="6px">2</tspan><tspan>:6</tspan></text>
<text x="304.583" y="315.472" fill="#FF0000" font-family="sans-serif" font-size="8px"><tspan>O:7</tspan></text>
<text x="286.303" y="300.105" fill="#000000" font-family="sans-serif" font-size="8px"><tspan>C:8</tspan></text>
<text x="295.186" y="277.715" fill="#000000" font-family="sans-serif" font-size="8px"><tspan>C:9</tspan></text>
<text x="260.288" y="306.079" fill="#000000" font-family="sans-serif" font-size="8px"><tspan>C:10</tspan></text>
<text x="253.795" y="329.275" fill="#000000" font-family="sans-serif" font-size="8px"><tspan>C:11</tspan></text>
<text x="230.459" y="335.25" fill="#000000" font-family="sans-serif" font-size="8px"><tspan>C:12</tspan></text>
<text x="213.618" y="318.028" fill="#000000" font-family="sans-serif" font-size="8px"><tspan>C:13</tspan></text>
<text x="220.112" y="294.832" fill="#000000" font-family="sans-serif" font-size="8px"><tspan>C:14</tspan></text>
<text x="243.447" y="288.858" fill="#000000" font-family="sans-serif" font-size="8px"><tspan>C:15</tspan></text>
<text x="245.241" y="264.818" fill="#CCCC00" font-family="sans-serif" font-size="8px"><tspan>S:16</tspan></text>
<text x="222.586" y="255.936" fill="#000000" font-family="sans-serif" font-size="8px"><tspan>C:17</tspan></text>
<text x="207.219" y="274.485" fill="#0000FF" font-family="sans-serif" font-size="8px"><tspan>N:18</tspan></text>
<text x="270.375" y="394" fill="#000000" font-family="sans-serif" font-size="12px"><tspan>comp273</tspan></text>
<path class="bond-0" d="m589.3 298.52-2.872-7.164" fill="none" stroke="#00f" stroke-width="2px"/>
<path class="bond-0" d="m586.43 291.36-2.873-7.164" fill="none" stroke="#000" stroke-width="2px"/>
<path class="bond-0" d="m583.97 298.17-2.01-5.015" fill="none" stroke="#00f" stroke-width="2px"/>
<path class="bond-0" d="m581.96 293.15-2.011-5.015" fill="none" stroke="#000" stroke-width="2px"/>
<path class="bond-1" d="m587.76 306.55-4.286 5.456" fill="none" stroke="#00f" stroke-width="2px"/>
<path class="bond-1" d="m583.47 312.01-4.287 5.456" fill="none" stroke="#000" stroke-width="2px"/>
<path class="bond-2" d="m568.53 320.4-8.846-1.268" fill="none" stroke="#000" stroke-width="2px"/>
<path class="bond-2" d="m567.88 315.45-6.192-0.888" fill="none" stroke="#000" stroke-width="2px"/>
<path class="bond-3" d="m550.57 314.05-5.744-14.329" fill="none" stroke="#000" stroke-width="2px"/>
<path class="bond-4" d="m535.72 292.95-7.615-2.795" fill="none" stroke="#000" stroke-width="2px"/>
<path class="bond-5" d="m546.38 291.69 8.573-10.912" fill="none" stroke="#000" stroke-width="2px"/>
<path class="bond-5" d="m551.45 293.03 6.001-7.638" fill="none" stroke="#000" stroke-width="2px"/>
<path class="bond-6" d="m565.6 277.84 8.846 1.267" fill="none" stroke="#000" stroke-width="2px"/>
<path class="bond-7" d="m555.41 272.75-4.016-5.989" fill="none" stroke="#000" stroke-width="2px"/>
<path class="bond-7" d="m551.39 266.76-4.016-5.988" fill="none" stroke="#f00" stroke-width="2px"/>
<path class="bond-8" d="m536.92 258.96-3.952 1.122" fill="none" stroke="#f00" stroke-width="2px"/>
<path class="bond-8" d="m532.96 260.08-3.952 1.122" fill="none" stroke="#000" stroke-width="2px"/>
<path class="bond-9" d="m521.36 267.35-0.604 16.041" fill="none" stroke="#000" stroke-width="2px"/>
<path class="bond-9" d="m526.09 269.94-0.422 11.229" fill="none" stroke="#000" stroke-width="2px"/>
<path class="bond-10" d="m514.62 291.42-4.016 2.694" fill="none" stroke="#000" stroke-width="2px"/>
<path class="bond-10" d="m510.6 294.11-4.016 2.693" fill="none" stroke="#f00" stroke-width="2px"/>
<path class="bond-11" d="m492.83 297-2.839-1.394" fill="none" stroke="#f00" stroke-width="2px"/>
<path class="bond-11" d="m489.99 295.61-2.838-1.394" fill="none" stroke="#000" stroke-width="2px"/>
<path class="bond-12" d="m477.01 294.22-6.675 13.592" fill="none" stroke="#000" stroke-width="2px"/>
<path class="bond-13" d="m470.81 286.19-5.272-2.589" fill="none" stroke="#000" stroke-width="2px"/>
<path class="bond-14" d="m480.95 286.19 6.675-13.592" fill="none" stroke="#000" stroke-width="2px"/>
<path class="bond-15" d="m471.06 315.84 8.031 11.976" fill="none" stroke="#000" stroke-width="2px"/>
<path class="bond-16" d="m458.18 312.51-3.676 0.247" fill="none" stroke="#000" stroke-width="2px"/>
<path class="bond-16" d="m457.96 317.35-2.574 0.173" fill="none" stroke="#000" stroke-width="2px"/>
<path class="bond-17" d="m442.36 317.45-6.675 13.592" fill="none" stroke="#000" stroke-width="2px"/>
<path class="bond-18" d="m436.4 339.08 8.032 11.977" fill="none" stroke="#000" stroke-width="2px"/>
<path class="bond-18" d="m441.61 338.19 5.622 8.383" fill="none" stroke="#000" stroke-width="2px"/>
<path class="bond-19" d="m457.31 354.38 3.676-0.248" fill="none" stroke="#000" stroke-width="2px"/>
<path class="bond-20" d="m473.13 349.44 6.675-13.592" fill="none" stroke="#000" stroke-width="2px"/>
<path class="bond-20" d="m469.81 345.27 4.672-9.514" fill="none" stroke="#000" stroke-width="2px"/>
<path class="bond-21" d="m451.37 283.6-8.032 5.387" fill="none" stroke="#000" stroke-width="2px"/>
<path class="bond-22" d="m457.09 275.57-1.075-16.004" fill="none" stroke="#000" stroke-width="2px"/>
<path class="bond-22" d="m452.12 273.49-0.753-11.203" fill="none" stroke="#000" stroke-width="2px"/>
<path class="bond-23" d="m447.57 251.54-5.271-2.589" fill="none" stroke="#000" stroke-width="2px"/>
<path class="bond-24" d="m428.14 248.95-8.033 5.386" fill="none" stroke="#000" stroke-width="2px"/>
<path class="bond-24" d="m429.61 253.76-5.623 3.771" fill="none" stroke="#000" stroke-width="2px"/>
<path class="bond-25" d="m414.39 262.36 1.076 16.004" fill="none" stroke="#000" stroke-width="2px"/>
<path class="bond-26" d="m423.91 286.4 5.271 2.589" fill="none" stroke="#000" stroke-width="2px"/>
<path class="bond-26" d="m426.82 282.46 3.69 1.812" fill="none" stroke="#000" stroke-width="2px"/>
<path class="bond-27" d="m481.42 264.57-5.271-2.589" fill="none" stroke="#000" stroke-width="2px"/>
<path class="bond-28" d="m497.77 272.6 5.272 2.589" fill="none" stroke="#000" stroke-width="2px"/>
<path class="bond-29" d="m491.57 264.57 6.675-13.592" fill="none" stroke="#000" stroke-width="2px"/>
<text x="587.429" y="306.553" fill="#0000FF" font-family="sans-serif" font-size="8px"><tspan>N</tspan></text>
<text x="568.529" y="325.494" fill="#000000" font-family="sans-serif" font-size="8px"><tspan>C:1</tspan></text>
<text x="544.685" y="322.077" fill="#000000" font-family="sans-serif" font-size="8px"><tspan>C:2</tspan></text>
<text x="535.722" y="299.719" fill="#000000" font-family="sans-serif" font-size="8px"><tspan>C:3</tspan></text>
<text x="550.603" y="280.778" fill="#000000" font-family="sans-serif" font-size="8px"><tspan>C:4</tspan></text>
<text x="574.447" y="284.195" fill="#000000" font-family="sans-serif" font-size="8px"><tspan>C:5</tspan></text>
<text x="536.917" y="260.772" fill="#FF0000" font-family="sans-serif" font-size="8px"><tspan>O:6</tspan></text>
<text x="514.015" y="267.349" fill="#000000" font-family="sans-serif" font-size="8px"><tspan>C:7</tspan></text>
<text x="513.109" y="291.419" fill="#000000" font-family="sans-serif" font-size="8px"><tspan>C:8</tspan></text>
<text x="492.833" y="304.835" fill="#FF0000" font-family="sans-serif" font-size="8px"><tspan>O:9</tspan></text>
<text x="467.997" y="294.217" fill="#000000" font-family="sans-serif" font-size="8px"><tspan>Si:10</tspan></text>
<text x="458.184" y="315.839" fill="#000000" font-family="sans-serif" font-size="8px"><tspan>C:11</tspan></text>
<text x="434.15" y="317.454" fill="#000000" font-family="sans-serif" font-size="8px"><tspan>C:12</tspan></text>
<text x="423.533" y="339.075" fill="#000000" font-family="sans-serif" font-size="8px"><tspan>C:13</tspan></text>
<text x="436.948" y="359.081" fill="#000000" font-family="sans-serif" font-size="8px"><tspan>C:14</tspan></text>
<text x="460.982" y="357.466" fill="#000000" font-family="sans-serif" font-size="8px"><tspan>C:15</tspan></text>
<text x="471.6" y="335.845" fill="#000000" font-family="sans-serif" font-size="8px"><tspan>C:16</tspan></text>
<text x="447.18" y="283.599" fill="#000000" font-family="sans-serif" font-size="8px"><tspan>C:17</tspan></text>
<text x="445.565" y="259.566" fill="#000000" font-family="sans-serif" font-size="8px"><tspan>C:18</tspan></text>
<text x="423.944" y="248.948" fill="#000000" font-family="sans-serif" font-size="8px"><tspan>C:19</tspan></text>
<text x="403.938" y="262.364" fill="#000000" font-family="sans-serif" font-size="8px"><tspan>C:20</tspan></text>
<text x="405.553" y="286.397" fill="#000000" font-family="sans-serif" font-size="8px"><tspan>C:21</tspan></text>
<text x="427.174" y="297.015" fill="#000000" font-family="sans-serif" font-size="8px"><tspan>C:22</tspan></text>
<text x="479.42" y="272.596" fill="#000000" font-family="sans-serif" font-size="8px"><tspan>C:23</tspan></text>
<text x="457.798" y="261.978" fill="#000000" font-family="sans-serif" font-size="8px"><tspan>C:24</tspan></text>
<text x="501.041" y="283.214" fill="#000000" font-family="sans-serif" font-size="8px"><tspan>C:25</tspan></text>
<text x="490.038" y="250.975" fill="#000000" font-family="sans-serif" font-size="8px"><tspan>C:26</tspan></text>
<text x="470.375" y="394" fill="#000000" font-family="sans-serif" font-size="12px"><tspan>comp473</tspan></text>
<path class="bond-0" d="m732.67 305.18-5.214 3.01" fill="none" stroke="#00f" stroke-width="2px"/>
<path class="bond-0" d="m727.46 308.19-5.213 3.01" fill="none" stroke="#000" stroke-width="2px"/>
<path class="bond-0" d="m728.7 301.91-3.649 2.107" fill="none" stroke="#00f" stroke-width="2px"/>
<path class="bond-0" d="m725.05 304.02-3.65 2.107" fill="none" stroke="#000" stroke-width="2px"/>
<path class="bond-1" d="m736.15 299.16v-8.029" fill="none" stroke="#00f" stroke-width="2px"/>
<path class="bond-1" d="m736.15 291.13v-8.029" fill="none" stroke="#000" stroke-width="2px"/>
<path class="bond-2" d="m729.2 275.07-6.953-4.014" fill="none" stroke="#000" stroke-width="2px"/>
<path class="bond-2" d="m725.75 278.64-4.868-2.81" fill="none" stroke="#000" stroke-width="2px"/>
<path class="bond-3" d="m708.34 271.05-6.954 4.014" fill="none" stroke="#000" stroke-width="2px"/>
<path class="bond-4" d="m686.93 276.65-7.91-2.57" fill="none" stroke="#000" stroke-width="2px"/>
<path class="bond-5" d="m694.43 283.1v16.058" fill="none" stroke="#000" stroke-width="2px"/>
<path class="bond-5" d="m699.25 285.51v11.241" fill="none" stroke="#000" stroke-width="2px"/>
<path class="bond-6" d="m701.38 307.18 6.954 4.015" fill="none" stroke="#000" stroke-width="2px"/>
<path class="bond-7" d="m686.93 305.61-3.82 1.242" fill="none" stroke="#000" stroke-width="2px"/>
<path class="bond-7" d="m683.11 306.85-3.82 1.241" fill="none" stroke="#f00" stroke-width="2px"/>
<path class="bond-8" d="m668.61 306.6-4.162-5.729" fill="none" stroke="#f00" stroke-width="2px"/>
<path class="bond-8" d="m664.44 300.87-4.163-5.73" fill="none" stroke="#000" stroke-width="2px"/>
<path class="bond-9" d="m660.28 287.11 8.325-11.458" fill="none" stroke="#000" stroke-width="2px"/>
<path class="bond-9" d="m665.43 288.22 5.828-8.021" fill="none" stroke="#000" stroke-width="2px"/>
<path class="bond-10" d="m649.86 291.13h-9.089" fill="none" stroke="#000" stroke-width="2px"/>
<text x="732.673" y="307.185" fill="#0000FF" font-family="sans-serif" font-size="8px"><tspan>N</tspan></text>
<text x="728.654" y="283.098" fill="#000000" font-family="sans-serif" font-size="8px"><tspan>C:1</tspan></text>
<text x="707.793" y="271.054" fill="#000000" font-family="sans-serif" font-size="8px"><tspan>C:2</tspan></text>
<text x="686.932" y="283.098" fill="#000000" font-family="sans-serif" font-size="8px"><tspan>C:3</tspan></text>
<text x="686.932" y="307.185" fill="#000000" font-family="sans-serif" font-size="8px"><tspan>C:4</tspan></text>
<text x="707.793" y="319.229" fill="#000000" font-family="sans-serif" font-size="8px"><tspan>C:5</tspan></text>
<text x="663.754" y="314.629" fill="#FF0000" font-family="sans-serif" font-size="8px"><tspan>O:6</tspan></text>
<text x="649.865" y="295.141" fill="#000000" font-family="sans-serif" font-size="8px"><tspan>C:7</tspan></text>
<text x="664.024" y="275.654" fill="#000000" font-family="sans-serif" font-size="8px"><tspan>C:8</tspan></text>
<text x="625.777" y="295.141" fill="#000000" font-family="sans-serif" font-size="8px"><tspan>C:9</tspan></text>
<text x="670.375" y="394" fill="#000000" font-family="sans-serif" font-size="12px"><tspan>comp480</tspan></text>
</svg>
