<?xml version="1.0" encoding="UTF-8"?>
<svg baseProfile="full" version="1.1" viewBox="0 0 800 600" xml:space="preserve" xmlns="http://www.w3.org/2000/svg">

 <!-- END OF HEADER -->
<rect width="800" height="600" fill="#fff"> </rect>
<path class="bond-0" d="m38.068 117.39v-20.519" fill="none" stroke="#000" stroke-width="2px"/>
<path class="bond-1" d="m38.068 117.39 14.216 8.208" fill="none" stroke="#000" stroke-width="2px"/>
<path class="bond-1" d="m42.663 114.36 9.9514 5.745" fill="none" stroke="#000" stroke-width="2px"/>
<path class="bond-2" d="m66.501 125.6 3.5541-2.052" fill="none" stroke="#000" stroke-width="2px"/>
<path class="bond-2" d="m70.055 123.55 3.5541-2.052" fill="none" stroke="#00f" stroke-width="2px"/>
<path class="bond-3" d="m80.717 113.29v-8.208" fill="none" stroke="#00f" stroke-width="2px"/>
<path class="bond-3" d="m80.717 105.08v-8.208" fill="none" stroke="#000" stroke-width="2px"/>
<path class="bond-3" d="m75.793 110.83v-5.745" fill="none" stroke="#00f" stroke-width="2px"/>
<path class="bond-3" d="m75.793 105.08v-5.7457" fill="none" stroke="#000" stroke-width="2px"/>
<path class="bond-4" d="m87.825 88.665 3.554-2.0519" fill="none" stroke="#000" stroke-width="2px"/>
<path class="bond-4" d="m91.379 86.613 3.5541-2.0519" fill="none" stroke="#00f" stroke-width="2px"/>
<path class="bond-5" d="m73.609 88.665-3.5541-2.0519" fill="none" stroke="#000" stroke-width="2px"/>
<path class="bond-5" d="m70.055 86.613-3.5541-2.0519" fill="none" stroke="#00f" stroke-width="2px"/>
<path class="bond-6" d="m109.15 84.561 3.554 2.0519" fill="none" stroke="#00f" stroke-width="2px"/>
<path class="bond-6" d="m112.7 86.613 3.554 2.0519" fill="none" stroke="#000" stroke-width="2px"/>
<path class="bond-7" d="m130.47 88.665 7.108-4.1038" fill="none" stroke="#000" stroke-width="2px"/>
<path class="bond-8" d="m123.37 96.873v16.416" fill="none" stroke="#000" stroke-width="2px"/>
<path class="bond-8" d="m128.29 99.335v11.491" fill="none" stroke="#000" stroke-width="2px"/>
<path class="bond-9" d="m130.47 121.5 7.108 4.104" fill="none" stroke="#000" stroke-width="2px"/>
<path class="bond-10" d="m151.8 125.6 7.108-4.104" fill="none" stroke="#000" stroke-width="2px"/>
<path class="bond-10" d="m150.4 120.72 4.976-2.873" fill="none" stroke="#000" stroke-width="2px"/>
<path class="bond-11" d="m166.02 113.29v-16.416" fill="none" stroke="#000" stroke-width="2px"/>
<path class="bond-12" d="m158.91 88.665-7.108-4.1038" fill="none" stroke="#000" stroke-width="2px"/>
<path class="bond-12" d="m155.38 92.314-4.976-2.8727" fill="none" stroke="#000" stroke-width="2px"/>
<path class="bond-13" d="m173.12 88.665 3.554-2.0519" fill="none" stroke="#000" stroke-width="2px"/>
<path class="bond-13" d="m176.68 86.613 3.554-2.0519" fill="none" stroke="#7F4C19" stroke-width="2px"/>
<path class="bond-14" d="m52.285 84.561-3.5541 2.0519" fill="none" stroke="#00f" stroke-width="2px"/>
<path class="bond-14" d="m48.731 86.613-3.5541 2.0519" fill="none" stroke="#000" stroke-width="2px"/>
<path class="bond-15" d="m32.191 86.533-3.554-2.0519" fill="none" stroke="#000" stroke-width="2px"/>
<path class="bond-15" d="m28.637 84.481-3.5541-2.052" fill="none" stroke="#f00" stroke-width="2px"/>
<path class="bond-15" d="m29.729 90.798-3.5541-2.052" fill="none" stroke="#000" stroke-width="2px"/>
<path class="bond-15" d="m26.175 88.746-3.554-2.0519" fill="none" stroke="#f00" stroke-width="2px"/>
<text x="51.727" y="133.808" fill="#000000" font-family="sans-serif" font-size="8px"><tspan>C:1</tspan></text>
<text x="73.0514" y="121.496" fill="#0000FF" font-family="sans-serif" font-size="8px"><tspan>N:2</tspan></text>
<text x="73.0514" y="96.873" fill="#000000" font-family="sans-serif" font-size="8px"><tspan>C:3</tspan></text>
<text x="90.8188" y="84.5614" fill="#0000FF" font-family="sans-serif" font-size="8px"><tspan>NH:4</tspan></text>
<text x="115.7" y="96.873" fill="#000000" font-family="sans-serif" font-size="8px"><tspan>C:5</tspan></text>
<text x="115.7" y="121.496" fill="#000000" font-family="sans-serif" font-size="8px"><tspan>C:6</tspan></text>
<text x="137.025" y="133.808" fill="#000000" font-family="sans-serif" font-size="8px"><tspan>C:7</tspan></text>
<text x="158.349" y="121.496" fill="#000000" font-family="sans-serif" font-size="8px"><tspan>C:8</tspan></text>
<text x="158.349" y="96.873" fill="#000000" font-family="sans-serif" font-size="8px"><tspan>C:9</tspan></text>
<text x="134.285" y="84.5614" fill="#000000" font-family="sans-serif" font-size="8px"><tspan>C:10</tspan></text>
<text x="175.565" y="84.5614" fill="#7F4C19" font-family="sans-serif" font-size="8px"><tspan>Br:11</tspan></text>
<text x="45.4307" y="84.5614" fill="#0000FF" font-family="sans-serif" font-size="8px"><tspan>NH:12</tspan></text>
<text x="27.6633" y="96.873" fill="#000000" font-family="sans-serif" font-size="8px"><tspan>C:13</tspan></text>
<text x="6.06304" y="84.5614" fill="#FF0000" font-family="sans-serif" font-size="8px"><tspan>O:14</tspan></text>
<text x="70.3745" y="194" fill="#000000" font-family="sans-serif" font-size="12px"><tspan>comp101</tspan></text>
<path class="bond-0" d="m319.81 120.68-5.33 3.077" fill="none" stroke="#00f" stroke-width="2px"/>
<path class="bond-0" d="m314.48 123.75-5.329 3.077" fill="none" stroke="#000" stroke-width="2px"/>
<path class="bond-0" d="m315.75 117.34-3.731 2.154" fill="none" stroke="#00f" stroke-width="2px"/>
<path class="bond-0" d="m312.02 119.49-3.731 2.154" fill="none" stroke="#000" stroke-width="2px"/>
<path class="bond-1" d="m323.37 114.52v-8.208" fill="none" stroke="#00f" stroke-width="2px"/>
<path class="bond-1" d="m323.37 106.31v-8.2078" fill="none" stroke="#000" stroke-width="2px"/>
<path class="bond-2" d="m331.7 92.029 3.554-2.052" fill="none" stroke="#000" stroke-width="2px"/>
<path class="bond-2" d="m335.26 89.977 3.554-2.0519" fill="none" stroke="#f00" stroke-width="2px"/>
<path class="bond-2" d="m329.24 87.764 3.554-2.052" fill="none" stroke="#000" stroke-width="2px"/>
<path class="bond-2" d="m332.8 85.712 3.554-2.0519" fill="none" stroke="#f00" stroke-width="2px"/>
<path class="bond-3" d="m316.26 89.896-7.108-4.1039" fill="none" stroke="#000" stroke-width="2px"/>
<path class="bond-4" d="m294.93 85.792-7.108 4.1039" fill="none" stroke="#000" stroke-width="2px"/>
<path class="bond-4" d="m296.33 90.673-4.976 2.8727" fill="none" stroke="#000" stroke-width="2px"/>
<path class="bond-5" d="m280.72 98.104v8.2078" fill="none" stroke="#000" stroke-width="2px"/>
<path class="bond-5" d="m280.72 106.31v8.208" fill="none" stroke="#00f" stroke-width="2px"/>
<path class="bond-6" d="m273.61 89.896-7.108-4.1039" fill="none" stroke="#000" stroke-width="2px"/>
<path class="bond-7" d="m287.82 122.73 3.554 2.052" fill="none" stroke="#00f" stroke-width="2px"/>
<path class="bond-7" d="m291.38 124.78 3.554 2.052" fill="none" stroke="#000" stroke-width="2px"/>
<text x="319.809" y="122.727" fill="#0000FF" font-family="sans-serif" font-size="8px"><tspan>N</tspan></text>
<text x="315.7" y="98.1042" fill="#000000" font-family="sans-serif" font-size="8px"><tspan>C:1</tspan></text>
<text x="336.749" y="85.7925" fill="#FF0000" font-family="sans-serif" font-size="8px"><tspan>O:2</tspan></text>
<text x="294.376" y="85.7925" fill="#000000" font-family="sans-serif" font-size="8px"><tspan>C:3</tspan></text>
<text x="273.051" y="98.1042" fill="#000000" font-family="sans-serif" font-size="8px"><tspan>C:4</tspan></text>
<text x="269.494" y="122.727" fill="#0000FF" font-family="sans-serif" font-size="8px"><tspan>NH:5</tspan></text>
<text x="294.376" y="135.039" fill="#000000" font-family="sans-serif" font-size="8px"><tspan>C:6</tspan></text>
<text x="251.727" y="85.7925" fill="#000000" font-family="sans-serif" font-size="8px"><tspan>C:7</tspan></text>
<text x="270.375" y="194" fill="#000000" font-family="sans-serif" font-size="12px"><tspan>comp103</tspan></text>
<path class="bond-0" d="m465.59 107.61-4.668-0.962" fill="none" stroke="#00f" stroke-width="2px"/>
<path class="bond-0" d="m460.92 106.65-4.669-0.962" fill="none" stroke="#000" stroke-width="2px"/>
<path class="bond-1" d="m476.35 104.98 4.532-5.097" fill="none" stroke="#00f" stroke-width="2px"/>
<path class="bond-1" d="m480.89 99.879 4.532-5.0965" fill="none" stroke="#000" stroke-width="2px"/>
<path class="bond-2" d="m443.1 106.58-4.532 5.097" fill="none" stroke="#000" stroke-width="2px"/>
<path class="bond-2" d="m438.57 111.67-4.531 5.096" fill="none" stroke="#f00" stroke-width="2px"/>
<path class="bond-2" d="m446.78 109.85-4.531 5.096" fill="none" stroke="#000" stroke-width="2px"/>
<path class="bond-2" d="m442.25 114.95-4.532 5.097" fill="none" stroke="#f00" stroke-width="2px"/>
<path class="bond-3" d="m447.23 100.01-5.031-15.163" fill="none" stroke="#000" stroke-width="2px"/>
<path class="bond-4" d="m444.48 76.635 9.064-10.193" fill="none" stroke="#000" stroke-width="2px"/>
<path class="bond-4" d="m449.52 78.379 6.345-7.1351" fill="none" stroke="#000" stroke-width="2px"/>
<path class="bond-5" d="m464.86 63.918 4.393 0.9051" fill="none" stroke="#000" stroke-width="2px"/>
<path class="bond-5" d="m469.26 64.823 4.392 0.9051" fill="none" stroke="#00f" stroke-width="2px"/>
<path class="bond-6" d="m482.68 71.412 2.515 7.5813" fill="none" stroke="#00f" stroke-width="2px"/>
<path class="bond-6" d="m485.19 78.993 2.516 7.5814" fill="none" stroke="#000" stroke-width="2px"/>
<path class="bond-6" d="m478.76 75.237 1.761 5.3069" fill="none" stroke="#00f" stroke-width="2px"/>
<path class="bond-6" d="m480.52 80.544 1.761 5.307" fill="none" stroke="#000" stroke-width="2px"/>
<path class="bond-7" d="m496.73 92.258 8.785 1.8103" fill="none" stroke="#000" stroke-width="2px"/>
<path class="bond-8" d="m516.83 91.544 9.064-10.193" fill="none" stroke="#000" stroke-width="2px"/>
<path class="bond-9" d="m514.55 99.752 5.031 15.163" fill="none" stroke="#000" stroke-width="2px"/>
<path class="bond-9" d="m519.97 100.48 3.522 10.614" fill="none" stroke="#000" stroke-width="2px"/>
<path class="bond-10" d="m528.6 120.6 8.785 1.811" fill="none" stroke="#000" stroke-width="2px"/>
<path class="bond-11" d="m517.29 123.12-4.532 5.096" fill="none" stroke="#000" stroke-width="2px"/>
<path class="bond-11" d="m512.76 128.22-4.532 5.097" fill="none" stroke="#f00" stroke-width="2px"/>
<path class="bond-12" d="m548.7 119.88 9.064-10.192" fill="none" stroke="#000" stroke-width="2px"/>
<path class="bond-12" d="m546.38 115.08 6.344-7.135" fill="none" stroke="#000" stroke-width="2px"/>
<path class="bond-13" d="m560.06 101.48-5.031-15.163" fill="none" stroke="#000" stroke-width="2px"/>
<path class="bond-14" d="m543.26 80.073-3.307-0.6814" fill="none" stroke="#000" stroke-width="2px"/>
<path class="bond-14" d="m541.77 84.794-2.315-0.477" fill="none" stroke="#000" stroke-width="2px"/>
<path class="bond-15" d="m557.31 78.113 4.532-5.0965" fill="none" stroke="#000" stroke-width="2px"/>
<path class="bond-15" d="m561.84 73.017 4.532-5.0964" fill="none" stroke="#0c0" stroke-width="2px"/>
<path class="bond-16" d="m505.94 141.52 2.515 7.582" fill="none" stroke="#f00" stroke-width="2px"/>
<path class="bond-16" d="m508.45 149.1 2.516 7.581" fill="none" stroke="#000" stroke-width="2px"/>
<text x="465.591" y="113.183" fill="#0000FF" font-family="sans-serif" font-size="8px"><tspan>NH</tspan></text>
<text x="440.923" y="108.214" fill="#000000" font-family="sans-serif" font-size="8px"><tspan>C:1</tspan></text>
<text x="424.285" y="126.614" fill="#FF0000" font-family="sans-serif" font-size="8px"><tspan>O:2</tspan></text>
<text x="433.168" y="84.8432" fill="#000000" font-family="sans-serif" font-size="8px"><tspan>C:3</tspan></text>
<text x="449.53" y="66.4425" fill="#000000" font-family="sans-serif" font-size="8px"><tspan>C:4</tspan></text>
<text x="473.647" y="71.4121" fill="#0000FF" font-family="sans-serif" font-size="8px"><tspan>N:5</tspan></text>
<text x="481.402" y="94.7825" fill="#000000" font-family="sans-serif" font-size="8px"><tspan>C:6</tspan></text>
<text x="505.518" y="99.7522" fill="#000000" font-family="sans-serif" font-size="8px"><tspan>C:7</tspan></text>
<text x="513.273" y="123.123" fill="#000000" font-family="sans-serif" font-size="8px"><tspan>C:8</tspan></text>
<text x="537.389" y="128.092" fill="#000000" font-family="sans-serif" font-size="8px"><tspan>C:9</tspan></text>
<text x="551.012" y="109.692" fill="#000000" font-family="sans-serif" font-size="8px"><tspan>C:10</tspan></text>
<text x="543.258" y="86.3211" fill="#000000" font-family="sans-serif" font-size="8px"><tspan>C:11</tspan></text>
<text x="519.141" y="81.3514" fill="#000000" font-family="sans-serif" font-size="8px"><tspan>C:12</tspan></text>
<text x="558.526" y="67.9204" fill="#00CC00" font-family="sans-serif" font-size="8px"><tspan>Cl:13</tspan></text>
<text x="493.895" y="141.523" fill="#FF0000" font-family="sans-serif" font-size="8px"><tspan>O:14</tspan></text>
<text x="501.926" y="164.894" fill="#000000" font-family="sans-serif" font-size="8px"><tspan>C:15</tspan></text>
<text x="470.375" y="194" fill="#000000" font-family="sans-serif" font-size="12px"><tspan>comp102</tspan></text>
<path class="bond-0" d="m716.26 122.73-3.554 2.052" fill="none" stroke="#00f" stroke-width="2px"/>
<path class="bond-0" d="m712.7 124.78-3.554 2.052" fill="none" stroke="#000" stroke-width="2px"/>
<path class="bond-1" d="m723.37 114.52v-8.208" fill="none" stroke="#00f" stroke-width="2px"/>
<path class="bond-1" d="m723.37 106.31v-8.2078" fill="none" stroke="#000" stroke-width="2px"/>
<path class="bond-2" d="m694.93 126.83-3.554-2.052" fill="none" stroke="#000" stroke-width="2px"/>
<path class="bond-2" d="m691.38 124.78-3.554-2.052" fill="none" stroke="#00f" stroke-width="2px"/>
<path class="bond-2" d="m696.33 121.95-2.488-1.436" fill="none" stroke="#000" stroke-width="2px"/>
<path class="bond-2" d="m693.84 120.52-2.488-1.437" fill="none" stroke="#00f" stroke-width="2px"/>
<path class="bond-3" d="m680.72 114.52v-8.208" fill="none" stroke="#00f" stroke-width="2px"/>
<path class="bond-3" d="m680.72 106.31v-8.2078" fill="none" stroke="#000" stroke-width="2px"/>
<path class="bond-4" d="m687.82 89.896 7.108-4.1039" fill="none" stroke="#000" stroke-width="2px"/>
<path class="bond-4" d="m691.35 93.546 4.976-2.8727" fill="none" stroke="#000" stroke-width="2px"/>
<path class="bond-5" d="m673.61 89.896-3.199-1.8467" fill="none" stroke="#000" stroke-width="2px"/>
<path class="bond-5" d="m670.41 88.05-3.198-1.8468" fill="none" stroke="#00f" stroke-width="2px"/>
<path class="bond-6" d="m709.15 85.792 7.108 4.1039" fill="none" stroke="#000" stroke-width="2px"/>
<path class="bond-7" d="m731.7 92.029 3.554-2.052" fill="none" stroke="#000" stroke-width="2px"/>
<path class="bond-7" d="m735.26 89.977 3.554-2.0519" fill="none" stroke="#f00" stroke-width="2px"/>
<path class="bond-7" d="m729.24 87.764 3.554-2.052" fill="none" stroke="#000" stroke-width="2px"/>
<path class="bond-7" d="m732.8 85.712 3.554-2.0519" fill="none" stroke="#f00" stroke-width="2px"/>
<text x="716.252" y="122.727" fill="#0000FF" font-family="sans-serif" font-size="8px"><tspan>NH</tspan></text>
<text x="694.376" y="135.039" fill="#000000" font-family="sans-serif" font-size="8px"><tspan>C:1</tspan></text>
<text x="673.051" y="122.727" fill="#0000FF" font-family="sans-serif" font-size="8px"><tspan>N:2</tspan></text>
<text x="673.051" y="98.1042" fill="#000000" font-family="sans-serif" font-size="8px"><tspan>C:3</tspan></text>
<text x="694.376" y="85.7925" fill="#000000" font-family="sans-serif" font-size="8px"><tspan>C:4</tspan></text>
<text x="715.7" y="98.1042" fill="#000000" font-family="sans-serif" font-size="8px"><tspan>C:5</tspan></text>
<text x="736.749" y="85.7925" fill="#FF0000" font-family="sans-serif" font-size="8px"><tspan>O:6</tspan></text>
<text x="646.8" y="86.2029" fill="#0000FF" font-family="sans-serif" font-size="8px"><tspan>H</tspan><tspan baseline-shift="sub" font-size="6px">2</tspan><tspan>N:7</tspan></text>
<text x="670.375" y="194" fill="#000000" font-family="sans-serif" font-size="12px"><tspan>comp104</tspan></text>
<path class="bond-0" d="m131.33 304.26-3.787 6.558" fill="none" stroke="#00f" stroke-width="2px"/>
<path class="bond-0" d="m127.54 310.82-3.786 6.559" fill="none" stroke="#000" stroke-width="2px"/>
<path class="bond-0" d="m125.93 303.76-2.651 4.591" fill="none" stroke="#00f" stroke-width="2px"/>
<path class="bond-0" d="m123.28 308.36-2.65 4.591" fill="none" stroke="#000" stroke-width="2px"/>
<path class="bond-1" d="m131.33 296.05-3.787-6.558" fill="none" stroke="#00f" stroke-width="2px"/>
<path class="bond-1" d="m127.54 289.49-3.786-6.558" fill="none" stroke="#000" stroke-width="2px"/>
<path class="bond-2" d="m113.72 278.83h-9.292" fill="none" stroke="#000" stroke-width="2px"/>
<path class="bond-2" d="m112.33 283.76h-6.504" fill="none" stroke="#000" stroke-width="2px"/>
<path class="bond-3" d="m94.396 282.94-7.5729 13.116" fill="none" stroke="#000" stroke-width="2px"/>
<path class="bond-4" d="m76.788 297.69h-4.5079" fill="none" stroke="#000" stroke-width="2px"/>
<path class="bond-4" d="m72.28 297.69h-4.5078" fill="none" stroke="#f00" stroke-width="2px"/>
<path class="bond-4" d="m76.788 302.62h-4.5079" fill="none" stroke="#000" stroke-width="2px"/>
<path class="bond-4" d="m72.28 302.62h-4.5078" fill="none" stroke="#f00" stroke-width="2px"/>
<path class="bond-5" d="m86.823 304.26 3.7865 6.558" fill="none" stroke="#000" stroke-width="2px"/>
<path class="bond-5" d="m90.609 310.82 3.7864 6.559" fill="none" stroke="#00f" stroke-width="2px"/>
<path class="bond-6" d="m107.99 321.48h2.867" fill="none" stroke="#00f" stroke-width="2px"/>
<path class="bond-6" d="m110.86 321.48h2.868" fill="none" stroke="#000" stroke-width="2px"/>
<text x="130.143" y="304.26" fill="#0000FF" font-family="sans-serif" font-size="8px"><tspan>N</tspan></text>
<text x="113.723" y="282.936" fill="#000000" font-family="sans-serif" font-size="8px"><tspan>C:1</tspan></text>
<text x="89.0994" y="282.936" fill="#000000" font-family="sans-serif" font-size="8px"><tspan>C:2</tspan></text>
<text x="76.7877" y="304.26" fill="#000000" font-family="sans-serif" font-size="8px"><tspan>C:3</tspan></text>
<text x="51.8885" y="304.26" fill="#FF0000" font-family="sans-serif" font-size="8px"><tspan>O:4</tspan></text>
<text x="85.5423" y="325.584" fill="#0000FF" font-family="sans-serif" font-size="8px"><tspan>NH:5</tspan></text>
<text x="113.723" y="325.584" fill="#000000" font-family="sans-serif" font-size="8px"><tspan>C:6</tspan></text>
<text x="70.3745" y="394" fill="#000000" font-family="sans-serif" font-size="12px"><tspan>comp105</tspan></text>
<path class="bond-0" d="m324.52 325.72 4.271-3.05" fill="none" stroke="#00f" stroke-width="2px"/>
<path class="bond-0" d="m328.79 322.67 4.272-3.049" fill="none" stroke="#000" stroke-width="2px"/>
<path class="bond-1" d="m311.66 326.59-3.815-1.736" fill="none" stroke="#00f" stroke-width="2px"/>
<path class="bond-1" d="m307.84 324.85-3.815-1.737" fill="none" stroke="#000" stroke-width="2px"/>
<path class="bond-2" d="m338.42 311.42-0.788-8.15" fill="none" stroke="#000" stroke-width="2px"/>
<path class="bond-2" d="m337.63 303.26-0.787-8.151" fill="none" stroke="#00f" stroke-width="2px"/>
<path class="bond-3" d="m346.48 319.01 3.539 1.612" fill="none" stroke="#000" stroke-width="2px"/>
<path class="bond-3" d="m350.02 320.62 3.539 1.611" fill="none" stroke="#00f" stroke-width="2px"/>
<path class="bond-3" d="m349.58 315.01 2.477 1.128" fill="none" stroke="#000" stroke-width="2px"/>
<path class="bond-3" d="m352.06 316.14 2.478 1.128" fill="none" stroke="#00f" stroke-width="2px"/>
<path class="bond-4" d="m366.97 321.62 4.271-3.049" fill="none" stroke="#00f" stroke-width="2px"/>
<path class="bond-4" d="m371.24 318.57 4.272-3.049" fill="none" stroke="#000" stroke-width="2px"/>
<path class="bond-5" d="m380.87 307.31-1.575-16.301" fill="none" stroke="#000" stroke-width="2px"/>
<path class="bond-5" d="m375.73 305.34-1.103-11.411" fill="none" stroke="#000" stroke-width="2px"/>
<path class="bond-6" d="m371.23 283.42-7.078-3.223" fill="none" stroke="#000" stroke-width="2px"/>
<path class="bond-7" d="m358.54 272.36-0.788-8.15" fill="none" stroke="#000" stroke-width="2px"/>
<path class="bond-7" d="m357.75 264.21-0.788-8.151" fill="none" stroke="#f00" stroke-width="2px"/>
<path class="bond-7" d="m353.64 272.84-0.788-8.151" fill="none" stroke="#000" stroke-width="2px"/>
<path class="bond-7" d="m352.85 264.69-0.787-8.15" fill="none" stroke="#f00" stroke-width="2px"/>
<path class="bond-8" d="m350.74 280.81-4.272 3.049" fill="none" stroke="#000" stroke-width="2px"/>
<path class="bond-8" d="m346.46 283.86-4.271 3.049" fill="none" stroke="#00f" stroke-width="2px"/>
<path class="bond-9" d="m290.61 323.73-8.543 6.099" fill="none" stroke="#000" stroke-width="2px"/>
<path class="bond-10" d="m295.96 315.52-1.575-16.302" fill="none" stroke="#000" stroke-width="2px"/>
<path class="bond-10" d="m290.83 313.55-1.103-11.411" fill="none" stroke="#000" stroke-width="2px"/>
<path class="bond-11" d="m286.33 291.62-5.73-2.609" fill="none" stroke="#000" stroke-width="2px"/>
<path class="bond-12" d="m265.83 289.01-8.543 6.099" fill="none" stroke="#000" stroke-width="2px"/>
<path class="bond-12" d="m267.41 293.94-5.98 4.269" fill="none" stroke="#000" stroke-width="2px"/>
<path class="bond-13" d="m242.53 295.11-4.382-1.995" fill="none" stroke="#000" stroke-width="2px"/>
<path class="bond-14" d="m251.94 303.32 1.575 16.302" fill="none" stroke="#000" stroke-width="2px"/>
<path class="bond-15" d="m221.95 291.11-4.271 3.05" fill="none" stroke="#000" stroke-width="2px"/>
<path class="bond-15" d="m217.68 294.16-4.272 3.049" fill="none" stroke="#f00" stroke-width="2px"/>
<path class="bond-15" d="m224.81 295.12-4.272 3.049" fill="none" stroke="#000" stroke-width="2px"/>
<path class="bond-15" d="m220.54 298.17-4.271 3.049" fill="none" stroke="#f00" stroke-width="2px"/>
<path class="bond-16" d="m228.74 284.91-0.788-8.151" fill="none" stroke="#000" stroke-width="2px"/>
<path class="bond-16" d="m227.95 276.76-0.787-8.151" fill="none" stroke="#f00" stroke-width="2px"/>
<path class="bond-17" d="m262.92 327.83 4.382 1.995" fill="none" stroke="#000" stroke-width="2px"/>
<path class="bond-17" d="m265.62 323.65 3.067 1.396" fill="none" stroke="#000" stroke-width="2px"/>
<text x="311.658" y="333.929" fill="#0000FF" font-family="sans-serif" font-size="8px"><tspan>NH</tspan></text>
<text x="331.147" y="319.623" fill="#000000" font-family="sans-serif" font-size="8px"><tspan>C:1</tspan></text>
<text x="353.557" y="329.826" fill="#0000FF" font-family="sans-serif" font-size="8px"><tspan>N:2</tspan></text>
<text x="373.598" y="315.52" fill="#000000" font-family="sans-serif" font-size="8px"><tspan>C:3</tspan></text>
<text x="371.229" y="291.011" fill="#000000" font-family="sans-serif" font-size="8px"><tspan>C:4</tspan></text>
<text x="348.819" y="280.808" fill="#000000" font-family="sans-serif" font-size="8px"><tspan>C:5</tspan></text>
<text x="346.174" y="256.299" fill="#FF0000" font-family="sans-serif" font-size="8px"><tspan>O:6</tspan></text>
<text x="325.221" y="295.114" fill="#0000FF" font-family="sans-serif" font-size="8px"><tspan>NH:7</tspan></text>
<text x="288.696" y="323.726" fill="#000000" font-family="sans-serif" font-size="8px"><tspan>C:8</tspan></text>
<text x="286.327" y="299.217" fill="#000000" font-family="sans-serif" font-size="8px"><tspan>C:9</tspan></text>
<text x="261.178" y="289.014" fill="#000000" font-family="sans-serif" font-size="8px"><tspan>C:10</tspan></text>
<text x="241.137" y="303.32" fill="#000000" font-family="sans-serif" font-size="8px"><tspan>C:11</tspan></text>
<text x="218.727" y="293.118" fill="#000000" font-family="sans-serif" font-size="8px"><tspan>C:12</tspan></text>
<text x="198.41" y="307.424" fill="#FF0000" font-family="sans-serif" font-size="8px"><tspan>O:13</tspan></text>
<text x="212.525" y="268.608" fill="#FF0000" font-family="sans-serif" font-size="8px"><tspan>OH:14</tspan></text>
<text x="243.506" y="327.83" fill="#000000" font-family="sans-serif" font-size="8px"><tspan>C:15</tspan></text>
<text x="265.916" y="338.033" fill="#000000" font-family="sans-serif" font-size="8px"><tspan>C:16</tspan></text>
<text x="270.375" y="394" fill="#000000" font-family="sans-serif" font-size="12px"><tspan>comp106</tspan></text>
<path class="bond-0" d="m564.01 341.86-4.198-5.962" fill="none" stroke="#0c0" stroke-width="2px"/>
<path class="bond-0" d="m559.81 335.9-4.199-5.963" fill="none" stroke="#000" stroke-width="2px"/>
<path class="bond-1" d="m545.06 326.52-6.453 0.582" fill="none" stroke="#000" stroke-width="2px"/>
<path class="bond-1" d="m543.65 321.71-4.517 0.407" fill="none" stroke="#000" stroke-width="2px"/>
<path class="bond-2" d="m554.62 321.73 6.546-14.136" fill="none" stroke="#000" stroke-width="2px"/>
<path class="bond-3" d="m560.18 299.39-8.397-11.925" fill="none" stroke="#000" stroke-width="2px"/>
<path class="bond-3" d="m554.9 300.43-5.878-8.347" fill="none" stroke="#000" stroke-width="2px"/>
<path class="bond-4" d="m541.23 284.05-9.192 0.829" fill="none" stroke="#000" stroke-width="2px"/>
<path class="bond-5" d="m521.48 281.46-4.198-5.963" fill="none" stroke="#000" stroke-width="2px"/>
<path class="bond-5" d="m517.28 275.5-4.199-5.962" fill="none" stroke="#00f" stroke-width="2px"/>
<path class="bond-6" d="m522.47 289.67-6.547 14.136" fill="none" stroke="#000" stroke-width="2px"/>
<path class="bond-6" d="m525.96 293.86-4.582 9.896" fill="none" stroke="#000" stroke-width="2px"/>
<path class="bond-7" d="m511.59 261.33 2.577-7.548" fill="none" stroke="#00f" stroke-width="2px"/>
<path class="bond-7" d="m514.17 253.78 2.576-7.547" fill="none" stroke="#000" stroke-width="2px"/>
<path class="bond-8" d="m502.53 265.32-9.289-0.137" fill="none" stroke="#00f" stroke-width="2px"/>
<path class="bond-9" d="m484.31 260.97-4.728-15.32" fill="none" stroke="#00f" stroke-width="2px"/>
<path class="bond-9" d="m488.3 257.22-3.31-10.724" fill="none" stroke="#00f" stroke-width="2px"/>
<path class="bond-10" d="m484.14 237.44 4.239-2.984" fill="none" stroke="#00f" stroke-width="2px"/>
<path class="bond-10" d="m488.38 234.45 4.238-2.985" fill="none" stroke="#000" stroke-width="2px"/>
<path class="bond-11" d="m503.92 231.47 8.752 6.559" fill="none" stroke="#000" stroke-width="2px"/>
<path class="bond-11" d="m502.28 236.39 6.126 4.591" fill="none" stroke="#000" stroke-width="2px"/>
<path class="bond-12" d="m503.62 308.85-3.714 0.334" fill="none" stroke="#000" stroke-width="2px"/>
<path class="bond-13" d="m516.91 312.02 8.397 11.925" fill="none" stroke="#000" stroke-width="2px"/>
<path class="bond-14" d="m486.61 306.02-4.198-5.962" fill="none" stroke="#000" stroke-width="2px"/>
<path class="bond-14" d="m482.41 300.06-4.199-5.963" fill="none" stroke="#00f" stroke-width="2px"/>
<path class="bond-15" d="m487.6 314.23-6.546 14.136" fill="none" stroke="#000" stroke-width="2px"/>
<path class="bond-15" d="m482.15 314.28-4.583 9.895" fill="none" stroke="#000" stroke-width="2px"/>
<path class="bond-16" d="m461.36 291.25-0.078 7e-3" fill="none" stroke="#00f" stroke-width="2px"/>
<path class="bond-16" d="m461.28 291.26-0.079 7e-3" fill="none" stroke="#000" stroke-width="2px"/>
<path class="bond-17" d="m448.9 296.3-3.273 7.068" fill="none" stroke="#000" stroke-width="2px"/>
<path class="bond-17" d="m445.62 303.37-3.273 7.068" fill="none" stroke="#00f" stroke-width="2px"/>
<path class="bond-17" d="m452.38 300.49-2.291 4.948" fill="none" stroke="#000" stroke-width="2px"/>
<path class="bond-17" d="m450.09 305.44-2.292 4.947" fill="none" stroke="#00f" stroke-width="2px"/>
<path class="bond-18" d="m443.34 318.65 4.199 5.963" fill="none" stroke="#00f" stroke-width="2px"/>
<path class="bond-18" d="m447.54 324.61 4.198 5.962" fill="none" stroke="#000" stroke-width="2px"/>
<path class="bond-19" d="m468.75 333.4-3.714 0.335" fill="none" stroke="#000" stroke-width="2px"/>
<path class="bond-20" d="m450.49 337.75-3.273 7.068" fill="none" stroke="#000" stroke-width="2px"/>
<path class="bond-20" d="m447.22 344.81-3.273 7.068" fill="none" stroke="#f00" stroke-width="2px"/>
<path class="bond-20" d="m454.96 339.82-3.273 7.068" fill="none" stroke="#000" stroke-width="2px"/>
<path class="bond-20" d="m451.69 346.88-3.274 7.068" fill="none" stroke="#f00" stroke-width="2px"/>
<path class="bond-21" d="m526.3 332.15-3.273 7.068" fill="none" stroke="#000" stroke-width="2px"/>
<path class="bond-21" d="m523.03 339.22-3.273 7.068" fill="none" stroke="#3cc" stroke-width="2px"/>
<text x="562.249" y="350.07" fill="#00CC00" font-family="sans-serif" font-size="8px"><tspan>Cl</tspan></text>
<text x="545.057" y="329.937" fill="#000000" font-family="sans-serif" font-size="8px"><tspan>C:1</tspan></text>
<text x="555.405" y="307.594" fill="#000000" font-family="sans-serif" font-size="8px"><tspan>C:2</tspan></text>
<text x="541.228" y="287.461" fill="#000000" font-family="sans-serif" font-size="8px"><tspan>C:3</tspan></text>
<text x="516.704" y="289.672" fill="#000000" font-family="sans-serif" font-size="8px"><tspan>C:4</tspan></text>
<text x="502.528" y="269.539" fill="#0000FF" font-family="sans-serif" font-size="8px"><tspan>N:5</tspan></text>
<text x="477.907" y="269.174" fill="#0000FF" font-family="sans-serif" font-size="8px"><tspan>N:6</tspan></text>
<text x="470.646" y="245.646" fill="#0000FF" font-family="sans-serif" font-size="8px"><tspan>N:7</tspan></text>
<text x="490.778" y="231.469" fill="#000000" font-family="sans-serif" font-size="8px"><tspan>C:8</tspan></text>
<text x="510.483" y="246.236" fill="#000000" font-family="sans-serif" font-size="8px"><tspan>C:9</tspan></text>
<text x="503.618" y="312.015" fill="#000000" font-family="sans-serif" font-size="8px"><tspan>C:10</tspan></text>
<text x="479.094" y="314.226" fill="#000000" font-family="sans-serif" font-size="8px"><tspan>C:11</tspan></text>
<text x="461.36" y="294.093" fill="#0000FF" font-family="sans-serif" font-size="8px"><tspan>NH:12</tspan></text>
<text x="440.393" y="296.304" fill="#000000" font-family="sans-serif" font-size="8px"><tspan>C:13</tspan></text>
<text x="430.046" y="318.648" fill="#0000FF" font-family="sans-serif" font-size="8px"><tspan>N:14</tspan></text>
<text x="468.747" y="336.57" fill="#000000" font-family="sans-serif" font-size="8px"><tspan>C:15</tspan></text>
<text x="444.223" y="338.781" fill="#000000" font-family="sans-serif" font-size="8px"><tspan>C:16</tspan></text>
<text x="433.6" y="361.125" fill="#FF0000" font-family="sans-serif" font-size="8px"><tspan>O:17</tspan></text>
<text x="517.794" y="332.148" fill="#000000" font-family="sans-serif" font-size="8px"><tspan>C:18</tspan></text>
<text x="507.994" y="354.492" fill="#33CCCC" font-family="sans-serif" font-size="8px"><tspan>F:19</tspan></text>
<text x="470.375" y="394" fill="#000000" font-family="sans-serif" font-size="12px"><tspan>comp595</tspan></text>
<path class="bond-0" d="m759.36 337.65-3.626-6.737" fill="none" stroke="#0c0" stroke-width="2px"/>
<path class="bond-0" d="m755.73 330.91-3.626-6.737" fill="none" stroke="#000" stroke-width="2px"/>
<path class="bond-1" d="m742.23 319.84-6.542-0.196" fill="none" stroke="#000" stroke-width="2px"/>
<path class="bond-1" d="m741.4 314.89-4.579-0.137" fill="none" stroke="#000" stroke-width="2px"/>
<path class="bond-2" d="m752.43 315.97 7.871-12.74" fill="none" stroke="#000" stroke-width="2px"/>
<path class="bond-3" d="m760.63 295.02-7.252-13.475" fill="none" stroke="#000" stroke-width="2px"/>
<path class="bond-3" d="m755.2 295.34-5.077-9.433" fill="none" stroke="#000" stroke-width="2px"/>
<path class="bond-4" d="m743.5 277.22-9.281-0.277" fill="none" stroke="#000" stroke-width="2px"/>
<path class="bond-5" d="m724.34 272.6-3.626-6.737" fill="none" stroke="#000" stroke-width="2px"/>
<path class="bond-5" d="m720.72 265.87-3.626-6.737" fill="none" stroke="#7F4C19" stroke-width="2px"/>
<path class="bond-6" d="m724.02 280.81-7.871 12.74" fill="none" stroke="#000" stroke-width="2px"/>
<path class="bond-6" d="m727.03 285.31-5.51 8.918" fill="none" stroke="#000" stroke-width="2px"/>
<path class="bond-7" d="m705.95 297.43-9.28-0.277" fill="none" stroke="#000" stroke-width="2px"/>
<path class="bond-8" d="m715.82 301.76 7.253 13.474" fill="none" stroke="#000" stroke-width="2px"/>
<path class="bond-9" d="m686.79 292.82-3.626-6.738" fill="none" stroke="#000" stroke-width="2px"/>
<path class="bond-9" d="m683.16 286.08-3.626-6.737" fill="none" stroke="#00f" stroke-width="2px"/>
<path class="bond-10" d="m686.46 301.03-7.871 12.74" fill="none" stroke="#000" stroke-width="2px"/>
<path class="bond-10" d="m681.09 300.35-5.51 8.918" fill="none" stroke="#000" stroke-width="2px"/>
<path class="bond-11" d="m666.11 274.91-2.862-0.086" fill="none" stroke="#00f" stroke-width="2px"/>
<path class="bond-11" d="m663.24 274.82-2.862-0.085" fill="none" stroke="#000" stroke-width="2px"/>
<path class="bond-12" d="m650.18 278.61-3.936 6.37" fill="none" stroke="#000" stroke-width="2px"/>
<path class="bond-12" d="m646.25 284.98-3.935 6.37" fill="none" stroke="#00f" stroke-width="2px"/>
<path class="bond-12" d="m653.19 283.11-2.755 4.459" fill="none" stroke="#000" stroke-width="2px"/>
<path class="bond-12" d="m650.44 287.57-2.755 4.459" fill="none" stroke="#00f" stroke-width="2px"/>
<path class="bond-13" d="m641.98 299.56 3.626 6.737" fill="none" stroke="#00f" stroke-width="2px"/>
<path class="bond-13" d="m645.61 306.3 3.626 6.737" fill="none" stroke="#000" stroke-width="2px"/>
<path class="bond-14" d="m665.65 317.56-3.803-0.114" fill="none" stroke="#000" stroke-width="2px"/>
<path class="bond-15" d="m646.82 319.95-3.936 6.37" fill="none" stroke="#000" stroke-width="2px"/>
<path class="bond-15" d="m642.88 326.32-3.935 6.37" fill="none" stroke="#f00" stroke-width="2px"/>
<path class="bond-15" d="m651 322.53-3.936 6.37" fill="none" stroke="#000" stroke-width="2px"/>
<path class="bond-15" d="m647.07 328.9-3.936 6.37" fill="none" stroke="#f00" stroke-width="2px"/>
<text x="756.914" y="345.859" fill="#00CC00" font-family="sans-serif" font-size="8px"><tspan>Cl</tspan></text>
<text x="742.229" y="324.177" fill="#000000" font-family="sans-serif" font-size="8px"><tspan>C:1</tspan></text>
<text x="755.171" y="303.229" fill="#000000" font-family="sans-serif" font-size="8px"><tspan>C:2</tspan></text>
<text x="743.501" y="281.547" fill="#000000" font-family="sans-serif" font-size="8px"><tspan>C:3</tspan></text>
<text x="718.888" y="280.813" fill="#000000" font-family="sans-serif" font-size="8px"><tspan>C:4</tspan></text>
<text x="705.849" y="259.131" fill="#7F4C19" font-family="sans-serif" font-size="8px"><tspan>Br:5</tspan></text>
<text x="705.946" y="301.761" fill="#000000" font-family="sans-serif" font-size="8px"><tspan>C:6</tspan></text>
<text x="681.334" y="301.026" fill="#000000" font-family="sans-serif" font-size="8px"><tspan>C:7</tspan></text>
<text x="666.107" y="279.344" fill="#0000FF" font-family="sans-serif" font-size="8px"><tspan>NH:8</tspan></text>
<text x="645.051" y="278.61" fill="#000000" font-family="sans-serif" font-size="8px"><tspan>C:9</tspan></text>
<text x="629.37" y="299.558" fill="#0000FF" font-family="sans-serif" font-size="8px"><tspan>N:10</tspan></text>
<text x="665.653" y="321.974" fill="#000000" font-family="sans-serif" font-size="8px"><tspan>C:11</tspan></text>
<text x="641.04" y="321.24" fill="#000000" font-family="sans-serif" font-size="8px"><tspan>C:12</tspan></text>
<text x="627.822" y="342.188" fill="#FF0000" font-family="sans-serif" font-size="8px"><tspan>O:13</tspan></text>
<text x="714.877" y="323.443" fill="#000000" font-family="sans-serif" font-size="8px"><tspan>C:14</tspan></text>
<text x="670.375" y="394" fill="#000000" font-family="sans-serif" font-size="12px"><tspan>comp596</tspan></text>
<path class="bond-0" d="m62.766 568.53 4.6035-4.297" fill="none" stroke="#0c0" stroke-width="2px"/>
<path class="bond-0" d="m67.369 564.23 4.6035-4.297" fill="none" stroke="#000" stroke-width="2px"/>
<path class="bond-1" d="m75.42 551.73-3.6515-15.782" fill="none" stroke="#000" stroke-width="2px"/>
<path class="bond-1" d="m79.67 548.25-2.5561-11.048" fill="none" stroke="#000" stroke-width="2px"/>
<path class="bond-2" d="m84.035 558.17 8.2191 2.508" fill="none" stroke="#000" stroke-width="2px"/>
<path class="bond-3" d="m104.32 558.92 9.207-8.594" fill="none" stroke="#000" stroke-width="2px"/>
<path class="bond-3" d="m102.34 554.03 6.445-6.016" fill="none" stroke="#000" stroke-width="2px"/>
<path class="bond-4" d="m116.97 542.12-3.651-15.782" fill="none" stroke="#000" stroke-width="2px"/>
<path class="bond-5" d="m116.77 518.13 4.603-4.297" fill="none" stroke="#000" stroke-width="2px"/>
<path class="bond-5" d="m121.37 513.83 4.604-4.297" fill="none" stroke="#00f" stroke-width="2px"/>
<path class="bond-6" d="m104.7 519.89-5.4798-1.673" fill="none" stroke="#000" stroke-width="2px"/>
<path class="bond-6" d="m102.44 524.35-3.8364-1.171" fill="none" stroke="#000" stroke-width="2px"/>
<path class="bond-7" d="m138.04 506.91 3.051 0.592" fill="none" stroke="#00f" stroke-width="2px"/>
<path class="bond-7" d="m141.09 507.51 3.051 0.591" fill="none" stroke="#000" stroke-width="2px"/>
<path class="bond-8" d="m129.86 501.32-2-16.231" fill="none" stroke="#00f" stroke-width="2px"/>
<path class="bond-9" d="m135.02 477.41 6.979-3.258" fill="none" stroke="#00f" stroke-width="2px"/>
<path class="bond-9" d="m138.15 481.38 4.886-2.281" fill="none" stroke="#00f" stroke-width="2px"/>
<path class="bond-10" d="m153.5 474.68 4.57 4.897" fill="none" stroke="#00f" stroke-width="2px"/>
<path class="bond-10" d="m158.07 479.57 4.57 4.896" fill="none" stroke="#000" stroke-width="2px"/>
<path class="bond-11" d="m174.14 487.63 4.006-0.494" fill="none" stroke="#000" stroke-width="2px"/>
<path class="bond-11" d="m178.14 487.13 4.007-0.494" fill="none" stroke="#0c0" stroke-width="2px"/>
<path class="bond-12" d="m164.2 492.68-7.383 13.334" fill="none" stroke="#000" stroke-width="2px"/>
<path class="bond-12" d="m158.78 492.29-5.168 9.334" fill="none" stroke="#000" stroke-width="2px"/>
<path class="bond-13" d="m87.87 510.94-3.6514-15.782" fill="none" stroke="#000" stroke-width="2px"/>
<path class="bond-14" d="m84.422 519.15-9.207 8.594" fill="none" stroke="#000" stroke-width="2px"/>
<path class="bond-15" d="m87.665 486.95 4.6035-4.297" fill="none" stroke="#000" stroke-width="2px"/>
<path class="bond-15" d="m92.269 482.65 4.6035-4.297" fill="none" stroke="#00f" stroke-width="2px"/>
<path class="bond-16" d="m72.864 487.88-2.7408-0.836" fill="none" stroke="#000" stroke-width="2px"/>
<path class="bond-16" d="m73.89 483.04-1.9185-0.586" fill="none" stroke="#000" stroke-width="2px"/>
<path class="bond-17" d="m100.32 470.15-1.8253-7.891" fill="none" stroke="#00f" stroke-width="2px"/>
<path class="bond-17" d="m98.494 462.26-1.8258-7.891" fill="none" stroke="#000" stroke-width="2px"/>
<path class="bond-18" d="m85.313 447.08-1.3703-0.418" fill="none" stroke="#000" stroke-width="2px"/>
<path class="bond-18" d="m83.943 446.67-1.3704-0.418" fill="none" stroke="#00f" stroke-width="2px"/>
<path class="bond-18" d="m83.465 451.67-0.9592-0.293" fill="none" stroke="#000" stroke-width="2px"/>
<path class="bond-18" d="m82.505 451.38-0.9593-0.293" fill="none" stroke="#00f" stroke-width="2px"/>
<path class="bond-19" d="m67.771 447.18-4.6035 4.297" fill="none" stroke="#00f" stroke-width="2px"/>
<path class="bond-19" d="m63.167 451.47-4.6035 4.297" fill="none" stroke="#000" stroke-width="2px"/>
<path class="bond-20" d="m58.768 479.76-3.6515-15.781" fill="none" stroke="#000" stroke-width="2px"/>
<path class="bond-21" d="m44.481 454.34-1.2324-0.376" fill="none" stroke="#000" stroke-width="2px"/>
<path class="bond-21" d="m43.249 453.97-1.2325-0.376" fill="none" stroke="#f00" stroke-width="2px"/>
<path class="bond-21" d="m43.043 459.05-1.2324-0.376" fill="none" stroke="#000" stroke-width="2px"/>
<path class="bond-21" d="m41.811 458.68-1.2324-0.376" fill="none" stroke="#f00" stroke-width="2px"/>
<text x="53.7184" y="576.739" fill="#00CC00" font-family="sans-serif" font-size="8px"><tspan>Cl</tspan></text>
<text x="68.7036" y="559.937" fill="#000000" font-family="sans-serif" font-size="8px"><tspan>C:1</tspan></text>
<text x="92.2544" y="567.125" fill="#000000" font-family="sans-serif" font-size="8px"><tspan>C:2</tspan></text>
<text x="110.255" y="550.323" fill="#000000" font-family="sans-serif" font-size="8px"><tspan>C:3</tspan></text>
<text x="104.704" y="526.333" fill="#000000" font-family="sans-serif" font-size="8px"><tspan>C:4</tspan></text>
<text x="122.704" y="509.532" fill="#0000FF" font-family="sans-serif" font-size="8px"><tspan>N:5</tspan></text>
<text x="119.692" y="485.093" fill="#0000FF" font-family="sans-serif" font-size="8px"><tspan>N:6</tspan></text>
<text x="142.003" y="474.676" fill="#0000FF" font-family="sans-serif" font-size="8px"><tspan>N:7</tspan></text>
<text x="158.805" y="492.677" fill="#000000" font-family="sans-serif" font-size="8px"><tspan>C:8</tspan></text>
<text x="182.15" y="489.664" fill="#00CC00" font-family="sans-serif" font-size="8px"><tspan>Cl:9</tspan></text>
<text x="144.138" y="514.219" fill="#000000" font-family="sans-serif" font-size="8px"><tspan>C:10</tspan></text>
<text x="78.4141" y="519.146" fill="#000000" font-family="sans-serif" font-size="8px"><tspan>C:11</tspan></text>
<text x="72.8636" y="495.156" fill="#000000" font-family="sans-serif" font-size="8px"><tspan>C:12</tspan></text>
<text x="87.3068" y="478.354" fill="#0000FF" font-family="sans-serif" font-size="8px"><tspan>NH:13</tspan></text>
<text x="85.3133" y="454.365" fill="#000000" font-family="sans-serif" font-size="8px"><tspan>C:14</tspan></text>
<text x="61.7625" y="447.177" fill="#0000FF" font-family="sans-serif" font-size="8px"><tspan>N:15</tspan></text>
<text x="49.3127" y="487.968" fill="#000000" font-family="sans-serif" font-size="8px"><tspan>C:16</tspan></text>
<text x="43.7622" y="463.979" fill="#000000" font-family="sans-serif" font-size="8px"><tspan>C:17</tspan></text>
<text x="19.9355" y="456.791" fill="#FF0000" font-family="sans-serif" font-size="8px"><tspan>O:18</tspan></text>
<text x="60.4138" y="535.947" fill="#000000" font-family="sans-serif" font-size="8px"><tspan>C:19</tspan></text>
<text x="70.3745" y="594" fill="#000000" font-family="sans-serif" font-size="12px"><tspan>comp594</tspan></text>
</svg>
