<?xml version="1.0" encoding="UTF-8"?>
<svg baseProfile="full" version="1.1" viewBox="0 0 800 200" xml:space="preserve" xmlns="http://www.w3.org/2000/svg">

 <!-- END OF HEADER -->
<rect width="800" height="200" fill="#fff"> </rect>
<path class="bond-0" d="m25.187 134.21-6.509 11.573" fill="none" stroke="#000" stroke-width="2px"/>
<path class="bond-0" d="m18.678 145.78-6.5089 11.572" fill="none" stroke="#f00" stroke-width="2px"/>
<path class="bond-1" d="m25.187 134.21-3.1617-27.141" fill="none" stroke="#000" stroke-width="2px"/>
<path class="bond-2" d="m25.187 134.21 21.969 4.412" fill="none" stroke="#000" stroke-width="2px"/>
<path class="bond-2" d="m27.189 141.31 15.378 3.088" fill="none" stroke="#000" stroke-width="2px"/>
<path class="bond-3" d="m58.015 146.14 2.5243 21.668" fill="none" stroke="#000" stroke-width="2px"/>
<path class="bond-4" d="m60.455 135.2 4.9701-8.836" fill="none" stroke="#000" stroke-width="2px"/>
<path class="bond-4" d="m65.426 126.36 4.97-8.837" fill="none" stroke="#00f" stroke-width="2px"/>
<path class="bond-5" d="m50.955 177.97-9.399 4.312" fill="none" stroke="#000" stroke-width="2px"/>
<path class="bond-5" d="m46.807 172.65-6.5793 3.019" fill="none" stroke="#000" stroke-width="2px"/>
<path class="bond-6" d="m26.294 181.5-6.0817-6.604" fill="none" stroke="#000" stroke-width="2px"/>
<path class="bond-6" d="m20.212 174.9-6.0816-6.603" fill="none" stroke="#f00" stroke-width="2px"/>
<path class="bond-7" d="m68.434 106.58-6.0817-6.6037" fill="none" stroke="#00f" stroke-width="2px"/>
<path class="bond-7" d="m62.352 99.978-6.0816-6.6034" fill="none" stroke="#000" stroke-width="2px"/>
<path class="bond-8" d="m83.695 110.86 4.2583-0.496" fill="none" stroke="#00f" stroke-width="2px"/>
<path class="bond-8" d="m87.954 110.37 4.2583-0.496" fill="none" stroke="#000" stroke-width="2px"/>
<path class="bond-9" d="m41.008 92.592-9.399 4.3121" fill="none" stroke="#000" stroke-width="2px"/>
<path class="bond-9" d="m42.337 99.208-6.5793 3.0184" fill="none" stroke="#000" stroke-width="2px"/>
<path class="bond-10" d="m52.329 82.43 4.2667-21.246" fill="none" stroke="#000" stroke-width="2px"/>
<path class="bond-11" d="m53.648 47.775-6.106-5.3748" fill="none" stroke="#000" stroke-width="2px"/>
<path class="bond-11" d="m47.542 42.4-6.1061-5.3747" fill="none" stroke="#f00" stroke-width="2px"/>
<path class="bond-11" d="m49.309 52.704-6.1061-5.3747" fill="none" stroke="#000" stroke-width="2px"/>
<path class="bond-11" d="m43.203 47.329-6.106-5.3748" fill="none" stroke="#f00" stroke-width="2px"/>
<path class="bond-12" d="m67.917 52.263 3.3231-1.1212" fill="none" stroke="#000" stroke-width="2px"/>
<path class="bond-12" d="m71.24 51.142 3.3231-1.1213" fill="none" stroke="#f00" stroke-width="2px"/>
<path class="bond-13" d="m89.904 39.743 2.1334-10.623" fill="none" stroke="#f00" stroke-width="2px"/>
<path class="bond-13" d="m92.038 29.12 2.1334-10.623" fill="none" stroke="#000" stroke-width="2px"/>
<path class="bond-14" d="m111.46 104.08 4.145-9.5992" fill="none" stroke="#000" stroke-width="2px"/>
<path class="bond-14" d="m115.61 94.485 4.145-9.5994" fill="none" stroke="#f00" stroke-width="2px"/>
<path class="bond-14" d="m105.44 101.48 4.145-9.5995" fill="none" stroke="#000" stroke-width="2px"/>
<path class="bond-14" d="m109.58 91.882 4.145-9.5994" fill="none" stroke="#f00" stroke-width="2px"/>
<path class="bond-15" d="m110.16 113.73 5.728 7.7" fill="none" stroke="#000" stroke-width="2px"/>
<path class="bond-15" d="m115.88 121.43 5.727 7.7" fill="none" stroke="#f00" stroke-width="2px"/>
<path class="bond-16" d="m139.92 132.94 2.249-0.262" fill="none" stroke="#f00" stroke-width="2px"/>
<path class="bond-16" d="m142.17 132.68 2.248-0.262" fill="none" stroke="#000" stroke-width="2px"/>
<path class="bond-17" d="m158.93 136.27 2.524 21.668" fill="none" stroke="#000" stroke-width="2px"/>
<path class="bond-18" d="m157.66 125.33-2.525-21.668" fill="none" stroke="#000" stroke-width="2px"/>
<path class="bond-19" d="m172.17 129.18 4.864-0.566" fill="none" stroke="#000" stroke-width="2px"/>
<text x="47.1557" y="146.144" fill="#000000" font-family="sans-serif" font-size="10px"><tspan>C:1</tspan></text>
<text x="50.9549" y="178.757" fill="#000000" font-family="sans-serif" font-size="10px"><tspan>C:2</tspan></text>
<text x="21.1121" y="192.448" fill="#000000" font-family="sans-serif" font-size="10px"><tspan>C:3</tspan></text>
<text x="-1.49886" y="168.297" fill="#FF0000" font-family="sans-serif" font-size="10px"><tspan>O:4</tspan></text>
<text x="63.2515" y="117.526" fill="#0000FF" font-family="sans-serif" font-size="10px"><tspan>N:5</tspan></text>
<text x="41.0084" y="93.3749" fill="#000000" font-family="sans-serif" font-size="10px"><tspan>C:6</tspan></text>
<text x="11.1656" y="107.066" fill="#000000" font-family="sans-serif" font-size="10px"><tspan>C:7</tspan></text>
<text x="47.4731" y="61.1841" fill="#000000" font-family="sans-serif" font-size="10px"><tspan>C:8</tspan></text>
<text x="22.4595" y="39.4901" fill="#FF0000" font-family="sans-serif" font-size="10px"><tspan>O:9</tspan></text>
<text x="74.5631" y="50.6873" fill="#FF0000" font-family="sans-serif" font-size="10px"><tspan>O:10</tspan></text>
<text x="81.3957" y="18.4964" fill="#000000" font-family="sans-serif" font-size="10px"><tspan>C:11</tspan></text>
<text x="92.2119" y="113.727" fill="#000000" font-family="sans-serif" font-size="10px"><tspan>C:12</tspan></text>
<text x="104.86" y="83.5838" fill="#FF0000" font-family="sans-serif" font-size="10px"><tspan>O:13</tspan></text>
<text x="111.441" y="140.071" fill="#FF0000" font-family="sans-serif" font-size="10px"><tspan>O:14</tspan></text>
<text x="144.422" y="136.272" fill="#000000" font-family="sans-serif" font-size="10px"><tspan>C:15</tspan></text>
<text x="148.221" y="168.885" fill="#000000" font-family="sans-serif" font-size="10px"><tspan>C:16</tspan></text>
<text x="140.622" y="103.659" fill="#000000" font-family="sans-serif" font-size="10px"><tspan>C:17</tspan></text>
<text x="177.035" y="132.473" fill="#000000" font-family="sans-serif" font-size="10px"><tspan>C:18</tspan></text>
<text x="70.3745" y="194" fill="#000000" font-family="sans-serif" font-size="12px"><tspan>comp472</tspan></text>
</svg>
