<?xml version="1.0" encoding="UTF-8"?>
<svg baseProfile="full" version="1.1" viewBox="0 0 800 200" xml:space="preserve" xmlns="http://www.w3.org/2000/svg">

 <!-- END OF HEADER -->
<rect width="800" height="200" fill="#fff"> </rect>
<path class="bond-0" d="m115.13 100.43-5.891-8.1075" fill="none" stroke="#000" stroke-width="2px"/>
<path class="bond-0" d="m109.24 92.322-5.891-8.108" fill="none" stroke="#cc0" stroke-width="2px"/>
<path class="bond-1" d="m115.13 100.43-11.782 16.216" fill="none" stroke="#000" stroke-width="2px"/>
<path class="bond-1" d="m109.28 99.894-8.247 11.351" fill="none" stroke="#000" stroke-width="2px"/>
<path class="bond-2" d="m92.429 118.3-8.2905-2.693" fill="none" stroke="#000" stroke-width="2px"/>
<path class="bond-3" d="m76.279 108.84v-8.415" fill="none" stroke="#000" stroke-width="2px"/>
<path class="bond-3" d="m76.279 100.43v-8.4144" fill="none" stroke="#00f" stroke-width="2px"/>
<path class="bond-3" d="m81.328 106.32v-5.891" fill="none" stroke="#000" stroke-width="2px"/>
<path class="bond-3" d="m81.328 100.43v-5.89" fill="none" stroke="#00f" stroke-width="2px"/>
<path class="bond-4" d="m84.138 85.254 4.2842-1.3921" fill="none" stroke="#00f" stroke-width="2px"/>
<path class="bond-4" d="m88.423 83.861 4.2841-1.392" fill="none" stroke="#cc0" stroke-width="2px"/>
<text x="92.4289" y="125.06" fill="#000000" font-family="sans-serif" font-size="8px"><tspan>C:1</tspan></text>
<text x="68.4197" y="117.259" fill="#000000" font-family="sans-serif" font-size="8px"><tspan>C:2</tspan></text>
<text x="68.4197" y="92.0146" fill="#0000FF" font-family="sans-serif" font-size="8px"><tspan>N:3</tspan></text>
<text x="92.7067" y="84.2135" fill="#CCCC00" font-family="sans-serif" font-size="8px"><tspan>S:4</tspan></text>
<text x="74.3794" y="194" fill="#000000" font-family="sans-serif" font-size="12px"><tspan>comp10</tspan></text>
<path class="bond-0" d="m214.55 88.922 2.038 10.278" fill="none" stroke="#000" stroke-width="2px"/>
<path class="bond-0" d="m216.58 99.199 2.038 10.278" fill="none" stroke="#cc0" stroke-width="2px"/>
<path class="bond-1" d="m214.55 88.922 14.51-8.1152" fill="none" stroke="#000" stroke-width="2px"/>
<path class="bond-1" d="m219.19 92.111 10.157-5.6806" fill="none" stroke="#000" stroke-width="2px"/>
<path class="bond-2" d="m241.12 80.806 9.435 8.7318" fill="none" stroke="#000" stroke-width="2px"/>
<path class="bond-3" d="m253.16 97.953-3.348 7.2529" fill="none" stroke="#000" stroke-width="2px"/>
<path class="bond-3" d="m249.82 105.21-3.349 7.252" fill="none" stroke="#00f" stroke-width="2px"/>
<path class="bond-3" d="m247.58 98.012-2.344 5.0766" fill="none" stroke="#000" stroke-width="2px"/>
<path class="bond-3" d="m245.23 103.09-2.344 5.077" fill="none" stroke="#00f" stroke-width="2px"/>
<path class="bond-4" d="m262.97 92.187 4.381-0.8688" fill="none" stroke="#000" stroke-width="2px"/>
<path class="bond-4" d="m267.35 91.318 4.38-0.8687" fill="none" stroke="#f00" stroke-width="2px"/>
<path class="bond-5" d="m236.66 115.73-4.813-0.573" fill="none" stroke="#00f" stroke-width="2px"/>
<path class="bond-5" d="m231.85 115.16-4.814-0.572" fill="none" stroke="#cc0" stroke-width="2px"/>
<path class="bond-6" d="m283.56 93.042 4.631 5.2872" fill="none" stroke="#f00" stroke-width="2px"/>
<path class="bond-6" d="m288.19 98.329 4.632 5.2876" fill="none" stroke="#000" stroke-width="2px"/>
<path class="bond-7" d="m292.68 111.22-2.634 7.743" fill="none" stroke="#000" stroke-width="2px"/>
<path class="bond-7" d="m290.05 118.96-2.633 7.742" fill="none" stroke="#f00" stroke-width="2px"/>
<path class="bond-7" d="m297.46 112.84-2.634 7.743" fill="none" stroke="#000" stroke-width="2px"/>
<path class="bond-7" d="m294.83 120.59-2.633 7.743" fill="none" stroke="#f00" stroke-width="2px"/>
<path class="bond-8" d="m304.36 106.26 9.044-1.793" fill="none" stroke="#000" stroke-width="2px"/>
<path class="bond-9" d="m322.7 98.706 5.266-15.486" fill="none" stroke="#000" stroke-width="2px"/>
<path class="bond-10" d="m324.95 107.12 9.263 10.574" fill="none" stroke="#000" stroke-width="2px"/>
<path class="bond-10" d="m330.14 105.38 6.484 7.402" fill="none" stroke="#000" stroke-width="2px"/>
<path class="bond-11" d="m345.76 120.34 6.235-1.237" fill="none" stroke="#000" stroke-width="2px"/>
<path class="bond-12" d="m364.09 112.78 5.266-15.485" fill="none" stroke="#000" stroke-width="2px"/>
<path class="bond-12" d="m360.1 108.84 3.686-10.84" fill="none" stroke="#000" stroke-width="2px"/>
<path class="bond-13" d="m367.1 88.884-9.263-10.575" fill="none" stroke="#000" stroke-width="2px"/>
<path class="bond-14" d="m343.49 76.218-3.427 0.6797" fill="none" stroke="#000" stroke-width="2px"/>
<path class="bond-14" d="m343.96 81.272-2.399 0.4757" fill="none" stroke="#000" stroke-width="2px"/>
<text x="228.719" y="80.8064" fill="#000000" font-family="sans-serif" font-size="8px"><tspan>C:1</tspan></text>
<text x="247.247" y="97.9531" fill="#000000" font-family="sans-serif" font-size="8px"><tspan>C:2</tspan></text>
<text x="236.665" y="120.873" fill="#0000FF" font-family="sans-serif" font-size="8px"><tspan>N:3</tspan></text>
<text x="211.875" y="117.891" fill="#CCCC00" font-family="sans-serif" font-size="8px"><tspan>S:4</tspan></text>
<text x="271.727" y="93.0422" fill="#FF0000" font-family="sans-serif" font-size="8px"><tspan>O:5</tspan></text>
<text x="288.644" y="112.032" fill="#000000" font-family="sans-serif" font-size="8px"><tspan>C:6</tspan></text>
<text x="280.233" y="135.932" fill="#FF0000" font-family="sans-serif" font-size="8px"><tspan>O:7</tspan></text>
<text x="313.407" y="107.121" fill="#000000" font-family="sans-serif" font-size="8px"><tspan>C:8</tspan></text>
<text x="330.041" y="126.11" fill="#000000" font-family="sans-serif" font-size="8px"><tspan>C:9</tspan></text>
<text x="351.995" y="121.199" fill="#000000" font-family="sans-serif" font-size="8px"><tspan>C:10</tspan></text>
<text x="360.123" y="97.2988" fill="#000000" font-family="sans-serif" font-size="8px"><tspan>C:11</tspan></text>
<text x="343.489" y="78.3093" fill="#000000" font-family="sans-serif" font-size="8px"><tspan>C:12</tspan></text>
<text x="318.727" y="83.2203" fill="#000000" font-family="sans-serif" font-size="8px"><tspan>C:13</tspan></text>
<text x="274.379" y="194" fill="#000000" font-family="sans-serif" font-size="12px"><tspan>comp11</tspan></text>
<path class="bond-0" d="m434.63 103.76 2.132 10.255" fill="none" stroke="#000" stroke-width="2px"/>
<path class="bond-0" d="m436.76 114.02 2.131 10.254" fill="none" stroke="#cc0" stroke-width="2px"/>
<path class="bond-1" d="m434.63 103.76 14.556-8.316" fill="none" stroke="#000" stroke-width="2px"/>
<path class="bond-1" d="m439.32 106.9 10.189-5.822" fill="none" stroke="#000" stroke-width="2px"/>
<path class="bond-2" d="m434.63 103.76-13.679-6.164" fill="none" stroke="#000" stroke-width="2px"/>
<path class="bond-3" d="m461.18 95.449 9.423 8.562" fill="none" stroke="#000" stroke-width="2px"/>
<path class="bond-4" d="m473.34 112.42-3.29 7.301" fill="none" stroke="#000" stroke-width="2px"/>
<path class="bond-4" d="m470.05 119.73-3.29 7.3" fill="none" stroke="#00f" stroke-width="2px"/>
<path class="bond-4" d="m467.75 112.54-2.303 5.11" fill="none" stroke="#000" stroke-width="2px"/>
<path class="bond-4" d="m465.45 117.65-2.303 5.111" fill="none" stroke="#00f" stroke-width="2px"/>
<path class="bond-5" d="m483.1 106.58 8.998-1.87" fill="none" stroke="#000" stroke-width="2px"/>
<path class="bond-6" d="m457 130.37-4.827-0.529" fill="none" stroke="#00f" stroke-width="2px"/>
<path class="bond-6" d="m452.18 129.84-4.827-0.53" fill="none" stroke="#cc0" stroke-width="2px"/>
<path class="bond-7" d="m501.34 98.873 5.133-15.559" fill="none" stroke="#000" stroke-width="2px"/>
<path class="bond-8" d="m503.71 107.29 9.299 10.422" fill="none" stroke="#000" stroke-width="2px"/>
<path class="bond-8" d="m508.87 105.49 6.509 7.295" fill="none" stroke="#000" stroke-width="2px"/>
<path class="bond-9" d="m524.62 120.28 8.998-1.87" fill="none" stroke="#000" stroke-width="2px"/>
<path class="bond-10" d="m542.86 112.57 5.133-15.559" fill="none" stroke="#000" stroke-width="2px"/>
<path class="bond-10" d="m538.84 108.66 3.593-10.892" fill="none" stroke="#000" stroke-width="2px"/>
<path class="bond-11" d="m545.63 88.598-9.299-10.422" fill="none" stroke="#000" stroke-width="2px"/>
<path class="bond-12" d="m557.24 91.172 2.953-0.6138" fill="none" stroke="#000" stroke-width="2px"/>
<path class="bond-12" d="m560.2 90.558 2.953-0.6139" fill="none" stroke="#f00" stroke-width="2px"/>
<path class="bond-13" d="m524.72 75.603-6.19 1.2865" fill="none" stroke="#000" stroke-width="2px"/>
<path class="bond-13" d="m524.82 80.739-4.333 0.9005" fill="none" stroke="#000" stroke-width="2px"/>
<path class="bond-14" d="m577.86 91.876 4.649 5.2107" fill="none" stroke="#f00" stroke-width="2px"/>
<path class="bond-14" d="m582.5 97.087 4.65 5.2103" fill="none" stroke="#000" stroke-width="2px"/>
<path class="bond-15" d="m411.19 89.186-0.839-8.3516" fill="none" stroke="#000" stroke-width="2px"/>
<path class="bond-15" d="m410.35 80.834-0.84-8.3516" fill="none" stroke="#f00" stroke-width="2px"/>
<text x="448.692" y="95.449" fill="#000000" font-family="sans-serif" font-size="8px"><tspan>C:1</tspan></text>
<text x="467.376" y="112.425" fill="#000000" font-family="sans-serif" font-size="8px"><tspan>C:2</tspan></text>
<text x="457.005" y="135.441" fill="#0000FF" font-family="sans-serif" font-size="8px"><tspan>N:3</tspan></text>
<text x="432.188" y="132.689" fill="#CCCC00" font-family="sans-serif" font-size="8px"><tspan>S:4</tspan></text>
<text x="492.093" y="107.288" fill="#000000" font-family="sans-serif" font-size="8px"><tspan>C:5</tspan></text>
<text x="508.9" y="126.125" fill="#000000" font-family="sans-serif" font-size="8px"><tspan>C:6</tspan></text>
<text x="533.617" y="120.987" fill="#000000" font-family="sans-serif" font-size="8px"><tspan>C:7</tspan></text>
<text x="541.526" y="97.0133" fill="#000000" font-family="sans-serif" font-size="8px"><tspan>C:8</tspan></text>
<text x="524.719" y="78.1769" fill="#000000" font-family="sans-serif" font-size="8px"><tspan>C:9</tspan></text>
<text x="497.194" y="83.3143" fill="#000000" font-family="sans-serif" font-size="8px"><tspan>C:10</tspan></text>
<text x="563.151" y="91.876" fill="#FF0000" font-family="sans-serif" font-size="8px"><tspan>O:11</tspan></text>
<text x="580.241" y="110.712" fill="#000000" font-family="sans-serif" font-size="8px"><tspan>C:12</tspan></text>
<text x="400.949" y="97.601" fill="#000000" font-family="sans-serif" font-size="8px"><tspan>C:13</tspan></text>
<text x="394.494" y="72.4829" fill="#FF0000" font-family="sans-serif" font-size="8px"><tspan>OH:14</tspan></text>
<text x="474.379" y="194" fill="#000000" font-family="sans-serif" font-size="12px"><tspan>comp13</tspan></text>
<path class="bond-0" d="m609.51 72.483 0.84 8.3516" fill="none" stroke="#f00" stroke-width="2px"/>
<path class="bond-0" d="m610.35 80.834 0.839 8.3516" fill="none" stroke="#000" stroke-width="2px"/>
<path class="bond-1" d="m619.48 96.935 7.297 3.2888" fill="none" stroke="#000" stroke-width="2px"/>
<path class="bond-2" d="m635.51 107.97 1.694 8.151" fill="none" stroke="#000" stroke-width="2px"/>
<path class="bond-2" d="m637.2 116.12 1.694 8.15" fill="none" stroke="#cc0" stroke-width="2px"/>
<path class="bond-3" d="m642 99.558 7.192-4.1088" fill="none" stroke="#000" stroke-width="2px"/>
<path class="bond-3" d="m645.58 103.32 5.034-2.876" fill="none" stroke="#000" stroke-width="2px"/>
<path class="bond-4" d="m661.18 95.449 9.423 8.562" fill="none" stroke="#000" stroke-width="2px"/>
<path class="bond-5" d="m683.1 106.58 8.998-1.87" fill="none" stroke="#000" stroke-width="2px"/>
<path class="bond-6" d="m673.34 112.42-3.29 7.301" fill="none" stroke="#000" stroke-width="2px"/>
<path class="bond-6" d="m670.05 119.73-3.29 7.3" fill="none" stroke="#00f" stroke-width="2px"/>
<path class="bond-6" d="m667.75 112.54-2.303 5.11" fill="none" stroke="#000" stroke-width="2px"/>
<path class="bond-6" d="m665.45 117.65-2.303 5.111" fill="none" stroke="#00f" stroke-width="2px"/>
<path class="bond-7" d="m701.34 98.873 5.133-15.559" fill="none" stroke="#000" stroke-width="2px"/>
<path class="bond-8" d="m703.71 107.29 9.299 10.422" fill="none" stroke="#000" stroke-width="2px"/>
<path class="bond-8" d="m708.87 105.49 6.509 7.295" fill="none" stroke="#000" stroke-width="2px"/>
<path class="bond-9" d="m724.62 120.28 8.998-1.87" fill="none" stroke="#000" stroke-width="2px"/>
<path class="bond-10" d="m742.86 112.57 5.133-15.559" fill="none" stroke="#000" stroke-width="2px"/>
<path class="bond-10" d="m738.84 108.66 3.593-10.892" fill="none" stroke="#000" stroke-width="2px"/>
<path class="bond-11" d="m757.24 91.172 4.357-0.9057" fill="none" stroke="#000" stroke-width="2px"/>
<path class="bond-11" d="m761.6 90.267 4.358-0.9057" fill="none" stroke="#f00" stroke-width="2px"/>
<path class="bond-12" d="m745.63 88.598-9.299-10.422" fill="none" stroke="#000" stroke-width="2px"/>
<path class="bond-13" d="m777.86 91.876 4.649 5.2107" fill="none" stroke="#f00" stroke-width="2px"/>
<path class="bond-13" d="m782.5 97.087 4.65 5.2103" fill="none" stroke="#000" stroke-width="2px"/>
<path class="bond-14" d="m721.91 76.187-3.381 0.7028" fill="none" stroke="#000" stroke-width="2px"/>
<path class="bond-14" d="m722.43 81.236-2.367 0.4919" fill="none" stroke="#000" stroke-width="2px"/>
<path class="bond-15" d="m654.2 130.06-2.018-0.221" fill="none" stroke="#00f" stroke-width="2px"/>
<path class="bond-15" d="m652.18 129.84-2.019-0.222" fill="none" stroke="#cc0" stroke-width="2px"/>
<text x="601.514" y="72.4829" fill="#FF0000" font-family="sans-serif" font-size="8px"><tspan>OH</tspan></text>
<text x="603.757" y="97.601" fill="#000000" font-family="sans-serif" font-size="8px"><tspan>C:1</tspan></text>
<text x="626.773" y="107.973" fill="#000000" font-family="sans-serif" font-size="8px"><tspan>C:2</tspan></text>
<text x="648.692" y="95.449" fill="#000000" font-family="sans-serif" font-size="8px"><tspan>C:3</tspan></text>
<text x="667.376" y="112.425" fill="#000000" font-family="sans-serif" font-size="8px"><tspan>C:4</tspan></text>
<text x="692.093" y="107.288" fill="#000000" font-family="sans-serif" font-size="8px"><tspan>C:5</tspan></text>
<text x="708.9" y="126.125" fill="#000000" font-family="sans-serif" font-size="8px"><tspan>C:6</tspan></text>
<text x="733.617" y="120.987" fill="#000000" font-family="sans-serif" font-size="8px"><tspan>C:7</tspan></text>
<text x="741.526" y="97.0133" fill="#000000" font-family="sans-serif" font-size="8px"><tspan>C:8</tspan></text>
<text x="765.96" y="91.876" fill="#FF0000" font-family="sans-serif" font-size="8px"><tspan>O:9</tspan></text>
<text x="780.241" y="110.712" fill="#000000" font-family="sans-serif" font-size="8px"><tspan>C:10</tspan></text>
<text x="721.91" y="78.1769" fill="#000000" font-family="sans-serif" font-size="8px"><tspan>C:11</tspan></text>
<text x="697.194" y="83.3143" fill="#000000" font-family="sans-serif" font-size="8px"><tspan>C:12</tspan></text>
<text x="654.196" y="135.441" fill="#0000FF" font-family="sans-serif" font-size="8px"><tspan>N:13</tspan></text>
<text x="629.38" y="132.689" fill="#CCCC00" font-family="sans-serif" font-size="8px"><tspan>S:14</tspan></text>
<text x="670.375" y="194" fill="#000000" font-family="sans-serif" font-size="12px"><tspan>comp598</tspan></text>
</svg>
