<?xml version="1.0" encoding="UTF-8"?>
<svg baseProfile="full" version="1.1" viewBox="0 0 800 200" xml:space="preserve" xmlns="http://www.w3.org/2000/svg">

 <!-- END OF HEADER -->
<rect width="800" height="200" fill="#fff"> </rect>
<path class="bond-0" d="m189.08 103.17-20.115 10.237" fill="none" stroke="#000" stroke-width="2px"/>
<path class="bond-0" d="m182.91 98.525-14.08 7.1659" fill="none" stroke="#000" stroke-width="2px"/>
<path class="bond-1" d="m189.08 103.17 1.525-28.857" fill="none" stroke="#000" stroke-width="2px"/>
<path class="bond-2" d="m182.02 62.753-5.648-3.6715" fill="none" stroke="#000" stroke-width="2px"/>
<path class="bond-2" d="m176.37 59.081-5.648-3.6716" fill="none" stroke="#00f" stroke-width="2px"/>
<path class="bond-2" d="m176.54 67.468-3.954-2.57" fill="none" stroke="#000" stroke-width="2px"/>
<path class="bond-2" d="m172.59 64.898-3.954-2.5701" fill="none" stroke="#00f" stroke-width="2px"/>
<path class="bond-3" d="m151.03 55.124-4.658 2.3706" fill="none" stroke="#00f" stroke-width="2px"/>
<path class="bond-3" d="m146.37 57.495-4.658 2.3706" fill="none" stroke="#000" stroke-width="2px"/>
<path class="bond-4" d="m122.02 59.58-11.295-7.343" fill="none" stroke="#000" stroke-width="2px"/>
<path class="bond-5" d="m130.61 71.143-1.22 23.076" fill="none" stroke="#000" stroke-width="2px"/>
<path class="bond-5" d="m137.35 74.97-0.855 16.153" fill="none" stroke="#000" stroke-width="2px"/>
<path class="bond-6" d="m137.98 105.78 11.296 7.343" fill="none" stroke="#000" stroke-width="2px"/>
<path class="bond-7" d="m118.28 105.5-4.658 2.371" fill="none" stroke="#000" stroke-width="2px"/>
<path class="bond-7" d="m113.62 107.87-4.658 2.37" fill="none" stroke="#00f" stroke-width="2px"/>
<path class="bond-8" d="m157.86 124.69-0.61 11.539" fill="none" stroke="#000" stroke-width="2px"/>
<path class="bond-8" d="m157.25 136.22-0.61 11.538" fill="none" stroke="#f00" stroke-width="2px"/>
<path class="bond-9" d="m89.275 109.95-5.6479-3.672" fill="none" stroke="#00f" stroke-width="2px"/>
<path class="bond-9" d="m83.628 106.28-5.6479-3.671" fill="none" stroke="#000" stroke-width="2px"/>
<path class="bond-9" d="m91.362 103.03-3.9535-2.57" fill="none" stroke="#00f" stroke-width="2px"/>
<path class="bond-9" d="m87.409 100.46-3.9536-2.57" fill="none" stroke="#000" stroke-width="2px"/>
<path class="bond-10" d="m69.392 91.047 1.2201-23.076" fill="none" stroke="#000" stroke-width="2px"/>
<path class="bond-11" d="m58.288 102.32-4.3777 2.228" fill="none" stroke="#000" stroke-width="2px"/>
<path class="bond-11" d="m53.91 104.55-4.3778 2.228" fill="none" stroke="#f00" stroke-width="2px"/>
<path class="bond-12" d="m81.717 56.693 8.7555-4.456" fill="none" stroke="#000" stroke-width="2px"/>
<path class="bond-12" d="m86.177 62.208 6.1288-3.1192" fill="none" stroke="#000" stroke-width="2px"/>
<path class="bond-13" d="m29.28 106.78-5.6479-3.672" fill="none" stroke="#f00" stroke-width="2px"/>
<path class="bond-13" d="m23.632 103.11-5.6479-3.6712" fill="none" stroke="#000" stroke-width="2px"/>
<text x="180.11" y="74.3149" fill="#000000" font-family="sans-serif" font-size="11px"><tspan>C:1</tspan></text>
<text x="151.028" y="55.4095" fill="#0000FF" font-family="sans-serif" font-size="11px"><tspan>N:2</tspan></text>
<text x="120.115" y="71.1427" fill="#000000" font-family="sans-serif" font-size="11px"><tspan>C:3</tspan></text>
<text x="118.283" y="105.781" fill="#000000" font-family="sans-serif" font-size="11px"><tspan>C:4</tspan></text>
<text x="147.365" y="124.686" fill="#000000" font-family="sans-serif" font-size="11px"><tspan>C:5</tspan></text>
<text x="140.134" y="159.325" fill="#FF0000" font-family="sans-serif" font-size="11px"><tspan>OH:6</tspan></text>
<text x="87.3697" y="121.514" fill="#0000FF" font-family="sans-serif" font-size="11px"><tspan>N:7</tspan></text>
<text x="58.2876" y="102.609" fill="#000000" font-family="sans-serif" font-size="11px"><tspan>C:8</tspan></text>
<text x="60.1191" y="67.9705" fill="#000000" font-family="sans-serif" font-size="11px"><tspan>C:9</tspan></text>
<text x="87.1739" y="52.2374" fill="#000000" font-family="sans-serif" font-size="11px"><tspan>C:10</tspan></text>
<text x="23.1267" y="118.342" fill="#FF0000" font-family="sans-serif" font-size="11px"><tspan>O:11</tspan></text>
<text x="-5.56668" y="99.4368" fill="#000000" font-family="sans-serif" font-size="11px"><tspan>C:12</tspan></text>
<text x="70.3745" y="194" fill="#000000" font-family="sans-serif" font-size="12px"><tspan>comp260</tspan></text>
</svg>
