<?xml version="1.0" encoding="UTF-8"?>
<svg baseProfile="full" version="1.1" viewBox="0 0 800 200" xml:space="preserve" xmlns="http://www.w3.org/2000/svg">

 <!-- END OF HEADER -->
<rect width="800" height="200" fill="#fff"> </rect>
<path class="bond-0" d="m166.44 92.883-10.23 5.9064" fill="none" stroke="#000" stroke-width="2px"/>
<path class="bond-0" d="m163.14 90.7-7.161 4.1345" fill="none" stroke="#000" stroke-width="2px"/>
<path class="bond-1" d="m166.44 92.883v-14.766" fill="none" stroke="#000" stroke-width="2px"/>
<path class="bond-2" d="m161.33 72.211-5.115-2.9532" fill="none" stroke="#000" stroke-width="2px"/>
<path class="bond-2" d="m158.79 74.837-3.581-2.0672" fill="none" stroke="#000" stroke-width="2px"/>
<path class="bond-3" d="m145.98 69.257-5.115 2.9532" fill="none" stroke="#000" stroke-width="2px"/>
<path class="bond-4" d="m130.24 73.371-3.007-0.9771" fill="none" stroke="#000" stroke-width="2px"/>
<path class="bond-4" d="m127.23 72.394-3.007-0.977" fill="none" stroke="#cc0" stroke-width="2px"/>
<path class="bond-5" d="m135.75 78.117v11.813" fill="none" stroke="#000" stroke-width="2px"/>
<path class="bond-5" d="m139.3 79.889v8.2689" fill="none" stroke="#000" stroke-width="2px"/>
<path class="bond-6" d="m140.87 95.836 5.115 2.9532" fill="none" stroke="#000" stroke-width="2px"/>
<path class="bond-7" d="m130.24 94.675-5.819 1.8907" fill="none" stroke="#000" stroke-width="2px"/>
<path class="bond-8" d="m116.76 95.405-6.124-8.4287" fill="none" stroke="#000" stroke-width="2px"/>
<path class="bond-8" d="m118.7 92.058-4.287-5.9001" fill="none" stroke="#000" stroke-width="2px"/>
<path class="bond-9" d="m110.63 81.07 3.062-4.2143" fill="none" stroke="#000" stroke-width="2px"/>
<path class="bond-9" d="m113.69 76.856 3.062-4.2144" fill="none" stroke="#cc0" stroke-width="2px"/>
<path class="bond-10" d="m102.97 84.023h-6.8809" fill="none" stroke="#000" stroke-width="2px"/>
<path class="bond-11" d="m88.621 81.07-3.0619-4.2143" fill="none" stroke="#000" stroke-width="2px"/>
<path class="bond-11" d="m85.559 76.856-3.0619-4.2144" fill="none" stroke="#f00" stroke-width="2px"/>
<path class="bond-12" d="m88.621 86.976-3.0619 4.2144" fill="none" stroke="#000" stroke-width="2px"/>
<path class="bond-12" d="m85.559 91.191-3.0619 4.2143" fill="none" stroke="#f00" stroke-width="2px"/>
<path class="bond-13" d="m72.666 95.861-0.8391-0.2726" fill="none" stroke="#f00" stroke-width="2px"/>
<path class="bond-13" d="m71.826 95.588-0.8391-0.2727" fill="none" stroke="#000" stroke-width="2px"/>
<path class="bond-14" d="m63.5 89.93v-11.813" fill="none" stroke="#000" stroke-width="2px"/>
<path class="bond-15" d="m62.872 95.836-2.4286 11.426" fill="none" stroke="#000" stroke-width="2px"/>
<path class="bond-16" d="m56.012 92.096-2.647-0.2782" fill="none" stroke="#000" stroke-width="2px"/>
<path class="bond-17" d="m70.987 72.731 0.8391-0.2726" fill="none" stroke="#000" stroke-width="2px"/>
<path class="bond-17" d="m71.826 72.458 0.8391-0.2727" fill="none" stroke="#f00" stroke-width="2px"/>
<path class="bond-18" d="m56.012 75.951-2.647 0.2782" fill="none" stroke="#000" stroke-width="2px"/>
<path class="bond-19" d="m62.872 72.211-2.4286-11.426" fill="none" stroke="#000" stroke-width="2px"/>
<text x="160.927" y="78.1169" fill="#000000" font-family="sans-serif" font-size="5px"><tspan>C:1</tspan></text>
<text x="145.582" y="69.2574" fill="#000000" font-family="sans-serif" font-size="5px"><tspan>C:2</tspan></text>
<text x="130.236" y="78.1169" fill="#000000" font-family="sans-serif" font-size="5px"><tspan>C:3</tspan></text>
<text x="130.236" y="95.8361" fill="#000000" font-family="sans-serif" font-size="5px"><tspan>C:4</tspan></text>
<text x="145.582" y="104.696" fill="#000000" font-family="sans-serif" font-size="5px"><tspan>C:5</tspan></text>
<text x="113.384" y="101.312" fill="#000000" font-family="sans-serif" font-size="5px"><tspan>C:6</tspan></text>
<text x="102.969" y="86.9765" fill="#000000" font-family="sans-serif" font-size="5px"><tspan>C:7</tspan></text>
<text x="113.579" y="72.6414" fill="#CCCC00" font-family="sans-serif" font-size="5px"><tspan>S:8</tspan></text>
<text x="85.4452" y="86.9765" fill="#000000" font-family="sans-serif" font-size="5px"><tspan>B:9</tspan></text>
<text x="72.6655" y="101.312" fill="#FF0000" font-family="sans-serif" font-size="5px"><tspan>O:10</tspan></text>
<text x="56.0122" y="95.8361" fill="#000000" font-family="sans-serif" font-size="5px"><tspan>C:11</tspan></text>
<text x="56.0122" y="78.1169" fill="#000000" font-family="sans-serif" font-size="5px"><tspan>C:12</tspan></text>
<text x="72.6655" y="72.6414" fill="#FF0000" font-family="sans-serif" font-size="5px"><tspan>O:13</tspan></text>
<text x="38.3901" y="79.9691" fill="#000000" font-family="sans-serif" font-size="5px"><tspan>C:14</tspan></text>
<text x="52.3282" y="60.785" fill="#000000" font-family="sans-serif" font-size="5px"><tspan>C:15</tspan></text>
<text x="52.3282" y="113.168" fill="#000000" font-family="sans-serif" font-size="5px"><tspan>C:16</tspan></text>
<text x="38.3901" y="93.9839" fill="#000000" font-family="sans-serif" font-size="5px"><tspan>C:17</tspan></text>
<text x="70.3745" y="194" fill="#000000" font-family="sans-serif" font-size="12px"><tspan>comp423</tspan></text>
<path class="bond-0" d="m390.91 74.691-9.741 9.2447" fill="none" stroke="#000" stroke-width="2px"/>
<path class="bond-0" d="m387.01 73.508-6.818 6.4713" fill="none" stroke="#000" stroke-width="2px"/>
<path class="bond-1" d="m390.91 74.691-3.428-14.276" fill="none" stroke="#000" stroke-width="2px"/>
<path class="bond-2" d="m381.26 55.828-5.957-1.7641" fill="none" stroke="#000" stroke-width="2px"/>
<path class="bond-2" d="m379.36 58.962-4.17-1.2349" fill="none" stroke="#000" stroke-width="2px"/>
<path class="bond-3" d="m366.67 55.384-6.629 6.2915" fill="none" stroke="#000" stroke-width="2px"/>
<path class="bond-4" d="m351.41 64.195-6.632-0.5214" fill="none" stroke="#000" stroke-width="2px"/>
<path class="bond-5" d="m357.64 67.582 2.719 11.323" fill="none" stroke="#000" stroke-width="2px"/>
<path class="bond-5" d="m361.49 68.453 1.904 7.9261" fill="none" stroke="#000" stroke-width="2px"/>
<path class="bond-6" d="m366.58 83.491 5.957 1.7641" fill="none" stroke="#000" stroke-width="2px"/>
<path class="bond-7" d="m356.25 84.811-2.736 1.6764" fill="none" stroke="#000" stroke-width="2px"/>
<path class="bond-7" d="m353.51 86.487-2.735 1.6764" fill="none" stroke="#cc0" stroke-width="2px"/>
<path class="bond-8" d="m342.5 88.164-3.28-2.8002" fill="none" stroke="#cc0" stroke-width="2px"/>
<path class="bond-8" d="m339.22 85.364-3.279-2.8002" fill="none" stroke="#000" stroke-width="2px"/>
<path class="bond-9" d="m333.71 76.657 4.334-10.464" fill="none" stroke="#000" stroke-width="2px"/>
<path class="bond-9" d="m337.63 76.443 3.034-7.3251" fill="none" stroke="#000" stroke-width="2px"/>
<path class="bond-10" d="m326.97 80.935-3.098 0.7441" fill="none" stroke="#000" stroke-width="2px"/>
<path class="bond-10" d="m323.87 81.679-3.099 0.744" fill="none" stroke="#00f" stroke-width="2px"/>
<path class="bond-11" d="m314.38 86.701-1.641 5.5417" fill="none" stroke="#00f" stroke-width="2px"/>
<path class="bond-11" d="m312.74 92.243-1.641 5.5417" fill="none" stroke="#cc0" stroke-width="2px"/>
<path class="bond-12" d="m312.45 80.795-3.296-3.4729" fill="none" stroke="#00f" stroke-width="2px"/>
<path class="bond-12" d="m309.16 77.322-3.296-3.473" fill="none" stroke="#000" stroke-width="2px"/>
<path class="bond-13" d="m317.01 104.6 1.006 0.298" fill="none" stroke="#cc0" stroke-width="2px"/>
<path class="bond-13" d="m318.02 104.89 1.005 0.298" fill="none" stroke="#f00" stroke-width="2px"/>
<path class="bond-13" d="m318.02 101.2 1.006 0.298" fill="none" stroke="#cc0" stroke-width="2px"/>
<path class="bond-13" d="m319.03 101.5 1.005 0.298" fill="none" stroke="#f00" stroke-width="2px"/>
<path class="bond-14" d="m303.44 96.879-1.005-0.2978" fill="none" stroke="#cc0" stroke-width="2px"/>
<path class="bond-14" d="m302.43 96.581-1.006-0.2978" fill="none" stroke="#f00" stroke-width="2px"/>
<path class="bond-14" d="m302.43 100.28-1.006-0.2978" fill="none" stroke="#cc0" stroke-width="2px"/>
<path class="bond-14" d="m301.42 99.979-1.005-0.2978" fill="none" stroke="#f00" stroke-width="2px"/>
<path class="bond-15" d="m309.35 103.69-1.641 5.542" fill="none" stroke="#cc0" stroke-width="2px"/>
<path class="bond-15" d="m307.71 109.23-1.641 5.541" fill="none" stroke="#000" stroke-width="2px"/>
<path class="bond-16" d="m308 120.68 6.592 6.945" fill="none" stroke="#000" stroke-width="2px"/>
<path class="bond-17" d="m316.52 133.53-1.642 5.541" fill="none" stroke="#000" stroke-width="2px"/>
<path class="bond-17" d="m314.88 139.07-1.641 5.542" fill="none" stroke="#7F4C19" stroke-width="2px"/>
<path class="bond-18" d="m295.57 72.694-2.255 0.5413" fill="none" stroke="#000" stroke-width="2px"/>
<path class="bond-19" d="m284.95 77.986-3.282 11.083" fill="none" stroke="#000" stroke-width="2px"/>
<path class="bond-20" d="m283.03 72.08-6.592-6.9459" fill="none" stroke="#000" stroke-width="2px"/>
<path class="bond-20" d="m279.47 73.478-4.615-4.8621" fill="none" stroke="#000" stroke-width="2px"/>
<path class="bond-21" d="m266.14 63.979-2.254 0.5413" fill="none" stroke="#000" stroke-width="2px"/>
<path class="bond-22" d="m255.53 69.272-3.282 11.083" fill="none" stroke="#000" stroke-width="2px"/>
<path class="bond-22" d="m258.43 71.941-2.298 7.7584" fill="none" stroke="#000" stroke-width="2px"/>
<path class="bond-23" d="m254.17 86.262 6.592 6.9458" fill="none" stroke="#000" stroke-width="2px"/>
<path class="bond-24" d="m243.88 85.107-1.028 0.2468" fill="none" stroke="#000" stroke-width="2px"/>
<path class="bond-24" d="m242.86 85.353-1.028 0.2468" fill="none" stroke="#f00" stroke-width="2px"/>
<path class="bond-25" d="m271.06 94.362 2.254-0.5413" fill="none" stroke="#000" stroke-width="2px"/>
<path class="bond-25" d="m270.57 90.835 1.578-0.3789" fill="none" stroke="#000" stroke-width="2px"/>
<path class="bond-26" d="m231.34 84.493-3.296-3.4729" fill="none" stroke="#f00" stroke-width="2px"/>
<path class="bond-26" d="m228.04 81.02-3.296-3.4729" fill="none" stroke="#000" stroke-width="2px"/>
<path class="bond-27" d="m219.14 71.641-3.296-3.4729" fill="none" stroke="#000" stroke-width="2px"/>
<path class="bond-27" d="m215.84 68.168-3.296-3.4729" fill="none" stroke="#3cc" stroke-width="2px"/>
<path class="bond-28" d="m218.83 77.547-3.315 3.1458" fill="none" stroke="#000" stroke-width="2px"/>
<path class="bond-28" d="m215.52 80.693-3.314 3.1457" fill="none" stroke="#3cc" stroke-width="2px"/>
<path class="bond-29" d="m225.06 71.641 3.314-3.1457" fill="none" stroke="#000" stroke-width="2px"/>
<path class="bond-29" d="m228.37 68.495 3.315-3.1458" fill="none" stroke="#3cc" stroke-width="2px"/>
<text x="381.255" y="60.4152" fill="#000000" font-family="sans-serif" font-size="5px"><tspan>C:1</tspan></text>
<text x="364.265" y="55.3838" fill="#000000" font-family="sans-serif" font-size="5px"><tspan>C:2</tspan></text>
<text x="351.413" y="67.5817" fill="#000000" font-family="sans-serif" font-size="5px"><tspan>C:3</tspan></text>
<text x="355.551" y="84.811" fill="#000000" font-family="sans-serif" font-size="5px"><tspan>C:4</tspan></text>
<text x="372.541" y="89.8424" fill="#000000" font-family="sans-serif" font-size="5px"><tspan>C:5</tspan></text>
<text x="340.638" y="94.0702" fill="#CCCC00" font-family="sans-serif" font-size="5px"><tspan>S:6</tspan></text>
<text x="326.969" y="82.5634" fill="#000000" font-family="sans-serif" font-size="5px"><tspan>C:7</tspan></text>
<text x="333.749" y="66.1927" fill="#000000" font-family="sans-serif" font-size="5px"><tspan>C:8</tspan></text>
<text x="309.74" y="86.701" fill="#0000FF" font-family="sans-serif" font-size="5px"><tspan>N:9</tspan></text>
<text x="302.932" y="103.691" fill="#CCCC00" font-family="sans-serif" font-size="5px"><tspan>S:10</tspan></text>
<text x="319.528" y="108.722" fill="#FF0000" font-family="sans-serif" font-size="5px"><tspan>O:11</tspan></text>
<text x="285.549" y="98.6594" fill="#FF0000" font-family="sans-serif" font-size="5px"><tspan>O:12</tspan></text>
<text x="297.706" y="120.681" fill="#000000" font-family="sans-serif" font-size="5px"><tspan>C:13</tspan></text>
<text x="309.904" y="133.533" fill="#000000" font-family="sans-serif" font-size="5px"><tspan>C:14</tspan></text>
<text x="303.887" y="150.523" fill="#7F4C19" font-family="sans-serif" font-size="5px"><tspan>Br:15</tspan></text>
<text x="295.571" y="73.8488" fill="#000000" font-family="sans-serif" font-size="5px"><tspan>C:16</tspan></text>
<text x="278.341" y="77.9864" fill="#000000" font-family="sans-serif" font-size="5px"><tspan>C:17</tspan></text>
<text x="266.143" y="65.1342" fill="#000000" font-family="sans-serif" font-size="5px"><tspan>C:18</tspan></text>
<text x="248.914" y="69.2718" fill="#000000" font-family="sans-serif" font-size="5px"><tspan>C:19</tspan></text>
<text x="243.883" y="86.2616" fill="#000000" font-family="sans-serif" font-size="5px"><tspan>C:20</tspan></text>
<text x="256.081" y="99.1138" fill="#000000" font-family="sans-serif" font-size="5px"><tspan>C:21</tspan></text>
<text x="273.31" y="94.9762" fill="#000000" font-family="sans-serif" font-size="5px"><tspan>C:22</tspan></text>
<text x="226.455" y="90.3992" fill="#FF0000" font-family="sans-serif" font-size="5px"><tspan>O:23</tspan></text>
<text x="214.456" y="77.547" fill="#000000" font-family="sans-serif" font-size="5px"><tspan>C:24</tspan></text>
<text x="202.651" y="64.6948" fill="#33CCCC" font-family="sans-serif" font-size="5px"><tspan>F:25</tspan></text>
<text x="201.997" y="89.7449" fill="#33CCCC" font-family="sans-serif" font-size="5px"><tspan>F:26</tspan></text>
<text x="227.701" y="65.3491" fill="#33CCCC" font-family="sans-serif" font-size="5px"><tspan>F:27</tspan></text>
<text x="270.375" y="194" fill="#000000" font-family="sans-serif" font-size="12px"><tspan>comp429</tspan></text>
</svg>
