<?xml version="1.0" encoding="UTF-8"?>
<svg baseProfile="full" version="1.1" viewBox="0 0 800 200" xml:space="preserve" xmlns="http://www.w3.org/2000/svg">

 <!-- END OF HEADER -->
<rect width="800" height="200" fill="#fff"> </rect>
<path class="bond-0" d="m71.812 49.769 10.226 6.431" fill="none" stroke="#000" stroke-width="2px"/>
<path class="bond-0" d="m82.038 56.2 10.226 6.4311" fill="none" stroke="#00f" stroke-width="2px"/>
<path class="bond-1" d="m71.812 49.769-10.076 5.3207" fill="none" stroke="#000" stroke-width="2px"/>
<path class="bond-1" d="m61.736 55.09-10.076 5.3206" fill="none" stroke="#00f" stroke-width="2px"/>
<path class="bond-1" d="m72.074 57.586-7.0535 3.7244" fill="none" stroke="#000" stroke-width="2px"/>
<path class="bond-1" d="m65.02 61.31-7.0534 3.7244" fill="none" stroke="#00f" stroke-width="2px"/>
<path class="bond-2" d="m71.812 49.769 1.1069-29.285" fill="none" stroke="#000" stroke-width="2px"/>
<path class="bond-3" d="m40.488 72.055-0.4427 11.712" fill="none" stroke="#00f" stroke-width="2px"/>
<path class="bond-3" d="m40.045 83.766-0.4426 11.712" fill="none" stroke="#000" stroke-width="2px"/>
<path class="bond-4" d="m32.354 107.2-12.954 10.807" fill="none" stroke="#000" stroke-width="2px"/>
<path class="bond-4" d="m34.917 114.22-9.0681 7.564" fill="none" stroke="#000" stroke-width="2px"/>
<path class="bond-5" d="m48.702 107.2 5.5655 3.5" fill="none" stroke="#000" stroke-width="2px"/>
<path class="bond-5" d="m54.268 110.7 5.5655 3.5" fill="none" stroke="#00f" stroke-width="2px"/>
<path class="bond-6" d="m80.105 114.28 4.6013-2.43" fill="none" stroke="#00f" stroke-width="2px"/>
<path class="bond-6" d="m84.706 111.85 4.6013-2.429" fill="none" stroke="#000" stroke-width="2px"/>
<path class="bond-7" d="m67.676 125.93-5.648 22.379" fill="none" stroke="#00f" stroke-width="2px"/>
<path class="bond-8" d="m100.48 97.779 0.443-11.712" fill="none" stroke="#000" stroke-width="2px"/>
<path class="bond-8" d="m100.92 86.067 0.443-11.712" fill="none" stroke="#00f" stroke-width="2px"/>
<path class="bond-8" d="m93.583 93.999 0.3099-8.1981" fill="none" stroke="#000" stroke-width="2px"/>
<path class="bond-8" d="m93.893 85.801 0.3098-8.1981" fill="none" stroke="#00f" stroke-width="2px"/>
<path class="bond-9" d="m109.58 109.5 11.131 7" fill="none" stroke="#000" stroke-width="2px"/>
<path class="bond-10" d="m140.98 116.58 9.203-4.86" fill="none" stroke="#000" stroke-width="2px"/>
<path class="bond-11" d="m170.46 111.8 11.131 7" fill="none" stroke="#000" stroke-width="2px"/>
<path class="bond-12" d="m49.598 154.9-4.6404 0.311" fill="none" stroke="#00f" stroke-width="2px"/>
<path class="bond-12" d="m44.958 155.21-4.6404 0.311" fill="none" stroke="#000" stroke-width="2px"/>
<path class="bond-12" d="m47.736 147.98-3.2483 0.218" fill="none" stroke="#00f" stroke-width="2px"/>
<path class="bond-12" d="m44.487 148.19-3.2483 0.217" fill="none" stroke="#000" stroke-width="2px"/>
<path class="bond-13" d="m23.106 150.66-8.3844-20.925" fill="none" stroke="#000" stroke-width="2px"/>
<text x="29.7592" y="72.0546" fill="#0000FF" font-family="sans-serif" font-size="11px"><tspan>N:1</tspan></text>
<text x="28.4308" y="107.202" fill="#000000" font-family="sans-serif" font-size="11px"><tspan>C:2</tspan></text>
<text x="58.2051" y="125.926" fill="#0000FF" font-family="sans-serif" font-size="11px"><tspan>N:3</tspan></text>
<text x="89.3078" y="109.503" fill="#000000" font-family="sans-serif" font-size="11px"><tspan>C:4</tspan></text>
<text x="90.6362" y="74.3554" fill="#0000FF" font-family="sans-serif" font-size="11px"><tspan>N:5</tspan></text>
<text x="119.082" y="128.227" fill="#000000" font-family="sans-serif" font-size="11px"><tspan>C:6</tspan></text>
<text x="150.185" y="111.804" fill="#000000" font-family="sans-serif" font-size="11px"><tspan>C:7</tspan></text>
<text x="179.959" y="130.528" fill="#000000" font-family="sans-serif" font-size="11px"><tspan>C:8</tspan></text>
<text x="49.5982" y="160.029" fill="#0000FF" font-family="sans-serif" font-size="11px"><tspan>N:9</tspan></text>
<text x="10.5918" y="162.382" fill="#000000" font-family="sans-serif" font-size="11px"><tspan>C:10</tspan></text>
<text x="-2.49036" y="129.733" fill="#000000" font-family="sans-serif" font-size="11px"><tspan>C:11</tspan></text>
<text x="58.2775" y="20.484" fill="#000000" font-family="sans-serif" font-size="11px"><tspan>C:12</tspan></text>
<text x="70.3745" y="194" fill="#000000" font-family="sans-serif" font-size="12px"><tspan>comp113</tspan></text>
<path class="bond-0" d="m238.77 170.24 20.796 9.92" fill="none" stroke="#000" stroke-width="2px"/>
<path class="bond-1" d="m238.77 170.24 3.821-29.01" fill="none" stroke="#000" stroke-width="2px"/>
<path class="bond-1" d="m246.32 166.8 2.674-20.307" fill="none" stroke="#000" stroke-width="2px"/>
<path class="bond-2" d="m254.31 133.33 6.342-1.175" fill="none" stroke="#000" stroke-width="2px"/>
<path class="bond-2" d="m260.65 132.16 6.342-1.175" fill="none" stroke="#00f" stroke-width="2px"/>
<path class="bond-3" d="m238.36 129.5-6.415-7.511" fill="none" stroke="#000" stroke-width="2px"/>
<path class="bond-3" d="m231.94 121.99-6.414-7.511" fill="none" stroke="#00f" stroke-width="2px"/>
<path class="bond-4" d="m222.6 102.76 3.795-10.715" fill="none" stroke="#00f" stroke-width="2px"/>
<path class="bond-4" d="m226.39 92.04 3.795-10.715" fill="none" stroke="#000" stroke-width="2px"/>
<path class="bond-4" d="m230.37 101.89 2.656-7.501" fill="none" stroke="#00f" stroke-width="2px"/>
<path class="bond-4" d="m233.02 94.388 2.657-7.5006" fill="none" stroke="#000" stroke-width="2px"/>
<path class="bond-5" d="m243.21 73.433 6.342-1.1751" fill="none" stroke="#000" stroke-width="2px"/>
<path class="bond-5" d="m249.56 72.258 6.341-1.1751" fill="none" stroke="#00f" stroke-width="2px"/>
<path class="bond-6" d="m227.26 69.6-6.415-7.5111" fill="none" stroke="#000" stroke-width="2px"/>
<path class="bond-6" d="m220.84 62.089-6.414-7.5112" fill="none" stroke="#cc0" stroke-width="2px"/>
<path class="bond-7" d="m271.85 74.916 6.414 7.5111" fill="none" stroke="#00f" stroke-width="2px"/>
<path class="bond-7" d="m278.27 82.428 6.415 7.5111" fill="none" stroke="#000" stroke-width="2px"/>
<path class="bond-7" d="m268.43 81.738 4.49 5.2578" fill="none" stroke="#00f" stroke-width="2px"/>
<path class="bond-7" d="m272.92 86.996 4.49 5.2578" fill="none" stroke="#000" stroke-width="2px"/>
<path class="bond-8" d="m287.61 101.66-3.795 10.715" fill="none" stroke="#000" stroke-width="2px"/>
<path class="bond-8" d="m283.82 112.38-3.795 10.715" fill="none" stroke="#00f" stroke-width="2px"/>
<path class="bond-9" d="m300.64 93.772 6.342-1.1751" fill="none" stroke="#000" stroke-width="2px"/>
<path class="bond-9" d="m306.98 92.597 6.342-1.175" fill="none" stroke="#00f" stroke-width="2px"/>
<path class="bond-10" d="m281.13 134.82 10.416 19.187" fill="none" stroke="#00f" stroke-width="2px"/>
<path class="bond-11" d="m289.16 165.73-6.543 6.894" fill="none" stroke="#00f" stroke-width="2px"/>
<path class="bond-11" d="m282.62 172.62-6.543 6.894" fill="none" stroke="#000" stroke-width="2px"/>
<path class="bond-11" d="m282.1 162.95-4.58 4.826" fill="none" stroke="#00f" stroke-width="2px"/>
<path class="bond-11" d="m277.52 167.78-4.579 4.825" fill="none" stroke="#000" stroke-width="2px"/>
<path class="bond-12" d="m326.35 83.53 3.795-10.715" fill="none" stroke="#00f" stroke-width="2px"/>
<path class="bond-12" d="m330.14 72.815 3.795-10.715" fill="none" stroke="#000" stroke-width="2px"/>
<path class="bond-13" d="m329.28 95.255 6.414 7.5113" fill="none" stroke="#00f" stroke-width="2px"/>
<path class="bond-13" d="m335.69 102.77 6.415 7.511" fill="none" stroke="#000" stroke-width="2px"/>
<path class="bond-14" d="m350.88 53.484 4.858-0.9002" fill="none" stroke="#000" stroke-width="2px"/>
<path class="bond-15" d="m361.98 113.38 4.858-0.9" fill="none" stroke="#000" stroke-width="2px"/>
<path class="bond-16" d="m211.5 42.854 3.795-10.715" fill="none" stroke="#cc0" stroke-width="2px"/>
<path class="bond-16" d="m215.29 32.139 3.795-10.715" fill="none" stroke="#000" stroke-width="2px"/>
<text x="232.412" y="141.225" fill="#000000" font-family="sans-serif" font-size="11px"><tspan>C:1</tspan></text>
<text x="209.57" y="114.479" fill="#0000FF" font-family="sans-serif" font-size="11px"><tspan>N:2</tspan></text>
<text x="221.313" y="81.3244" fill="#000000" font-family="sans-serif" font-size="11px"><tspan>C:3</tspan></text>
<text x="255.896" y="74.9164" fill="#0000FF" font-family="sans-serif" font-size="11px"><tspan>N:4</tspan></text>
<text x="278.738" y="101.663" fill="#000000" font-family="sans-serif" font-size="11px"><tspan>C:5</tspan></text>
<text x="266.996" y="134.817" fill="#0000FF" font-family="sans-serif" font-size="11px"><tspan>N:6</tspan></text>
<text x="283.777" y="165.728" fill="#0000FF" font-family="sans-serif" font-size="11px"><tspan>N:7</tspan></text>
<text x="259.565" y="191.24" fill="#000000" font-family="sans-serif" font-size="11px"><tspan>C:8</tspan></text>
<text x="313.322" y="95.2547" fill="#0000FF" font-family="sans-serif" font-size="11px"><tspan>N:9</tspan></text>
<text x="321.151" y="62.1002" fill="#000000" font-family="sans-serif" font-size="11px"><tspan>C:10</tspan></text>
<text x="355.735" y="55.6922" fill="#000000" font-family="sans-serif" font-size="11px"><tspan>C:11</tspan></text>
<text x="332.25" y="122.001" fill="#000000" font-family="sans-serif" font-size="11px"><tspan>C:12</tspan></text>
<text x="366.834" y="115.593" fill="#000000" font-family="sans-serif" font-size="11px"><tspan>C:13</tspan></text>
<text x="194.946" y="54.578" fill="#CCCC00" font-family="sans-serif" font-size="11px"><tspan>S:14</tspan></text>
<text x="206.301" y="21.4236" fill="#000000" font-family="sans-serif" font-size="11px"><tspan>C:15</tspan></text>
<text x="270.375" y="194" fill="#000000" font-family="sans-serif" font-size="12px"><tspan>comp114</tspan></text>
<path class="bond-0" d="m472.3 141.25-6.428-7.46" fill="none" stroke="#00f" stroke-width="2px"/>
<path class="bond-0" d="m465.87 133.79-6.429-7.461" fill="none" stroke="#000" stroke-width="2px"/>
<path class="bond-1" d="m482.43 146.15 9.262-1.759" fill="none" stroke="#00f" stroke-width="2px"/>
<path class="bond-1" d="m491.69 144.39 9.263-1.758" fill="none" stroke="#000" stroke-width="2px"/>
<path class="bond-1" d="m483.9 138.71 6.483-1.231" fill="none" stroke="#00f" stroke-width="2px"/>
<path class="bond-1" d="m490.38 137.48 6.484-1.231" fill="none" stroke="#000" stroke-width="2px"/>
<path class="bond-2" d="m513.95 134.69 3.751-10.741" fill="none" stroke="#000" stroke-width="2px"/>
<path class="bond-2" d="m517.7 123.95 3.751-10.741" fill="none" stroke="#00f" stroke-width="2px"/>
<path class="bond-3" d="m516.96 146.41 12.857 14.921" fill="none" stroke="#000" stroke-width="2px"/>
<path class="bond-4" d="m518.45 101.48-6.429-7.4607" fill="none" stroke="#00f" stroke-width="2px"/>
<path class="bond-4" d="m512.02 94.023-6.428-7.4607" fill="none" stroke="#000" stroke-width="2px"/>
<path class="bond-4" d="m511.19 103.84-4.5-5.2229" fill="none" stroke="#00f" stroke-width="2px"/>
<path class="bond-4" d="m506.69 98.615-4.5-5.2225" fill="none" stroke="#000" stroke-width="2px"/>
<path class="bond-5" d="m489.59 82.779-6.328 1.2013" fill="none" stroke="#000" stroke-width="2px"/>
<path class="bond-5" d="m483.26 83.981-6.327 1.2013" fill="none" stroke="#00f" stroke-width="2px"/>
<path class="bond-6" d="m502.59 74.838 3.751-10.741" fill="none" stroke="#000" stroke-width="2px"/>
<path class="bond-6" d="m506.34 64.098 3.751-10.741" fill="none" stroke="#00f" stroke-width="2px"/>
<path class="bond-7" d="m458.28 81.399-12.58-9.5656" fill="none" stroke="#00f" stroke-width="2px"/>
<path class="bond-8" d="m463.94 93.123-3.751 10.741" fill="none" stroke="#00f" stroke-width="2px"/>
<path class="bond-8" d="m460.19 103.86-3.75 10.741" fill="none" stroke="#000" stroke-width="2px"/>
<path class="bond-9" d="m443.44 120.23-13.264-0.29" fill="none" stroke="#000" stroke-width="2px"/>
<path class="bond-9" d="m441.6 113.15-9.285-0.203" fill="none" stroke="#000" stroke-width="2px"/>
<path class="bond-10" d="m417.46 113.84-6.608-21.956" fill="none" stroke="#000" stroke-width="2px"/>
<path class="bond-11" d="m417.54 80.157 6-4.162" fill="none" stroke="#000" stroke-width="2px"/>
<path class="bond-11" d="m423.54 75.995 5.999-4.1619" fill="none" stroke="#00f" stroke-width="2px"/>
<path class="bond-11" d="m423.35 84.688 4.199-2.9134" fill="none" stroke="#000" stroke-width="2px"/>
<path class="bond-11" d="m427.55 81.775 4.2-2.9134" fill="none" stroke="#00f" stroke-width="2px"/>
<path class="bond-12" d="m528.17 44.451 1.831-0.3475" fill="none" stroke="#00f" stroke-width="2px"/>
<path class="bond-12" d="m530 44.104 1.83-0.3476" fill="none" stroke="#000" stroke-width="2px"/>
<text x="472.269" y="152.974" fill="#0000FF" font-family="sans-serif" font-size="11px"><tspan>N</tspan></text>
<text x="500.956" y="146.414" fill="#000000" font-family="sans-serif" font-size="11px"><tspan>C:1</tspan></text>
<text x="512.552" y="113.208" fill="#0000FF" font-family="sans-serif" font-size="11px"><tspan>N:2</tspan></text>
<text x="489.593" y="86.5626" fill="#000000" font-family="sans-serif" font-size="11px"><tspan>C:3</tspan></text>
<text x="455.038" y="93.123" fill="#0000FF" font-family="sans-serif" font-size="11px"><tspan>N:4</tspan></text>
<text x="443.441" y="126.329" fill="#000000" font-family="sans-serif" font-size="11px"><tspan>C:5</tspan></text>
<text x="408.277" y="125.561" fill="#000000" font-family="sans-serif" font-size="11px"><tspan>C:6</tspan></text>
<text x="398.141" y="91.8812" fill="#000000" font-family="sans-serif" font-size="11px"><tspan>C:7</tspan></text>
<text x="427.04" y="71.8332" fill="#0000FF" font-family="sans-serif" font-size="11px"><tspan>N:8</tspan></text>
<text x="496.108" y="53.3568" fill="#0000FF" font-family="sans-serif" font-size="11px"><tspan>NH:9</tspan></text>
<text x="531.831" y="46.7965" fill="#000000" font-family="sans-serif" font-size="11px"><tspan>C:10</tspan></text>
<text x="520.002" y="173.06" fill="#000000" font-family="sans-serif" font-size="11px"><tspan>C:11</tspan></text>
<text x="470.375" y="194" fill="#000000" font-family="sans-serif" font-size="12px"><tspan>comp117</tspan></text>
</svg>
